<?xml version="1.0" standalone="no"?>
<!DOCTYPE svg PUBLIC "-//W3C//DTD SVG 20010904//EN"
 "http://www.w3.org/TR/2001/REC-SVG-20010904/DTD/svg10.dtd">
<svg version="1.0" xmlns="http://www.w3.org/2000/svg"
 width="243.000000pt" height="243.000000pt" viewBox="0 0 243.000000 243.000000"
 preserveAspectRatio="xMidYMid meet">
<metadata>
Created by potrace 1.11, written by Peter Selinger 2001-2013
</metadata>
<g transform="translate(0.000000,243.000000) scale(0.100000,-0.100000)"
fill="#000000" stroke="none">
<path d="M1059 1856 c-2 -2 -33 -7 -67 -10 -187 -20 -375 -72 -537 -151 -232
-112 -380 -263 -434 -442 -20 -67 -28 -196 -9 -153 66 152 81 175 161 259 155
161 422 284 724 335 95 16 157 20 318 20 185 1 268 -6 380 -31 17 -4 35 -8 40
-9 379 -79 696 -306 773 -554 l17 -55 3 42 c13 173 -106 369 -303 503 -174
118 -362 185 -655 235 -39 7 -405 17 -411 11z"/>
<path d="M1098 1505 c-2 -2 -32 -6 -68 -9 -139 -14 -306 -63 -431 -127 -155
-78 -274 -199 -316 -322 -18 -52 -29 -175 -12 -137 6 14 20 45 31 70 49 110
158 210 313 287 296 148 722 171 1062 57 234 -78 399 -212 469 -381 22 -55 24
-56 23 -23 -9 328 -402 574 -931 585 -76 1 -139 1 -140 0z"/>
<path d="M1050 1145 c-208 -36 -371 -137 -430 -266 -21 -47 -27 -105 -10 -94
5 3 10 14 10 24 0 10 25 45 56 79 110 122 280 188 507 197 53 3 97 1 97 -4 0
-4 -9 -16 -19 -25 -11 -10 -29 -40 -41 -67 -85 -200 63 -414 281 -405 82 3
143 31 198 91 37 40 83 122 80 143 -7 49 16 33 36 -24 l14 -39 1 33 c1 76 -54
170 -133 230 -70 52 -185 100 -297 123 -76 16 -271 18 -350 4z m584 -218 c18
-28 -13 -71 -51 -75 -65 -6 -82 84 -21 107 25 10 54 -3 72 -32z"/>
</g>
</svg>
