<?xml version="1.0" encoding="UTF-8" standalone="no"?>
<!-- Created with Inkscape (http://www.inkscape.org/) -->

<svg
   xmlns:dc="http://purl.org/dc/elements/1.1/"
   xmlns:cc="http://creativecommons.org/ns#"
   xmlns:rdf="http://www.w3.org/1999/02/22-rdf-syntax-ns#"
   xmlns:svg="http://www.w3.org/2000/svg"
   xmlns="http://www.w3.org/2000/svg"
   version="1.1"
   width="65.879997"
   height="44.374748"
   id="svg436406">
  <defs
     id="defs436408">
    <clipPath
       id="clipPath2948">
      <path
         d="m 365.624,3484.226 53.586,0 0,25.206 -53.586,0 0,-25.206 z"
         id="path2950" />
    </clipPath>
    <clipPath
       id="clipPath548">
      <path
         d="m 501.624,3484.226 53.586,0 0,25.206 -53.586,0 0,-25.206 z"
         id="path550" />
    </clipPath>
    <clipPath
       id="clipPath604">
      <path
         d="m 640.533,3488.299 43.968,0 0,20.978 -43.968,0 0,-20.978 z"
         id="path606" />
    </clipPath>
    <clipPath
       id="clipPath616">
      <path
         d="m 765.748,3488.299 44.127,0 0,21.27 -44.127,0 0,-21.27 z"
         id="path618" />
    </clipPath>
  </defs>
  <metadata
     id="metadata436411">
    <rdf:RDF>
      <cc:Work
         rdf:about="">
        <dc:format>image/svg+xml</dc:format>
        <dc:type
           rdf:resource="http://purl.org/dc/dcmitype/StillImage" />
        <dc:title></dc:title>
      </cc:Work>
    </rdf:RDF>
  </metadata>
  <g
     transform="translate(-327.31473,154.80652)"
     id="layer1">
    <path
       d="m 369.70848,-114.96677 -3.34,0 0,-2.165 -11.8975,0 0,2.165 -2.76,0 c -2.58125,0 -4.6825,2.02375 -4.69375,4.535 l 27.38625,0 c -0.0113,-2.51125 -2.10875,-4.535 -4.695,-4.535"
       id="path514"
       style="fill:#000000;fill-opacity:1;fill-rule:nonzero;stroke:none" />
    <path
       d="m 360.22848,-119.74402 c -1.41,0 -2.5525,-0.8125 -2.5525,-1.82375 0,-1.00375 1.1425,-1.82625 2.5525,-1.82625 1.41,0 2.55625,0.8225 2.55625,1.82625 0,1.01125 -1.14625,1.82375 -2.55625,1.82375 m 28.63625,-35.0625 -26.74375,0 c -0.25,0.9925 15.375,2.01 15.06125,3.04 l 9.83125,0 c 0.9875,0 1.79125,0.595 1.79125,1.335 l 0,25.2525 -57.1025,0 0,-25.2525 c 0,-0.74 0.80375,-1.335 1.79875,-1.335 l 45.32375,0 c 1.455,-1.0925 4.0825,-3.04 -0.7875,-3.04 l -46.39625,0 c -2.3925,0 -4.32625,1.43875 -4.32625,3.21375 l 0,30.65 c 0,1.77875 1.93375,3.21625 4.32625,3.21625 l 57.22375,0 c 2.3925,0 4.33,-1.4375 4.33,-3.21625 l 0,-30.65 c 0,-1.775 -1.9375,-3.21375 -4.33,-3.21375"
       id="path518"
       style="fill:#000000;fill-opacity:1;fill-rule:nonzero;stroke:none" />
    <g
       transform="matrix(1.25,0,0,-1.25,-627.14452,4235.1936)"
       id="g612"
       style="fill:#000000">
      <g
         clip-path="url(#clipPath616)"
         id="g614"
         style="fill:#000000">
        <g
           transform="translate(801.9287,3498.5576)"
           id="g620"
           style="fill:#000000">
          <path
             d="m 0,0 c -1.557,0 -3.082,0.465 -4.304,1.314 l -4.693,-0.311 2.108,4.041 c -0.089,0.404 -0.134,0.808 -0.134,1.204 0,3.442 3.152,6.245 7.023,6.245 3.879,0 7.028,-2.803 7.028,-6.245 C 7.028,2.802 3.879,0 0,0 m -11.031,0.899 c 0,2.795 -2.271,5.059 -5.064,5.059 -2.793,0 -5.057,-2.264 -5.057,-5.059 0,-2.795 2.264,-5.059 5.057,-5.059 2.793,0 5.064,2.264 5.064,5.059 m -6.465,-6.593 0,-0.3 c 0,-0.695 0.567,-1.257 1.257,-1.257 l 0.289,0 c 0.695,0 1.259,0.562 1.259,1.257 l 0,0.289 -0.006,0.011 -2.799,0 z m -5.871,-9.813 0,1.694 1.216,0 0,-1.694 12.174,0 0,1.694 1.218,0 0,-1.694 3.728,0 c 0.042,4.523 0.094,4.945 0.094,4.962 0,2.7 -2.192,4.852 -4.896,4.852 l -0.044,-0.007 -0.025,0 -1.726,0 -3.251,-6.584 0,3.239 c 0,0.602 -0.489,1.093 -1.091,1.093 l -0.25,0 c -0.603,0 -1.092,-0.491 -1.092,-1.093 l 0,-3.231 -3.245,6.576 -1.726,0 -0.025,0 -0.049,0.006 c -2.706,0 -4.895,-2.151 -4.895,-4.851 0,-0.019 -0.05,-0.441 -0.093,-4.962 l 3.978,0 z M -57.761,0.595 c 0,-4.698 3.812,-8.507 8.509,-8.507 4.702,0 8.511,3.809 8.511,8.507 0,4.701 -3.809,8.51 -8.511,8.51 -4.697,0 -8.509,-3.809 -8.509,-8.51 m 20.156,-34.557 7.353,0 c -0.119,7.446 -0.244,15.206 -0.244,15.229 0,4.54 -3.684,8.063 -8.221,8.063 l -4.449,0 c -1.686,0 -3.368,-1.173 -6.078,-1.173 -2.656,0 -4.644,1.173 -6.081,1.173 l -4.457,0 c -4.541,0 -8.282,-3.497 -8.282,-8.041 l -0.062,-0.126 -0.126,-0.064 0,-15.061 6.131,0 0,9.808 2.446,0 0,-9.808 19.616,0 0,9.808 2.454,0 0,-9.808 z m -7.83,23.658 c 0.765,0.205 1.5,0.544 2.269,0.544 l 0.867,0 0,3.734 c -1.256,-0.786 -1.884,-1.428 -3.136,-1.906 l 0,-2.372 z m 55.669,27.527 c 1.487,0 2.685,-1.317 2.685,-2.803 l 0,-36.944 c 0,-1.489 -1.198,-2.297 -2.685,-2.297 l -20.287,0 0,-5.106 c 0,-0.741 0.602,-1.342 1.349,-1.342 l 1.199,0 c 0.676,0 1.225,-0.603 1.225,-1.345 0,-0.744 -0.549,-1.348 -1.225,-1.348 l -17.274,0 c -0.679,0 -1.223,0.604 -1.223,1.348 0,0.742 0.544,1.345 1.223,1.345 l 1.198,0 c 0.74,0 1.343,0.601 1.343,1.342 l 0,5.106 -7.217,0 c -0.055,3.766 -0.1,6.083 -0.1,6.144 0,0.698 -0.081,1.388 -0.232,2.016 l 37.335,0 c 1.488,0 2.862,0.717 2.862,2.205 l 0,26.166 c 0,1.486 -1.374,3.002 -2.862,3.002 l -47.381,0 c -1.487,0 -2.466,-1.516 -2.466,-3.002 l 0,-4.491 c -1.256,0.785 -1.884,1.427 -3.136,1.908 l 0,5.293 c 0,1.486 1.429,2.803 2.91,2.803 l 52.759,0 z M 0.319,6.723 C 1.174,6.558 1.744,6.327 2.038,6.031 2.347,5.729 2.496,5.318 2.496,4.803 2.496,4.26 2.302,3.786 1.914,3.383 1.537,2.989 1.004,2.773 0.319,2.735 l 0,-0.717 -0.545,0 0,0.704 c -1.4,0.14 -2.14,0.82 -2.24,2.044 l 0.999,0 c 0.068,-0.77 0.481,-1.217 1.241,-1.339 l 0,2.596 c -1.388,0.256 -2.079,0.867 -2.079,1.839 0,0.543 0.183,0.983 0.561,1.32 0.376,0.337 0.885,0.53 1.518,0.583 l 0,0.712 0.545,0 0,-0.712 C 1.537,9.683 2.202,9.123 2.321,8.079 l -1.003,0 C 1.269,8.651 0.935,8.98 0.319,9.06 l 0,-2.337 z m -0.545,0.102 c -0.331,0.08 -0.596,0.195 -0.785,0.352 -0.199,0.157 -0.301,0.406 -0.301,0.752 0,0.645 0.366,1.026 1.086,1.138 l 0,-2.242 z m 0.545,-3.398 0,2.489 C 0.777,5.804 1.091,5.659 1.255,5.488 1.417,5.321 1.499,5.072 1.499,4.746 1.499,3.955 1.104,3.518 0.319,3.427 M -4.048,2.224 -3.916,2.129 C -2.816,1.33 -1.425,0.892 0,0.892 c 3.38,0 6.136,2.403 6.136,5.356 0,2.953 -2.756,5.356 -6.136,5.356 -3.382,0 -6.13,-2.403 -6.13,-5.356 0,-0.379 0.05,-0.766 0.144,-1.153 l 0.043,-0.165 -1.53,-2.932 3.425,0.226 z"
             id="path622"
             style="fill:#000000;fill-opacity:1;fill-rule:evenodd;stroke:none" />
        </g>
      </g>
    </g>
  </g>
</svg>
