<?xml version="1.0" encoding="UTF-8" standalone="no"?>
<!-- Created with Inkscape (http://www.inkscape.org/) -->

<svg
   xmlns:dc="http://purl.org/dc/elements/1.1/"
   xmlns:cc="http://creativecommons.org/ns#"
   xmlns:rdf="http://www.w3.org/1999/02/22-rdf-syntax-ns#"
   xmlns:svg="http://www.w3.org/2000/svg"
   xmlns="http://www.w3.org/2000/svg"
   version="1.1"
   width="65.879997"
   height="44.374748"
   id="svg436406">
  <defs
     id="defs436408">
    <clipPath
       id="clipPath2948">
      <path
         d="m 365.624,3484.226 53.586,0 0,25.206 -53.586,0 0,-25.206 z"
         id="path2950" />
    </clipPath>
    <clipPath
       id="clipPath548">
      <path
         d="m 501.624,3484.226 53.586,0 0,25.206 -53.586,0 0,-25.206 z"
         id="path550" />
    </clipPath>
    <clipPath
       id="clipPath604">
      <path
         d="m 640.533,3488.299 43.968,0 0,20.978 -43.968,0 0,-20.978 z"
         id="path606" />
    </clipPath>
  </defs>
  <metadata
     id="metadata436411">
    <rdf:RDF>
      <cc:Work
         rdf:about="">
        <dc:format>image/svg+xml</dc:format>
        <dc:type
           rdf:resource="http://purl.org/dc/dcmitype/StillImage" />
        <dc:title></dc:title>
      </cc:Work>
    </rdf:RDF>
  </metadata>
  <g
     transform="translate(-631.6833,-111.57754)"
     id="layer1">
    <path
       d="m 674.07705,151.41729 -3.34,0 0,-2.165 -11.8975,0 0,2.165 -2.76,0 c -2.58125,0 -4.6825,2.02375 -4.69375,4.535 l 27.38625,0 c -0.0113,-2.51125 -2.10875,-4.535 -4.695,-4.535"
       id="path538"
       style="fill:#000000;fill-opacity:1;fill-rule:nonzero;stroke:none" />
    <path
       d="m 664.59705,146.64004 c -1.41,0 -2.5525,-0.8125 -2.5525,-1.82375 0,-1.00375 1.1425,-1.82625 2.5525,-1.82625 1.41,0 2.55625,0.8225 2.55625,1.82625 0,1.01125 -1.14625,1.82375 -2.55625,1.82375 m 28.63625,-35.0625 -26.74375,0 c -0.25,0.9925 15.375,2.01 15.06125,3.04 l 9.83125,0 c 0.9875,0 1.79125,0.595 1.79125,1.335 l 0,25.2525 -57.1025,0 0,-25.2525 c 0,-0.74 0.80375,-1.335 1.79875,-1.335 l 45.32375,0 c 1.455,-1.0925 4.0825,-3.04 -0.7875,-3.04 l -46.39625,0 c -2.3925,0 -4.32625,1.43875 -4.32625,3.21375 l 0,30.65 c 0,1.77875 1.93375,3.21625 4.32625,3.21625 l 57.22375,0 c 2.3925,0 4.33,-1.4375 4.33,-3.21625 l 0,-30.65 c 0,-1.775 -1.9375,-3.21375 -4.33,-3.21375"
       id="path542"
       style="fill:#000000;fill-opacity:1;fill-rule:nonzero;stroke:none" />
    <g
       transform="matrix(1.25,0,0,-1.25,-164.02595,4501.5777)"
       id="g600"
       style="fill:#000000">
      <g
         clip-path="url(#clipPath604)"
         id="g602"
         style="fill:#000000">
        <g
           transform="translate(648.7817,3496.4424)"
           id="g608"
           style="fill:#000000">
          <path
             d="m 0,0 c 0,0.165 -0.129,0.299 -0.295,0.299 -0.164,0 -0.294,-0.134 -0.294,-0.299 0,-0.164 0.13,-0.297 0.294,-0.297 C -0.129,-0.297 0,-0.164 0,0 m 0,-1.762 c 0,0.165 -0.129,0.296 -0.295,0.296 -0.164,0 -0.294,-0.131 -0.294,-0.296 0,-0.164 0.13,-0.298 0.294,-0.298 0.166,0 0.295,0.134 0.295,0.298 m -0.981,7.374 0,-0.145 c 0,-0.34 0.277,-0.615 0.616,-0.615 l 0.143,0 c 0.342,0 0.612,0.275 0.612,0.615 l 0,0.145 -1.371,0 z m 40.05,-24.174 c 0,0.535 -0.438,0.971 -0.975,0.971 l -48.837,0 c -0.532,0 -0.968,-0.436 -0.968,-0.971 l 0,-0.333 c 0,-0.538 0.436,-0.971 0.968,-0.971 l 48.837,0 c 0.537,0 0.975,0.433 0.975,0.971 l 0,0.333 z m -5.116,-6.55 c 0,-1.87 -1.52,-3.384 -3.388,-3.384 -1.867,0 -3.385,1.514 -3.385,3.384 0,1.87 1.518,3.385 3.385,3.385 1.868,0 3.388,-1.515 3.388,-3.385 m 4.093,-12.577 c -0.003,2.533 -0.003,4.841 -0.003,4.846 l -0.015,0.052 c 0,1.806 -1.464,3.27 -3.273,3.27 l -8.38,0.031 c -1.807,0 -3.268,-1.481 -3.268,-3.287 0,-0.007 -0.035,-2.351 -0.077,-4.912 l 15.016,0 z m -21.234,12.577 c 0,-1.87 -1.518,-3.384 -3.385,-3.384 -1.868,0 -3.385,1.514 -3.385,3.384 0,1.87 1.517,3.385 3.385,3.385 1.867,0 3.385,-1.515 3.385,-3.385 m 4.097,-12.577 c -0.005,2.533 -0.005,4.841 -0.005,4.846 l -0.011,0.052 c 0,1.806 -1.467,3.27 -3.276,3.27 l -8.378,0.031 c -1.811,0 -3.268,-1.481 -3.268,-3.287 0,-0.007 -0.038,-2.351 -0.077,-4.912 l 15.015,0 z m -21.233,12.577 c 0,-1.87 -1.517,-3.384 -3.387,-3.384 -1.865,0 -3.386,1.514 -3.386,3.384 0,1.87 1.521,3.385 3.386,3.385 1.87,0 3.387,-1.515 3.387,-3.385 m 4.097,-12.577 c -0.006,2.533 -0.006,4.841 -0.006,4.846 l -0.013,0.052 c 0,1.806 -1.466,3.27 -3.275,3.27 l -8.378,0.031 c -1.809,0 -3.268,-1.481 -3.268,-3.287 0,-0.007 -0.035,-2.351 -0.078,-4.912 l 15.018,0 z m 28.348,31.911 -9.209,0 0,-10.112 c 1.823,-0.076 3.214,-0.491 3.214,-0.924 l -0.012,-0.192 -3.202,0 -1.182,0 -3.196,0 -0.011,0.157 c 0,0.435 1.391,0.877 3.207,0.957 l 0,10.114 -9.202,0 c -0.79,0 -1.436,0.643 -1.436,1.434 l 0,6.993 L 9.973,1.8 10.061,1.607 C 10.183,1.34 10.065,1.023 9.8,0.899 L 5.852,-0.903 5.828,-0.912 5.804,-0.926 C 5.334,-1.141 4.785,-0.94 4.559,-0.479 L 4.535,-0.441 4.51,-0.391 3.07,1.812 2.972,1.831 c -0.11,0 -0.204,-0.059 -0.255,-0.147 l -0.045,-6.829 0,-11.052 c 0,-0.296 -0.236,-0.535 -0.532,-0.535 l -1.607,0 C 0.245,-16.732 0,-16.493 0,-16.197 l 0,10.52 -0.583,0 0,-10.52 c 0,-0.296 -0.238,-0.535 -0.533,-0.535 l -1.6,0 c -0.296,0 -0.538,0.239 -0.538,0.535 l 0,11.052 0,0.331 0,6.419 -0.586,0 0,-6.75 c 0,-0.295 -0.243,-0.532 -0.538,-0.532 l -0.832,0 c -0.296,0 -0.533,0.237 -0.533,0.532 l 0,8.312 0.001,0.018 -0.001,0.037 c 0,1.32 1.07,2.39 2.388,2.39 l 0.024,0 0.012,0 0.844,0 1.591,-3.226 0,1.589 c 0,0.295 0.235,0.535 0.53,0.535 l 0.124,0 c 0.288,0 0.532,-0.24 0.532,-0.535 l 0,-1.571 1.584,3.208 0.005,0 0.833,0 0.007,0 0.012,0 C 2.785,5.611 2.827,5.608 2.868,5.603 3.291,5.657 3.716,5.499 4.007,5.188 4.104,5.104 4.179,5 4.232,4.878 L 4.238,4.854 4.25,4.829 5.881,1.201 9.006,2.63 C 9.271,2.752 9.591,2.635 9.715,2.365 l 0.007,-0.012 1.37,1.039 0,5.941 c 0,0.791 0.646,1.436 1.436,1.436 l 19.593,0 c 0.791,0 1.428,-0.645 1.428,-1.436 l 0,-13.677 c 0,-0.791 -0.637,-1.434 -1.428,-1.434 M 12.528,9.587 c -0.133,0 -0.253,-0.113 -0.253,-0.254 l 0,-5.044 3.423,2.595 c 0.047,0.033 0.159,-0.047 0.258,-0.176 0.096,-0.129 0.143,-0.263 0.101,-0.295 l -3.782,-2.868 0,-7.889 c 0,-0.139 0.12,-0.254 0.253,-0.254 l 19.593,0 c 0.136,0 0.247,0.115 0.247,0.254 l 0,13.677 c 0,0.141 -0.111,0.254 -0.247,0.254 l -19.593,0 z m -12.842,1.719 -0.017,0 c -0.479,0 -0.924,-0.142 -1.294,-0.389 l -0.019,-0.012 -0.001,0 c -0.674,-0.442 -1.118,-1.204 -1.118,-2.072 0,-1.365 1.104,-2.472 2.468,-2.472 1.365,0 2.477,1.107 2.477,2.472 0,1.368 -1.112,2.473 -2.477,2.473 l -0.019,0 z"
             id="path610"
             style="fill:#000000;fill-opacity:1;fill-rule:evenodd;stroke:none" />
        </g>
      </g>
    </g>
  </g>
</svg>
