<?xml version="1.0" encoding="UTF-8" standalone="no"?>
<!-- Created with Inkscape (http://www.inkscape.org/) -->

<svg
   xmlns:dc="http://purl.org/dc/elements/1.1/"
   xmlns:cc="http://creativecommons.org/ns#"
   xmlns:rdf="http://www.w3.org/1999/02/22-rdf-syntax-ns#"
   xmlns:svg="http://www.w3.org/2000/svg"
   xmlns="http://www.w3.org/2000/svg"
   version="1.1"
   width="65.879997"
   height="44.374748"
   id="svg436406">
  <defs
     id="defs436408">
    <clipPath
       id="clipPath2948">
      <path
         d="m 365.624,3484.226 53.586,0 0,25.206 -53.586,0 0,-25.206 z"
         id="path2950" />
    </clipPath>
    <clipPath
       id="clipPath548">
      <path
         d="m 501.624,3484.226 53.586,0 0,25.206 -53.586,0 0,-25.206 z"
         id="path550" />
    </clipPath>
    <clipPath
       id="clipPath604">
      <path
         d="m 640.533,3488.299 43.968,0 0,20.978 -43.968,0 0,-20.978 z"
         id="path606" />
    </clipPath>
    <clipPath
       id="clipPath616">
      <path
         d="m 765.748,3488.299 44.127,0 0,21.27 -44.127,0 0,-21.27 z"
         id="path618" />
    </clipPath>
    <clipPath
       id="clipPath628">
      <path
         d="m 895.57,3488.299 42.597,0 0,21.002 -42.597,0 0,-21.002 z"
         id="path630" />
    </clipPath>
  </defs>
  <metadata
     id="metadata436411">
    <rdf:RDF>
      <cc:Work
         rdf:about="">
        <dc:format>image/svg+xml</dc:format>
        <dc:type
           rdf:resource="http://purl.org/dc/dcmitype/StillImage" />
        <dc:title></dc:title>
      </cc:Work>
    </rdf:RDF>
  </metadata>
  <g
     transform="translate(-880.08902,-47.380853)"
     id="layer1">
    <path
       d="m 922.48277,87.220603 -3.34,0 0,-2.165 -11.8975,0 0,2.165 -2.76,0 c -2.58125,0 -4.6825,2.02375 -4.69375,4.535 l 27.38625,0 c -0.0113,-2.51125 -2.10875,-4.535 -4.695,-4.535"
       id="path522"
       style="fill:#000000;fill-opacity:1;fill-rule:nonzero;stroke:none" />
    <path
       d="m 913.00277,82.443353 c -1.41,0 -2.5525,-0.8125 -2.5525,-1.82375 0,-1.00375 1.1425,-1.82625 2.5525,-1.82625 1.41,0 2.55625,0.8225 2.55625,1.82625 0,1.01125 -1.14625,1.82375 -2.55625,1.82375 m 28.63625,-35.0625 -26.74375,0 c -0.25,0.9925 15.375,2.01 15.06125,3.04 l 9.83125,0 c 0.9875,0 1.79125,0.595 1.79125,1.335 l 0,25.2525 -57.1025,0 0,-25.2525 c 0,-0.74 0.80375,-1.335 1.79875,-1.335 l 45.32375,0 c 1.455,-1.0925 4.0825,-3.04 -0.7875,-3.04 l -46.39625,0 c -2.3925,0 -4.32625,1.43875 -4.32625,3.21375 l 0,30.65 c 0,1.77875 1.93375,3.21625 4.32625,3.21625 l 57.22375,0 c 2.3925,0 4.33,-1.4375 4.33,-3.21625 l 0,-30.65 c 0,-1.775 -1.9375,-3.21375 -4.33,-3.21375"
       id="path526"
       style="fill:#000000;fill-opacity:1;fill-rule:nonzero;stroke:none" />
    <g
       transform="matrix(1.25,0,0,-1.25,-234.37018,4437.3811)"
       id="g624"
       style="fill:#000000">
      <g
         clip-path="url(#clipPath628)"
         id="g626"
         style="fill:#000000">
        <g
           transform="translate(932.7168,3488.9854)"
           id="g632"
           style="fill:#000000">
          <path
             d="m 0,0 c 0,-2.685 -1.937,-4.86 -4.325,-4.86 l -12.918,0 c -2.39,0 -2.131,2.175 -2.131,4.86 l 0,5.331 c 0,2.684 1.937,4.86 4.326,4.86 l 10.723,0 C -1.937,10.191 0,8.015 0,5.331 L 0,0 z"
             id="path634"
             style="fill:#000000;fill-opacity:1;fill-rule:nonzero;stroke:none" />
        </g>
        <g
           transform="translate(925.1792,3506.3364)"
           id="g636"
           style="fill:#000000">
          <path
             d="M 0,0 C -0.784,2.514 -3.465,2.397 -3.828,1.017 -3.935,0.609 -4.537,-3.237 -7.095,-5.95 -7.88,-6.784 -8.69,-7.195 -9.706,-7.833 c 0,0 2.173,-4.167 2.36,-4.121 1.539,0.393 2.891,1.034 4.037,1.851 0.702,0.5 2.732,2.128 3.436,4.096 C 0.958,-3.686 0.303,-0.974 0,0"
             id="path638"
             style="fill:#000000;fill-opacity:1;fill-rule:nonzero;stroke:none" />
        </g>
        <g
           transform="translate(907.4604,3497.5029)"
           id="g640"
           style="fill:#000000">
          <path
             d="m 0,0 c -0.898,0 -1.627,-0.598 -1.627,-1.335 0,-0.737 0.729,-1.335 1.627,-1.335 0.898,0 1.627,0.598 1.627,1.335 C 1.627,-0.598 0.898,0 0,0 m 3.906,-13.237 -7.812,0 0,14.768 7.812,0 0,-14.768 z"
             id="path642"
             style="fill:#000000;fill-opacity:1;fill-rule:nonzero;stroke:none" />
        </g>
      </g>
    </g>
  </g>
</svg>
