<?xml version="1.0" encoding="UTF-8" standalone="no"?>
<!-- Created with Inkscape (http://www.inkscape.org/) -->

<svg
   xmlns:dc="http://purl.org/dc/elements/1.1/"
   xmlns:cc="http://creativecommons.org/ns#"
   xmlns:rdf="http://www.w3.org/1999/02/22-rdf-syntax-ns#"
   xmlns:svg="http://www.w3.org/2000/svg"
   xmlns="http://www.w3.org/2000/svg"
   version="1.1"
   width="78.9375"
   height="44.25"
   id="svg436406">
  <defs
     id="defs436408">
    <clipPath
       id="clipPath2948">
      <path
         d="m 365.624,3484.226 53.586,0 0,25.206 -53.586,0 0,-25.206 z"
         id="path2950" />
    </clipPath>
  </defs>
  <metadata
     id="metadata436411">
    <rdf:RDF>
      <cc:Work
         rdf:about="">
        <dc:format>image/svg+xml</dc:format>
        <dc:type
           rdf:resource="http://purl.org/dc/dcmitype/StillImage" />
        <dc:title></dc:title>
      </cc:Work>
    </rdf:RDF>
  </metadata>
  <g
     transform="translate(-335.53125,-510.23718)"
     id="layer1">
    <path
       d="m 335.5313,510.23718 0,37.84375 36.78125,0 0,2.84375 -5.25,3.5625 7.9375,0 0.0937,0 7.90625,0 -5.25,-3.5625 0,-2.84375 36.71875,0 0,-37.84375 -78.9375,0 z m 5.96875,3 67,0 0,31.5 -67,0 0,-31.5 z"
       id="path458"
       style="fill:#000000;fill-opacity:1;fill-rule:nonzero;stroke:none" />
    <path
       d="m 391.91399,515.25713 -44.7325,0 0,-1.75875 44.7325,0 0,1.75875 z"
       id="path476"
       style="fill:#000000;fill-opacity:1;fill-rule:nonzero;stroke:none" />
    <g
       transform="matrix(1.25,0,0,-1.25,-115.52226,4900.0134)"
       id="g2944"
       style="fill:#000000">
      <g
         clip-path="url(#clipPath2948)"
         id="g2946"
         style="fill:#000000">
        <path
           d="m 401.256,3502.555 1.18,0 0,-0.172 -1.18,0 0,0.172 z m -12.084,1.108 c 0,-2.459 -1.996,-4.452 -4.454,-4.452 -2.462,0 -4.449,1.993 -4.449,4.452 0,2.459 1.987,4.451 4.449,4.451 2.458,0 4.454,-1.992 4.454,-4.451 m -3.922,-15.902 c 0,-0.295 -0.238,-0.536 -0.532,-0.536 -0.297,0 -0.534,0.241 -0.534,0.536 0,0.294 0.237,0.532 0.534,0.532 0.294,0 0.532,-0.238 0.532,-0.532 m 0,-3.175 c 0,-0.295 -0.238,-0.535 -0.532,-0.535 -0.297,0 -0.534,0.24 -0.534,0.535 0,0.295 0.237,0.537 0.534,0.537 0.294,0 0.532,-0.242 0.532,-0.537 m -1.762,13.275 2.465,0 0,-0.261 c 0,-0.611 -0.496,-1.106 -1.11,-1.106 l -0.252,0 c -0.608,0 -1.103,0.495 -1.103,1.106 l 0,0.261 z m 24.062,0.611 c 0,-1.024 -0.408,-1.951 -1.068,-2.631 l 0.668,-0.666 c 0.825,0.853 1.342,2.014 1.342,3.297 0,1.369 -0.591,2.6 -1.518,3.462 l -0.667,-0.665 c 0.761,-0.692 1.243,-1.688 1.243,-2.797 m 2.198,0 c 0,1.714 -0.735,3.255 -1.896,4.344 l 0.665,0.664 c 1.335,-1.256 2.17,-3.036 2.17,-5.008 0,-1.887 -0.758,-3.595 -1.995,-4.843 l -0.666,0.666 c 1.061,1.076 1.722,2.55 1.722,4.177 m 0.468,-6.367 c 1.602,1.644 2.593,3.888 2.593,6.367 0,2.565 -1.069,4.882 -2.762,6.536 l -0.666,-0.665 c 1.525,-1.484 2.486,-3.567 2.486,-5.871 0,-2.219 -0.884,-4.229 -2.313,-5.703 l 0.662,-0.664 z m -13.716,6.367 c 0,-1.024 0.41,-1.951 1.066,-2.631 l -0.664,-0.666 c -0.828,0.853 -1.343,2.014 -1.343,3.297 0,1.369 0.59,2.6 1.524,3.462 l 0.666,-0.665 c -0.765,-0.692 -1.249,-1.688 -1.249,-2.797 m -2.196,0 c 0,-1.627 0.659,-3.101 1.72,-4.177 l -0.667,-0.666 c -1.228,1.248 -1.993,2.956 -1.993,4.843 0,1.972 0.839,3.752 2.17,5.008 l 0.665,-0.664 c -1.161,-1.089 -1.895,-2.63 -1.895,-4.344 m -3.03,-0.677 c -0.279,0.07 -0.574,0.087 -0.866,0.05 -0.073,0.01 -0.146,0.014 -0.22,0.016 l 0,0 -0.025,0 -1.517,0 -2.856,-5.789 0,2.838 c 0,0.531 -0.433,0.962 -0.96,0.962 l -0.219,0 c -0.533,0 -0.966,-0.431 -0.966,-0.962 l 0,-2.831 -2.856,5.782 -1.519,0 -0.017,0 -0.046,0 c -2.378,0 -4.304,-1.929 -4.304,-4.303 l 0,-0.067 0,-0.033 0,-14.963 c 0,-0.534 0.433,-0.962 0.96,-0.962 l 1.507,0 c 0.527,0 0.961,0.428 0.961,0.962 l 0,12.151 1.059,0 0,-11.559 0,-0.592 0,-19.9 c 0,-0.532 0.425,-0.962 0.958,-0.962 l 2.888,0 c 0.528,0 0.961,0.43 0.961,0.962 l 0,18.938 1.046,0 0,-18.938 c 0,-0.532 0.434,-0.962 0.966,-0.962 l 2.889,0 c 0.527,0 0.959,0.43 0.959,0.962 l 0,19.9 0.083,12.293 c 0.092,0.155 0.262,0.262 0.457,0.262 0.059,0 0.121,-0.013 0.177,-0.031 l 2.59,-3.967 0.05,-0.09 0.006,-0.01 0.006,-0.017 c 0.397,-0.861 1.41,-1.24 2.272,-0.846 l 0.042,0.025 0.045,0.015 7.097,3.245 c 0.489,0.222 0.694,0.793 0.476,1.276 l -0.413,0.909 1.461,0 c 0.289,0 0.522,0.226 0.522,0.508 l 0,10.208 c 0,0.284 -0.233,0.511 -0.522,0.511 l -5.113,0 c -0.29,0 -0.529,-0.227 -0.529,-0.511 l 0,-10.208 c 0,-0.282 0.239,-0.508 0.529,-0.508 l 0.128,0 -3.587,-1.64 -2.936,6.53 -0.017,0.043 -0.019,0.044 c -0.095,0.22 -0.233,0.407 -0.402,0.558 -0.059,0.063 -0.118,0.12 -0.183,0.176 -0.056,0.39 -0.086,0.79 -0.086,1.197 0,2.304 0.951,4.387 2.483,5.871 l -0.665,0.665 c -1.698,-1.654 -2.76,-3.971 -2.76,-6.536 0,-0.228 0.009,-0.453 0.025,-0.677 m 13.132,-4.826 -5.113,0 0,9.082 5.113,0 0,-9.082 z"
           id="path2952"
           style="fill:#000000;fill-opacity:1;fill-rule:evenodd;stroke:none" />
      </g>
    </g>
  </g>
</svg>
