<?xml version="1.0" encoding="UTF-8" standalone="no"?>
<!-- Created with Inkscape (http://www.inkscape.org/) -->

<svg
   xmlns:dc="http://purl.org/dc/elements/1.1/"
   xmlns:cc="http://creativecommons.org/ns#"
   xmlns:rdf="http://www.w3.org/1999/02/22-rdf-syntax-ns#"
   xmlns:svg="http://www.w3.org/2000/svg"
   xmlns="http://www.w3.org/2000/svg"
   version="1.1"
   width="78.958755"
   height="44.26976"
   id="svg436406">
  <defs
     id="defs436408">
    <clipPath
       id="clipPath2948">
      <path
         d="m 365.624,3484.226 53.586,0 0,25.206 -53.586,0 0,-25.206 z"
         id="path2950" />
    </clipPath>
    <clipPath
       id="clipPath548">
      <path
         d="m 501.624,3484.226 53.586,0 0,25.206 -53.586,0 0,-25.206 z"
         id="path550" />
    </clipPath>
  </defs>
  <metadata
     id="metadata436411">
    <rdf:RDF>
      <cc:Work
         rdf:about="">
        <dc:format>image/svg+xml</dc:format>
        <dc:type
           rdf:resource="http://purl.org/dc/dcmitype/StillImage" />
        <dc:title></dc:title>
      </cc:Work>
    </rdf:RDF>
  </metadata>
  <g
     transform="translate(123.94813,-272.3523)"
     id="layer1">
    <path
       d="m -83.989625,311.52706 -0.3975,-0.4525 0,-0.0937 -0.0412,0.0462 -0.0387,-0.0462 0,0.0937 -0.395,0.4525 -7.54,5.095 7.935,0 0.08,0 7.935,0 -7.5375,-5.095 z"
       id="path436"
       style="fill:#000000;fill-opacity:1;fill-rule:nonzero;stroke:none" />
    <path
       d="m -81.714375,313.10481 -5.425,0 0,-4.245 5.425,0 0,4.245 z"
       id="path438"
       style="fill:#000000;fill-opacity:1;fill-rule:nonzero;stroke:none" />
    <path
       d="m -50.976875,306.8573 -66.982505,0 0,-31.5075 66.982505,0 0,31.5075 z m -72.971255,3.33625 78.958755,0 0,-37.84125 -78.958755,0 0,37.84125 z"
       id="path440"
       style="fill:#000000;fill-opacity:1;fill-rule:nonzero;stroke:none" />
    <path
       d="m -67.553125,277.38481 -44.732505,0 0,-1.75875 44.732505,0 0,1.75875 z"
       id="path454"
       style="fill:#000000;fill-opacity:1;fill-rule:nonzero;stroke:none" />
    <g
       transform="matrix(1.25,0,0,-1.25,-744.98938,4662.141)"
       id="g544"
       style="fill:#000000">
      <g
         clip-path="url(#clipPath548)"
         id="g546"
         style="fill:#000000">
        <g
           transform="translate(509.6416,3499.8413)"
           id="g552"
           style="fill:#000000">
          <path
             d="M 0,0 C 0.638,-1.563 2.422,-2.315 3.986,-1.677 5.549,-1.039 6.3,0.746 5.663,2.309 5.025,3.873 3.241,4.624 1.677,3.986 0.113,3.349 -0.637,1.564 0,0"
             id="path554"
             style="fill:#000000;fill-opacity:1;fill-rule:nonzero;stroke:none" />
        </g>
        <g
           transform="translate(526.4653,3485.3926)"
           id="g556"
           style="fill:#000000">
          <path
             d="m 0,0 c 0,-0.943 -0.764,-1.708 -1.707,-1.708 l -8.699,0 c -0.943,0 -1.707,0.765 -1.707,1.708 0,0.943 0.836,2.967 1.779,2.967 l 8.627,-1.26 C -0.764,1.707 0,0.943 0,0"
             id="path558"
             style="fill:#000000;fill-opacity:1;fill-rule:nonzero;stroke:none" />
        </g>
        <g
           transform="translate(526.4653,3473.6558)"
           id="g560"
           style="fill:#000000">
          <path
             d="m 0,0 c 0,-0.69 -0.56,-1.249 -1.248,-1.249 -0.691,0 -1.25,0.559 -1.25,1.249 l -0.344,11.722 c 0,0.69 0.903,1.197 1.594,1.197 C -0.56,12.919 0,12.36 0,11.671 L 0,0 z"
             id="path562"
             style="fill:#000000;fill-opacity:1;fill-rule:nonzero;stroke:none" />
        </g>
        <g
           transform="translate(524.5859,3488.8374)"
           id="g564"
           style="fill:#000000">
          <path
             d="M 0,0 C 0.061,0.332 -0.161,0.651 -0.493,0.71 L -7.139,1.912 C -7.471,1.973 -7.789,1.751 -7.849,1.419 L -7.899,1.142 C -7.96,0.809 -7.739,0.491 -7.407,0.431 l 6.646,-1.202 c 0.332,-0.061 0.65,0.161 0.711,0.494 L 0,0 z"
             id="path566"
             style="fill:#000000;fill-opacity:1;fill-rule:nonzero;stroke:none" />
        </g>
        <g
           transform="translate(510.0254,3493.042)"
           id="g568"
           style="fill:#000000">
          <path
             d="M 0,0 C -0.626,1.538 0.112,3.292 1.65,3.919 3.188,4.546 4.942,3.808 5.569,2.271 l 3.04,-7.457 C 9.236,-6.724 8.499,-8.479 6.96,-9.105 5.423,-9.733 3.668,-8.995 3.041,-7.457 L 0,0 z"
             id="path570"
             style="fill:#000000;fill-opacity:1;fill-rule:nonzero;stroke:none" />
        </g>
        <g
           transform="translate(520.2627,3482.9063)"
           id="g572"
           style="fill:#000000">
          <path
             d="m 0,0 -6.991,0 -4.514,10.459 c -0.381,0.905 -1.424,1.33 -2.328,0.948 -0.904,-0.38 -1.329,-1.424 -0.949,-2.328 l 4.466,-10.344 c -0.288,-0.439 -0.457,-0.961 -0.457,-1.525 l 0,-5.226 c 0,-1.138 0.684,-2.113 1.662,-2.547 l 0,-1.383 2.615,0 0,1.141 4.838,0 0,-1.141 2.616,0 0,1.32 c 1.066,0.392 1.832,1.408 1.832,2.61 l 0,5.226 C 2.79,-1.249 1.541,0 0,0"
             id="path574"
             style="fill:#000000;fill-opacity:1;fill-rule:nonzero;stroke:none" />
        </g>
        <g
           transform="translate(547.2734,3499.8413)"
           id="g576"
           style="fill:#000000">
          <path
             d="M 0,0 C -0.637,-1.563 -2.422,-2.315 -3.985,-1.677 -5.549,-1.039 -6.3,0.746 -5.662,2.309 -5.024,3.873 -3.24,4.624 -1.677,3.986 -0.112,3.349 0.638,1.564 0,0"
             id="path578"
             style="fill:#000000;fill-opacity:1;fill-rule:nonzero;stroke:none" />
        </g>
        <g
           transform="translate(530.4497,3485.3696)"
           id="g580"
           style="fill:#000000">
          <path
             d="m 0,0 c 0,-0.943 0.766,-1.708 1.708,-1.708 l 8.699,0 c 0.942,0 1.707,0.765 1.707,1.708 0,0.943 -0.837,2.967 -1.78,2.967 L 1.708,1.708 C 0.766,1.708 0,0.943 0,0"
             id="path582"
             style="fill:#000000;fill-opacity:1;fill-rule:nonzero;stroke:none" />
        </g>
        <g
           transform="translate(530.4497,3473.6333)"
           id="g584"
           style="fill:#000000">
          <path
             d="m 0,0 c 0,-0.69 0.56,-1.249 1.249,-1.249 0.69,0 1.249,0.559 1.249,1.249 l 0.344,11.722 c 0,0.69 -0.903,1.197 -1.593,1.197 C 0.56,12.919 0,12.361 0,11.671 L 0,0 z"
             id="path586"
             style="fill:#000000;fill-opacity:1;fill-rule:nonzero;stroke:none" />
        </g>
        <g
           transform="translate(532.3291,3488.8374)"
           id="g588"
           style="fill:#000000">
          <path
             d="M 0,0 C -0.061,0.332 0.161,0.651 0.493,0.71 L 7.14,1.912 C 7.471,1.973 7.789,1.751 7.85,1.419 L 7.899,1.142 C 7.96,0.809 7.739,0.491 7.407,0.431 L 0.761,-0.771 C 0.429,-0.832 0.111,-0.61 0.051,-0.277 L 0,0 z"
             id="path590"
             style="fill:#000000;fill-opacity:1;fill-rule:nonzero;stroke:none" />
        </g>
        <g
           transform="translate(546.8896,3493.042)"
           id="g592"
           style="fill:#000000">
          <path
             d="M 0,0 C 0.626,1.538 -0.112,3.292 -1.65,3.919 -3.188,4.546 -4.942,3.808 -5.568,2.271 l -3.041,-7.457 c -0.627,-1.538 0.111,-3.293 1.649,-3.919 1.537,-0.628 3.292,0.11 3.919,1.648 L 0,0 z"
             id="path594"
             style="fill:#000000;fill-opacity:1;fill-rule:nonzero;stroke:none" />
        </g>
        <g
           transform="translate(550.4858,3494.3135)"
           id="g596"
           style="fill:#000000">
          <path
             d="m 0,0 c -0.904,0.381 -1.947,-0.043 -2.328,-0.948 l -4.514,-10.459 -6.991,0 c -1.541,0 -2.79,-1.249 -2.79,-2.79 l 0,-5.226 c 0,-1.202 0.766,-2.219 1.832,-2.61 l 0,-1.321 2.615,0 0,1.142 4.839,0 0,-1.142 2.616,0 0,1.384 c 0.978,0.433 1.662,1.409 1.662,2.547 l 0,5.226 c 0,0.564 -0.171,1.086 -0.458,1.525 L 0.948,-2.329 C 1.329,-1.424 0.905,-0.38 0,0"
             id="path598"
             style="fill:#000000;fill-opacity:1;fill-rule:nonzero;stroke:none" />
        </g>
      </g>
    </g>
  </g>
</svg>
