<svg xmlns="http://www.w3.org/2000/svg" viewBox="0 0 615.89 170.51"><defs><style>.a{fill:#1d181f;}.b{fill:#fff;}</style></defs><title>advert_step-04</title><rect class="a" y="-0.05" width="114.14" height="114.13"/><polygon class="a" points="558.18 53.65 550.74 60.09 543.31 53.65 510.74 25.44 481.36 0 125.44 0 125.44 114.09 158.01 142.29 190.59 170.51 223.16 142.29 255.74 114.09 615.89 114.09 615.89 3.67 590.75 25.44 558.18 53.65"/><rect class="b" x="464.29" y="60.57" width="6.2" height="14.98" rx="1.69" ry="1.69"/><rect class="b" x="474.56" y="56.46" width="6.2" height="19.1" rx="1.69" ry="1.69"/><rect class="b" x="484.84" y="52.93" width="6.2" height="22.63" rx="1.69" ry="1.69"/><rect class="b" x="495.13" y="49.29" width="6.2" height="26.27" rx="1.69" ry="1.69"/><path class="b" d="M465.08,56.07a91.53,91.53,0,0,0,30.5-11.47l0.84,1.61,3.25-5.13-6.06-.25,0.91,1.74A89.32,89.32,0,0,1,464.7,53.82Z"/><polygon class="b" points="508.77 78.83 503.55 75.81 503.55 77.68 461.57 77.68 461.57 44.1 463.48 44.1 460.43 38.81 457.38 44.1 459.29 44.1 459.29 77.68 459.29 78.83 459.29 79.97 503.55 79.97 503.55 81.84 508.77 78.83"/><path class="b" d="M58.69,55.64c0,17.37-6.44,27-17.76,27-10,0-16.74-9.35-16.9-26.25,0-17.14,7.39-26.57,17.77-26.57C52.56,29.77,58.69,39.36,58.69,55.64Zm-27.75.78c0,13.29,4.09,20.83,10.38,20.83,7.07,0,10.46-8.26,10.46-21.3,0-12.58-3.22-20.83-10.38-20.83C35.35,35.12,30.94,42.51,30.94,56.42Z"/><path class="b" d="M86.44,81.73V67.82H62.7V63.26L85.5,30.64H93V62.39h7.15v5.42H93V81.73H86.44Zm0-19.34V45.34c0-2.67.08-5.35,0.23-8H86.44c-1.57,3-2.83,5.19-4.24,7.54L69.7,62.24v0.16H86.44Z"/></svg>