<svg xmlns="http://www.w3.org/2000/svg" viewBox="0 0 615.89 114.13"><defs><style>.a{fill:#ff5335;}.b,.c{fill:#fff;}.b{fill-rule:evenodd;}</style></defs><title>advert_step-05</title><polygon class="a" points="230.59 25.48 198.02 53.7 190.59 60.13 183.16 53.7 150.58 25.48 125.44 3.71 125.44 114.13 615.89 114.13 615.89 0.05 259.97 0.05 230.59 25.48"/><rect class="a" width="114.14" height="114.13"/><path class="b" d="M248.18,41.26a5.43,5.43,0,1,1-5.43-5.43,5.43,5.43,0,0,1,5.43,5.43h0Zm-5.25,30.46,0.87-.21,2.85-.79-6.73-5.36-3,8.07,2.67-.75,0.78-.25c2.9,7,9.85,12.5,17.24,12.5V82.19c-6.66,0-12.25-4.31-14.68-10.47h0Zm31-12.21a17.41,17.41,0,0,0-16.36-10.76V46c9.49,0,16.49,5.39,19,12.76l0.7-.22L280,57.8l-3,8.07-6.73-5.37,2.85-.79,0.83-.21h0Zm0.32,32a0.65,0.65,0,1,1-.65.65,0.66,0.66,0,0,1,.65-0.65h0Zm-7.8,3.57V88.58h1.3V95.1h13.06V88.58h1.31V95.1h4c0.05-4.85.1-10,.1-10A5.21,5.21,0,0,0,281,79.86h-1.92l-3.48,7.05V83.46a1.18,1.18,0,0,0-1.17-1.17h-0.27A1.18,1.18,0,0,0,273,83.46v3.47l-3.48-7.06h-1.93a5.21,5.21,0,0,0-5.25,5.21s-0.05,5.18-.1,10h4.27Zm6.3-15.24h3v0.32a1.35,1.35,0,0,1-1.34,1.35h-0.31a1.36,1.36,0,0,1-1.35-1.35V79.88h0Zm6.93-7.08a5.43,5.43,0,1,1-5.43-5.43,5.43,5.43,0,0,1,5.43,5.43h0ZM242.75,60a0.65,0.65,0,1,1-.65.65,0.65,0.65,0,0,1,.65-0.65h0Zm-7.8,3.57V57h1.31v6.53h13.06V57h1.3v6.53h4c0-4.85.09-10,.09-10a5.21,5.21,0,0,0-5.24-5.21h-1.93l-3.48,7.05V51.93a1.17,1.17,0,0,0-1.17-1.17h-0.27a1.17,1.17,0,0,0-1.17,1.17v3.46l-3.48-7H236a5.22,5.22,0,0,0-5.25,5.2s-0.05,5.18-.1,10h4.26Zm6.3-15.24h3v0.32A1.35,1.35,0,0,1,242.9,50h-0.3a1.35,1.35,0,0,1-1.35-1.35V48.34Z"/><path class="c" d="M58.69,55.78c0,17.37-6.44,27-17.76,27-10,0-16.74-9.36-16.9-26.26,0-17.14,7.39-26.57,17.77-26.57C52.56,29.92,58.69,39.51,58.69,55.78Zm-27.75.79C30.94,69.86,35,77.4,41.32,77.4c7.07,0,10.46-8.25,10.46-21.3,0-12.58-3.22-20.83-10.38-20.83C35.35,35.27,30.94,42.66,30.94,56.57Z"/><path class="c" d="M95.56,36.61H76.06l-2,13.12a27.7,27.7,0,0,1,4.17-.32,21.6,21.6,0,0,1,11,2.75A14.57,14.57,0,0,1,96.58,65.3c0,10-7.94,17.45-19,17.45-5.58,0-10.3-1.58-12.73-3.15l1.73-5.27a22.82,22.82,0,0,0,10.93,2.83c6.52,0,12.11-4.24,12.11-11.08-0.08-6.6-4.48-11.32-14.7-11.32a52.78,52.78,0,0,0-7.07.55l3.3-24.52H95.56v5.82Z"/></svg>