<svg xmlns="http://www.w3.org/2000/svg" viewBox="0 0 615.89 170.55"><defs><style>.a{fill:#b39c85;}.b,.c{fill:#fff;}.b{stroke:#fff;}</style></defs><title>advert_step</title><rect class="a" width="114.14" height="114.13"/><polygon class="a" points="125.44 0 125.44 114.13 485.6 114.13 518.17 142.34 550.74 170.55 583.32 142.34 615.89 114.13 615.89 0 125.44 0"/><path class="b" d="M210.09,76.76L199,66.72l2.48-2.46a1.84,1.84,0,0,0,0-2.6l-0.92-.93A19.13,19.13,0,1,0,182.3,74.19h0a19.18,19.18,0,0,0,5.53-.81l0.92,0.92a1.84,1.84,0,0,0,2.6,0l2.48-2.46,10,11.16a1.84,1.84,0,0,0,2.6,0l3.69-3.66A1.84,1.84,0,0,0,210.09,76.76ZM182.3,72.14A17.06,17.06,0,1,1,196,65.31l-3.52,3.49a17,17,0,0,1-10.14,3.33h0Z"/><path class="c" d="M59.88,56.52c0,17.37-6.44,27-17.76,27-10,0-16.74-9.36-16.9-26.26,0-17.14,7.39-26.57,17.77-26.57C53.75,30.65,59.88,40.24,59.88,56.52Zm-27.75.79c0,13.29,4.09,20.83,10.38,20.83,7.07,0,10.45-8.25,10.45-21.3C53,44.25,49.74,36,42.58,36,36.53,36,32.13,43.39,32.13,57.3Z"/><path class="c" d="M81.26,38H81.1l-8.88,4.79-1.34-5.27,11.16-6h5.9V82.61H81.26V38Z"/></svg>