<svg xmlns="http://www.w3.org/2000/svg" viewBox="0 0 615.89 170.51"><defs><style>.a{fill:#3b424d;}.b{fill:#fff;}</style></defs><title>advert_step-03</title><rect class="a" y="-0.05" width="114.14" height="114.13"/><polygon class="a" points="230.59 25.44 198.02 53.65 190.59 60.09 183.16 53.65 150.58 25.44 125.44 3.67 125.44 114.09 485.6 114.09 518.17 142.29 550.74 170.51 583.32 142.29 615.89 114.09 615.89 0 259.97 0 230.59 25.44"/><path class="b" d="M270.28,86a2,2,0,0,1-2,2H256.2a2,2,0,0,1-2-2h0a2,2,0,0,1,2-2h12.08a2,2,0,0,1,2,2h0Z"/><path class="b" d="M270.28,80.77a2,2,0,0,1-2,2H256.2a2,2,0,0,1-2-2h0a2,2,0,0,1,2-2h12.08a2,2,0,0,1,2,2h0Z"/><path class="b" d="M264.15,58.9h-3.81v18.7h2s0,0,0,0h1.82V58.9Z"/><path class="b" d="M255.59,51.27a2.88,2.88,0,1,0,0,5.75h2.88V54.15A2.88,2.88,0,0,0,255.59,51.27Z"/><path class="b" d="M271.77,54.15a2.88,2.88,0,0,0-5.75,0V57h2.87A2.88,2.88,0,0,0,271.77,54.15Z"/><path class="b" d="M278.11,48.94c-1.29-5.1-7.39-10.61-15.87-10.62s-14.57,5.53-15.87,10.62c-1,3.88-.08,7.56,1.77,11.14,1.68,3.24,3.42,5.9,4.87,9.21a36.5,36.5,0,0,1,1.52,6.25c0.34,1.52.92,2,2.76,2h1.16V58.9h-2.88a4.75,4.75,0,0,1,0-9.5,4.76,4.76,0,0,1,4.75,4.69h0V57h3.81V54.09h0a4.75,4.75,0,1,1,4.75,4.81H266v18.7h1.15c1.84,0,2.43-.53,2.76-2a36.38,36.38,0,0,1,1.52-6.25c1.45-3.31,3.19-6,4.87-9.21C278.19,56.5,279.1,52.82,278.11,48.94Z"/><path class="b" d="M264,32.4a1.74,1.74,0,0,0-1.74-1.74h0a1.74,1.74,0,0,0-1.74,1.74v3.22a1.74,1.74,0,0,0,1.74,1.74h0A1.74,1.74,0,0,0,264,35.62V32.4Z"/><path class="b" d="M273.67,35.25a1.74,1.74,0,0,0-.7-2.36h0a1.74,1.74,0,0,0-2.36.7l-1.54,2.83a1.74,1.74,0,0,0,.7,2.36h0a1.74,1.74,0,0,0,2.36-.7Z"/><path class="b" d="M280.8,40.88a1.74,1.74,0,0,0,.14-2.46h0a1.74,1.74,0,0,0-2.46-.14l-2.41,2.14a1.74,1.74,0,0,0-.15,2.46h0a1.74,1.74,0,0,0,2.46.15Z"/><path class="b" d="M284.56,49.44a1.74,1.74,0,0,0,1.41-2h0a1.74,1.74,0,0,0-2-1.41l-3.17.58a1.74,1.74,0,0,0-1.41,2h0a1.74,1.74,0,0,0,2,1.41Z"/><path class="b" d="M283.79,58.78a1.74,1.74,0,0,0,2.06-1.36h0a1.74,1.74,0,0,0-1.36-2.05l-3.16-.65a1.74,1.74,0,0,0-2.06,1.36h0a1.74,1.74,0,0,0,1.36,2.05Z"/><path class="b" d="M250.59,35.25a1.74,1.74,0,0,1,.7-2.36h0a1.75,1.75,0,0,1,2.36.7l1.54,2.83a1.74,1.74,0,0,1-.7,2.36h0a1.74,1.74,0,0,1-2.36-.7Z"/><path class="b" d="M243.46,40.88a1.74,1.74,0,0,1-.15-2.46h0a1.74,1.74,0,0,1,2.46-.14l2.41,2.14a1.74,1.74,0,0,1,.14,2.46h0a1.74,1.74,0,0,1-2.46.15Z"/><path class="b" d="M239.7,49.44a1.74,1.74,0,0,1-1.4-2h0a1.74,1.74,0,0,1,2-1.41l3.17,0.58a1.74,1.74,0,0,1,1.4,2h0a1.74,1.74,0,0,1-2,1.41Z"/><path class="b" d="M240.47,58.78a1.75,1.75,0,0,1-2.06-1.36h0a1.74,1.74,0,0,1,1.36-2.05l3.16-.65A1.74,1.74,0,0,1,245,56.08h0a1.74,1.74,0,0,1-1.36,2.05Z"/><path class="b" d="M58.69,56.52c0,17.37-6.44,27-17.76,27-10,0-16.74-9.36-16.9-26.26,0-17.14,7.39-26.57,17.77-26.57C52.56,30.65,58.69,40.25,58.69,56.52Zm-27.75.79c0,13.28,4.09,20.83,10.38,20.83,7.07,0,10.46-8.25,10.46-21.3C51.77,44.25,48.55,36,41.4,36,35.35,36,30.94,43.39,30.94,57.3Z"/><path class="b" d="M66.71,74.68A23.14,23.14,0,0,0,78,77.9c8.89,0,11.63-5.66,11.56-9.91-0.08-7.15-6.53-10.21-13.21-10.21H72.53V52.59h3.85c5,0,11.4-2.59,11.4-8.65,0-4.09-2.6-7.71-9-7.71A18.76,18.76,0,0,0,68.6,39.61l-1.81-5a24.28,24.28,0,0,1,13.36-3.93c10.06,0,14.62,6,14.62,12.18,0,5.27-3.15,9.75-9.43,12V55c6.29,1.26,11.4,6,11.4,13.13,0,8.17-6.37,15.33-18.63,15.33A25.92,25.92,0,0,1,64.82,80Z"/></svg>