<svg xmlns="http://www.w3.org/2000/svg" viewBox="0 0 615.89 170.51"><defs><style>.a{fill:#306e73;}.b{fill:#fff;}</style></defs><title>advert_step-02</title><rect class="a" y="-0.04" width="114.14" height="114.13"/><polygon class="a" points="558.18 53.65 550.74 60.09 543.31 53.65 510.74 25.44 481.36 0 125.44 0 125.44 114.09 158.01 142.3 190.59 170.51 223.16 142.3 255.74 114.09 615.89 114.09 615.89 3.67 590.75 25.44 558.18 53.65"/><path class="b" d="M491.37,41.73h-0.16a94.7,94.7,0,0,0-12.66,5,2.73,2.73,0,0,0-1.39,1.82,1.26,1.26,0,0,0,.71,1.09,4.1,4.1,0,0,0,2.16.45,18.18,18.18,0,0,0,4.31-.68A34.45,34.45,0,0,1,489.43,48c1,0.06,13.26,10.62,17.21,14.06l7.54-3.25-6-15.06C506.59,43.52,493.44,41.73,491.37,41.73Z"/><path class="b" d="M513.49,39.52a1.69,1.69,0,0,0-.62.12l-2.5,1a1.69,1.69,0,0,0-.94,2.18l6.26,15.82a1.7,1.7,0,0,0,2.18.94l2.5-1a1.68,1.68,0,0,0,.94-2.18l-6.26-15.82A1.67,1.67,0,0,0,513.49,39.52Z"/><path class="b" d="M456.45,61.22A1.68,1.68,0,0,0,458,63l2.68,0.2a1.68,1.68,0,0,0,1.8-1.55l1.34-17.78a1.68,1.68,0,0,0-1.55-1.8l-2.68-.2h-0.13a1.69,1.69,0,0,0-1.67,1.55Z"/><path class="b" d="M483.15,77a2.7,2.7,0,0,0-1-1.58c-1.13-.93-2.29-0.78-3.3.46l-1.22,1.47-0.15.2-1.05,1.28A2.58,2.58,0,0,0,478.3,83a2.43,2.43,0,0,0,1.83-1.06l1.78-2.18h0l0.64-.78A2.32,2.32,0,0,0,483.15,77Z"/><path class="b" d="M470.49,76c-0.88,1.07-.66,2,0.74,3.17,1.13,0.93,2.29.78,3.3-.46L477.61,75a2.32,2.32,0,0,0-.42-3.49c-1.13-.93-2.29-0.78-3.3.45l-1.69,2h0l-0.18.22Z"/><path class="b" d="M466,71.54a2.31,2.31,0,0,0-.59,1.92,2.71,2.71,0,0,0,1,1.58c1.13,0.93,2.29.78,3.3-.46l3.4-4a2.32,2.32,0,0,0,.6-1.92,2.7,2.7,0,0,0-1-1.57c-1.13-.93-2.29-0.78-3.3.46l-1.69,2h0l-0.17.22Z"/><path class="b" d="M465.28,70.07l3.38-4a2.32,2.32,0,0,0-.42-3.49c-1.13-.93-2.29-0.78-3.3.46l-1.11,1.41h0l-0.18.22-1.54,1.78a2.59,2.59,0,0,0-.77,1.9,1.94,1.94,0,0,0,.75,1.3,3.41,3.41,0,0,0,1.92,1A1.85,1.85,0,0,0,465.28,70.07Z"/><path class="b" d="M505.7,66.59a2.22,2.22,0,0,0-.32-3.48L504.16,62c-6.12-5.3-13.33-11.37-14.93-12.39-0.77.15-2.78,0.79-4.37,1.36l-0.07,0a19.57,19.57,0,0,1-4.76.74,5.51,5.51,0,0,1-3-.7,2.76,2.76,0,0,1-1.44-2.47,4.16,4.16,0,0,1,2.08-3.07l-12.35-1.53-1.27,17.81a3.7,3.7,0,0,1,2.72-1.29,3.85,3.85,0,0,1,2.43.95A3.89,3.89,0,0,1,470.77,65a3.62,3.62,0,0,1,2.91.91,3.9,3.9,0,0,1,1.56,3.57,3.63,3.63,0,0,1,2.91.91,4,4,0,0,1,1.59,3.1,3.58,3.58,0,0,1,3.34.81,3.8,3.8,0,0,1,1.38,4.33l1.06,0.87,0.25,0.19,0,0a2.34,2.34,0,0,0,1.29.45,2.25,2.25,0,0,0,1.69-.92c0.74-.91,1.19-1.63.26-2.59L489,76.55l-5.5-4.66a0.88,0.88,0,0,1-.1-1.24,0.91,0.91,0,0,1,1.24-.1l7.19,6.09A2.42,2.42,0,0,0,493,77a2.55,2.55,0,0,0,2-1,2.38,2.38,0,0,0,.6-1.73,2.66,2.66,0,0,0-1.08-1.76l-0.85-.69h0l-4-3.25a0.88,0.88,0,0,1-.13-1.24,0.91,0.91,0,0,1,1.24-.13l6.58,5.35a2.4,2.4,0,0,0,1.53.59,2.93,2.93,0,0,0,2.19-1.2,2.47,2.47,0,0,0,.65-1.75,2.53,2.53,0,0,0-1.06-1.72l-1.93-1.57h0L495.35,64a0.88,0.88,0,0,1-.13-1.24,0.9,0.9,0,0,1,1.24-.13L502,67.22C503.23,68.18,504.64,67.9,505.7,66.59Z"/><path class="b" d="M58.73,57.41c0,17.37-6.45,27-17.76,27-10,0-16.74-9.36-16.9-26.26,0-17.14,7.39-26.57,17.76-26.57C52.6,31.54,58.73,41.14,58.73,57.41ZM31,58.19C31,71.48,35.07,79,41.36,79c7.07,0,10.45-8.25,10.45-21.3,0-12.58-3.22-20.83-10.37-20.83C35.39,36.89,31,44.28,31,58.19Z"/><path class="b" d="M65.1,83.5V79.26L70.52,74c13-12.42,18.94-19,19-26.73,0-5.19-2.51-10-10.14-10a17.37,17.37,0,0,0-10.85,4.33l-2.2-4.88a22.42,22.42,0,0,1,14.47-5.19c11,0,15.64,7.54,15.64,14.86,0,9.43-6.84,17.06-17.61,27.43l-4.09,3.77v0.16h23V83.5H65.1Z"/></svg>