<svg id="Layer_1" data-name="Layer 1" xmlns="http://www.w3.org/2000/svg" xmlns:xlink="http://www.w3.org/1999/xlink" viewBox="0 0 64.04 130"><defs><style>.cls-1{fill:url(#New_Gradient_Swatch_1);}.cls-2{fill:#fff;fill-rule:evenodd;}</style><linearGradient id="New_Gradient_Swatch_1" x1="4900.73" y1="-374.37" x2="4900.73" y2="-438.41" gradientTransform="matrix(0, -1, -1, 0, -374.37, 4965.73)" gradientUnits="userSpaceOnUse"><stop offset="0" stop-color="#de4832"/><stop offset="0.94" stop-color="#f8981d"/></linearGradient></defs><title>brandCamp</title><path class="cls-1" d="M32,0C14.33,0,0,13.64,0,30.47,0,42.42,7.23,52.76,17.75,57.75v4.4a2.65,2.65,0,0,0,2.65,2.65h1.69v55.33l3.68,3.68V66.75a1.58,1.58,0,0,1,3.16,0V127l3,3,10-9.87V108.66l-6-6,6-6V95.86l-6-6,6-6V64.8h2.55a2.65,2.65,0,0,0,2.65-2.65V57.33A30.3,30.3,0,0,0,64,30.47C64,13.64,49.7,0,32,0Z"/><path class="cls-2" d="M42.11,22.56a2.74,2.74,0,1,1-2.74-2.74,2.74,2.74,0,0,1,2.74,2.74h0Zm-6.22,4.78a3.45,3.45,0,0,1-1.5,2.85h1.44a3.37,3.37,0,0,1,3.26,2.55h0.59a3.44,3.44,0,0,1,3.23-2.56h1.44a3.43,3.43,0,0,1-1.29-4l-0.31,0-6.78,0-0.31,0a3.47,3.47,0,0,1,.22,1.22h0ZM22,27.35a3.46,3.46,0,0,1-1.5,2.85h1.43a3.37,3.37,0,0,1,3.26,2.55H25.8A3.45,3.45,0,0,1,29,30.17h1.42a3.42,3.42,0,0,1-1.26-4l-0.31,0-6.78,0-0.31,0A3.44,3.44,0,0,1,22,27.35h0Zm2.6,10.18H12.45l0.06-4a2.66,2.66,0,0,1,2.65-2.66l6.78,0a2.65,2.65,0,0,1,2.65,2.65v0s0,1.87,0,3.92h0ZM21.29,27.35a2.74,2.74,0,1,1-2.74-2.74,2.74,2.74,0,0,1,2.74,2.74h0ZM38.48,37.53H26.33c0-2.07.06-4,.06-4A2.66,2.66,0,0,1,29,30.89l6.78,0a2.65,2.65,0,0,1,2.65,2.65v0s0,1.87,0,3.92h0ZM35.17,27.35a2.74,2.74,0,1,1-2.74-2.74,2.74,2.74,0,0,1,2.74,2.74h0ZM52.36,37.53H40.2c0-2.07.06-4,.06-4a2.66,2.66,0,0,1,2.65-2.66l6.78,0a2.65,2.65,0,0,1,2.65,2.65v0s0,1.87,0,3.92h0ZM49,27.35a2.74,2.74,0,1,1-2.74-2.74A2.74,2.74,0,0,1,49,27.35h0ZM28.23,22.56a2.74,2.74,0,1,1-2.74-2.74A2.74,2.74,0,0,1,28.23,22.56Z"/></svg>