<svg id="Layer_1" data-name="Layer 1" xmlns="http://www.w3.org/2000/svg" xmlns:xlink="http://www.w3.org/1999/xlink" viewBox="0 0 64.04 130"><defs><style>.cls-1{fill:url(#New_Gradient_Swatch_1);}.cls-2{fill:#fff;}</style><linearGradient id="New_Gradient_Swatch_1" x1="5157.88" y1="-117.23" x2="5157.88" y2="-181.26" gradientTransform="matrix(0, -1, -1, 0, -117.23, 5222.88)" gradientUnits="userSpaceOnUse"><stop offset="0" stop-color="#de4832"/><stop offset="0.94" stop-color="#f8981d"/></linearGradient></defs><title>brandCamp</title><path class="cls-1" d="M32,0C14.33,0,0,13.64,0,30.47,0,42.42,7.23,52.76,17.75,57.75v4.4a2.65,2.65,0,0,0,2.65,2.65h1.69v55.33l3.68,3.68V66.75a1.58,1.58,0,0,1,3.16,0V127l3,3,10-9.87V108.66l-6-6,6-6V95.86l-6-6,6-6V64.8h2.55a2.65,2.65,0,0,0,2.65-2.65V57.33A30.3,30.3,0,0,0,64,30.47C64,13.64,49.7,0,32,0Z"/><path class="cls-2" d="M20.59,23.44l-4,2,2-4ZM34.46,9.57l-2-2-2,2,2,2ZM28.87,29.8h9.87V28.9H28.87V29.8Zm0-5.71h9.87V23.2H28.87v0.89Zm0,2.85h9.87V26H28.87v0.89ZM52.29,19.6v0.35H43.41V38.47a4.79,4.79,0,0,1-4.79,4.79H21.41a4.79,4.79,0,0,1-4.79-4.79V38.13h8.88V19.6a4.76,4.76,0,0,1,.17-1.24l-4.1,4.1-2-2,9.91-9.91,2,2L29.06,15a4.75,4.75,0,0,1,1.24-.17H47.5A4.79,4.79,0,0,1,52.29,19.6ZM45,15.5H30.29A4.1,4.1,0,0,0,26.2,19.6V38.13h8.33v0.35a4.09,4.09,0,0,0,8.19,0V19.6A4.79,4.79,0,0,1,45,15.5ZM28.87,21.23h9.87V20.34H28.87v0.89Z"/></svg>