<svg id="Layer_1" data-name="Layer 1" xmlns="http://www.w3.org/2000/svg" xmlns:xlink="http://www.w3.org/1999/xlink" viewBox="0 0 64.04 130"><defs><style>.cls-1{fill:url(#New_Gradient_Swatch_1);}.cls-2{fill:#fff;}</style><linearGradient id="New_Gradient_Swatch_1" x1="5369.94" y1="94.83" x2="5369.94" y2="30.8" gradientTransform="matrix(0, -1, -1, 0, 94.83, 5434.94)" gradientUnits="userSpaceOnUse"><stop offset="0" stop-color="#de4832"/><stop offset="0.94" stop-color="#f8981d"/></linearGradient></defs><title>brandCamp</title><path class="cls-1" d="M32,0C14.33,0,0,13.64,0,30.47,0,42.42,7.23,52.76,17.75,57.75v4.4a2.65,2.65,0,0,0,2.65,2.65h1.69v55.33l3.68,3.68V66.75a1.58,1.58,0,0,1,3.16,0V127l3,3,10-9.87V108.66l-6-6,6-6V95.86l-6-6,6-6V64.8h2.55a2.65,2.65,0,0,0,2.65-2.65V57.33A30.3,30.3,0,0,0,64,30.47C64,13.64,49.7,0,32,0Z"/><path class="cls-2" d="M42.51,26.32c0.05-5.58.41-10.08-2.82-13.85C37.75,10.21,35,8.42,32,9.18A7.83,7.83,0,0,0,24,13c-2.63,4.2-2.35,7.73-2.3,13.31a16.92,16.92,0,0,1-2.89,9.51s0.83-.46,2.79-1.29a47.36,47.36,0,0,1,5.64-1.69l1.56-2.15a6.79,6.79,0,0,0,6.58.06l1.27,2.07a48.1,48.1,0,0,1,5.94,1.72c2,0.83,2.79,1.29,2.79,1.29A16.93,16.93,0,0,1,42.51,26.32ZM25.26,21.71c0-.31,0-0.62,0-0.92a30.73,30.73,0,0,0,3.25-2.55,6.31,6.31,0,0,0,1.52-1.93A14.8,14.8,0,0,0,34.5,19.4,33.39,33.39,0,0,0,39,21c0,0.24,0,.49,0,0.74,0,4.76-3.1,8.63-6.9,8.63S25.26,26.47,25.26,21.71Z"/><path class="cls-2" d="M38.9,32.72H36.7L35,39.06H29l-1.7-6.35H25.14c-5.46,0-9.89,5.75-9.89,11.21v0.82H48.79V43.93C48.79,38.46,44.36,32.72,38.9,32.72Z"/></svg>