<svg id="Layer_2" data-name="Layer 2" xmlns="http://www.w3.org/2000/svg" xmlns:xlink="http://www.w3.org/1999/xlink" viewBox="0 0 441.25 115.97"><defs><style>.cls-1{fill:url(#New_Gradient_Swatch_1);}.cls-2{fill:url(#New_Gradient_Swatch_1-2);}.cls-3{fill:url(#New_Gradient_Swatch_1-3);}.cls-4{font-size:23.08px;fill:#020202;font-family:Arial;}</style><linearGradient id="New_Gradient_Swatch_1" x1="0.07" y1="57.98" x2="77.96" y2="57.98" gradientUnits="userSpaceOnUse"><stop offset="0" stop-color="#de4832"/><stop offset="0.94" stop-color="#f8981d"/></linearGradient><linearGradient id="New_Gradient_Swatch_1-2" x1="39.01" y1="57.98" x2="441.25" y2="57.98" xlink:href="#New_Gradient_Swatch_1"/><linearGradient id="New_Gradient_Swatch_1-3" x1="9.57" y1="57.98" x2="68.46" y2="57.98" xlink:href="#New_Gradient_Swatch_1"/></defs><title>checklist_small</title><path class="cls-1" d="M66.81,19H11.22A11.18,11.18,0,0,0,.07,30.19V85.78A11.18,11.18,0,0,0,11.22,96.93H66.81A11.18,11.18,0,0,0,78,85.78V30.19A11.18,11.18,0,0,0,66.81,19Zm6.41,66.74a6.42,6.42,0,0,1-6.41,6.41H11.22a6.42,6.42,0,0,1-6.41-6.41V30.19a6.42,6.42,0,0,1,6.41-6.41H66.81a6.42,6.42,0,0,1,6.41,6.41V85.78Z"/><path class="cls-2" d="M430.1,0H50.16A11.18,11.18,0,0,0,39,11.15v4.17h4.74V11.15a6.42,6.42,0,0,1,6.41-6.41H430.1a6.42,6.42,0,0,1,6.41,6.41v93.67a6.42,6.42,0,0,1-6.41,6.41H50.16a6.42,6.42,0,0,1-6.41-6.41v-4.17H39v4.17A11.18,11.18,0,0,0,50.16,116H430.1a11.18,11.18,0,0,0,11.15-11.15V11.15A11.18,11.18,0,0,0,430.1,0Z"/><polygon class="cls-3" points="32.55 86.19 9.57 55.32 17.88 49.13 32.36 68.58 60.02 29.77 68.46 35.79 32.55 86.19"/><text class="cls-4" transform="translate(89.64 50.29)">Coordinate Media: Leverage <tspan x="0" y="27.7">earned media where plausible</tspan></text></svg>