<?xml version="1.0" encoding="UTF-8" standalone="no"?>
<!-- Created with Inkscape (http://www.inkscape.org/) -->

<svg
   xmlns:dc="http://purl.org/dc/elements/1.1/"
   xmlns:cc="http://creativecommons.org/ns#"
   xmlns:rdf="http://www.w3.org/1999/02/22-rdf-syntax-ns#"
   xmlns:svg="http://www.w3.org/2000/svg"
   xmlns="http://www.w3.org/2000/svg"
   xmlns:xlink="http://www.w3.org/1999/xlink"
   version="1.1"
   width="578.41266"
   height="601.11823"
   id="svg17926">
  <defs
     id="defs17928">
    <clipPath
       id="clipPath11606">
      <path
         d="m 638.915,4031.75 224.135,0 0,-224.13 -224.135,0 0,224.13 z"
         id="path11608" />
    </clipPath>
    <linearGradient
       x1="0"
       y1="0"
       x2="1"
       y2="0"
       id="linearGradient17068"
       xlink:href="#linearGradient11614"
       gradientUnits="userSpaceOnUse"
       gradientTransform="matrix(-160.36923,155.33533,-155.33533,-160.36923,830.42969,3842.7314)"
       spreadMethod="pad" />
    <linearGradient
       x1="0"
       y1="0"
       x2="1"
       y2="0"
       id="linearGradient11614"
       gradientUnits="userSpaceOnUse"
       gradientTransform="matrix(-160.36923,155.33533,-155.33533,-160.36923,830.42969,3842.7314)"
       spreadMethod="pad">
      <stop
         id="stop11616"
         style="stop-color:#929497;stop-opacity:1"
         offset="0" />
      <stop
         id="stop11618"
         style="stop-color:#ffffff;stop-opacity:1"
         offset="1" />
    </linearGradient>
    <clipPath
       id="clipPath10238">
      <path
         d="m 707.524,4288.51 394.116,0 0,-394.12 -394.116,0 0,394.12 z"
         id="path10240" />
    </clipPath>
    <linearGradient
       x1="0"
       y1="0"
       x2="1"
       y2="0"
       id="linearGradient17066"
       xlink:href="#linearGradient10246"
       gradientUnits="userSpaceOnUse"
       gradientTransform="matrix(281.99573,273.14404,273.14404,-281.99573,764.88379,3956.1348)"
       spreadMethod="pad" />
    <linearGradient
       x1="0"
       y1="0"
       x2="1"
       y2="0"
       id="linearGradient10246"
       gradientUnits="userSpaceOnUse"
       gradientTransform="matrix(281.99573,273.14404,273.14404,-281.99573,764.88379,3956.1348)"
       spreadMethod="pad">
      <stop
         id="stop10248"
         style="stop-color:#929497;stop-opacity:1"
         offset="0" />
      <stop
         id="stop10250"
         style="stop-color:#ffffff;stop-opacity:1"
         offset="1" />
    </linearGradient>
  </defs>
  <metadata
     id="metadata17931">
    <rdf:RDF>
      <cc:Work
         rdf:about="">
        <dc:format>image/svg+xml</dc:format>
        <dc:type
           rdf:resource="http://purl.org/dc/dcmitype/StillImage" />
        <dc:title></dc:title>
      </cc:Work>
    </rdf:RDF>
  </metadata>
  <g
     transform="translate(-1116.508,945.3398)"
     id="layer1">
    <g
       transform="matrix(1.25,0,0,-1.25,1448.5981,-517.42807)"
       id="g9498">
      <path
         d="m 0,0 c -80.23,0 -145.269,65.043 -145.269,145.272 0,80.229 65.039,145.265 145.269,145.265 80.229,0 145.268,-65.036 145.268,-145.265 C 145.268,65.043 80.229,0 0,0"
         id="path9500"
         style="fill:#659ad2;fill-opacity:1;fill-rule:nonzero;stroke:none" />
    </g>
    <g
       transform="matrix(1.25,0,0,-1.25,1448.5981,-520.99007)"
       id="g10230">
      <path
         d="m 0,0 c -78.657,0 -142.422,63.764 -142.422,142.423 0,78.651 63.765,142.418 142.422,142.418 78.653,0 142.417,-63.767 142.417,-142.418 C 142.417,63.764 78.653,0 0,0 m 0,339.479 c -108.832,0 -197.062,-88.225 -197.062,-197.056 0,-108.832 88.23,-197.065 197.062,-197.065 108.831,0 197.058,88.233 197.058,197.065 0,108.831 -88.227,197.056 -197.058,197.056"
         id="path10232"
         style="fill:#f4f5f5;fill-opacity:1;fill-rule:nonzero;stroke:none" />
    </g>
    <g
       transform="matrix(1.25,0,0,-1.25,317.86511,4415.2977)"
       id="g10234">
      <g
         id="g10236" />
      <g
         id="g10252">
        <g
           clip-path="url(#clipPath10238)"
           id="g10254"
           style="opacity:0.27999902">
          <g
             id="g10256">
            <g
               id="g10258">
              <g
                 id="g10260">
                <g
                   id="g10262">
                  <path
                     d="m 904.586,3949.03 c -78.657,0 -142.422,63.764 -142.422,142.423 0,78.651 63.765,142.418 142.422,142.418 78.654,0 142.417,-63.767 142.417,-142.418 0,-78.659 -63.763,-142.423 -142.417,-142.423 m 0,339.48 c -108.832,0 -197.062,-88.226 -197.062,-197.057 0,-108.832 88.23,-197.064 197.062,-197.064 108.831,0 197.059,88.232 197.059,197.064 0,108.831 -88.228,197.057 -197.059,197.057"
                     id="path10264"
                     style="fill:url(#linearGradient17066);stroke:none" />
                </g>
              </g>
            </g>
          </g>
        </g>
      </g>
    </g>
    <g
       transform="matrix(1.25,0,0,-1.25,1256.5918,-381.04747)"
       id="g10924">
      <path
         d="m 0,0 c 45.623,0 82.611,36.982 82.611,82.613 0,45.623 -36.988,82.61 -82.611,82.61 -45.625,0 -82.611,-36.987 -82.611,-82.61 C -82.611,36.982 -45.625,0 0,0"
         id="path10926"
         style="fill:#659ad2;fill-opacity:1;fill-rule:nonzero;stroke:none" />
    </g>
    <g
       transform="matrix(1.25,0,0,-1.25,1554.2169,-774.33597)"
       id="g11578">
      <path
         d="m 0,0 -178.763,0 c -2.789,0 -5.058,-2.124 -5.058,-4.755 l 0,-7.933 c 0,2.472 2.269,4.475 5.058,4.475 L 0,-8.213 c 2.792,0 5.061,-2.003 5.061,-4.475 l 0,7.933 C 5.061,-2.124 2.792,0 0,0"
         id="path11580"
         style="fill:#4a4a49;fill-opacity:1;fill-rule:nonzero;stroke:none" />
    </g>
    <g
       transform="matrix(1.25,0,0,-1.25,1348.5963,-675.85207)"
       id="g11582">
      <path
         d="m 0,0 0,9.954 57.551,24.301 0,-10.608 -45.636,-18.728 45.636,-18.912 0,-10.603 L 0,0 z"
         id="path11584"
         style="fill:#4a4a49;fill-opacity:1;fill-rule:nonzero;stroke:none" />
    </g>
    <g
       transform="matrix(1.25,0,0,-1.25,1421.3258,-626.50887)"
       id="g11586">
      <path
         d="m 0,0 25.186,89.854 8.536,0 L 8.591,0 0,0 z"
         id="path11588"
         style="fill:#4a4a49;fill-opacity:1;fill-rule:nonzero;stroke:none" />
    </g>
    <g
       transform="matrix(1.25,0,0,-1.25,1536.1243,-675.85207)"
       id="g11590">
      <path
         d="m 0,0 -57.551,-24.596 0,10.603 45.576,18.912 -45.576,18.728 0,10.608 L 0,9.954 0,0 z"
         id="path11592"
         style="fill:#4a4a49;fill-opacity:1;fill-rule:nonzero;stroke:none" />
    </g>
    <g
       transform="matrix(1.25,0,0,-1.25,1561.0144,-593.05317)"
       id="g11594">
      <path
         d="m 0,0 -188.391,0 c -0.861,0 -1.56,0.694 -1.56,1.56 0,0.851 0.699,1.554 1.56,1.554 L 0,3.114 C 0.864,3.114 1.562,2.411 1.562,1.56 1.562,0.694 0.864,0 0,0 m -188.632,137.398 c 0,2.49 2.246,4.507 5.027,4.507 l 177.575,0 c 2.78,0 5.026,-2.017 5.026,-4.507 l 0,-122.799 c 0,-2.491 -2.246,-4.51 -5.026,-4.51 l -177.575,0 c -2.781,0 -5.027,2.019 -5.027,4.51 l 0,122.799 z m 193,20.112 -198.373,0 c -3.098,0 -5.615,-2.515 -5.615,-5.614 l 0,-152.833 c 0,-3.099 2.517,-5.615 5.615,-5.615 l 198.373,0 c 3.102,0 5.614,2.516 5.614,5.615 l 0,152.833 c 0,3.099 -2.512,5.614 -5.614,5.614"
         id="path11596"
         style="fill:#4a4a49;fill-opacity:1;fill-rule:nonzero;stroke:none" />
    </g>
    <g
       transform="matrix(1.25,0,0,-1.25,1155.3517,-484.31407)"
       id="g11598">
      <path
         d="m 0,0 c 0,44.729 36.262,80.99 80.992,80.99 44.73,0 80.989,-36.261 80.989,-80.99 0,-44.732 -36.259,-80.994 -80.989,-80.994 C 36.262,-80.994 0,-44.732 0,0 m -31.075,-0.004 c 0,-61.889 50.176,-112.07 112.067,-112.07 61.892,0 112.069,50.181 112.069,112.07 0,61.893 -50.177,112.067 -112.069,112.067 -61.891,0 -112.067,-50.174 -112.067,-112.067"
         id="path11600"
         style="fill:#f4f5f5;fill-opacity:1;fill-rule:nonzero;stroke:none" />
    </g>
    <g
       transform="matrix(1.25,0,0,-1.25,317.86511,4415.2977)"
       id="g11602">
      <g
         id="g11604" />
      <g
         id="g11620">
        <g
           clip-path="url(#clipPath11606)"
           id="g11622"
           style="opacity:0.27999902">
          <g
             id="g11624">
            <g
               id="g11626">
              <g
                 id="g11628">
                <g
                   id="g11630">
                  <path
                     d="m 669.989,3919.689 c 0,44.729 36.262,80.991 80.992,80.991 44.73,0 80.99,-36.262 80.99,-80.991 0,-44.732 -36.26,-80.994 -80.99,-80.994 -44.73,0 -80.992,36.262 -80.992,80.994 m -31.074,0 c 0,-61.889 50.175,-112.071 112.066,-112.071 61.892,0 112.069,50.182 112.069,112.071 0,61.892 -50.177,112.066 -112.069,112.066 -61.891,0 -112.066,-50.174 -112.066,-112.066"
                     id="path11632"
                     style="fill:url(#linearGradient17068);stroke:none" />
                </g>
              </g>
            </g>
          </g>
        </g>
      </g>
    </g>
  </g>
</svg>
