<?xml version="1.0" encoding="UTF-8" standalone="no"?>
<!-- Created with Inkscape (http://www.inkscape.org/) -->

<svg
   xmlns:dc="http://purl.org/dc/elements/1.1/"
   xmlns:cc="http://creativecommons.org/ns#"
   xmlns:rdf="http://www.w3.org/1999/02/22-rdf-syntax-ns#"
   xmlns:svg="http://www.w3.org/2000/svg"
   xmlns="http://www.w3.org/2000/svg"
   xmlns:xlink="http://www.w3.org/1999/xlink"
   version="1.1"
   width="662.25128"
   height="609.77063"
   id="svg20541">
  <defs
     id="defs20543">
    <clipPath
       id="clipPath3358">
      <path
         d="m 560.345,4936.92 179.979,0 0,-179.98 -179.979,0 0,179.98 z"
         id="path3360" />
    </clipPath>
    <linearGradient
       x1="0"
       y1="0"
       x2="1"
       y2="0"
       id="linearGradient19793"
       xlink:href="#linearGradient3366"
       gradientUnits="userSpaceOnUse"
       gradientTransform="matrix(-128.77687,124.73464,-124.73464,-128.77687,714.13086,4785.1377)"
       spreadMethod="pad" />
    <linearGradient
       x1="0"
       y1="0"
       x2="1"
       y2="0"
       id="linearGradient3366"
       gradientUnits="userSpaceOnUse"
       gradientTransform="matrix(-128.77687,124.73464,-124.73464,-128.77687,714.13086,4785.1377)"
       spreadMethod="pad">
      <stop
         id="stop3368"
         style="stop-color:#929497;stop-opacity:1"
         offset="0" />
      <stop
         id="stop3370"
         style="stop-color:#ffffff;stop-opacity:1"
         offset="1" />
    </linearGradient>
    <clipPath
       id="clipPath2010">
      <path
         d="m 272.607,5187.59 415.223,0 0,-415.22 -415.223,0 0,415.22 z"
         id="path2012" />
    </clipPath>
    <linearGradient
       x1="0"
       y1="0"
       x2="1"
       y2="0"
       id="linearGradient19791"
       xlink:href="#linearGradient2018"
       gradientUnits="userSpaceOnUse"
       gradientTransform="matrix(-297.09497,287.76932,-287.76932,-297.09497,627.40137,4837.4219)"
       spreadMethod="pad" />
    <linearGradient
       x1="0"
       y1="0"
       x2="1"
       y2="0"
       id="linearGradient2018"
       gradientUnits="userSpaceOnUse"
       gradientTransform="matrix(-297.09497,287.76932,-287.76932,-297.09497,627.40137,4837.4219)"
       spreadMethod="pad">
      <stop
         id="stop2020"
         style="stop-color:#929497;stop-opacity:1"
         offset="0" />
      <stop
         id="stop2022"
         style="stop-color:#ffffff;stop-opacity:1"
         offset="1" />
    </linearGradient>
  </defs>
  <metadata
     id="metadata20546">
    <rdf:RDF>
      <cc:Work
         rdf:about="">
        <dc:format>image/svg+xml</dc:format>
        <dc:type
           rdf:resource="http://purl.org/dc/dcmitype/StillImage" />
        <dc:title></dc:title>
      </cc:Work>
    </rdf:RDF>
  </metadata>
  <g
     transform="translate(-400.30294,909.66599)"
     id="layer1">
    <g
       transform="matrix(1.415923,0,0,-1.415923,694.26732,-399.00092)"
       id="g1254">
      <path
         d="m 0,0 c 84.525,0 153.043,68.521 153.043,153.049 0,84.527 -68.518,153.048 -153.043,153.048 -84.528,0 -153.048,-68.521 -153.048,-153.048 C -153.048,68.521 -84.528,0 0,0"
         id="path1256"
         style="fill:#39b54a;fill-opacity:1;fill-rule:nonzero;stroke:none" />
    </g>
    <g
       transform="matrix(1.415923,0,0,-1.415923,709.33572,-623.63912)"
       id="g1986">
      <path
         d="M 0,0 C -0.571,1.489 -1.772,2.548 -3.183,2.994 L -6.043,13.976 45.519,34.351 32.092,68.327 -74.446,26.224 -61.021,-7.744 -19.519,8.65 -21.081,2.934 C -22.416,2.46 -23.544,1.432 -24.091,0 l -54.788,-142.981 c -0.995,-2.598 0.302,-5.502 2.898,-6.497 0.592,-0.228 1.2,-0.334 1.797,-0.334 2.024,0 3.932,1.232 4.699,3.232 l 50.375,131.47 2.036,0.017 0,-104.183 c 0,-2.779 2.251,-5.03 5.029,-5.03 2.777,0 5.028,2.251 5.028,5.03 l 0,104.276 1.987,0.018 50.426,-131.598 c 0.765,-2.002 2.673,-3.232 4.696,-3.232 0.597,0 1.204,0.106 1.798,0.334 2.592,0.995 3.891,3.899 2.898,6.497 L 0,0 z"
         id="path1988"
         style="fill:#58595b;fill-opacity:1;fill-rule:nonzero;stroke:none" />
    </g>
    <g
       transform="matrix(1.415923,0,0,-1.415923,602.21502,-649.35382)"
       id="g1990">
      <path
         d="M 0,0 -26.026,-10.283 -17.5,-31.858 8.527,-21.575 0,0 z"
         id="path1992"
         style="fill:#58595b;fill-opacity:1;fill-rule:nonzero;stroke:none" />
    </g>
    <g
       transform="matrix(1.415923,0,0,-1.415923,561.98572,-628.68882)"
       id="g1994">
      <path
         d="m 0,0 -14.54,-5.746 -1.152,2.914 -5.832,-2.301 8.525,-21.582 5.832,2.302 -1.151,2.921 14.542,5.746 L 0,0 z"
         id="path1996"
         style="fill:#58595b;fill-opacity:1;fill-rule:nonzero;stroke:none" />
    </g>
    <g
       transform="matrix(1.415923,0,0,-1.415923,827.58395,-680.84972)"
       id="g1998">
      <path
         d="M 0,0 -19.307,48.871 -49.432,36.961 -30.124,-11.9 0,0 z"
         id="path2000"
         style="fill:#58595b;fill-opacity:1;fill-rule:nonzero;stroke:none" />
    </g>
    <g
       transform="matrix(1.415923,0,0,-1.415923,481.80832,-615.70622)"
       id="g2002">
      <path
         d="M 0,0 C 0,82.87 67.18,150.048 150.05,150.048 232.916,150.048 300.098,82.87 300.098,0 300.098,-82.869 232.916,-150.05 150.05,-150.05 67.18,-150.05 0,-82.869 0,0 m -57.563,0 c 0,-114.658 92.954,-207.612 207.613,-207.612 114.661,0 207.609,92.954 207.609,207.612 0,114.66 -92.948,207.61 -207.609,207.61 C 35.391,207.61 -57.563,114.66 -57.563,0"
         id="path2004"
         style="fill:#f4f5f5;fill-opacity:1;fill-rule:nonzero;stroke:none" />
    </g>
    <g
       transform="matrix(1.415923,0,0,-1.415923,14.312421,6435.5654)"
       id="g2006">
      <g
         id="g2008" />
      <g
         id="g2024">
        <g
           clip-path="url(#clipPath2010)"
           id="g2026"
           style="opacity:0.27999902">
          <g
             id="g2028">
            <g
               id="g2030">
              <g
                 id="g2032">
                <g
                   id="g2034">
                  <path
                     d="m 330.17,4979.982 c 0,82.871 67.181,150.048 150.05,150.048 82.866,0 150.048,-67.177 150.048,-150.048 0,-82.869 -67.182,-150.049 -150.048,-150.049 -82.869,0 -150.05,67.18 -150.05,150.049 m -57.563,0 c 0,-114.658 92.955,-207.612 207.613,-207.612 114.661,0 207.61,92.954 207.61,207.612 0,114.661 -92.949,207.611 -207.61,207.611 -114.658,0 -207.613,-92.95 -207.613,-207.611"
                     id="path2036"
                     style="fill:url(#linearGradient19791);stroke:none" />
                </g>
              </g>
            </g>
          </g>
        </g>
      </g>
    </g>
    <g
       transform="matrix(1.415923,0,0,-1.415923,935.13533,-333.39282)"
       id="g2696">
      <path
         d="m 0,0 c 36.638,0 66.337,29.694 66.337,66.339 0,36.633 -29.699,66.333 -66.337,66.333 -36.636,0 -66.336,-29.7 -66.336,-66.333 C -66.336,29.694 -36.636,0 0,0"
         id="path2698"
         style="fill:#39b54a;fill-opacity:1;fill-rule:nonzero;stroke:none" />
    </g>
    <g
       transform="matrix(1.415923,0,0,-1.415923,843.05192,-427.32342)"
       id="g3350">
      <path
         d="m 0,0 c 0,35.912 29.116,65.036 65.034,65.036 35.918,0 65.037,-29.124 65.037,-65.036 0,-35.922 -29.119,-65.037 -65.037,-65.037 C 29.116,-65.037 0,-35.922 0,0 m -24.955,-0.005 c 0,-49.697 40.291,-89.99 89.989,-89.99 49.701,0 89.99,40.293 89.99,89.99 0,49.699 -40.289,89.991 -89.99,89.991 -49.698,0 -89.989,-40.292 -89.989,-89.991"
         id="path3352"
         style="fill:#f4f5f5;fill-opacity:1;fill-rule:nonzero;stroke:none" />
    </g>
    <g
       transform="matrix(1.415923,0,0,-1.415923,14.312421,6435.5654)"
       id="g3354">
      <g
         id="g3356" />
      <g
         id="g3372">
        <g
           clip-path="url(#clipPath3358)"
           id="g3374"
           style="opacity:0.27999902">
          <g
             id="g3376">
            <g
               id="g3378">
              <g
                 id="g3380">
                <g
                   id="g3382">
                  <path
                     d="m 585.3,4846.937 c 0,35.912 29.116,65.036 65.034,65.036 35.918,0 65.037,-29.124 65.037,-65.036 0,-35.922 -29.119,-65.038 -65.037,-65.038 -35.918,0 -65.034,29.116 -65.034,65.038 m -24.955,-0.01 c 0,-49.698 40.291,-89.991 89.989,-89.991 49.701,0 89.99,40.293 89.99,89.991 0,49.699 -40.289,89.991 -89.99,89.991 -49.698,0 -89.989,-40.292 -89.989,-89.991"
                     id="path3384"
                     style="fill:url(#linearGradient19793);stroke:none" />
                </g>
              </g>
            </g>
          </g>
        </g>
      </g>
    </g>
  </g>
</svg>
