<?xml version="1.0" encoding="UTF-8" standalone="no"?>
<!-- Created with Inkscape (http://www.inkscape.org/) -->

<svg
   xmlns:dc="http://purl.org/dc/elements/1.1/"
   xmlns:cc="http://creativecommons.org/ns#"
   xmlns:rdf="http://www.w3.org/1999/02/22-rdf-syntax-ns#"
   xmlns:svg="http://www.w3.org/2000/svg"
   xmlns="http://www.w3.org/2000/svg"
   xmlns:xlink="http://www.w3.org/1999/xlink"
   version="1.1"
   width="254.83664"
   height="254.8414"
   id="svg20541">
  <defs
     id="defs20543">
    <clipPath
       id="clipPath3358">
      <path
         d="m 560.345,4936.92 179.979,0 0,-179.98 -179.979,0 0,179.98 z"
         id="path3360" />
    </clipPath>
    <linearGradient
       x1="0"
       y1="0"
       x2="1"
       y2="0"
       id="linearGradient19793"
       xlink:href="#linearGradient3366"
       gradientUnits="userSpaceOnUse"
       gradientTransform="matrix(-128.77687,124.73464,-124.73464,-128.77687,714.13086,4785.1377)"
       spreadMethod="pad" />
    <linearGradient
       x1="0"
       y1="0"
       x2="1"
       y2="0"
       id="linearGradient3366"
       gradientUnits="userSpaceOnUse"
       gradientTransform="matrix(-128.77687,124.73464,-124.73464,-128.77687,714.13086,4785.1377)"
       spreadMethod="pad">
      <stop
         id="stop3368"
         style="stop-color:#929497;stop-opacity:1"
         offset="0" />
      <stop
         id="stop3370"
         style="stop-color:#ffffff;stop-opacity:1"
         offset="1" />
    </linearGradient>
    <clipPath
       id="clipPath2010">
      <path
         d="m 272.607,5187.59 415.223,0 0,-415.22 -415.223,0 0,415.22 z"
         id="path2012" />
    </clipPath>
    <linearGradient
       x1="0"
       y1="0"
       x2="1"
       y2="0"
       id="linearGradient19791"
       xlink:href="#linearGradient2018"
       gradientUnits="userSpaceOnUse"
       gradientTransform="matrix(-297.09497,287.76932,-287.76932,-297.09497,627.40137,4837.4219)"
       spreadMethod="pad" />
    <linearGradient
       x1="0"
       y1="0"
       x2="1"
       y2="0"
       id="linearGradient2018"
       gradientUnits="userSpaceOnUse"
       gradientTransform="matrix(-297.09497,287.76932,-287.76932,-297.09497,627.40137,4837.4219)"
       spreadMethod="pad">
      <stop
         id="stop2020"
         style="stop-color:#929497;stop-opacity:1"
         offset="0" />
      <stop
         id="stop2022"
         style="stop-color:#ffffff;stop-opacity:1"
         offset="1" />
    </linearGradient>
    <linearGradient
       x1="0"
       y1="0"
       x2="1"
       y2="0"
       id="linearGradient3063"
       xlink:href="#linearGradient3366"
       gradientUnits="userSpaceOnUse"
       gradientTransform="matrix(-128.77687,124.73464,-124.73464,-128.77687,714.13086,4785.1377)"
       spreadMethod="pad" />
    <linearGradient
       x1="0"
       y1="0"
       x2="1"
       y2="0"
       id="linearGradient3075"
       xlink:href="#linearGradient2018"
       gradientUnits="userSpaceOnUse"
       gradientTransform="matrix(-297.09497,287.76932,-287.76932,-297.09497,627.40137,4837.4219)"
       spreadMethod="pad" />
    <linearGradient
       x1="0"
       y1="0"
       x2="1"
       y2="0"
       id="linearGradient3091"
       xlink:href="#linearGradient2018"
       gradientUnits="userSpaceOnUse"
       gradientTransform="matrix(-297.09497,287.76932,-287.76932,-297.09497,627.40137,4837.4219)"
       spreadMethod="pad" />
    <linearGradient
       x1="0"
       y1="0"
       x2="1"
       y2="0"
       id="linearGradient3099"
       xlink:href="#linearGradient3366"
       gradientUnits="userSpaceOnUse"
       gradientTransform="matrix(-128.77687,124.73464,-124.73464,-128.77687,714.13086,4785.1377)"
       spreadMethod="pad" />
    <linearGradient
       x1="0"
       y1="0"
       x2="1"
       y2="0"
       id="linearGradient3107"
       xlink:href="#linearGradient3366"
       gradientUnits="userSpaceOnUse"
       gradientTransform="matrix(-128.77687,124.73464,-124.73464,-128.77687,714.13086,4785.1377)"
       spreadMethod="pad" />
  </defs>
  <metadata
     id="metadata20546">
    <rdf:RDF>
      <cc:Work
         rdf:about="">
        <dc:format>image/svg+xml</dc:format>
        <dc:type
           rdf:resource="http://purl.org/dc/dcmitype/StillImage" />
        <dc:title></dc:title>
      </cc:Work>
    </rdf:RDF>
  </metadata>
  <path
     d="m 35.33436,127.41333 c 0,-50.84863 41.22601,-92.08597 92.08314,-92.08597 50.85712,0 92.08738,41.23734 92.08738,92.08597 0,50.86279 -41.23026,92.08738 -92.08738,92.08738 -50.85713,0 -92.08314,-41.22459 -92.08314,-92.08738 M 0,127.42033 c 0,70.36712 57.04896,127.41891 127.4175,127.41891 70.37279,0 127.41891,-57.05179 127.41891,-127.41891 C 254.83641,57.05037 197.79029,0 127.4175,0 57.04896,0 0,57.05037 0,127.42033"
     id="path3352"
     style="fill:#f4f5f5;fill-opacity:1;fill-rule:nonzero;stroke:none" />
  <g
     transform="matrix(1.415923,0,0,-1.415923,-793.40514,6990.3022)"
     clip-path="url(#clipPath3358)"
     id="g3374"
     style="opacity:0.27999902">
    <g
       id="g3376">
      <g
         id="g3378">
        <g
           id="g3380">
          <g
             id="g3382">
            <path
               d="m 585.3,4846.937 c 0,35.912 29.116,65.036 65.034,65.036 35.918,0 65.037,-29.124 65.037,-65.036 0,-35.922 -29.119,-65.038 -65.037,-65.038 -35.918,0 -65.034,29.116 -65.034,65.038 m -24.955,-0.01 c 0,-49.698 40.291,-89.991 89.989,-89.991 49.701,0 89.99,40.293 89.99,89.991 0,49.699 -40.289,89.991 -89.99,89.991 -49.698,0 -89.989,-40.292 -89.989,-89.991"
               id="path3384"
               style="fill:url(#linearGradient3107);stroke:none" />
          </g>
        </g>
      </g>
    </g>
  </g>
</svg>
