<svg id="Layer_1" data-name="Layer 1" xmlns="http://www.w3.org/2000/svg" viewBox="0 0 760.14 220.69"><defs><style>.cls-1{fill:#de6d45;}</style></defs><title>engagement_step</title><path class="cls-1" d="M181.47,168.17V100.34l10.44,6.47a23.35,23.35,0,1,0,0-39.68l-10.44,6.47V0H0V174.63H181.47v-6.46Z"/><path class="cls-1" d="M703.36,9a37,37,0,1,1-72.94-9H195.2V51.07a37,37,0,1,1,0,71.81v51.75H464.65l-6.47,10.44a23.35,23.35,0,1,0,39.68,0l-6.47-10.44H760.14V0H702.23A36.74,36.74,0,0,1,703.36,9Z"/></svg>