<svg id="Layer_1" data-name="Layer 1" xmlns="http://www.w3.org/2000/svg" xmlns:xlink="http://www.w3.org/1999/xlink" viewBox="0 0 441.18 115.97"><defs><style>.cls-1{fill:url(#New_Gradient_Swatch_1);}.cls-2{fill:url(#New_Gradient_Swatch_1-2);}.cls-3{fill:url(#New_Gradient_Swatch_1-3);}</style><linearGradient id="New_Gradient_Swatch_1" y1="57.98" x2="77.89" y2="57.98" gradientUnits="userSpaceOnUse"><stop offset="0" stop-color="#dd4732"/><stop offset="0.94" stop-color="#f7971d"/></linearGradient><linearGradient id="New_Gradient_Swatch_1-2" x1="38.94" y1="57.98" x2="441.18" y2="57.98" xlink:href="#New_Gradient_Swatch_1"/><linearGradient id="New_Gradient_Swatch_1-3" x1="9.5" y1="57.98" x2="68.39" y2="57.98" xlink:href="#New_Gradient_Swatch_1"/></defs><title>eventMarket</title><path class="cls-1" d="M66.74,19H11.15A11.18,11.18,0,0,0,0,30.19V85.78A11.18,11.18,0,0,0,11.15,96.93H66.74A11.18,11.18,0,0,0,77.89,85.78V30.19A11.18,11.18,0,0,0,66.74,19Zm6.41,66.74a6.42,6.42,0,0,1-6.41,6.41H11.15a6.42,6.42,0,0,1-6.41-6.41V30.19a6.42,6.42,0,0,1,6.41-6.41H66.74a6.42,6.42,0,0,1,6.41,6.41V85.78Z"/><path class="cls-2" d="M430,0H50.09A11.18,11.18,0,0,0,38.94,11.15v4.17h4.74V11.15a6.42,6.42,0,0,1,6.41-6.41H430a6.42,6.42,0,0,1,6.41,6.41v93.67a6.42,6.42,0,0,1-6.41,6.41H50.09a6.42,6.42,0,0,1-6.41-6.41v-4.17H38.94v4.17A11.18,11.18,0,0,0,50.09,116H430a11.18,11.18,0,0,0,11.15-11.15V11.15A11.18,11.18,0,0,0,430,0Z"/><polygon class="cls-3" points="32.48 86.19 9.5 55.32 17.81 49.13 32.29 68.58 59.95 29.77 68.39 35.79 32.48 86.19"/></svg>