<?xml version="1.0" encoding="UTF-8" standalone="no"?>
<!-- Created with Inkscape (http://www.inkscape.org/) -->

<svg
   xmlns:dc="http://purl.org/dc/elements/1.1/"
   xmlns:cc="http://creativecommons.org/ns#"
   xmlns:rdf="http://www.w3.org/1999/02/22-rdf-syntax-ns#"
   xmlns:svg="http://www.w3.org/2000/svg"
   xmlns="http://www.w3.org/2000/svg"
   xmlns:sodipodi="http://sodipodi.sourceforge.net/DTD/sodipodi-0.dtd"
   xmlns:inkscape="http://www.inkscape.org/namespaces/inkscape"
   version="1.1"
   width="244.31541"
   height="135.37505"
   id="svg3012"
   inkscape:version="0.48.5 r10040"
   sodipodi:docname="favicon.svg">
  <sodipodi:namedview
     pagecolor="#ffffff"
     bordercolor="#666666"
     borderopacity="1"
     objecttolerance="10"
     gridtolerance="10"
     guidetolerance="10"
     inkscape:pageopacity="0"
     inkscape:pageshadow="2"
     inkscape:window-width="1918"
     inkscape:window-height="1078"
     id="namedview7"
     showgrid="false"
     fit-margin-top="0"
     fit-margin-left="0"
     fit-margin-right="0"
     fit-margin-bottom="0"
     inkscape:zoom="1.4637289"
     inkscape:cx="154.56816"
     inkscape:cy="160.102"
     inkscape:window-x="1360"
     inkscape:window-y="0"
     inkscape:window-maximized="0"
     inkscape:current-layer="svg3012" />
  <defs
     id="defs3014" />
  <metadata
     id="metadata3017">
    <rdf:RDF>
      <cc:Work
         rdf:about="">
        <dc:format>image/svg+xml</dc:format>
        <dc:type
           rdf:resource="http://purl.org/dc/dcmitype/StillImage" />
        <dc:title />
      </cc:Work>
    </rdf:RDF>
  </metadata>
  <g
     transform="translate(552.6942,73.282951)"
     id="layer1">
    <path
       d="m -431.4442,-65.939157 c -66.97212,0 -121.25,32.92 -121.25,73.5312503 0,2.35625 0.20557,4.6987497 0.5625,6.9999997 5.80127,-37.33625 57.60063,-66.5625 120.6875,-66.5625 63.0865,0 114.91625,29.22625 120.71875,66.5625 0.355,-2.30125 0.5625,-4.6437497 0.5625,-6.9999997 0,-40.6112503 -54.3085,-73.5312503 -121.28125,-73.5312503 z m 0,35.28125 c -52.56149,0 -95.15625,25.8475003 -95.15625,57.71875 0,1.849375 0.15763,3.6645 0.4375,5.46875 4.55363,-29.3002497 45.20763,-52.21875 94.71875,-52.21875 49.51275,0 90.19625,22.9185003 94.75,52.21875 0.28125,-1.80425 0.4375,-3.619375 0.4375,-5.46875 0,-31.8712497 -42.6285,-57.71875 -95.1875,-57.71875 z m 0,34.7812503 c -33.90962,0 -61.375,16.6887497 -61.375,37.2499997 0,1.19237 0.10113,2.36812 0.28125,3.53125 2.939,-18.90513 29.15138,-33.6875 61.09375,-33.6875 2.4045,0 4.79263,0.08694 7.125,0.25 -5.69027,5.344034 -9.25,12.902064 -9.25,21.3125 0,16.18263 13.12375,29.3125 29.34375,29.3125 15.83045,0 28.73111,-12.51332 29.34375,-28.15625 2.39313,3.42613 3.96247,7.10873 4.5625,10.96875 0.18,-1.16313 0.28125,-2.33888 0.28125,-3.53125 0,-20.56125 -27.49725,-37.2499997 -61.40625,-37.2499997 z m 36.4375,19.4999997 c 3.28875,0 5.9375,2.657625 5.9375,5.9375 0,3.277875 -2.64875,5.9375 -5.9375,5.9375 -3.285,0 -5.96875,-2.659625 -5.96875,-5.9375 0,-3.279875 2.68375,-5.9375 5.96875,-5.9375 z"
       id="path44"
       style="fill:#08162c;fill-opacity:1;fill-rule:nonzero;stroke:none"
       inkscape:connector-curvature="0" />
  </g>
  <g
     transform="translate(554.47836,65.939157)"
     id="layer1-4"
     style="fill:#ffffff">
    <path
       inkscape:connector-curvature="0"
       d="m -431.4442,-65.939157 c -66.97212,0 -121.25,32.92 -121.25,73.5312503 0,2.35625 0.20557,4.6987497 0.5625,6.9999997 5.80127,-37.33625 57.60063,-66.5625 120.6875,-66.5625 63.0865,0 114.91625,29.22625 120.71875,66.5625 0.355,-2.30125 0.5625,-4.6437497 0.5625,-6.9999997 0,-40.6112503 -54.3085,-73.5312503 -121.28125,-73.5312503 z m 0,35.28125 c -52.56149,0 -95.15625,25.8475003 -95.15625,57.71875 0,1.849375 0.15763,3.6645 0.4375,5.46875 4.55363,-29.3002497 45.20763,-52.21875 94.71875,-52.21875 49.51275,0 90.19625,22.9185003 94.75,52.21875 0.28125,-1.80425 0.4375,-3.619375 0.4375,-5.46875 0,-31.8712497 -42.6285,-57.71875 -95.1875,-57.71875 z m 0,34.7812503 c -33.90962,0 -61.375,16.6887497 -61.375,37.2499997 0,1.19237 0.10113,2.36812 0.28125,3.53125 2.939,-18.90513 29.15138,-33.6875 61.09375,-33.6875 2.4045,0 4.79263,0.08694 7.125,0.25 -5.69027,5.344034 -9.25,12.902064 -9.25,21.3125 0,16.18263 13.12375,29.3125 29.34375,29.3125 15.83045,0 28.73111,-12.51332 29.34375,-28.15625 2.39313,3.42613 3.96247,7.10873 4.5625,10.96875 0.18,-1.16313 0.28125,-2.33888 0.28125,-3.53125 0,-20.56125 -27.49725,-37.2499997 -61.40625,-37.2499997 z m 36.4375,19.4999997 c 3.28875,0 5.9375,2.657625 5.9375,5.9375 0,3.277875 -2.64875,5.9375 -5.9375,5.9375 -3.285,0 -5.96875,-2.659625 -5.96875,-5.9375 0,-3.279875 2.68375,-5.9375 5.96875,-5.9375 z"
       id="path44-4"
       style="fill:#ffffff;fill-opacity:1;fill-rule:nonzero;stroke:none" />
  </g>
</svg>
