<svg id="Layer_2" data-name="Layer 2" xmlns="http://www.w3.org/2000/svg" viewBox="0 0 311.71 579.5"><defs><style>.cls-1{fill:#b39c86;}.cls-2{fill:#326f74;}.cls-3{fill:#3c434e;}.cls-4{fill:#1d181f;}.cls-5{fill:#f1573b;}.cls-11,.cls-6,.cls-7,.cls-8,.cls-9{fill:#fff;}.cls-7{font-size:12.5px;}.cls-7,.cls-9{font-family:Arial;}.cls-8{stroke:#fff;}.cls-9{font-size:15px;font-weight:700;}.cls-10{letter-spacing:-1px;}.cls-11{fill-rule:evenodd;}</style></defs><title>internetAdvert_small</title><polygon class="cls-1" points="0 0 0 112.54 228.9 112.54 249.6 130.47 270.3 148.4 291 130.47 311.71 112.54 311.71 0 0 0"/><polygon class="cls-2" points="311.71 121.34 311.71 231.85 82.81 231.85 62.11 249.78 41.41 267.71 20.7 249.78 0 231.85 0 119.34 226.21 119.34 244.88 135.51 265.58 153.44 270.3 157.53 275.03 153.44 311.71 121.34"/><polygon class="cls-3" points="66.83 254.96 46.13 272.89 41.41 276.98 36.68 272.89 15.98 254.96 0 241.12 0 341.3 228.9 341.3 249.6 359.23 270.3 377.16 291 359.23 311.71 341.3 311.71 238.79 85.5 238.79 66.83 254.96"/><polygon class="cls-4" points="311.71 350.34 311.71 460.85 82.81 460.85 62.11 478.78 41.41 496.71 20.7 478.78 0 460.85 0 348.34 226.21 348.34 244.88 364.51 265.58 382.44 270.3 386.53 275.03 382.44 311.71 350.34"/><polygon class="cls-5" points="311.71 570.3 311.71 467.79 85.5 467.79 66.83 483.96 46.13 501.89 41.41 505.98 36.68 501.89 15.98 483.96 0 470.12 0 570.3 228.9 570.3 311.71 570.3"/><path class="cls-6" d="M274.46,366.92a0.89,0.89,0,0,1-.89.89h-5.41a0.89,0.89,0,0,1-.89-0.89h0a0.89,0.89,0,0,1,.89-0.89h5.41a0.89,0.89,0,0,1,.89.89h0Z" transform="translate(-0.42 -0.42)"/><path class="cls-6" d="M274.46,364.58a0.89,0.89,0,0,1-.89.89h-5.41a0.89,0.89,0,0,1-.89-0.89h0a0.89,0.89,0,0,1,.89-0.89h5.41a0.89,0.89,0,0,1,.89.89h0Z" transform="translate(-0.42 -0.42)"/><path class="cls-6" d="M271.71,354.79H270v8.37h1.71v-8.37Z" transform="translate(-0.42 -0.42)"/><path class="cls-6" d="M267.88,351.37a1.29,1.29,0,1,0,0,2.57h1.29v-1.29A1.29,1.29,0,0,0,267.88,351.37Z" transform="translate(-0.42 -0.42)"/><path class="cls-6" d="M275.13,352.66a1.29,1.29,0,0,0-2.57,0v1.29h1.29A1.29,1.29,0,0,0,275.13,352.66Z" transform="translate(-0.42 -0.42)"/><path class="cls-6" d="M278,350.33c-0.58-2.28-3.31-4.75-7.1-4.76s-6.52,2.47-7.1,4.76a6.89,6.89,0,0,0,.79,5c0.75,1.45,1.53,2.64,2.18,4.12a16.34,16.34,0,0,1,.68,2.8,1,1,0,0,0,1.24.92h0.52v-8.37h-1.29a2.13,2.13,0,0,1,0-4.25,2.13,2.13,0,0,1,2.13,2.1h0v1.31h1.71v-1.31h0a2.13,2.13,0,1,1,2.13,2.15h-1.29v8.37h0.52a1,1,0,0,0,1.24-.92,16.29,16.29,0,0,1,.68-2.8c0.65-1.48,1.43-2.67,2.18-4.12A6.89,6.89,0,0,0,278,350.33Z" transform="translate(-0.42 -0.42)"/><path class="cls-6" d="M271.64,342.92a0.78,0.78,0,0,0-.78-0.78h0a0.78,0.78,0,0,0-.78.78v1.44a0.78,0.78,0,0,0,.78.78h0a0.78,0.78,0,0,0,.78-0.78v-1.44Z" transform="translate(-0.42 -0.42)"/><path class="cls-6" d="M276,344.2a0.78,0.78,0,0,0-.31-1.06h0a0.78,0.78,0,0,0-1.06.31l-0.69,1.27a0.78,0.78,0,0,0,.31,1.06h0a0.78,0.78,0,0,0,1.06-.31Z" transform="translate(-0.42 -0.42)"/><path class="cls-6" d="M279.17,346.72a0.78,0.78,0,0,0,.06-1.1h0a0.78,0.78,0,0,0-1.1-.06l-1.08,1a0.78,0.78,0,0,0-.07,1.1h0a0.78,0.78,0,0,0,1.1.07Z" transform="translate(-0.42 -0.42)"/><path class="cls-6" d="M280.85,350.55a0.78,0.78,0,0,0,.63-0.91h0a0.78,0.78,0,0,0-.91-0.63l-1.42.26a0.78,0.78,0,0,0-.63.91h0a0.78,0.78,0,0,0,.91.63Z" transform="translate(-0.42 -0.42)"/><path class="cls-6" d="M280.51,354.74a0.78,0.78,0,0,0,.92-0.61h0a0.78,0.78,0,0,0-.61-0.92l-1.41-.29a0.78,0.78,0,0,0-.92.61h0a0.78,0.78,0,0,0,.61.92Z" transform="translate(-0.42 -0.42)"/><path class="cls-6" d="M265.64,344.2a0.78,0.78,0,0,1,.31-1.06h0a0.78,0.78,0,0,1,1.06.31l0.69,1.27a0.78,0.78,0,0,1-.31,1.06h0a0.78,0.78,0,0,1-1.06-.31Z" transform="translate(-0.42 -0.42)"/><path class="cls-6" d="M262.45,346.72a0.78,0.78,0,0,1-.07-1.1h0a0.78,0.78,0,0,1,1.1-.06l1.08,1a0.78,0.78,0,0,1,.06,1.1h0a0.78,0.78,0,0,1-1.1.07Z" transform="translate(-0.42 -0.42)"/><path class="cls-6" d="M260.76,350.55a0.78,0.78,0,0,1-.63-0.91h0A0.78,0.78,0,0,1,261,349l1.42,0.26a0.78,0.78,0,0,1,.63.91h0a0.78,0.78,0,0,1-.91.63Z" transform="translate(-0.42 -0.42)"/><path class="cls-6" d="M261.11,354.74a0.78,0.78,0,0,1-.92-0.61h0a0.78,0.78,0,0,1,.61-0.92l1.41-.29a0.78,0.78,0,0,1,.92.61h0a0.78,0.78,0,0,1-.61.92Z" transform="translate(-0.42 -0.42)"/><path class="cls-6" d="M44.33,234.1H44.25a49.07,49.07,0,0,0-6.56,2.61,1.42,1.42,0,0,0-.72.94,0.65,0.65,0,0,0,.37.56,2.12,2.12,0,0,0,1.12.23,9.42,9.42,0,0,0,2.24-.35,17.85,17.85,0,0,1,2.63-.76c0.54,0,6.87,5.5,8.92,7.28l3.91-1.68L53,235.14C52.21,235,45.4,234.1,44.33,234.1Z" transform="translate(-0.42 -0.42)"/><path class="cls-6" d="M55.79,233a0.87,0.87,0,0,0-.32.06l-1.29.51a0.87,0.87,0,0,0-.49,1.13l3.24,8.2a0.88,0.88,0,0,0,1.13.49l1.29-.51a0.87,0.87,0,0,0,.49-1.13l-3.25-8.2A0.86,0.86,0,0,0,55.79,233Z" transform="translate(-0.42 -0.42)"/><path class="cls-6" d="M26.23,244.2a0.87,0.87,0,0,0,.8.93l1.39,0.1a0.87,0.87,0,0,0,.93-0.8L30,235.22a0.87,0.87,0,0,0-.8-0.93l-1.39-.11H27.79a0.87,0.87,0,0,0-.87.81Z" transform="translate(-0.42 -0.42)"/><path class="cls-6" d="M40.07,252.4a1.4,1.4,0,0,0-.53-0.82,1.09,1.09,0,0,0-1.71.24l-0.63.76-0.08.1-0.55.67a1.34,1.34,0,0,0,1,2.12,1.26,1.26,0,0,0,.95-0.55l0.92-1.13h0l0.33-.4A1.2,1.2,0,0,0,40.07,252.4Z" transform="translate(-0.42 -0.42)"/><path class="cls-6" d="M33.51,251.87c-0.46.56-.34,1,0.38,1.64a1.1,1.1,0,0,0,1.71-.24l1.6-1.91a1.2,1.2,0,0,0-.22-1.81,1.1,1.1,0,0,0-1.71.24l-0.88,1h0l-0.09.12Z" transform="translate(-0.42 -0.42)"/><path class="cls-6" d="M31.19,249.55a1.2,1.2,0,0,0-.31,1,1.4,1.4,0,0,0,.52.82,1.1,1.1,0,0,0,1.71-.24L34.88,249a1.2,1.2,0,0,0,.31-1,1.4,1.4,0,0,0-.52-0.82,1.09,1.09,0,0,0-1.71.24l-0.88,1h0l-0.09.11Z" transform="translate(-0.42 -0.42)"/><path class="cls-6" d="M30.81,248.78l1.75-2.06a1.2,1.2,0,0,0-.22-1.81,1.09,1.09,0,0,0-1.71.24l-0.57.73h0L30,246l-0.8.92a1.34,1.34,0,0,0-.4,1,1,1,0,0,0,.39.68,1.77,1.77,0,0,0,1,.5A1,1,0,0,0,30.81,248.78Z" transform="translate(-0.42 -0.42)"/><path class="cls-6" d="M51.75,247a1.15,1.15,0,0,0-.17-1.8L51,244.59c-3.17-2.75-6.91-5.89-7.74-6.42-0.4.08-1.44,0.41-2.27,0.7h0a10.14,10.14,0,0,1-2.47.38,2.85,2.85,0,0,1-1.56-.36,1.43,1.43,0,0,1-.75-1.28A2.15,2.15,0,0,1,37.23,236l-6.4-.79-0.66,9.23a1.92,1.92,0,0,1,1.41-.67,2,2,0,0,1,1.26.49,2,2,0,0,1,.81,1.85,1.88,1.88,0,0,1,1.51.47,2,2,0,0,1,.81,1.85,1.88,1.88,0,0,1,1.51.47,2.09,2.09,0,0,1,.83,1.61A1.86,1.86,0,0,1,40,251a2,2,0,0,1,.71,2.24l0.55,0.45,0.13,0.1,0,0a1.21,1.21,0,0,0,.67.23,1.16,1.16,0,0,0,.87-0.48c0.38-.47.62-0.85,0.13-1.34l0,0-2.85-2.41a0.46,0.46,0,0,1-.05-0.64,0.47,0.47,0,0,1,.64-0.05l3.73,3.16a1.25,1.25,0,0,0,.63.18,1.32,1.32,0,0,0,1-.53,1.23,1.23,0,0,0,.31-0.9A1.38,1.38,0,0,0,46,250l-0.44-.36h0L43.46,248a0.46,0.46,0,0,1-.07-0.64,0.47,0.47,0,0,1,.64-0.07L47.44,250a1.25,1.25,0,0,0,.79.31,1.52,1.52,0,0,0,1.14-.62,1.28,1.28,0,0,0,.34-0.91,1.31,1.31,0,0,0-.55-0.89l-1-.81h0l-1.78-1.44a0.46,0.46,0,0,1-.07-0.64A0.47,0.47,0,0,1,47,245l2.89,2.35A1.27,1.27,0,0,0,51.75,247Z" transform="translate(-0.42 -0.42)"/><text class="cls-7" transform="translate(29.61 42.28)">There are a lot of websites you can advertise on, <tspan x="11.83" y="13">but few are the right fit. Each company will find </tspan><tspan x="-2.29" y="26">di</tspan><tspan x="7.43" y="26">f</tspan><tspan x="10.68" y="26">ferent results from each site available.</tspan><tspan x="221.2" y="26"> </tspan><tspan x="224.45" y="26">The first </tspan><tspan x="-9.01" y="39">priority is to find the perfect fit for your product and </tspan><tspan x="179.94" y="52">target audience.</tspan></text><text class="cls-7" transform="translate(11.43 171.66)">Many websites with advertising opportunities are <tspan x="0" y="13">run independentl</tspan><tspan x="93.14" y="13">y</tspan><tspan x="98.46" y="13">. Others are part of Internet </tspan><tspan x="0" y="26">advertising networks and extended reach </tspan><tspan x="0" y="39">programs. Both scenarios present options for </tspan><tspan x="0" y="52">negotiation.</tspan></text><path class="cls-8" d="M279.94,130.46l-6-5.46,1.35-1.34a1,1,0,0,0,0-1.41l-0.5-.5a10.4,10.4,0,1,0-9.93,7.32h0a10.43,10.43,0,0,0,3-.44l0.5,0.5a1,1,0,0,0,1.41,0l1.35-1.34,5.41,6.07a1,1,0,0,0,1.41,0l2-2A1,1,0,0,0,279.94,130.46ZM264.83,128a9.27,9.27,0,1,1,7.42-3.71l-1.91,1.9a9.22,9.22,0,0,1-5.51,1.81h0Z" transform="translate(-0.42 -0.42)"/><text class="cls-9" transform="translate(214.59 27.2)">01. LOC<tspan class="cls-10" x="56.68" y="0">A</tspan><tspan x="66.4" y="0">TE</tspan></text><text class="cls-9" transform="translate(11.42 156.2)">02. NEGOTI<tspan class="cls-10" x="82.52" y="0">A</tspan><tspan x="92.24" y="0">TE</tspan></text><text class="cls-7" transform="translate(77.85 279.66)">There are two main objectives to Internet <tspan x="-50.72" y="13">advertising: brand awareness or call to action. It is </tspan><tspan x="-11.8" y="26">imperative to create the right message with </tspan><tspan x="-47.24" y="39">eye-catching creative to influence website visitors </tspan><tspan x="74.32" y="52">to take the action you want.</tspan></text><text class="cls-9" transform="translate(203.11 263.2)">03. MESSAGE </text><text class="cls-7" transform="translate(11.45 398.66)">There are two main objectives to Internet <tspan x="0" y="13">advertising: brand awareness or call to action. It is </tspan><tspan x="0" y="26">imperative to create the right message with </tspan><tspan x="0" y="39">eye-catching creative to influence website visitors </tspan><tspan x="0" y="52">to take the action you want.</tspan></text><text class="cls-9" transform="translate(11.43 382.2)">04. MEASURE</text><rect class="cls-6" x="32.52" y="468.55" width="2.86" height="6.92" rx="0.78" ry="0.78"/><rect class="cls-6" x="37.27" y="466.65" width="2.86" height="8.82" rx="0.78" ry="0.78"/><rect class="cls-6" x="42.02" y="465.02" width="2.86" height="10.45" rx="0.78" ry="0.78"/><rect class="cls-6" x="46.77" y="463.34" width="2.86" height="12.13" rx="0.78" ry="0.78"/><path class="cls-6" d="M33.3,466.89a42.28,42.28,0,0,0,14.09-5.3l0.39,0.74,1.5-2.37-2.8-.12,0.42,0.81a41.26,41.26,0,0,1-13.77,5.19Z" transform="translate(-0.42 -0.42)"/><polygon class="cls-6" points="53.07 476.98 50.66 475.59 50.66 476.45 31.27 476.45 31.27 460.94 32.15 460.94 30.74 458.5 29.33 460.94 30.21 460.94 30.21 476.45 30.21 476.98 30.21 477.51 50.66 477.51 50.66 478.38 53.07 476.98"/><text class="cls-7" transform="translate(87.57 502.66)"><tspan class="cls-10">T</tspan><tspan x="6.25" y="0">aking what we learn from the data, we </tspan><tspan x="-47.24" y="13">start making adjustments as needed. Sometime </tspan><tspan x="-44.46" y="26">we may create parallel campaigns on the same </tspan><tspan x="-46.56" y="39">site in order to see if one idea works better than </tspan><tspan x="-29.23" y="52">anothe</tspan><tspan x="9" y="52">r</tspan><tspan x="12.48" y="52">.</tspan><tspan x="15.95" y="52"> </tspan><tspan x="18.73" y="52">A/B testing can be a game change</tspan><tspan x="209.84" y="52">r</tspan><tspan x="213.31" y="52">.</tspan></text><text class="cls-9" transform="translate(223.32 488.2)">05. TWEAK</text><path class="cls-11" d="M15.15,538.65A2.62,2.62,0,1,1,12.53,536a2.62,2.62,0,0,1,2.62,2.62h0Zm-2.53,14.7,0.42-.1,1.37-.38-3.25-2.59-1.44,3.9,1.29-.36,0.38-.12c1.4,3.38,4.76,6,8.32,6V558.4a7.67,7.67,0,0,1-7.09-5.05h0Zm15-5.89a8.4,8.4,0,0,0-7.89-5.2v-1.32a9.34,9.34,0,0,1,9.19,6.16l0.34-.11,1.29-.36-1.44,3.89-3.25-2.59,1.38-.38,0.4-.1h0Zm0.15,15.45a0.31,0.31,0,1,1-.31.31,0.32,0.32,0,0,1,.31-0.31h0ZM24,564.63v-3.15h0.63v3.15h6.3v-3.15h0.63v3.15h1.93c0-2.34,0-4.83,0-4.84A2.52,2.52,0,0,0,31,557.28H30.06l-1.68,3.4V559a0.57,0.57,0,0,0-.57-0.57H27.69a0.57,0.57,0,0,0-.57.57v1.67l-1.68-3.41H24.51A2.51,2.51,0,0,0,22,559.79s0,2.5,0,4.84H24Zm3-7.36h1.45v0.15a0.65,0.65,0,0,1-.65.65H27.67a0.65,0.65,0,0,1-.65-0.65v-0.15h0Zm3.34-3.41a2.62,2.62,0,1,1-2.62-2.62,2.62,2.62,0,0,1,2.62,2.62h0Zm-17.84-6.17a0.31,0.31,0,1,1-.31.31,0.31,0.31,0,0,1,.31-0.31h0Zm-3.77,1.72v-3.15H9.4v3.15h6.3v-3.15h0.63v3.15h1.93c0-2.34,0-4.83,0-4.84a2.52,2.52,0,0,0-2.53-2.51H14.84l-1.68,3.4V543.8a0.56,0.56,0,0,0-.56-0.57H12.47a0.57,0.57,0,0,0-.57.57v1.67l-1.68-3.4H9.29a2.52,2.52,0,0,0-2.54,2.51s0,2.5,0,4.84H8.77Zm3-7.35h1.45v0.15a0.65,0.65,0,0,1-.65.65H12.46a0.65,0.65,0,0,1-.65-0.65v-0.15Z" transform="translate(-0.42 -0.42)"/></svg>