<?xml version="1.0" encoding="UTF-8" standalone="no"?>
<!-- Created with Inkscape (http://www.inkscape.org/) -->

<svg
   xmlns:dc="http://purl.org/dc/elements/1.1/"
   xmlns:cc="http://creativecommons.org/ns#"
   xmlns:rdf="http://www.w3.org/1999/02/22-rdf-syntax-ns#"
   xmlns:svg="http://www.w3.org/2000/svg"
   xmlns="http://www.w3.org/2000/svg"
   xmlns:xlink="http://www.w3.org/1999/xlink"
   version="1.1"
   width="632.60681"
   height="643.23456"
   id="svg24700">
  <defs
     id="defs24702">
    <clipPath
       id="clipPath8934">
      <path
         d="m 540.792,4428.18 183.548,0 0,-183.55 -183.548,0 0,183.55 z"
         id="path8936" />
    </clipPath>
    <linearGradient
       x1="0"
       y1="0"
       x2="1"
       y2="0"
       id="linearGradient23942"
       xlink:href="#linearGradient8942"
       gradientUnits="userSpaceOnUse"
       gradientTransform="matrix(-131.32779,127.20549,-127.20549,-131.32779,697.62598,4273.3877)"
       spreadMethod="pad" />
    <linearGradient
       x1="0"
       y1="0"
       x2="1"
       y2="0"
       id="linearGradient8942"
       gradientUnits="userSpaceOnUse"
       gradientTransform="matrix(-131.32779,127.20549,-127.20549,-131.32779,697.62598,4273.3877)"
       spreadMethod="pad">
      <stop
         id="stop8944"
         style="stop-color:#929497;stop-opacity:1"
         offset="0" />
      <stop
         id="stop8946"
         style="stop-color:#ffffff;stop-opacity:1"
         offset="1" />
    </linearGradient>
    <clipPath
       id="clipPath7586">
      <path
         d="m 277.56,4698.92 423.45,0 0,-423.45 -423.45,0 0,423.45 z"
         id="path7588" />
    </clipPath>
    <linearGradient
       x1="0"
       y1="0"
       x2="1"
       y2="0"
       id="linearGradient23940"
       xlink:href="#linearGradient7594"
       gradientUnits="userSpaceOnUse"
       gradientTransform="matrix(-302.98132,293.47092,-293.47092,-302.98132,639.38281,4341.8076)"
       spreadMethod="pad" />
    <linearGradient
       x1="0"
       y1="0"
       x2="1"
       y2="0"
       id="linearGradient7594"
       gradientUnits="userSpaceOnUse"
       gradientTransform="matrix(-302.98132,293.47092,-293.47092,-302.98132,639.38281,4341.8076)"
       spreadMethod="pad">
      <stop
         id="stop7596"
         style="stop-color:#929497;stop-opacity:1"
         offset="0" />
      <stop
         id="stop7598"
         style="stop-color:#ffffff;stop-opacity:1"
         offset="1" />
    </linearGradient>
  </defs>
  <metadata
     id="metadata24705">
    <rdf:RDF>
      <cc:Work
         rdf:about="">
        <dc:format>image/svg+xml</dc:format>
        <dc:type
           rdf:resource="http://purl.org/dc/dcmitype/StillImage" />
        <dc:title></dc:title>
      </cc:Work>
    </rdf:RDF>
  </metadata>
  <g
     transform="translate(-58.696582,-210.74491)"
     id="layer1">
    <g
       transform="matrix(1.415923,0,0,-1.415923,358.48141,731.53002)"
       id="g6818">
      <path
         d="m 0,0 c 86.199,0 156.079,69.883 156.079,156.08 0,86.208 -69.88,156.086 -156.079,156.086 -86.203,0 -156.082,-69.878 -156.082,-156.086 C -156.082,69.883 -86.203,0 0,0"
         id="path6820"
         style="fill:#7a79b9;fill-opacity:1;fill-rule:nonzero;stroke:none" />
    </g>
    <g
       transform="matrix(1.415923,0,0,-1.415923,523.40671,418.54602)"
       id="g7550">
      <path
         d="m 0,0 -55.625,-58.982 c -0.039,-0.046 -0.09,-0.079 -0.124,-0.119 l 5.002,-3.061 33.646,35.923 0,-90.349 -180.746,0 0,106.673 149.464,0 -31.956,-34.119 4.478,-2.745 c 0.035,0.043 0.068,0.089 0.108,0.127 l 55.626,58.983 c 1.548,1.638 4.445,1.957 6.472,0.712 2.026,-1.241 2.419,-3.578 0.88,-5.221 l -55.631,-58.978 c -0.037,-0.042 -0.076,-0.076 -0.119,-0.113 l 5.442,-3.337 c 0.037,0.041 0.067,0.085 0.104,0.133 L -7.348,4.51 c 1.544,1.633 4.436,1.947 6.47,0.702 C 1.149,3.971 1.544,1.639 0,0 M 24.724,26.622 4.932,38.743 C 2.224,40.404 -1.639,39.98 -3.696,37.801 L -32.332,7.22 l -174.022,0 c -7.045,0 -12.757,-4.601 -12.757,-10.28 l 0,-120.387 c 0,-5.68 5.712,-10.287 12.757,-10.287 l 68.663,0 -8.227,-22.989 -13.391,0 c -7.041,0 -12.759,-1.985 -12.759,-4.424 l 0,-4.112 c 0,-2.447 5.718,-4.427 12.759,-4.427 l 105.258,0 c 7.045,0 12.759,1.98 12.759,4.427 l 0,4.112 c 0,2.439 -5.714,4.424 -12.759,4.424 l -14.377,0 -7.317,22.989 67.147,0 c 7.049,0 12.764,4.607 12.764,10.287 l 0,119.913 21.731,23.205 c 2.058,2.183 1.529,5.295 -1.173,6.951"
         id="path7552"
         style="fill:#4a4a49;fill-opacity:1;fill-rule:nonzero;stroke:none" />
    </g>
    <g
       transform="matrix(1.415923,0,0,-1.415923,398.03521,529.23002)"
       id="g7554">
      <path
         d="m 0,0 c -2.861,1.753 -6.339,2.396 -9.646,2.022 l -3.766,-16.06 18.32,7.572 C 4.354,-3.986 2.688,-1.649 0,0"
         id="path7556"
         style="fill:#4a4a49;fill-opacity:1;fill-rule:nonzero;stroke:none" />
    </g>
    <g
       transform="matrix(1.415923,0,0,-1.415923,390.20561,501.51852)"
       id="g7558">
      <path
         d="m 0,0 -3.618,-15.427 c 3.703,0.254 7.518,-0.552 10.701,-2.502 3,-1.831 4.935,-4.386 5.725,-7.133 l 16.781,6.934 11.06,11.723 L 11.054,11.724 0,0 z"
         id="path7560"
         style="fill:#4a4a49;fill-opacity:1;fill-rule:nonzero;stroke:none" />
    </g>
    <g
       transform="matrix(1.415923,0,0,-1.415923,324.52611,534.08342)"
       id="g7562">
      <path
         d="m 0,0 c -6.029,0 -10.935,-3.948 -10.935,-8.809 0,-4.861 4.906,-8.81 10.935,-8.81 6.032,0 10.934,3.949 10.934,8.81 C 10.934,-3.948 6.032,0 0,0"
         id="path7564"
         style="fill:#4a4a49;fill-opacity:1;fill-rule:nonzero;stroke:none" />
    </g>
    <g
       transform="matrix(1.415923,0,0,-1.415923,355.48911,497.56522)"
       id="g7566">
      <path
         d="m 0,0 c -6.029,0 -10.934,-3.955 -10.934,-8.814 0,-4.854 4.905,-8.809 10.934,-8.809 6.026,0 10.931,3.955 10.931,8.809 C 10.931,-3.955 6.026,0 0,0"
         id="path7568"
         style="fill:#4a4a49;fill-opacity:1;fill-rule:nonzero;stroke:none" />
    </g>
    <g
       transform="matrix(1.415923,0,0,-1.415923,324.52611,506.56272)"
       id="g7570">
      <path
         d="m 0,0 c 0,4.856 -4.903,8.814 -10.934,8.814 -6.027,0 -10.931,-3.958 -10.931,-8.814 0,-4.864 4.904,-8.816 10.931,-8.816 C -4.903,-8.816 0,-4.864 0,0"
         id="path7572"
         style="fill:#4a4a49;fill-opacity:1;fill-rule:nonzero;stroke:none" />
    </g>
    <g
       transform="matrix(1.415923,0,0,-1.415923,340.00801,486.60852)"
       id="g7574">
      <path
         d="m 0,0 c 6.028,0 10.934,3.947 10.934,8.801 0,4.864 -4.906,8.813 -10.934,8.813 -6.031,0 -10.934,-3.949 -10.934,-8.813 C -10.934,3.947 -6.031,0 0,0"
         id="path7576"
         style="fill:#4a4a49;fill-opacity:1;fill-rule:nonzero;stroke:none" />
    </g>
    <g
       transform="matrix(1.415923,0,0,-1.415923,141.81551,510.53262)"
       id="g7578">
      <path
         d="m 0,0 c 0,84.514 68.511,153.026 153.021,153.026 84.509,0 153.02,-68.512 153.02,-153.026 0,-84.512 -68.511,-153.017 -153.02,-153.017 C 68.511,-153.017 0,-84.512 0,0 m -58.703,0 c 0,-116.929 94.793,-211.724 211.726,-211.724 116.929,0 211.724,94.795 211.724,211.724 0,116.934 -94.795,211.726 -211.724,211.726 C 36.09,211.726 -58.703,116.934 -58.703,0"
         id="path7580"
         style="fill:#f4f5f5;fill-opacity:1;fill-rule:nonzero;stroke:none" />
    </g>
    <g
       transform="matrix(1.415923,0,0,-1.415923,-334.30659,6864.0501)"
       id="g7582">
      <g
         id="g7584" />
      <g
         id="g7600">
        <g
           clip-path="url(#clipPath7586)"
           id="g7602"
           style="opacity:0.27999902">
          <g
             id="g7604">
            <g
               id="g7606">
              <g
                 id="g7608">
                <g
                   id="g7610">
                  <path
                     d="m 336.263,4487.191 c 0,84.514 68.51,153.027 153.021,153.027 84.508,0 153.019,-68.513 153.019,-153.027 0,-84.511 -68.511,-153.016 -153.019,-153.016 -84.511,0 -153.021,68.505 -153.021,153.016 m -58.703,0 c 0,-116.928 94.793,-211.723 211.726,-211.723 116.929,0 211.724,94.795 211.724,211.723 0,116.934 -94.795,211.726 -211.724,211.726 -116.933,0 -211.726,-94.792 -211.726,-211.726"
                     id="path7612"
                     style="fill:url(#linearGradient23940);stroke:none" />
                </g>
              </g>
            </g>
          </g>
        </g>
      </g>
    </g>
    <g
       transform="matrix(1.415923,0,0,-1.415923,561.36091,819.83022)"
       id="g8272">
      <path
         d="M 0,0 C 37.36,0 67.651,30.292 67.651,67.657 67.651,105.021 37.36,135.31 0,135.31 -37.364,135.31 -67.654,105.021 -67.654,67.657 -67.654,30.292 -37.364,0 0,0"
         id="path8274"
         style="fill:#7a79b9;fill-opacity:1;fill-rule:nonzero;stroke:none" />
    </g>
    <g
       transform="matrix(1.415923,0,0,-1.415923,467.44741,724.03292)"
       id="g8926">
      <path
         d="m 0,0 c 0,36.629 29.694,66.321 66.327,66.321 36.628,0 66.323,-29.692 66.323,-66.321 0,-36.632 -29.695,-66.328 -66.323,-66.328 C 29.694,-66.328 0,-36.632 0,0 m -25.45,0 c 0,-50.684 41.091,-91.775 91.777,-91.775 50.679,0 91.772,41.091 91.772,91.775 0,50.681 -41.093,91.772 -91.772,91.772 C 15.641,91.772 -25.45,50.681 -25.45,0"
         id="path8928"
         style="fill:#f4f5f5;fill-opacity:1;fill-rule:nonzero;stroke:none" />
    </g>
    <g
       transform="matrix(1.415923,0,0,-1.415923,-334.30659,6864.0501)"
       id="g8930">
      <g
         id="g8932" />
      <g
         id="g8948">
        <g
           clip-path="url(#clipPath8934)"
           id="g8950"
           style="opacity:0.27999902">
          <g
             id="g8952">
            <g
               id="g8954">
              <g
                 id="g8956">
                <g
                   id="g8958">
                  <path
                     d="m 566.241,4336.406 c 0,36.629 29.695,66.322 66.327,66.322 36.628,0 66.323,-29.693 66.323,-66.322 0,-36.632 -29.695,-66.328 -66.323,-66.328 -36.632,0 -66.327,29.696 -66.327,66.328 m -25.449,0 c 0,-50.683 41.09,-91.775 91.776,-91.775 50.679,0 91.772,41.092 91.772,91.775 0,50.681 -41.093,91.773 -91.772,91.773 -50.686,0 -91.776,-41.092 -91.776,-91.773"
                     id="path8960"
                     style="fill:url(#linearGradient23942);stroke:none" />
                </g>
              </g>
            </g>
          </g>
        </g>
      </g>
    </g>
  </g>
</svg>
