<svg id="Layer_1" data-name="Layer 1" xmlns="http://www.w3.org/2000/svg" viewBox="0 0 312.31 558.1"><defs><style>.cls-1{fill:#df6e45;}.cls-2{fill:#817d7f;}.cls-3{fill:#091821;}.cls-4{font-size:16px;}.cls-4,.cls-6,.cls-7{fill:#fff;font-family:Arial;}.cls-5{letter-spacing:-1px;}.cls-6{font-size:20px;}.cls-7{font-size:34px;}</style></defs><title>levelEngagement_small</title><path class="cls-1" d="M0,246.28V195.21H182.59a37,37,0,1,0,71.81,0h57.91V369.85H231.55L238,380.29a23.35,23.35,0,1,1-39.68,0l6.47-10.44H0V246.28Z" transform="translate(0 -0.06)"/><path class="cls-2" d="M0,130.13v51.41H205.13L198.66,192a23.35,23.35,0,1,0,39.68,0l-6.48-10.44h80.45V0.06H0V130.13Z" transform="translate(0 -0.06)"/><path class="cls-3" d="M0,506.07v52.09H312.31V383.53H254.09a36.66,36.66,0,0,1,1.13,9,37,37,0,1,1-72.94-9H0V506.07Z" transform="translate(0 -0.06)"/><text class="cls-4" transform="translate(13.5 62.01)">Many of our best clients are those with <tspan x="0" y="17">marketing degrees, successful </tspan><tspan x="0" y="34">businesses, or are just die-hard </tspan><tspan x="0" y="51">Do-It-</tspan><tspan class="cls-5" x="40" y="51">Y</tspan><tspan x="49.2" y="51">ourselfers.</tspan><tspan x="123.9" y="51"> </tspan><tspan x="128.05" y="51">These clients are </tspan><tspan x="0" y="68">looking for a solid and professional </tspan><tspan x="0" y="85">sounding board and our level-one </tspan><tspan x="0" y="102">engagement is a perfect fit.</tspan></text><text class="cls-4" transform="translate(13.5 257.45)">Level-two engagement allows us to <tspan x="0" y="17">work together with our clients in </tspan><tspan x="0" y="34">conceiving and producing new </tspan><tspan x="0" y="51">marketing campaigns. Great for </tspan><tspan x="0" y="68">engaged owners and directors too busy </tspan><tspan x="0" y="85">to do the back end tasks but can handle </tspan><tspan x="0" y="102">frontline implementation.</tspan></text><text class="cls-4" transform="translate(13.5 446.7)">Successful business owners and busy <tspan x="0" y="17">marketing directors love our level-three </tspan><tspan x="0" y="34">engagement because things are literally </tspan><tspan x="0" y="51">done with very little e</tspan><tspan x="149.41" y="51">f</tspan><tspan x="153.56" y="51">fort on the client</tspan><tspan x="267.41" y="51">’</tspan><tspan x="270.67" y="51">s </tspan><tspan x="0" y="68">part.</tspan><tspan x="32.02" y="68"> </tspan><tspan x="36.17" y="68">This is perfect if you don’t have </tspan><tspan x="0" y="85">time to manage your own marketing.</tspan></text><text class="cls-6" transform="translate(13.5 37.56)">CONSU<tspan class="cls-5" x="72.23" y="0">L</tspan><tspan x="81.87" y="0">TING</tspan></text><text class="cls-6" transform="translate(13.5 234.43)">STR<tspan class="cls-5" x="40" y="0">A</tspan><tspan x="51.86" y="0">TEG</tspan><tspan x="92.97" y="0">Y</tspan></text><text class="cls-6" transform="translate(13.5 422.44)">DONE-FOR-YOU</text><text class="cls-7" transform="translate(266.16 229.71)">02</text><text class="cls-7" transform="translate(266.16 35.71)">01</text><text class="cls-7" transform="translate(266.16 419.71)">03</text></svg>