<?xml version="1.0" encoding="UTF-8" standalone="no"?>
<!-- Created with Inkscape (http://www.inkscape.org/) -->

<svg
   xmlns:dc="http://purl.org/dc/elements/1.1/"
   xmlns:cc="http://creativecommons.org/ns#"
   xmlns:rdf="http://www.w3.org/1999/02/22-rdf-syntax-ns#"
   xmlns:svg="http://www.w3.org/2000/svg"
   xmlns="http://www.w3.org/2000/svg"
   xmlns:xlink="http://www.w3.org/1999/xlink"
   version="1.1"
   width="684.81952"
   height="645.53735"
   id="svg22459">
  <defs
     id="defs22461">
    <clipPath
       id="clipPath6152">
      <path
         d="m 637.994,4790.6 179.978,0 0,-179.98 -179.978,0 0,179.98 z"
         id="path6154" />
    </clipPath>
    <linearGradient
       x1="0"
       y1="0"
       x2="1"
       y2="0"
       id="linearGradient21369"
       xlink:href="#linearGradient6160"
       gradientUnits="userSpaceOnUse"
       gradientTransform="matrix(-128.77539,124.7332,-124.7332,-128.77539,791.7793,4638.8135)"
       spreadMethod="pad" />
    <linearGradient
       x1="0"
       y1="0"
       x2="1"
       y2="0"
       id="linearGradient6160"
       gradientUnits="userSpaceOnUse"
       gradientTransform="matrix(-128.77539,124.7332,-124.7332,-128.77539,791.7793,4638.8135)"
       spreadMethod="pad">
      <stop
         id="stop6162"
         style="stop-color:#929497;stop-opacity:1"
         offset="0" />
      <stop
         id="stop6164"
         style="stop-color:#ffffff;stop-opacity:1"
         offset="1" />
    </linearGradient>
    <clipPath
       id="clipPath5424">
      <path
         d="m 706.428,5066.53 415.222,0 0,-415.22 -415.222,0 0,415.22 z"
         id="path5426" />
    </clipPath>
    <linearGradient
       x1="0"
       y1="0"
       x2="1"
       y2="0"
       id="linearGradient21365"
       xlink:href="#linearGradient5432"
       gradientUnits="userSpaceOnUse"
       gradientTransform="matrix(-297.09698,287.77127,-287.77127,-297.09698,1061.2217,4716.3555)"
       spreadMethod="pad" />
    <linearGradient
       x1="0"
       y1="0"
       x2="1"
       y2="0"
       id="linearGradient5432"
       gradientUnits="userSpaceOnUse"
       gradientTransform="matrix(-297.09698,287.77127,-287.77127,-297.09698,1061.2217,4716.3555)"
       spreadMethod="pad">
      <stop
         id="stop5434"
         style="stop-color:#929497;stop-opacity:1"
         offset="0" />
      <stop
         id="stop5436"
         style="stop-color:#ffffff;stop-opacity:1"
         offset="1" />
    </linearGradient>
    <mask
       id="mask3414">
      <g
         id="g3416">
        <g
           clip-path="url(#clipPath3402)"
           id="g3418">
          <g
             id="g3420">
            <g
               id="g3422" />
            <g
               id="g3424">
              <g
                 clip-path="url(#clipPath3406)"
                 id="g3426">
                <g
                   id="g3428">
                  <g
                     clip-path="url(#clipPath3410)"
                     id="g3430">
                    <g
                       id="g3432">
                      <g
                         transform="scale(1,-1)"
                         id="g3434">
                        <g
                           id="g3436">
                          <path
                             d="m 818.54595,-4667.2268 c -1.27148,20.2861 -10.27881,40.083 -26.72511,54.5908 -9.49805,-10.7276 1.54199,3.1933 -5.50098,-5.2725 17.29396,-15.2412 24.61134,-60.122 28.09376,-79.5937 1.48389,6.3418 4.43409,25.4199 4.13233,30.2754 z"
                             id="path3438"
                             style="fill:#ffffff;fill-opacity:1;fill-rule:nonzero;stroke:none" />
                          <path
                             d="m 791.82084,-4612.636 c -16.44287,14.4999 -37.20216,20.956 -57.48195,19.6943 -4.85254,-0.3037 -25.45753,-11.001 -31.08449,-13.7002 19.74464,-1.0176 65.79202,3.9795 83.06546,-11.2666 7.04297,8.4658 -3.99707,-5.4551 5.50098,5.2725 z"
                             id="path3440"
                             style="fill:#ffffff;fill-opacity:1;fill-rule:nonzero;stroke:none" />
                          <path
                             d="m 814.41362,-4697.5022 c -0.8706,4.8682 -1.98095,11.3232 -3.42676,18.5068 -0.93457,-2.6543 -2.03466,-5.2695 -3.26367,-7.8359 2.08106,-6.8438 3.66504,-13.0508 4.67627,-17.8672 0.75,2.2793 1.42432,4.6729 2.01416,7.1963 z"
                             id="path3442"
                             style="fill:#ffffff;fill-opacity:1;fill-rule:nonzero;stroke:none" />
                          <path
                             d="m 812.39946,-4704.6985 c -1.01123,4.8164 -2.59521,11.0234 -4.67627,17.8672 -1.22949,-2.5664 -2.58789,-5.085 -4.03857,-7.5449 2.72119,-6.3418 4.86523,-12.1592 6.24707,-16.8399 0.89209,2.0713 1.71777,4.2383 2.46777,6.5176 z"
                             id="path3444"
                             style="fill:#ffffff;fill-opacity:1;fill-rule:nonzero;stroke:none" />
                          <path
                             d="m 809.93169,-4711.2161 c -1.38184,4.6807 -3.52588,10.4981 -6.24707,16.8399 -2.90186,-4.9209 -6.17481,-9.6094 -9.52882,-13.9912 3.86915,-5.1514 7.18262,-10.0059 9.68946,-14.2744 2.24951,3.5214 4.30176,7.2832 6.08643,11.4257 z"
                             id="path3446"
                             style="fill:#ffffff;fill-opacity:1;fill-rule:nonzero;stroke:none" />
                          <path
                             d="m 810.98686,-4678.9954 c -1.44628,7.1836 -3.22754,15.0957 -5.44092,22.876 -1.69384,-2.9424 -3.53711,-5.9697 -5.48193,-9.0313 3,-7.3584 5.57764,-14.8388 7.65918,-21.6806 1.22901,2.5664 2.3291,5.1816 3.26367,7.8359 z"
                             id="path3448"
                             style="fill:#ffffff;fill-opacity:1;fill-rule:nonzero;stroke:none" />
                          <path
                             d="m 807.72319,-4686.8313 c -2.08154,6.8418 -4.65918,14.3222 -7.65918,21.6806 -1.94434,-3.0615 -3.99024,-6.1572 -6.08887,-9.2392 3.69043,-6.7793 6.98828,-13.6445 9.70948,-19.9863 1.45068,2.4599 2.80908,4.9785 4.03857,7.5449 z"
                             id="path3450"
                             style="fill:#fcfcfc;fill-opacity:1;fill-rule:nonzero;stroke:none" />
                          <path
                             d="m 803.68462,-4694.3762 c -2.7212,6.3418 -6.01905,13.207 -9.70948,19.9863 -4.19824,-6.1621 -8.60889,-12.2656 -12.84473,-17.916 4.73047,-5.46 9.15576,-10.9102 13.02539,-16.0615 3.35401,4.3818 6.62696,9.0703 9.52882,13.9912 z"
                             id="path3452"
                             style="fill:#f4f4f4;fill-opacity:1;fill-rule:nonzero;stroke:none" />
                          <path
                             d="m 803.84526,-4722.6418 c -2.50684,4.2685 -5.82031,9.123 -9.68946,14.2744 -3.354,-4.3819 -6.78906,-8.4571 -10.01562,-12.1494 4.59961,-4.2032 8.80322,-8.2549 12.43506,-12.1114 2.57373,3.1836 5.02051,6.4649 7.27002,9.9864 z"
                             id="path3454"
                             style="fill:#ffffff;fill-opacity:1;fill-rule:nonzero;stroke:none" />
                          <path
                             d="m 796.57524,-4732.6282 c -2.57373,-3.1836 -5.27491,-6.2675 -8.03272,-9.3955 -2.07129,1.835 -4.20752,3.7256 -6.40332,5.668 2.69238,3.0527 5.61963,6.251 8.58106,9.6533 2.08007,-2.0205 4.03906,-3.998 5.85498,-5.9258 z"
                             id="path3456"
                             style="fill:#ffffff;fill-opacity:1;fill-rule:nonzero;stroke:none" />
                          <path
                             d="m 790.72026,-4726.7024 c -2.07959,2.0205 -4.28028,4.084 -6.58008,6.1856 -1.61329,-1.8467 -3.17383,-3.5977 -4.646,-5.2442 2.35791,-2.0019 4.64111,-3.9687 6.83447,-5.8994 1.43897,1.6065 2.91114,3.2568 4.39161,4.958 z"
                             id="path3458"
                             style="fill:#e0e0e0;fill-opacity:1;fill-rule:nonzero;stroke:none" />
                          <path
                             d="m 786.32865,-4731.6604 c -2.19336,1.9307 -4.47656,3.8975 -6.83447,5.8994 -1.47217,-1.6465 -2.85645,-3.1875 -4.11573,-4.6152 2.31006,-2.042 4.56543,-4.0371 6.76075,-5.9795 1.34619,1.5264 2.75098,3.0889 4.18945,4.6953 z"
                             id="path3460"
                             style="fill:#dcdcdc;fill-opacity:1;fill-rule:nonzero;stroke:none" />
                          <path
                             d="m 794.1558,-4708.3674 c -3.86963,5.1513 -8.29492,10.6015 -13.02539,16.0615 -4.23584,-5.6494 -8.29688,-10.8447 -11.79688,-15.1914 5.21289,-4.4629 10.20752,-8.8174 14.80665,-13.0195 3.22656,3.6923 6.66162,7.7675 10.01562,12.1494 z"
                             id="path3462"
                             style="fill:#dcdcdc;fill-opacity:1;fill-rule:nonzero;stroke:none" />
                          <path
                             d="m 784.14018,-4720.5168 c -2.29981,2.1015 -4.69825,4.2402 -7.17335,6.4121 -1.69775,-2.0108 -3.29883,-3.8692 -4.75928,-5.5469 2.49463,-2.0723 4.92823,-4.1074 7.28663,-6.1094 1.47217,1.6465 3.03271,3.3975 4.646,5.2442 z"
                             id="path3464"
                             style="fill:#c5c5c5;fill-opacity:1;fill-rule:nonzero;stroke:none" />
                          <path
                             d="m 779.49418,-4725.761 c -2.3584,2.002 -4.792,4.0371 -7.28663,6.1094 -1.46093,-1.6777 -2.78125,-3.1738 -3.91797,-4.4609 2.41456,-2.1329 4.7793,-4.2217 7.08887,-6.2637 1.25928,1.4277 2.64356,2.9687 4.11573,4.6152 z"
                             id="path3466"
                             style="fill:#bdbdbd;fill-opacity:1;fill-rule:nonzero;stroke:none" />
                          <path
                             d="m 776.96683,-4714.1047 c -2.4751,2.1718 -5.02685,4.3759 -7.6333,6.6074 -1.75,-2.1729 -3.35987,-4.1328 -4.78125,-5.832 2.604,-2.1426 5.16016,-4.25 7.65527,-6.3223 1.46045,1.6777 3.06153,3.5361 4.75928,5.5469 z"
                             id="path3468"
                             style="fill:#aeaeae;fill-opacity:1;fill-rule:nonzero;stroke:none" />
                          <path
                             d="m 772.20755,-4719.6516 c -2.49511,2.0723 -5.05127,4.1797 -7.65527,6.3223 -1.4209,-1.6993 -2.65332,-3.1358 -3.64893,-4.2618 2.5083,-2.2138 4.97217,-4.3886 7.38623,-6.5214 1.13672,1.2871 2.45704,2.7832 3.91797,4.4609 z"
                             id="path3470"
                             style="fill:#a3a3a3;fill-opacity:1;fill-rule:nonzero;stroke:none" />
                          <path
                             d="m 805.54594,-4656.1194 c -2.21337,7.7803 -4.85791,15.4277 -8.03027,22.083 -2.45264,-3.2315 -5.01514,-6.6426 -7.63379,-10.1524 3.76465,-6.3632 7.18408,-13.6015 10.18213,-20.9619 1.94482,3.0616 3.78809,6.0889 5.48193,9.0313 z"
                             id="path3472"
                             style="fill:#ffffff;fill-opacity:1;fill-rule:nonzero;stroke:none" />
                          <path
                             d="m 800.06401,-4665.1507 c -2.99805,7.3604 -6.41748,14.5987 -10.18213,20.9619 -2.61866,-3.5097 -5.29346,-7.1162 -7.96924,-10.7382 4.29004,-5.9922 8.37207,-12.6836 12.0625,-19.4629 2.09863,3.082 4.14453,6.1777 6.08887,9.2392 z"
                             id="path3474"
                             style="fill:#fafafa;fill-opacity:1;fill-rule:nonzero;stroke:none" />
                          <path
                             d="m 793.97514,-4674.3899 c -3.69043,6.7793 -7.77246,13.4707 -12.0625,19.4629 -2.67628,-3.6221 -5.35352,-7.2598 -7.97852,-10.8291 4.73633,-5.5869 9.35986,-11.6631 13.63281,-17.7842 2.15723,3.0029 4.30909,6.0693 6.40821,9.1504 z"
                             id="path3476"
                             style="fill:#ececec;fill-opacity:1;fill-rule:nonzero;stroke:none" />
                          <path
                             d="m 787.56693,-4683.5403 c -4.27295,6.1211 -8.89648,12.1973 -13.63281,17.7842 -2.62452,-3.5694 -5.19629,-7.0713 -7.66016,-10.4229 5.09033,-5.1943 10.12598,-10.666 14.85645,-16.1269 2.11816,2.8252 4.27979,5.7637 6.43652,8.7656 z"
                             id="path3478"
                             style="fill:#dadada;fill-opacity:1;fill-rule:nonzero;stroke:none" />
                          <path
                             d="m 797.51567,-4634.0364 c -3.17237,6.6552 -6.87256,12.3183 -11.19581,16.1279 -2.79687,-3.3623 -5.71435,-6.915 -8.68799,-10.5703 4.37696,-3.8584 8.48585,-9.3467 12.25001,-15.71 2.61865,3.5098 5.18115,6.9209 7.63379,10.1524 z"
                             id="path3480"
                             style="fill:#ffffff;fill-opacity:1;fill-rule:nonzero;stroke:none" />
                          <path
                             d="m 789.88188,-4644.1888 c -3.76416,6.3633 -7.87305,11.8516 -12.25001,15.71 -2.97363,-3.6553 -6.00342,-7.4131 -9.02539,-11.1836 4.51904,-3.9805 9.01612,-9.2724 13.30616,-15.2646 2.67578,3.622 5.35058,7.2285 7.96924,10.7382 z"
                             id="path3482"
                             style="fill:#f9f9f9;fill-opacity:1;fill-rule:nonzero;stroke:none" />
                          <path
                             d="m 781.91264,-4654.927 c -4.29004,5.9922 -8.78712,11.2841 -13.30616,15.2646 -3.02198,-3.7705 -6.03565,-7.5517 -8.97657,-11.2568 4.72022,-4.1543 9.56788,-9.25 14.30421,-14.8369 2.625,3.5693 5.30224,7.207 7.97852,10.8291 z"
                             id="path3484"
                             style="fill:#e8e8e8;fill-opacity:1;fill-rule:nonzero;stroke:none" />
                          <path
                             d="m 773.93412,-4665.7561 c -4.73633,5.5869 -9.58399,10.6826 -14.30421,14.8369 -2.94092,-3.7041 -5.81006,-7.3311 -8.54248,-10.791 4.9502,-4.3545 10.09571,-9.2735 15.18653,-14.4688 2.46387,3.3516 5.03564,6.8535 7.66016,10.4229 z"
                             id="path3486"
                             style="fill:#d0d0d0;fill-opacity:1;fill-rule:nonzero;stroke:none" />
                          <path
                             d="m 781.13041,-4692.3059 c -4.73047,5.4609 -9.76612,10.9326 -14.85645,16.1269 -2.46436,-3.3515 -4.82129,-6.5527 -7.01563,-9.5205 5.34082,-4.8623 10.64844,-9.8076 15.69727,-14.6904 1.98242,2.5488 4.05664,5.2598 6.17481,8.084 z"
                             id="path3488"
                             style="fill:#c4c4c4;fill-opacity:1;fill-rule:nonzero;stroke:none" />
                          <path
                             d="m 774.9556,-4700.3899 c -5.04883,4.8828 -10.35645,9.8281 -15.69727,14.6904 -2.19434,-2.9677 -4.22705,-5.7031 -6.04297,-8.122 5.47315,-4.6387 10.90479,-9.211 16.11817,-13.6758 1.75,2.1738 3.64014,4.5586 5.62207,7.1074 z"
                             id="path3490"
                             style="fill:#aeaeae;fill-opacity:1;fill-rule:nonzero;stroke:none" />
                          <path
                             d="m 769.33353,-4707.4973 c -2.60645,2.2324 -5.26758,4.4922 -7.96143,6.7734 -1.78467,-2.3164 -3.38818,-4.3633 -4.75928,-6.0713 2.68457,-2.2138 5.33594,-4.3916 7.93946,-6.5341 1.42138,1.6992 3.03125,3.6591 4.78125,5.832 z"
                             id="path3492"
                             style="fill:#9b9b9b;fill-opacity:1;fill-rule:nonzero;stroke:none" />
                          <path
                             d="m 764.55228,-4713.3293 c -2.60352,2.1425 -5.25489,4.3203 -7.93946,6.5341 -1.37109,-1.708 -2.51025,-3.0791 -3.36475,-4.0449 2.59327,-2.2861 5.14698,-4.5381 7.65528,-6.751 0.99561,1.126 2.22803,2.5625 3.64893,4.2618 z"
                             id="path3494"
                             style="fill:#8e8e8e;fill-opacity:1;fill-rule:nonzero;stroke:none" />
                          <path
                             d="m 761.3721,-4700.7239 c -2.69385,2.2803 -5.42041,4.583 -8.15674,6.9024 -1.81592,-2.419 -3.41504,-4.5215 -4.74366,-6.2266 2.7378,-2.2842 5.45557,-4.5332 8.14112,-6.7471 1.3711,1.708 2.97461,3.7549 4.75928,6.0713 z"
                             id="path3496"
                             style="fill:#8c8c8c;fill-opacity:1;fill-rule:nonzero;stroke:none" />
                          <path
                             d="m 756.61282,-4706.7952 c -2.68555,2.2139 -5.40332,4.4629 -8.14112,6.7471 -1.32861,-1.7051 -2.38623,-3.0117 -3.11767,-3.8369 2.66797,-2.3486 5.30078,-4.669 7.89404,-6.9551 0.8545,0.9658 1.99366,2.3369 3.36475,4.0449 z"
                             id="path3498"
                             style="fill:#7d7d7d;fill-opacity:1;fill-rule:nonzero;stroke:none" />
                          <path
                             d="m 766.27396,-4676.179 c -5.09082,5.1953 -10.23633,10.1143 -15.18653,14.4688 -2.73242,-3.46 -5.32813,-6.753 -7.72315,-9.7891 5.18018,-4.5547 10.55323,-9.3369 15.89405,-14.2002 2.19434,2.9678 4.55127,6.169 7.01563,9.5205 z"
                             id="path3500"
                             style="fill:#b5b5b5;fill-opacity:1;fill-rule:nonzero;stroke:none" />
                          <path
                             d="m 759.25833,-4685.6995 c -5.34082,4.8633 -10.71387,9.6455 -15.89405,14.2002 -2.39502,-3.0371 -4.58936,-5.8164 -6.51807,-8.249 5.38038,-4.7285 10.89551,-9.4346 16.36915,-14.0732 1.81592,2.4189 3.84863,5.1543 6.04297,8.122 z"
                             id="path3502"
                             style="fill:#9a9a9a;fill-opacity:1;fill-rule:nonzero;stroke:none" />
                          <path
                             d="m 753.21536,-4693.8215 c -2.73682,2.3193 -5.48438,4.6562 -8.21973,7.0039 -1.85938,-2.4649 -3.47315,-4.586 -4.78321,-6.2725 2.76368,-2.3545 5.52149,-4.6748 8.25928,-6.958 1.32862,1.7051 2.92774,3.8076 4.74366,6.2266 z"
                             id="path3504"
                             style="fill:#828282;fill-opacity:1;fill-rule:nonzero;stroke:none" />
                          <path
                             d="m 748.4717,-4700.0481 c -2.73779,2.2832 -5.4956,4.6035 -8.25928,6.958 -1.31054,-1.6865 -2.31738,-2.9375 -2.9624,-3.6631 2.73291,-2.4043 5.43604,-4.7832 8.10401,-7.1318 0.73144,0.8252 1.78906,2.1318 3.11767,3.8369 z"
                             id="path3506"
                             style="fill:#717171;fill-opacity:1;fill-rule:nonzero;stroke:none" />
                          <path
                             d="m 744.99563,-4686.8176 c -2.73535,2.3466 -5.45899,4.705 -8.14942,7.0693 -1.9292,-2.4326 -3.59326,-4.5195 -4.92773,-6.1699 2.76074,-2.4258 5.53027,-4.8174 8.29394,-7.1719 1.31006,1.6865 2.92383,3.8076 4.78321,6.2725 z"
                             id="path3508"
                             style="fill:#7c7c7c;fill-opacity:1;fill-rule:nonzero;stroke:none" />
                          <path
                             d="m 740.21242,-4693.0901 c -2.76367,2.3545 -5.5332,4.7461 -8.29394,7.1719 -1.33497,-1.6504 -2.34034,-2.8643 -2.95215,-3.5528 2.78808,-2.4502 5.55078,-4.8789 8.28369,-7.2822 0.64502,0.7256 1.65186,1.9766 2.9624,3.6631 z"
                             id="path3510"
                             style="fill:#6a6a6a;fill-opacity:1;fill-rule:nonzero;stroke:none" />
                          <path
                             d="m 786.31986,-4617.9085 c -4.31836,3.8115 -10.43506,6.3574 -17.48926,8.0488 -2.70996,-3.0039 -5.52881,-6.1718 -8.39844,-9.4287 6.83594,-2.3408 12.82813,-5.332 17.19971,-9.1904 2.97364,3.6553 5.89112,7.208 8.68799,10.5703 z"
                             id="path3512"
                             style="fill:#ffffff;fill-opacity:1;fill-rule:nonzero;stroke:none" />
                          <path
                             d="m 777.63187,-4628.4788 c -4.37158,3.8584 -10.36377,6.8496 -17.19971,9.1904 -2.87012,-3.2578 -5.79102,-6.6035 -8.70459,-9.9629 6.52636,-2.9795 12.36768,-6.4267 16.87891,-10.4111 3.02197,3.7705 6.05176,7.5283 9.02539,11.1836 z"
                             id="path3514"
                             style="fill:#f8f8f8;fill-opacity:1;fill-rule:nonzero;stroke:none" />
                          <path
                             d="m 768.60648,-4639.6624 c -4.51123,3.9844 -10.35255,7.4316 -16.87891,10.4111 -2.91358,-3.3603 -5.82032,-6.7343 -8.66163,-10.0468 6.1709,-3.5723 11.85547,-7.459 16.56397,-11.6211 2.94092,3.7051 5.95459,7.4863 8.97657,11.2568 z"
                             id="path3516"
                             style="fill:#e6e6e6;fill-opacity:1;fill-rule:nonzero;stroke:none" />
                          <path
                             d="m 759.62991,-4650.9192 c -4.7085,4.1621 -10.39307,8.0488 -16.56397,11.6211 -2.84082,-3.3125 -5.61621,-6.5645 -8.26856,-9.6797 5.81592,-4.0879 11.3545,-8.3682 16.29005,-12.7324 2.73242,3.4599 5.60156,7.0869 8.54248,10.791 z"
                             id="path3518"
                             style="fill:#cdcdcd;fill-opacity:1;fill-rule:nonzero;stroke:none" />
                          <path
                             d="m 768.8306,-4609.8597 c -7.05469,1.6914 -15.04688,2.5283 -23.11671,2.9199 -2.51709,-2.2158 -5.04053,-4.5869 -7.54395,-7.0576 7.74659,-1.2588 15.42628,-2.9502 22.26222,-5.291 2.86963,3.2569 5.68848,6.4248 8.39844,9.4287 z"
                             id="path3520"
                             style="fill:#ffffff;fill-opacity:1;fill-rule:nonzero;stroke:none" />
                          <path
                             d="m 760.43216,-4619.2884 c -6.83594,2.3408 -14.51563,4.0322 -22.26222,5.291 -2.50342,-2.4697 -4.98779,-5.039 -7.42676,-7.6523 7.24805,-2.1113 14.4585,-4.6221 20.98439,-7.6016 2.91357,3.3594 5.83447,6.7051 8.70459,9.9629 z"
                             id="path3522"
                             style="fill:#f9f9f9;fill-opacity:1;fill-rule:nonzero;stroke:none" />
                          <path
                             d="m 751.72757,-4629.2513 c -6.52589,2.9795 -13.73634,5.4903 -20.98439,7.6016 -2.43896,-2.6133 -4.83349,-5.2695 -7.15869,-7.9131 6.6543,-2.9043 13.31153,-6.1621 19.48145,-9.7353 2.84131,3.3125 5.74805,6.6865 8.66163,10.0468 z"
                             id="path3524"
                             style="fill:#e8e8e8;fill-opacity:1;fill-rule:nonzero;stroke:none" />
                          <path
                             d="m 743.06594,-4639.2981 c -6.16992,3.5732 -12.82715,6.831 -19.48145,9.7353 -2.3252,-2.6435 -4.58008,-5.2754 -6.73975,-7.8389 6.04395,-3.5937 12.13721,-7.4882 17.95264,-11.5761 2.65235,3.1152 5.42774,6.3672 8.26856,9.6797 z"
                             id="path3526"
                             style="fill:#d0d0d0;fill-opacity:1;fill-rule:nonzero;stroke:none" />
                          <path
                             d="m 751.08743,-4661.7102 c -4.93555,4.3642 -10.47413,8.6445 -16.29005,12.7324 -2.65234,-3.1153 -5.18066,-6.0947 -7.52734,-8.8633 5.50781,-4.4912 10.93213,-9.0918 16.09424,-13.6582 2.39502,3.0361 4.99073,6.3291 7.72315,9.7891 z"
                             id="path3528"
                             style="fill:#b0b0b0;fill-opacity:1;fill-rule:nonzero;stroke:none" />
                          <path
                             d="m 743.36428,-4671.4993 c -5.16211,4.5664 -10.58643,9.167 -16.09424,13.6582 -2.34668,-2.7676 -4.51172,-5.3252 -6.43653,-7.5957 5.29248,-4.75 10.65235,-9.5664 16.0127,-14.3115 1.92871,2.4326 4.12305,5.2119 6.51807,8.249 z"
                             id="path3530"
                             style="fill:#939393;fill-opacity:1;fill-rule:nonzero;stroke:none" />
                          <path
                             d="m 736.84621,-4679.7483 c -2.68017,2.3721 -5.36035,4.7627 -8.03174,7.1533 -1.96777,-2.3545 -3.67041,-4.3848 -5.04248,-6.0078 2.68018,-2.4375 5.39649,-4.8809 8.14649,-7.3154 1.33447,1.6504 2.99853,3.7373 4.92773,6.1699 z"
                             id="path3532"
                             style="fill:#7a7a7a;fill-opacity:1;fill-rule:nonzero;stroke:none" />
                          <path
                             d="m 731.91848,-4685.9182 c -2.75,2.4345 -5.46631,4.8779 -8.14649,7.3154 -1.37256,-1.6221 -2.41406,-2.8379 -3.0586,-3.5645 2.72364,-2.4091 5.47657,-4.8457 8.25294,-7.3037 0.61181,0.6885 1.61718,1.9024 2.95215,3.5528 z"
                             id="path3534"
                             style="fill:#686868;fill-opacity:1;fill-rule:nonzero;stroke:none" />
                          <path
                             d="m 728.81447,-4672.595 c -2.67139,2.3916 -5.33447,4.7832 -7.98096,7.1582 -1.9248,-2.2695 -3.60938,-4.2539 -4.99561,-5.8769 2.60791,-2.4161 5.25342,-4.8496 7.93409,-7.2891 1.37207,1.623 3.07471,3.6533 5.04248,6.0078 z"
                             id="path3536"
                             style="fill:#7c7c7c;fill-opacity:1;fill-rule:nonzero;stroke:none" />
                          <path
                             d="m 723.77199,-4678.6028 c -2.68067,2.4395 -5.32618,4.873 -7.93409,7.2891 -1.38623,-1.6231 -2.47412,-2.8838 -3.20556,-3.709 2.66162,-2.3516 5.35693,-4.7344 8.08105,-7.1446 0.64454,0.7266 1.68604,1.9424 3.0586,3.5645 z"
                             id="path3538"
                             style="fill:#6a6a6a;fill-opacity:1;fill-rule:nonzero;stroke:none" />
                          <path
                             d="m 734.79738,-4648.9778 c -5.81543,4.0879 -11.90869,7.9824 -17.95264,11.5761 -2.15967,-2.5634 -4.22461,-5.0585 -6.16895,-7.4296 5.4961,-4.1348 11.08692,-8.5176 16.59425,-13.0098 2.34668,2.7686 4.875,5.748 7.52734,8.8633 z"
                             id="path3540"
                             style="fill:#b5b5b5;fill-opacity:1;fill-rule:nonzero;stroke:none" />
                          <path
                             d="m 727.27004,-4657.8411 c -5.50733,4.4922 -11.09815,8.875 -16.59425,13.0098 -1.94433,-2.3711 -3.76807,-4.6192 -5.44678,-6.6866 5.08887,-4.4814 10.31348,-9.1669 15.6045,-13.9189 1.92481,2.2705 4.08985,4.8281 6.43653,7.5957 z"
                             id="path3542"
                             style="fill:#9a9a9a;fill-opacity:1;fill-rule:nonzero;stroke:none" />
                          <path
                             d="m 720.83351,-4665.4368 c -2.64551,2.376 -5.27442,4.7354 -7.87793,7.0606 -1.82129,-2.1768 -3.44434,-4.1172 -4.82617,-5.754 2.53125,-2.3671 5.10156,-4.7666 7.70849,-7.1835 1.38623,1.623 3.07081,3.6074 4.99561,5.8769 z"
                             id="path3544"
                             style="fill:#828282;fill-opacity:1;fill-rule:nonzero;stroke:none" />
                          <path
                             d="m 715.8379,-4671.3137 c -2.60693,2.4169 -5.17724,4.8164 -7.70849,7.1835 -1.38135,-1.6367 -2.52149,-2.9707 -3.37598,-3.9355 2.58935,-2.2852 5.21728,-4.6055 7.87891,-6.957 0.73144,0.8252 1.81933,2.0859 3.20556,3.709 z"
                             id="path3546"
                             style="fill:#717171;fill-opacity:1;fill-rule:nonzero;stroke:none" />
                          <path
                             d="m 712.95558,-4658.3762 c -2.60352,2.3261 -5.18213,4.6171 -7.72657,6.8583 -1.67822,-2.0673 -3.21094,-3.956 -4.57275,-5.6084 2.45019,-2.2958 4.94238,-4.6347 7.47315,-7.0039 1.38183,1.6368 3.00488,3.5772 4.82617,5.754 z"
                             id="path3548"
                             style="fill:#8c8c8c;fill-opacity:1;fill-rule:nonzero;stroke:none" />
                          <path
                             d="m 708.12941,-4664.1302 c -2.53077,2.3692 -5.02296,4.7081 -7.47315,7.0039 -1.36182,-1.6523 -2.55323,-3.0683 -3.54883,-4.1943 2.50635,-2.2099 5.05713,-4.4599 7.646,-6.7451 0.85449,0.9648 1.99463,2.2988 3.37598,3.9355 z"
                             id="path3550"
                             style="fill:#7d7d7d;fill-opacity:1;fill-rule:nonzero;stroke:none" />
                          <path
                             d="m 745.71389,-4606.9398 c -8.06983,0.3916 -16.21631,0.3389 -23.5796,0.252 -2.32471,-1.4287 -4.52832,-2.9756 -6.62402,-4.6123 7.10156,-0.6133 14.91358,-1.4385 22.65967,-2.6973 2.50342,2.4707 5.02686,4.8418 7.54395,7.0576 z"
                             id="path3552"
                             style="fill:#ffffff;fill-opacity:1;fill-rule:nonzero;stroke:none" />
                          <path
                             d="m 738.16994,-4613.9974 c -7.74609,1.2588 -15.55811,2.084 -22.65967,2.6973 -2.09571,-1.6367 -4.0835,-3.3633 -5.97754,-5.1484 6.67676,-1.3809 13.96191,-3.0899 21.21045,-5.2012 2.43897,2.6133 4.92334,5.1826 7.42676,7.6523 z"
                             id="path3554"
                             style="fill:#fafafa;fill-opacity:1;fill-rule:nonzero;stroke:none" />
                          <path
                             d="m 730.74318,-4621.6497 c -7.24854,2.1113 -14.53369,3.8203 -21.21045,5.2012 -3.78809,-3.5713 -7.20069,-7.3799 -10.34669,-11.1875 5.62012,-2.8809 11.61524,-6.1729 17.6587,-9.7657 4.31983,5.127 9.02002,10.5264 13.89844,15.752 z"
                             id="path3556"
                             style="fill:#ececec;fill-opacity:1;fill-rule:nonzero;stroke:none" />
                          <path
                             d="m 722.13429,-4606.6878 c -7.36377,-0.087 -13.94385,-0.208 -18.87989,0.046 -2.2373,-1.0703 -4.27099,-2.1523 -6.13867,-3.25 4.90234,-0.3994 11.29297,-0.7969 18.39454,-1.4082 2.0957,1.6367 4.29931,3.1836 6.62402,4.6123 z"
                             id="path3558"
                             style="fill:#ffffff;fill-opacity:1;fill-rule:nonzero;stroke:none" />
                          <path
                             d="m 715.51027,-4611.3001 c -7.10157,0.6113 -13.4922,1.0088 -18.39454,1.4082 -1.86768,-1.0977 -3.56934,-2.2109 -5.14258,-3.3447 4.81348,-0.7852 10.88184,-1.833 17.55958,-3.2119 1.89404,1.7851 3.88183,3.5117 5.97754,5.1484 z"
                             id="path3560"
                             style="fill:#fcfcfc;fill-opacity:1;fill-rule:nonzero;stroke:none" />
                          <path
                             d="m 709.53273,-4616.4485 c -6.67774,1.3789 -12.7461,2.4267 -17.55958,3.2119 -3.14649,-2.2686 -5.77881,-4.6211 -8.19629,-7.0967 4.54394,-1.9512 9.78906,-4.4219 15.40918,-7.3027 3.146,3.8076 6.5586,7.6162 10.34669,11.1875 z"
                             id="path3562"
                             style="fill:#f4f4f4;fill-opacity:1;fill-rule:nonzero;stroke:none" />
                          <path
                             d="m 716.84474,-4637.4017 c -6.04346,3.5928 -12.03858,6.8848 -17.6587,9.7657 -3.14551,-3.8076 -6.0249,-7.6153 -8.74707,-11.1836 4.74902,-3.9375 9.70166,-8.2158 14.79004,-12.6983 3.35694,4.1358 7.2959,8.9893 11.61573,14.1162 z"
                             id="path3564"
                             style="fill:#c4c4c4;fill-opacity:1;fill-rule:nonzero;stroke:none" />
                          <path
                             d="m 705.22901,-4651.5179 c -2.54394,2.2413 -5.0542,4.4317 -7.52246,6.5538 -1.51758,-1.9385 -2.94531,-3.7579 -4.27735,-5.4141 2.36622,-2.1973 4.77588,-4.4512 7.22706,-6.7481 1.36181,1.6524 2.89453,3.5411 4.57275,5.6084 z"
                             id="path3566"
                             style="fill:#9b9b9b;fill-opacity:1;fill-rule:nonzero;stroke:none" />
                          <path
                             d="m 700.65626,-4657.1263 c -2.45118,2.2969 -4.86084,4.5508 -7.22706,6.7481 -1.33203,-1.6553 -2.56884,-3.1484 -3.70508,-4.4356 2.41407,-2.1259 4.87696,-4.2968 7.38331,-6.5068 0.9956,1.126 2.18701,2.542 3.54883,4.1943 z"
                             id="path3568"
                             style="fill:#8e8e8e;fill-opacity:1;fill-rule:nonzero;stroke:none" />
                          <path
                             d="m 697.70655,-4644.9641 c -2.46777,2.122 -4.89307,4.1757 -7.26758,6.1445 -1.36133,-1.7842 -2.6836,-3.5078 -3.97998,-5.1426 2.27978,-2.0752 4.60351,-4.2168 6.97021,-6.416 1.33204,1.6562 2.75977,3.4756 4.27735,5.4141 z"
                             id="path3570"
                             style="fill:#aeaeae;fill-opacity:1;fill-rule:nonzero;stroke:none" />
                          <path
                             d="m 693.4292,-4650.3782 c -2.3667,2.1992 -4.69043,4.3408 -6.97021,6.416 -1.29639,-1.6357 -2.5669,-3.1816 -3.8252,-4.6074 2.31104,-2.0342 4.67627,-4.1172 7.09033,-6.2442 1.13624,1.2872 2.37305,2.7803 3.70508,4.4356 z"
                             id="path3572"
                             style="fill:#a3a3a3;fill-opacity:1;fill-rule:nonzero;stroke:none" />
                          <path
                             d="m 699.18604,-4627.636 c -5.62012,2.8808 -10.86524,5.3515 -15.40918,7.3027 -2.417,-2.4746 -4.61963,-5.0732 -6.90723,-7.834 4.27441,-3.1181 8.81982,-6.7148 13.56934,-10.6523 2.72217,3.5683 5.60156,7.376 8.74707,11.1836 z"
                             id="path3574"
                             style="fill:#dcdcdc;fill-opacity:1;fill-rule:nonzero;stroke:none" />
                          <path
                             d="m 690.43897,-4638.8196 c -2.375,1.9687 -4.69873,3.8525 -6.96289,5.6338 -1.2295,-1.6006 -2.45899,-3.1953 -3.71778,-4.7715 2.18799,-1.9248 4.42237,-3.9317 6.70069,-6.0049 1.29638,1.6348 2.61865,3.3584 3.97998,5.1426 z"
                             id="path3576"
                             style="fill:#c5c5c5;fill-opacity:1;fill-rule:nonzero;stroke:none" />
                          <path
                             d="m 686.45899,-4643.9622 c -2.27832,2.0732 -4.5127,4.0801 -6.70069,6.0049 -1.25879,-1.5762 -2.54639,-3.1338 -3.89209,-4.6592 2.19873,-1.9336 4.45654,-3.9189 6.76758,-5.9531 1.2583,1.4258 2.52881,2.9717 3.8252,4.6074 z"
                             id="path3578"
                             style="fill:#bdbdbd;fill-opacity:1;fill-rule:nonzero;stroke:none" />
                          <path
                             d="m 683.47608,-4633.1858 c -2.45899,-3.2002 -4.91846,-6.3799 -7.60987,-9.4307 -2.19873,1.9336 -4.33838,3.8145 -6.41455,5.6387 2.75732,3.1259 5.12988,6.0488 7.41797,8.8105 2.1372,-1.5586 4.3418,-3.2373 6.60645,-5.0185 z"
                             id="path3580"
                             style="fill:#e0e0e0;fill-opacity:1;fill-rule:nonzero;stroke:none" />
                          <path
                             d="m 788.54252,-4742.0237 c -3.62598,-4.1103 -7.58301,-7.7568 -11.7959,-10.9335 -2.14356,1.5224 -4.39014,3.1083 -6.72168,4.7539 4.35547,3.6787 8.43164,7.6767 12.11426,11.8476 2.1958,-1.9424 4.33203,-3.833 6.40332,-5.668 z"
                             id="path3582"
                             style="fill:#ffffff;fill-opacity:1;fill-rule:nonzero;stroke:none" />
                          <path
                             d="m 782.1392,-4736.3557 c -3.68262,-4.1709 -7.75879,-8.1689 -12.11426,-11.8476 -2.33204,1.6455 -4.74903,3.3505 -7.23389,5.1123 4.51318,4.0761 8.75684,8.3808 12.5874,12.7148 2.31006,-2.042 4.56543,-4.0371 6.76075,-5.9795 z"
                             id="path3584"
                             style="fill:#dadada;fill-opacity:1;fill-rule:nonzero;stroke:none" />
                          <path
                             d="m 776.74662,-4752.9572 c -4.2876,3.0458 -8.98536,6.3427 -13.95557,9.8662 -4.51319,-4.0762 -9.29639,-7.9239 -14.20753,-11.3438 5.22119,-2.708 10.22754,-4.9639 14.8335,-6.6406 4.64893,2.2334 9.11719,4.9414 13.3296,8.1182 z"
                             id="path3586"
                             style="fill:#ffffff;fill-opacity:1;fill-rule:nonzero;stroke:none" />
                          <path
                             d="m 775.37845,-4730.3762 c -2.30957,2.042 -4.67431,4.1308 -7.08887,6.2637 -2.02002,-2.2813 -4.13867,-4.5655 -6.33496,-6.8282 2.51953,-2.0058 4.98535,-3.9687 7.38623,-5.8896 2.10401,2.1279 4.12256,4.2871 6.0376,6.4541 z"
                             id="path3588"
                             style="fill:#bababa;fill-opacity:1;fill-rule:nonzero;stroke:none" />
                          <path
                             d="m 769.34085,-4736.8303 c -2.40088,1.9209 -4.8667,3.8838 -7.38623,5.8896 -2.19629,-2.2617 -4.47119,-4.5019 -6.8042,-6.6953 2.60303,-1.874 5.15576,-3.6933 7.64063,-5.455 2.25634,2.038 4.4458,4.1328 6.5498,6.2607 z"
                             id="path3590"
                             style="fill:#bcbcbc;fill-opacity:1;fill-rule:nonzero;stroke:none" />
                          <path
                             d="m 768.28958,-4724.1125 c -2.41406,2.1328 -4.87793,4.3076 -7.38623,6.5214 -2.14014,-2.413 -4.36572,-4.8203 -6.65528,-7.205 2.61475,-2.0899 5.18751,-4.1367 7.70655,-6.1446 2.19629,2.2627 4.31494,4.5469 6.33496,6.8282 z"
                             id="path3592"
                             style="fill:#9f9f9f;fill-opacity:1;fill-rule:nonzero;stroke:none" />
                          <path
                             d="m 761.95462,-4730.9407 c -2.51904,2.0079 -5.0918,4.0547 -7.70655,6.1446 -2.28955,-2.3838 -4.64306,-4.7442 -7.04053,-7.0606 2.68653,-1.9785 5.33985,-3.9062 7.94288,-5.7793 2.33301,2.1934 4.60791,4.4336 6.8042,6.6953 z"
                             id="path3594"
                             style="fill:#a1a1a1;fill-opacity:1;fill-rule:nonzero;stroke:none" />
                          <path
                             d="m 762.79105,-4743.091 c -4.96973,3.5244 -10.21046,7.2773 -15.58351,11.2343 -4.79541,-4.6328 -9.76562,-9.0937 -14.74561,-13.2304 5.46534,-3.4825 10.90089,-6.6407 16.12159,-9.3477 4.91114,3.4199 9.69434,7.2676 14.20753,11.3438 z"
                             id="path3596"
                             style="fill:#c2c2c2;fill-opacity:1;fill-rule:nonzero;stroke:none" />
                          <path
                             d="m 763.41702,-4761.0754 c -4.60596,1.6767 -9.61231,3.9326 -14.8335,6.6406 -4.91065,-3.4199 -9.94824,-6.414 -14.97071,-8.7812 5.28028,-1.7217 10.46632,-2.8252 15.39063,-3.1319 4.93506,1.2803 9.76466,3.0391 14.41358,5.2725 z"
                             id="path3598"
                             style="fill:#ffffff;fill-opacity:1;fill-rule:nonzero;stroke:none" />
                          <path
                             d="m 749.00344,-4766.3479 c -4.92431,0.3067 -10.11035,1.4102 -15.39063,3.1319 -5.02246,-2.3682 -10.02979,-4.1094 -14.87891,-5.0254 5.05469,-0.6543 10.1543,-0.8213 15.22364,-0.5049 5.0708,0.3174 10.11133,1.1182 15.0459,2.3984 z"
                             id="path3600"
                             style="fill:#ffffff;fill-opacity:1;fill-rule:nonzero;stroke:none" />
                          <path
                             d="m 748.58352,-4754.4348 c -5.2207,2.707 -10.65625,5.8652 -16.12159,9.3477 -4.97998,-4.1368 -9.97022,-7.9502 -14.80567,-11.2881 5.30128,-2.7793 10.67579,-5.1201 15.95655,-6.8408 5.02247,2.3672 10.06006,5.3613 14.97071,8.7812 z"
                             id="path3602"
                             style="fill:#d6d6d6;fill-opacity:1;fill-rule:nonzero;stroke:none" />
                          <path
                             d="m 733.61281,-4763.216 c -5.28076,1.7207 -10.65527,4.0615 -15.95655,6.8408 -4.83545,-3.3379 -9.51611,-6.2002 -13.87744,-8.4346 4.89014,-1.6347 9.90039,-2.7773 14.95508,-3.4316 4.84912,0.916 9.85645,2.6572 14.87891,5.0254 z"
                             id="path3604"
                             style="fill:#ededed;fill-opacity:1;fill-rule:nonzero;stroke:none" />
                          <path
                             d="m 760.90335,-4717.5911 c -2.5083,2.2129 -5.06201,4.4649 -7.65528,6.751 -2.26025,-2.5439 -4.58545,-5.0674 -6.95557,-7.5586 2.68555,-2.1748 5.3418,-4.3076 7.95557,-6.3974 2.28956,2.3847 4.51514,4.792 6.65528,7.205 z"
                             id="path3606"
                             style="fill:#898989;fill-opacity:1;fill-rule:nonzero;stroke:none" />
                          <path
                             d="m 754.24807,-4724.7961 c -2.61377,2.0898 -5.27002,4.2226 -7.95557,6.3974 -2.3706,-2.4912 -4.78613,-4.9511 -7.22705,-7.3662 2.73584,-2.081 5.45557,-4.1123 8.14209,-6.0918 2.39747,2.3164 4.75098,4.6768 7.04053,7.0606 z"
                             id="path3608"
                             style="fill:#8b8b8b;fill-opacity:1;fill-rule:nonzero;stroke:none" />
                          <path
                             d="m 753.24807,-4710.8401 c -2.59326,2.2861 -5.22607,4.6065 -7.89404,6.9551 -2.36524,-2.6592 -4.76905,-5.2832 -7.19532,-7.8682 2.73243,-2.2558 5.44825,-4.4716 8.13379,-6.6455 2.37012,2.4912 4.69532,5.0147 6.95557,7.5586 z"
                             id="path3610"
                             style="fill:#777777;fill-opacity:1;fill-rule:nonzero;stroke:none" />
                          <path
                             d="m 746.2925,-4718.3987 c -2.68554,2.1739 -5.40136,4.3897 -8.13379,6.6455 -2.42627,-2.584 -4.875,-5.1289 -7.3291,-7.6279 2.74902,-2.1748 5.5,-4.3037 8.23584,-6.3838 2.44092,2.4151 4.85645,4.875 7.22705,7.3662 z"
                             id="path3612"
                             style="fill:#7a7a7a;fill-opacity:1;fill-rule:nonzero;stroke:none" />
                          <path
                             d="m 747.20754,-4731.8567 c -4.79541,-4.6328 -9.76562,-9.0937 -14.74561,-13.2304 -2.73291,1.7402 -5.47265,3.5625 -8.19678,5.4492 4.93262,4.3857 9.91749,9.042 14.8003,13.873 2.73584,-2.081 5.45557,-4.1123 8.14209,-6.0918 z"
                             id="path3614"
                             style="fill:#949494;fill-opacity:1;fill-rule:nonzero;stroke:none" />
                          <path
                             d="m 739.06545,-4725.7649 c -2.73584,2.0801 -5.48682,4.209 -8.23584,6.3838 -2.45459,-2.499 -4.91504,-4.9541 -7.36524,-7.3594 2.72559,-2.0927 5.47266,-4.1386 8.21924,-6.1279 2.47315,2.3164 4.94043,4.6875 7.38184,7.1035 z"
                             id="path3616"
                             style="fill:#828282;fill-opacity:1;fill-rule:nonzero;stroke:none" />
                          <path
                             d="m 731.68361,-4732.8684 c -2.74658,1.9893 -5.49365,4.0352 -8.21924,6.1279 -2.44971,-2.4052 -4.88916,-4.7597 -7.30176,-7.0595 2.66992,-2 5.37842,-3.9512 8.10254,-5.8379 2.46631,2.1933 4.94532,4.4531 7.41846,6.7695 z"
                             id="path3618"
                             style="fill:#8f8f8f;fill-opacity:1;fill-rule:nonzero;stroke:none" />
                          <path
                             d="m 745.35403,-4703.885 c -2.66797,2.3486 -5.3711,4.7275 -8.10401,7.1318 -2.43897,-2.7402 -4.88672,-5.4414 -7.33155,-8.1035 2.75684,-2.3398 5.50684,-4.6387 8.24024,-6.8965 2.42627,2.585 4.83008,5.209 7.19532,7.8682 z"
                             id="path3620"
                             style="fill:#6b6b6b;fill-opacity:1;fill-rule:nonzero;stroke:none" />
                          <path
                             d="m 738.15871,-4711.7532 c -2.7334,2.2578 -5.4834,4.5567 -8.24024,6.8965 -2.44531,-2.6621 -4.8872,-5.2832 -7.31543,-7.8623 2.72901,-2.2656 5.47706,-4.4873 8.22657,-6.6621 2.4541,2.499 4.90283,5.0439 7.3291,7.6279 z"
                             id="path3622"
                             style="fill:#6e6e6e;fill-opacity:1;fill-rule:nonzero;stroke:none" />
                          <path
                             d="m 737.25002,-4696.7532 c -2.73291,2.4033 -5.49561,4.832 -8.28369,7.2822 -2.46778,-2.7705 -4.91016,-5.5195 -7.32423,-8.2412 2.75684,-2.4238 5.51954,-4.8037 8.27637,-7.1445 2.44483,2.6621 4.89258,5.3633 7.33155,8.1035 z"
                             id="path3624"
                             style="fill:#636363;fill-opacity:1;fill-rule:nonzero;stroke:none" />
                          <path
                             d="m 729.91847,-4704.8567 c -2.75683,2.3408 -5.51953,4.7207 -8.27637,7.1445 -2.41357,-2.7226 -4.79883,-5.4189 -7.15136,-8.082 2.67334,-2.3496 5.3833,-4.6592 8.1123,-6.9248 2.42823,2.5791 4.87012,5.2002 7.31543,7.8623 z"
                             id="path3626"
                             style="fill:#666666;fill-opacity:1;fill-rule:nonzero;stroke:none" />
                          <path
                             d="m 730.82961,-4719.3811 c -2.74951,2.1748 -5.49756,4.3965 -8.22657,6.6621 -2.42822,-2.5791 -4.8418,-5.1162 -7.23047,-7.6084 2.66211,-2.1787 5.36621,-4.3203 8.0918,-6.4131 2.4502,2.4053 4.91065,4.8604 7.36524,7.3594 z"
                             id="path3628"
                             style="fill:#767676;fill-opacity:1;fill-rule:nonzero;stroke:none" />
                          <path
                             d="m 723.46437,-4726.7405 c -2.72559,2.0928 -5.42969,4.2344 -8.0918,6.4131 -2.38867,-2.4922 -4.75244,-4.9404 -7.07959,-7.3418 2.56885,-2.082 5.19971,-4.1308 7.86963,-6.1308 2.4126,2.2998 4.85205,4.6543 7.30176,7.0595 z"
                             id="path3630"
                             style="fill:#828282;fill-opacity:1;fill-rule:nonzero;stroke:none" />
                          <path
                             d="m 722.60304,-4712.719 c -2.729,2.2656 -5.43896,4.5752 -8.1123,6.9248 -2.35255,-2.6631 -4.67237,-5.2939 -6.95606,-7.8867 2.55566,-2.249 5.17529,-4.4668 7.83789,-6.6465 2.38867,2.4922 4.80225,5.0293 7.23047,7.6084 z"
                             id="path3632"
                             style="fill:#6e6e6e;fill-opacity:1;fill-rule:nonzero;stroke:none" />
                          <path
                             d="m 715.37257,-4720.3274 c -2.6626,2.1797 -5.28223,4.3975 -7.83789,6.6465 -2.28369,-2.5938 -4.53125,-5.1484 -6.73829,-7.6602 2.42139,-2.1308 4.92774,-4.246 7.49659,-6.3281 2.32715,2.4014 4.69092,4.8496 7.07959,7.3418 z"
                             id="path3634"
                             style="fill:#7a7a7a;fill-opacity:1;fill-rule:nonzero;stroke:none" />
                          <path
                             d="m 732.46193,-4745.0871 c -5.46533,3.4814 -10.95996,7.2871 -16.29932,11.2871 -4.8252,-4.5996 -9.54346,-8.9785 -14.02344,-13.0957 4.98779,-3.4805 10.21582,-6.6992 15.51709,-9.4795 4.83545,3.3379 9.82569,7.1513 14.80567,11.2881 z"
                             id="path3636"
                             style="fill:#b0b0b0;fill-opacity:1;fill-rule:nonzero;stroke:none" />
                          <path
                             d="m 717.65626,-4756.3752 c -5.30127,2.7803 -10.5293,5.999 -15.51709,9.4795 -4.48047,-4.1172 -8.72266,-7.9727 -12.59571,-11.5254 4.5752,-2.626 9.34522,-4.7539 14.23536,-6.3887 4.36133,2.2344 9.04199,5.0967 13.87744,8.4346 z"
                             id="path3638"
                             style="fill:#d6d6d6;fill-opacity:1;fill-rule:nonzero;stroke:none" />
                          <path
                             d="m 716.16261,-4733.8 c -2.66992,2 -5.30078,4.0488 -7.86963,6.1308 -2.32666,-2.4004 -4.61719,-4.7549 -6.85987,-7.0605 2.46143,-1.9727 4.99854,-3.9131 7.5879,-5.7988 2.34277,2.1835 4.729,4.4287 7.1416,6.7285 z"
                             id="path3640"
                             style="fill:#949494;fill-opacity:1;fill-rule:nonzero;stroke:none" />
                          <path
                             d="m 709.02101,-4740.5285 c -2.58936,1.8857 -5.12647,3.8261 -7.5879,5.7988 -2.24316,-2.3067 -4.43799,-4.5645 -6.57422,-6.7715 2.35254,-1.8486 4.78614,-3.6543 7.28028,-5.3945 2.24023,2.0586 4.53955,4.1826 6.88184,6.3672 z"
                             id="path3642"
                             style="fill:#a9a9a9;fill-opacity:1;fill-rule:nonzero;stroke:none" />
                          <path
                             d="m 708.29298,-4727.6692 c -2.56885,2.0821 -5.0752,4.1973 -7.49659,6.3281 -2.20703,-2.5117 -4.37402,-4.9804 -6.49707,-7.4003 2.28711,-2.0137 4.67188,-4.0176 7.13379,-5.9883 2.24268,2.3056 4.53321,4.6601 6.85987,7.0605 z"
                             id="path3644"
                             style="fill:#8b8b8b;fill-opacity:1;fill-rule:nonzero;stroke:none" />
                          <path
                             d="m 701.43311,-4734.7297 c -2.46191,1.9707 -4.84668,3.9746 -7.13379,5.9883 -2.12305,-2.419 -4.20264,-4.7891 -6.23438,-7.1055 2.16944,-1.9131 4.44092,-3.8047 6.79395,-5.6543 2.13623,2.207 4.33106,4.4648 6.57422,6.7715 z"
                             id="path3646"
                             style="fill:#a1a1a1;fill-opacity:1;fill-rule:nonzero;stroke:none" />
                          <path
                             d="m 702.13917,-4746.8957 c -4.98828,3.4814 -9.73536,7.2226 -14.07423,11.0488 -2.03125,-2.3164 -4.01513,-4.5781 -5.94726,-6.7793 4.17285,-3.6816 8.71484,-7.1387 13.49609,-10.2441 2.1045,1.9228 4.28516,3.916 6.5254,5.9746 z"
                             id="path3648"
                             style="fill:#c2c2c2;fill-opacity:1;fill-rule:nonzero;stroke:none" />
                          <path
                             d="m 695.61377,-4752.8703 c -4.78125,3.1054 -9.32324,6.5625 -13.49609,10.2441 -1.93262,-2.2021 -3.81348,-4.3437 -5.63917,-6.4209 4.10987,-3.626 8.48975,-6.749 13.06495,-9.374 1.93652,1.7764 3.96533,3.6289 6.07031,5.5508 z"
                             id="path3650"
                             style="fill:#dfdfdf;fill-opacity:1;fill-rule:nonzero;stroke:none" />
                          <path
                             d="m 728.96633,-4689.471 c -2.77637,2.458 -5.5293,4.8946 -8.25294,7.3037 -2.43945,-2.7392 -4.83349,-5.4882 -7.18262,-8.2343 2.66163,-2.4395 5.36622,-4.8809 8.11133,-7.3106 2.41407,2.7217 4.85645,5.4707 7.32423,8.2412 z"
                             id="path3652"
                             style="fill:#616161;fill-opacity:1;fill-rule:nonzero;stroke:none" />
                          <path
                             d="m 721.6421,-4697.7122 c -2.74511,2.4297 -5.4497,4.8711 -8.11133,7.3106 -2.34912,-2.7461 -4.65332,-5.4893 -6.91308,-8.2168 2.58349,-2.4209 5.20947,-4.8184 7.87305,-7.1758 2.35253,2.6631 4.73779,5.3594 7.15136,8.082 z"
                             id="path3654"
                             style="fill:#636363;fill-opacity:1;fill-rule:nonzero;stroke:none" />
                          <path
                             d="m 720.71339,-4682.1673 c -2.72412,2.4102 -5.41943,4.793 -8.08105,7.1446 -2.36524,-2.6592 -4.68555,-5.3574 -6.95899,-8.0762 2.5752,-2.4248 5.19531,-4.8633 7.85742,-7.3027 2.34913,2.7461 4.74317,5.4951 7.18262,8.2343 z"
                             id="path3656"
                             style="fill:#636363;fill-opacity:1;fill-rule:nonzero;stroke:none" />
                          <path
                             d="m 713.53077,-4690.4016 c -2.66211,2.4394 -5.28222,4.8779 -7.85742,7.3027 -2.27344,-2.7187 -4.49951,-5.459 -6.67676,-8.2031 2.49512,-2.4512 5.03711,-4.8955 7.6211,-7.3164 2.25976,2.7275 4.56396,5.4707 6.91308,8.2168 z"
                             id="path3658"
                             style="fill:#666666;fill-opacity:1;fill-rule:nonzero;stroke:none" />
                          <path
                             d="m 714.49074,-4705.7942 c -2.66358,2.3574 -5.28956,4.7549 -7.87305,7.1758 -2.25977,-2.7276 -4.4751,-5.4395 -6.64649,-8.1231 2.49023,-2.3652 5.01465,-4.6855 7.56348,-6.9394 2.28369,2.5928 4.60351,5.2236 6.95606,7.8867 z"
                             id="path3660"
                             style="fill:#6b6b6b;fill-opacity:1;fill-rule:nonzero;stroke:none" />
                          <path
                             d="m 707.53468,-4713.6809 c -2.54883,2.2539 -5.07325,4.5742 -7.56348,6.9394 -2.1709,-2.6845 -4.29834,-5.3408 -6.38184,-7.957 2.38281,-2.2851 4.79102,-4.5058 7.20703,-6.6426 2.20704,2.5118 4.4546,5.0664 6.73829,7.6602 z"
                             id="path3662"
                             style="fill:#777777;fill-opacity:1;fill-rule:nonzero;stroke:none" />
                          <path
                             d="m 706.61769,-4698.6184 c -2.58399,2.4209 -5.12598,4.8652 -7.6211,7.3164 -2.17676,-2.7442 -4.30469,-5.4922 -6.38184,-8.2256 2.41016,-2.4375 4.86621,-4.8486 7.35645,-7.2139 2.17139,2.6836 4.38672,5.3955 6.64649,8.1231 z"
                             id="path3664"
                             style="fill:#6e6e6e;fill-opacity:1;fill-rule:nonzero;stroke:none" />
                          <path
                             d="m 699.9712,-4706.7415 c -2.49024,2.3653 -4.94629,4.7764 -7.35645,7.2139 -2.07715,-2.7334 -4.10352,-5.4521 -6.07617,-8.1396 2.31201,-2.3946 4.66846,-4.7452 7.05078,-7.0313 2.0835,2.6162 4.21094,5.2725 6.38184,7.957 z"
                             id="path3666"
                             style="fill:#7a7a7a;fill-opacity:1;fill-rule:nonzero;stroke:none" />
                          <path
                             d="m 712.63234,-4675.0227 c -2.66163,2.3515 -5.28956,4.6718 -7.87891,6.957 -2.26026,-2.5439 -4.48731,-5.1543 -6.67286,-7.8086 2.48536,-2.3867 5.01758,-4.7988 7.59278,-7.2246 2.27344,2.7188 4.59375,5.417 6.95899,8.0762 z"
                             id="path3668"
                             style="fill:#6b6b6b;fill-opacity:1;fill-rule:nonzero;stroke:none" />
                          <path
                             d="m 705.67335,-4683.0989 c -2.5752,2.4258 -5.10742,4.8379 -7.59278,7.2246 -2.18603,-2.6533 -4.33008,-5.3515 -6.4248,-8.0722 2.39746,-2.4473 4.8457,-4.9053 7.34082,-7.3555 2.17725,2.7441 4.40332,5.4844 6.67676,8.2031 z"
                             id="path3670"
                             style="fill:#6e6e6e;fill-opacity:1;fill-rule:nonzero;stroke:none" />
                          <path
                             d="m 704.75343,-4668.0657 c -2.58887,2.2852 -5.13965,4.5352 -7.646,6.7451 -2.14014,-2.4131 -4.26123,-4.9121 -6.34766,-7.4746 2.39355,-2.3271 4.83447,-4.6904 7.3208,-7.0791 2.18555,2.6543 4.4126,5.2647 6.67286,7.8086 z"
                             id="path3672"
                             style="fill:#777777;fill-opacity:1;fill-rule:nonzero;stroke:none" />
                          <path
                             d="m 698.08057,-4675.8743 c -2.48633,2.3887 -4.92725,4.752 -7.3208,7.0791 -2.08643,-2.5625 -4.1377,-5.1885 -6.13867,-7.8545 2.29101,-2.4121 4.6372,-4.8496 7.03467,-7.2968 2.09472,2.7207 4.23877,5.4189 6.4248,8.0722 z"
                             id="path3674"
                             style="fill:#7a7a7a;fill-opacity:1;fill-rule:nonzero;stroke:none" />
                          <path
                             d="m 698.99659,-4691.302 c -2.49512,2.4502 -4.94336,4.9082 -7.34082,7.3555 -2.09424,-2.7207 -4.13868,-5.4649 -6.12501,-8.21 2.3086,-2.4697 4.67383,-4.9336 7.08399,-7.3711 2.07715,2.7334 4.20508,5.4814 6.38184,8.2256 z"
                             id="path3676"
                             style="fill:#767676;fill-opacity:1;fill-rule:nonzero;stroke:none" />
                          <path
                             d="m 692.61475,-4699.5276 c -2.41016,2.4375 -4.77539,4.9014 -7.08399,7.3711 -1.98681,-2.7451 -3.91504,-5.4912 -5.77734,-8.2178 2.20508,-2.4609 4.47314,-4.8984 6.78516,-7.2929 1.97265,2.6875 3.99902,5.4062 6.07617,8.1396 z"
                             id="path3678"
                             style="fill:#828282;fill-opacity:1;fill-rule:nonzero;stroke:none" />
                          <path
                             d="m 691.65577,-4683.9465 c -4.18848,-5.4424 -8.17823,-10.9746 -11.90235,-16.4278 -2.20459,2.4619 -4.34668,4.9473 -6.40772,7.4346 3.47315,5.4658 7.27344,10.958 11.2754,16.29 2.29101,-2.4121 4.6372,-4.8496 7.03467,-7.2968 z"
                             id="path3680"
                             style="fill:#828282;fill-opacity:1;fill-rule:nonzero;stroke:none" />
                          <path
                             d="m 700.79639,-4721.3411 c -2.41601,2.1368 -4.82422,4.3575 -7.20703,6.6426 -2.08301,-2.6152 -4.12256,-5.1914 -6.11914,-7.7148 2.26074,-2.1934 4.54492,-4.3106 6.8291,-6.3281 2.12305,2.4199 4.29004,4.8886 6.49707,7.4003 z"
                             id="path3682"
                             style="fill:#898989;fill-opacity:1;fill-rule:nonzero;stroke:none" />
                          <path
                             d="m 694.29932,-4728.7414 c -2.28418,2.0175 -4.56836,4.1347 -6.8291,6.3281 -1.9961,-2.5235 -3.94922,-4.9942 -5.85938,-7.3994 2.12647,-2.1026 4.28613,-4.1201 6.4541,-6.0342 2.03174,2.3164 4.11133,4.6865 6.23438,7.1055 z"
                             id="path3684"
                             style="fill:#9f9f9f;fill-opacity:1;fill-rule:nonzero;stroke:none" />
                          <path
                             d="m 693.58936,-4714.6985 c -2.38232,2.2861 -4.73877,4.6367 -7.05078,7.0313 -1.97266,-2.6875 -3.89258,-5.3428 -5.75684,-7.9493 2.19043,-2.33 4.42822,-4.6035 6.68848,-6.7968 1.99658,2.5234 4.03613,5.0996 6.11914,7.7148 z"
                             id="path3686"
                             style="fill:#8b8b8b;fill-opacity:1;fill-rule:nonzero;stroke:none" />
                          <path
                             d="m 687.47022,-4722.4133 c -2.26026,2.1933 -4.49805,4.4668 -6.68848,6.7968 -1.86426,-2.6054 -3.67383,-5.1621 -5.42627,-7.6503 2.03564,-2.2549 4.1289,-4.4434 6.25537,-6.5459 1.91016,2.4052 3.86328,4.8759 5.85938,7.3994 z"
                             id="path3688"
                             style="fill:#a1a1a1;fill-opacity:1;fill-rule:nonzero;stroke:none" />
                          <path
                             d="m 688.06494,-4735.8469 c -4.33593,3.8281 -8.63867,8.0703 -12.70947,12.5801 -1.75245,-2.4883 -3.44727,-4.9102 -5.08301,-7.2461 3.67627,-4.3555 7.67188,-8.4317 11.84522,-12.1133 1.93213,2.2012 3.91601,4.4629 5.94726,6.7793 z"
                             id="path3690"
                             style="fill:#bababa;fill-opacity:1;fill-rule:nonzero;stroke:none" />
                          <path
                             d="m 682.11768,-4742.6262 c -4.17334,3.6816 -8.16895,7.7578 -11.84522,12.1133 -1.63575,-2.3369 -3.21241,-4.5879 -4.72803,-6.7364 3.17676,-4.2128 6.82324,-8.1699 10.93408,-11.7978 1.82569,2.0772 3.70655,4.2188 5.63917,6.4209 z"
                             id="path3692"
                             style="fill:#dadada;fill-opacity:1;fill-rule:nonzero;stroke:none" />
                          <path
                             d="m 686.53858,-4707.6672 c -4.62403,4.788 -9.07081,9.7519 -13.19288,14.7275 -3.47315,-5.4658 -6.61963,-10.9043 -9.31494,-16.1299 3.41308,-4.9072 7.25342,-9.6875 11.32471,-14.1972 3.50439,4.9775 7.23779,10.2246 11.18311,15.5996 z"
                             id="path3694"
                             style="fill:#949494;fill-opacity:1;fill-rule:nonzero;stroke:none" />
                          <path
                             d="m 675.35547,-4723.2668 c -4.07129,4.5097 -7.91163,9.29 -11.32471,14.1972 -2.69483,-5.2256 -4.93799,-10.2383 -6.6045,-14.8506 2.2334,-4.6474 4.94092,-9.1162 8.11817,-13.3291 3.03076,4.2969 6.30664,9.0049 9.81104,13.9825 z"
                             id="path3696"
                             style="fill:#c2c2c2;fill-opacity:1;fill-rule:nonzero;stroke:none" />
                          <path
                             d="m 697.10743,-4661.3206 c -2.50635,2.21 -4.96924,4.3809 -7.38331,6.5068 -2.02002,-2.2812 -4.02832,-4.6621 -6.00293,-7.1201 2.29834,-2.2431 4.64502,-4.5341 7.03858,-6.8613 2.08643,2.5625 4.20752,5.0615 6.34766,7.4746 z"
                             id="path3698"
                             style="fill:#898989;fill-opacity:1;fill-rule:nonzero;stroke:none" />
                          <path
                             d="m 690.75977,-4668.7952 c -2.39356,2.3272 -4.74024,4.6182 -7.03858,6.8613 -1.97461,-2.458 -3.91553,-4.9921 -5.80225,-7.5791 2.1753,-2.3418 4.41114,-4.7265 6.70216,-7.1367 2.00097,2.666 4.05224,5.292 6.13867,7.8545 z"
                             id="path3700"
                             style="fill:#8b8b8b;fill-opacity:1;fill-rule:nonzero;stroke:none" />
                          <path
                             d="m 689.72412,-4654.8138 c -2.41406,2.127 -4.77929,4.21 -7.09033,6.2442 -1.91553,-2.167 -3.80908,-4.4365 -5.65967,-6.7871 2.19971,-2.1377 4.44922,-4.334 6.74707,-6.5772 1.97461,2.458 3.98291,4.8389 6.00293,7.1201 z"
                             id="path3702"
                             style="fill:#9f9f9f;fill-opacity:1;fill-rule:nonzero;stroke:none" />
                          <path
                             d="m 683.72119,-4661.9339 c -2.29785,2.2432 -4.54736,4.4395 -6.74707,6.5772 -1.8501,-2.3516 -3.65674,-4.7842 -5.39746,-7.2774 2.05127,-2.2392 4.16699,-4.5371 6.34228,-6.8789 1.88672,2.587 3.82764,5.1211 5.80225,7.5791 z"
                             id="path3704"
                             style="fill:#a1a1a1;fill-opacity:1;fill-rule:nonzero;stroke:none" />
                          <path
                             d="m 684.6211,-4676.6497 c -4.58204,4.8213 -8.9419,9.5371 -13.04444,14.0156 -3.48145,-4.9853 -6.69971,-10.2128 -9.47657,-15.5156 3.32569,-4.831 7.12305,-9.8164 11.24561,-14.79 3.47315,5.4658 7.27344,10.958 11.2754,16.29 z"
                             id="path3706"
                             style="fill:#949494;fill-opacity:1;fill-rule:nonzero;stroke:none" />
                          <path
                             d="m 682.63379,-4648.5696 c -3.83057,-4.334 -7.57569,-9.0781 -11.05713,-14.0645 -2.05127,2.2403 -4.03809,4.42 -5.95655,6.5235 3.10596,4.7802 6.56397,9.3222 10.2461,13.4941 2.19873,-1.9336 4.45654,-3.9189 6.76758,-5.9531 z"
                             id="path3708"
                             style="fill:#bababa;fill-opacity:1;fill-rule:nonzero;stroke:none" />
                          <path
                             d="m 675.86621,-4642.6165 c -3.68213,-4.1719 -7.14014,-8.7139 -10.2461,-13.4941 -1.91846,2.1035 -3.76807,4.1308 -5.54443,6.0664 2.62597,4.5752 5.75,8.955 9.37598,13.0664 2.07617,-1.8242 4.21582,-3.7051 6.41455,-5.6387 z"
                             id="path3710"
                             style="fill:#dadada;fill-opacity:1;fill-rule:nonzero;stroke:none" />
                          <path
                             d="m 671.57666,-4662.6341 c -4.10254,4.4795 -7.94825,8.7188 -11.50098,12.5899 -2.62598,-4.5752 -4.75391,-9.3457 -6.38917,-14.2363 2.23487,-4.3594 5.08838,-9.0371 8.41358,-13.8692 2.77686,5.3028 5.99512,10.5303 9.47657,15.5156 z"
                             id="path3712"
                             style="fill:#c2c2c2;fill-opacity:1;fill-rule:nonzero;stroke:none" />
                          <path
                             d="m 673.3457,-4692.9397 c -4.12256,4.9736 -7.91992,9.959 -11.24561,14.79 -2.77686,-5.3008 -5.11231,-10.6767 -6.8291,-15.959 2.36133,-5.0195 5.34668,-10.0527 8.75977,-14.9609 2.69531,5.2256 5.84179,10.6641 9.31494,16.1299 z"
                             id="path3714"
                             style="fill:#b0b0b0;fill-opacity:1;fill-rule:nonzero;stroke:none" />
                          <path
                             d="m 664.03076,-4709.0696 c -3.41309,4.9082 -6.39844,9.9414 -8.75977,14.9609 -1.71729,-5.2832 -2.81543,-10.4726 -3.11719,-15.4023 1.28027,-4.9336 3.03906,-9.7617 5.27246,-14.4092 1.66651,4.6123 3.90967,9.625 6.6045,14.8506 z"
                             id="path3716"
                             style="fill:#d6d6d6;fill-opacity:1;fill-rule:nonzero;stroke:none" />
                          <path
                             d="m 662.10009,-4678.1497 c -3.3252,4.8321 -6.17871,9.5098 -8.41358,13.8692 -1.63525,-4.8907 -2.77685,-9.9014 -3.43066,-14.9571 0.9165,-4.8476 2.65381,-9.8515 5.01514,-14.8711 1.71679,5.2823 4.05224,10.6582 6.8291,15.959 z"
                             id="path3718"
                             style="fill:#d6d6d6;fill-opacity:1;fill-rule:nonzero;stroke:none" />
                          <path
                             d="m 655.27099,-4694.1087 c -2.36133,5.0196 -4.09864,10.0235 -5.01514,14.8711 -0.65381,-5.0566 -0.81885,-10.1582 -0.50049,-15.2304 0.31738,-5.0694 1.11816,-10.1084 2.39844,-15.043 0.30176,4.9297 1.3999,10.1191 3.11719,15.4023 z"
                             id="path3720"
                             style="fill:#ededed;fill-opacity:1;fill-rule:nonzero;stroke:none" />
                        </g>
                      </g>
                    </g>
                  </g>
                </g>
              </g>
            </g>
          </g>
        </g>
      </g>
    </mask>
    <clipPath
       id="clipPath3402">
      <path
         d="m 649.599,4768.9 168.969,0 0,-176.11 -168.969,0 0,176.11 z"
         id="path3404" />
    </clipPath>
    <clipPath
       id="clipPath3406">
      <path
         d="m 647.483,4771.01 172.365,0 0,-180.33 -172.365,0 0,180.33 z"
         id="path3408" />
    </clipPath>
    <clipPath
       id="clipPath3410">
      <path
         d="m 818.546,4667.228 c -1.271,-20.287 -10.278,-40.083 -26.725,-54.591 -16.443,-14.5 -37.202,-20.956 -57.482,-19.695 -4.852,0.304 -25.457,11.001 -31.084,13.701 -17.898,8.564 -22.774,17.833 -33.803,30.336 -14.505,16.443 -20.969,37.2 -19.696,57.49 1.269,20.277 10.278,40.068 26.723,54.579 16.439,14.504 37.203,20.965 57.479,19.699 20.283,-1.269 40.081,-10.279 54.585,-26.723 11.032,-12.509 21.153,-24.334 25.871,-44.521 1.484,-6.342 4.434,-25.42 4.132,-30.275"
         id="path3412" />
    </clipPath>
    <clipPath
       id="clipPath3726">
      <path
         d="m 649.599,4768.9 168.969,0 0,-176.11 -168.969,0 0,176.11 z"
         id="path3728" />
    </clipPath>
    <clipPath
       id="clipPath3730">
      <path
         d="m 818.546,4667.228 c -1.271,-20.287 -10.278,-40.083 -26.725,-54.591 -16.443,-14.5 -37.202,-20.956 -57.482,-19.695 -4.852,0.304 -25.457,11.001 -31.084,13.701 -17.898,8.564 -22.774,17.833 -33.803,30.336 -14.505,16.443 -20.969,37.2 -19.696,57.49 1.269,20.277 10.278,40.068 26.723,54.579 16.439,14.504 37.203,20.965 57.479,19.699 20.283,-1.269 40.081,-10.279 54.585,-26.723 11.032,-12.509 21.153,-24.334 25.871,-44.521 1.484,-6.342 4.434,-25.42 4.132,-30.275"
         id="path3732" />
    </clipPath>
  </defs>
  <metadata
     id="metadata22464">
    <rdf:RDF>
      <cc:Work
         rdf:about="">
        <dc:format>image/svg+xml</dc:format>
        <dc:type
           rdf:resource="http://purl.org/dc/dcmitype/StillImage" />
        <dc:title></dc:title>
      </cc:Work>
    </rdf:RDF>
  </metadata>
  <g
     transform="translate(-563.30452,794.45544)"
     id="layer1">
    <g
       transform="matrix(1.415923,0,0,-1.415923,954.16135,-283.79299)"
       id="g4664">
      <path
         d="m 0,0 c 84.525,0 153.047,68.521 153.047,153.042 0,84.53 -68.522,153.053 -153.047,153.053 -84.525,0 -153.047,-68.523 -153.047,-153.053 C -153.047,68.521 -84.525,0 0,0"
         id="path4666"
         style="fill:#f37c30;fill-opacity:1;fill-rule:nonzero;stroke:none" />
    </g>
    <g
       transform="matrix(1.415923,0,0,-1.415923,1105.3568,-469.82639)"
       id="g5396">
      <path
         d="M 0,0 C -2.182,-0.474 -4.336,0.912 -4.807,3.094 L -17.28,60.638 c -0.473,2.179 0.915,4.333 3.097,4.809 l 21.366,4.63 c 2.187,0.478 4.338,-0.914 4.809,-3.096 L 24.462,9.438 C 24.939,7.258 23.552,5.101 21.367,4.63 L 0,0 z M 42.301,-46.989 12.255,91.657 c -0.526,2.431 -2.926,3.984 -5.359,3.453 l -31.177,-6.756 c -2.435,-0.524 -3.978,-2.929 -3.453,-5.365 L 2.313,-55.653 c 0.524,-2.433 2.926,-3.98 5.358,-3.456 l 31.179,6.759 c 2.434,0.528 3.979,2.929 3.451,5.361"
         id="path5398"
         style="fill:#4a4a49;fill-opacity:1;fill-rule:nonzero;stroke:none" />
    </g>
    <g
       transform="matrix(1.415923,0,0,-1.415923,817.55595,-482.60979)"
       id="g5400">
      <path
         d="m 0,0 c 0.804,-0.807 2.119,-0.807 2.925,0 l 27.53,27.525 c 2.852,2.851 2.852,7.49 0,10.341 l -1.1,1.1 c -1.38,1.384 -3.217,2.142 -5.168,2.142 -1.954,0 -3.788,-0.758 -5.169,-2.142 L -9.268,10.681 C -9.755,10.199 -9.968,9.498 -9.832,8.828 -9.702,8.146 -9.244,7.582 -8.61,7.316 -7.142,6.693 -5.789,5.785 -4.628,4.624 L 0,0 z"
         id="path5402"
         style="fill:#4a4a49;fill-opacity:1;fill-rule:nonzero;stroke:none" />
    </g>
    <g
       transform="matrix(1.415923,0,0,-1.415923,899.53485,-450.42509)"
       id="g5404">
      <path
         d="m 0,0 c 1.758,0 3.443,0.699 4.694,1.94 l 68.637,68.638 c 1.349,1.351 2.051,3.221 1.924,5.125 -0.126,1.91 -1.071,3.673 -2.588,4.831 -9.908,7.552 -21.773,11.326 -33.637,11.326 -6.365,0 -12.727,-1.09 -18.792,-3.258 l -21.196,21.193 c -1.045,1.046 -2.42,1.577 -3.792,1.577 -1.373,0 -2.742,-0.531 -3.794,-1.577 L -34.527,83.813 c -2.094,-2.092 -2.094,-5.495 0,-7.585 l 21.196,-21.19 C -19.548,37.665 -16.866,17.828 -5.261,2.607 -4.104,1.082 -2.344,0.14 -0.436,0.012 -0.289,0.002 -0.142,0 0,0"
         id="path5406"
         style="fill:#4a4a49;fill-opacity:1;fill-rule:nonzero;stroke:none" />
    </g>
    <g
       transform="matrix(1.415923,0,0,-1.415923,791.11585,-475.29379)"
       id="g5408">
      <path
         d="m 0,0 c 0,2.893 2.346,5.237 5.242,5.237 2.89,0 5.236,-2.344 5.236,-5.237 0,-2.894 -2.346,-5.239 -5.236,-5.239 C 2.346,-5.239 0,-2.894 0,0 m 110.853,-37.926 -50.215,0 -6.278,0 L 10.344,6.088 C 8.965,7.473 7.127,8.23 5.175,8.23 3.223,8.23 1.385,7.473 0.009,6.092 L -1.095,4.991 c -2.849,-2.852 -2.849,-7.487 0,-10.34 l 32.575,-32.577 -2.093,0 c -1.577,0 -3.022,-0.428 -4.157,-1.149 -1.485,-0.938 -2.432,-2.365 -2.432,-3.967 l 0,-14.91 c 0,-2.824 2.95,-5.115 6.589,-5.115 l 81.466,0 c 3.639,0 6.593,2.291 6.593,5.115 l 0,14.91 c 0,2.824 -2.954,5.116 -6.593,5.116"
         id="path5410"
         style="fill:#4a4a49;fill-opacity:1;fill-rule:nonzero;stroke:none" />
    </g>
    <g
       transform="matrix(1.415923,0,0,-1.415923,1059.5625,-599.63639)"
       id="g5412">
      <path
         d="m 0,0 -31.904,0 c -2.489,0 -4.508,-2.021 -4.508,-4.51 0,2.489 -2.019,4.51 -4.508,4.51 l -31.9,0 c -2.097,0 -3.855,-1.433 -4.361,-3.371 1.061,0.049 2.123,0.079 3.191,0.079 14.336,0 28.484,-4.76 39.841,-13.415 2.723,-2.079 4.714,-4.914 5.771,-8.107 0.463,0.184 0.964,0.285 1.491,0.285 l 21.866,0 c 2.233,0 4.044,-1.809 4.044,-4.04 l 0,-58.881 c 0,-2.236 -1.811,-4.045 -4.044,-4.045 l -21.866,0 c -2.231,0 -4.04,1.809 -4.04,4.045 l 0,47.176 c -0.469,-0.619 -0.973,-1.209 -1.526,-1.76 l -9.442,-9.442 0,-35.974 c 0,-2.236 -1.81,-4.045 -4.041,-4.045 l -21.867,0 c -2.23,0 -4.042,1.809 -4.042,4.045 l 0,6.019 -5.486,-5.48 0,-28.656 c 8.619,-0.652 15.416,-7.26 15.416,-15.292 l 0,-14.911 c 0,-1.792 -0.342,-3.515 -0.963,-5.115 l 21.958,0 c 2.489,0 4.508,2.024 4.508,4.513 0,-2.489 2.019,-4.513 4.508,-4.513 l 31.904,0 c 2.487,0 4.503,2.024 4.503,4.513 l 0,141.862 C 4.503,-2.021 2.487,0 0,0"
         id="path5414"
         style="fill:#4a4a49;fill-opacity:1;fill-rule:nonzero;stroke:none" />
    </g>
    <g
       transform="matrix(1.415923,0,0,-1.415923,741.70645,-500.48859)"
       id="g5416">
      <path
         d="m 0,0 c 0,82.874 67.178,150.058 150.047,150.058 82.869,0 150.047,-67.184 150.047,-150.058 0,-82.864 -67.178,-150.045 -150.047,-150.045 C 67.178,-150.045 0,-82.864 0,0 m -57.563,0 c 0,-114.659 92.951,-207.608 207.613,-207.608 114.658,0 207.609,92.949 207.609,207.608 0,114.668 -92.951,207.615 -207.609,207.615 C 35.388,207.615 -57.563,114.668 -57.563,0"
         id="path5418"
         style="fill:#f4f5f5;fill-opacity:1;fill-rule:nonzero;stroke:none" />
    </g>
    <g
       transform="matrix(1.415923,0,0,-1.415923,-340.04555,6379.3597)"
       id="g5420">
      <g
         id="g5422" />
      <g
         id="g5438">
        <g
           clip-path="url(#clipPath5424)"
           id="g5440"
           style="opacity:0.27999902">
          <g
             id="g5442">
            <g
               id="g5444">
              <g
                 id="g5446">
                <g
                   id="g5448">
                  <path
                     d="m 763.991,4858.914 c 0,82.874 67.177,150.058 150.047,150.058 82.868,0 150.046,-67.184 150.046,-150.058 0,-82.864 -67.178,-150.045 -150.046,-150.045 -82.87,0 -150.047,67.181 -150.047,150.045 m -57.563,0 c 0,-114.659 92.951,-207.608 207.613,-207.608 114.658,0 207.608,92.949 207.608,207.608 0,114.668 -92.95,207.615 -207.608,207.615 -114.662,0 -207.613,-92.947 -207.613,-207.615"
                     id="path5450"
                     style="fill:url(#linearGradient21365);stroke:none" />
                </g>
              </g>
            </g>
          </g>
        </g>
      </g>
    </g>
    <g
       transform="matrix(1.415923,0,0,-1.415923,690.72355,-182.41199)"
       id="g5452">
      <path
         d="m 0,0 c 36.636,0 66.337,29.696 66.337,66.34 0,36.633 -29.701,66.334 -66.337,66.334 -36.637,0 -66.338,-29.701 -66.338,-66.334 C -66.338,29.696 -36.637,0 0,0"
         id="path5454"
         style="fill:#f37c30;fill-opacity:1;fill-rule:nonzero;stroke:none" />
    </g>
    <g
       transform="matrix(1.415923,0,0,-1.415923,598.63746,-276.34409)"
       id="g6106">
      <path
         d="m 0,0 c 0,35.919 29.117,65.035 65.036,65.035 35.919,0 65.035,-29.116 65.035,-65.035 0,-35.924 -29.116,-65.04 -65.035,-65.04 C 29.117,-65.04 0,-35.924 0,0 m -24.954,-0.003 c 0,-49.699 40.29,-89.992 89.99,-89.992 49.697,0 89.988,40.293 89.988,89.992 0,49.696 -40.291,89.987 -89.988,89.987 -49.7,0 -89.99,-40.291 -89.99,-89.987"
         id="path6108"
         style="fill:#f4f5f5;fill-opacity:1;fill-rule:nonzero;stroke:none" />
    </g>
    <g
       transform="matrix(1.415923,0,0,-1.415923,-340.04555,6379.3597)"
       id="g6148">
      <g
         id="g6150" />
      <g
         id="g6166">
        <g
           clip-path="url(#clipPath6152)"
           id="g6168"
           style="opacity:0.27999902">
          <g
             id="g6170">
            <g
               id="g6172">
              <g
                 id="g6174">
                <g
                   id="g6176">
                  <path
                     d="m 662.948,4700.611 c 0,35.919 29.116,65.035 65.036,65.035 35.918,0 65.035,-29.116 65.035,-65.035 0,-35.923 -29.117,-65.04 -65.035,-65.04 -35.92,0 -65.036,29.117 -65.036,65.04 m -24.954,0 c 0,-49.699 40.29,-89.992 89.99,-89.992 49.697,0 89.988,40.293 89.988,89.992 0,49.697 -40.291,89.988 -89.988,89.988 -49.7,0 -89.99,-40.291 -89.99,-89.988"
                     id="path6178"
                     style="fill:url(#linearGradient21369);stroke:none" />
                </g>
              </g>
            </g>
          </g>
        </g>
      </g>
    </g>
  </g>
</svg>
