<?xml version="1.0" encoding="UTF-8" standalone="no"?>
<!-- Created with Inkscape (http://www.inkscape.org/) -->

<svg
   xmlns:dc="http://purl.org/dc/elements/1.1/"
   xmlns:cc="http://creativecommons.org/ns#"
   xmlns:rdf="http://www.w3.org/1999/02/22-rdf-syntax-ns#"
   xmlns:svg="http://www.w3.org/2000/svg"
   xmlns="http://www.w3.org/2000/svg"
   xmlns:sodipodi="http://sodipodi.sourceforge.net/DTD/sodipodi-0.dtd"
   xmlns:inkscape="http://www.inkscape.org/namespaces/inkscape"
   version="1.1"
   width="1920"
   height="1080"
   id="svg5576"
   inkscape:version="0.48.5 r10040"
   sodipodi:docname="logo-white-full.svg">
  <sodipodi:namedview
     pagecolor="#ffffff"
     bordercolor="#666666"
     borderopacity="1"
     objecttolerance="10"
     gridtolerance="10"
     guidetolerance="10"
     inkscape:pageopacity="0"
     inkscape:pageshadow="2"
     inkscape:window-width="1918"
     inkscape:window-height="1078"
     id="namedview7"
     showgrid="false"
     inkscape:zoom="0.43290079"
     inkscape:cx="1465.5832"
     inkscape:cy="458.25278"
     inkscape:window-x="1360"
     inkscape:window-y="0"
     inkscape:window-maximized="0"
     inkscape:current-layer="svg5576" />
  <defs
     id="defs5578">
    <clipPath
       clipPathUnits="userSpaceOnUse"
       id="clipPath16">
      <path
         inkscape:connector-curvature="0"
         d="M 0,288 288,288 288,0 0,0 0,288 z"
         id="path18" />
    </clipPath>
    <clipPath
       clipPathUnits="userSpaceOnUse"
       id="clipPath16-4">
      <path
         inkscape:connector-curvature="0"
         d="M 0,288 288,288 288,0 0,0 0,288 z"
         id="path18-6" />
    </clipPath>
  </defs>
  <metadata
     id="metadata5581">
    <rdf:RDF>
      <cc:Work
         rdf:about="">
        <dc:format>image/svg+xml</dc:format>
        <dc:type
           rdf:resource="http://purl.org/dc/dcmitype/StillImage" />
        <dc:title></dc:title>
      </cc:Work>
    </rdf:RDF>
  </metadata>
  <rect
     style="fill:#ffffff"
     id="rect3010"
     width="713.78943"
     height="334.94971"
     x="-295.67975"
     y="-1174.9497" />
  <rect
     style="fill:#ffffff;opacity:0.6"
     id="rect3062"
     width="1920"
     height="1080"
     x="0"
     y="0" />
  <path
     style="fill:#231f20;fill-opacity:1;fill-rule:nonzero;stroke:none"
     d="m 948.03125,255.53125 c -153.73777,0 -278.375,75.58331 -278.375,168.8125 0,5.40609 0.4322,10.74855 1.25,16.03125 13.31722,-85.71117 132.30269,-152.78125 277.125,-152.78125 144.81945,0 263.77365,67.07008 277.09375,152.78125 0.8178,-5.2827 1.2812,-10.62516 1.2812,-16.03125 0,-93.22919 -124.6343,-168.8125 -278.37495,-168.8125 z m 0,81.03125 c -120.65848,0 -218.46875,59.30579 -218.46875,132.46875 0,4.24682 0.32599,8.41898 0.96875,12.5625 10.45063,-67.26332 103.84304,-119.875 217.5,-119.875 113.65985,0 207.01235,52.61168 217.46875,119.875 0.6456,-4.14352 1,-8.31568 1,-12.5625 0,-73.16296 -97.816,-132.46875 -218.46875,-132.46875 z m 0,79.8125 c -77.84307,0 -140.96875,38.26879 -140.96875,85.46875 0,2.73748 0.24017,5.45352 0.65625,8.125 6.74613,-43.39791 66.98598,-77.34375 140.3125,-77.34375 5.518,0 10.92681,0.22072 16.28125,0.59375 -13.06471,12.267 -21.21875,29.62881 -21.21875,48.9375 0,37.1482 30.16914,67.28125 67.40625,67.28125 36.3362,0 65.9661,-28.68804 67.375,-64.59375 5.4721,7.85087 9.0943,16.28129 10.4688,25.125 0.413,-2.67148 0.625,-5.38752 0.625,-8.125 0,-47.19996 -63.0973,-85.46875 -140.93755,-85.46875 z m 83.56255,44.78125 c 7.5466,0 13.6562,6.09837 13.6562,13.625 0,7.52663 -6.1096,13.625 -13.6562,13.625 -7.544,0 -13.6563,-6.09837 -13.6563,-13.625 0,-7.52663 6.1123,-13.625 13.6563,-13.625 z m -362.56255,112.375 0,112.8125 20.25,0 0,-8.59375 c 3.99143,3.79344 8.02516,6.51459 12.0625,8.1875 4.04022,1.67003 8.40503,2.5 13.09375,2.5 10.52236,0 19.60254,-4.09209 27.28125,-12.25 7.68158,-8.14643 11.53125,-18.28846 11.53125,-30.40625 0,-12.56542 -3.72431,-22.84621 -11.15625,-30.875 -7.42906,-8.02878 -16.44258,-12.0625 -27.0625,-12.0625 -4.88958,0 -9.49139,0.93905 -13.78125,2.78125 -4.28699,1.84795 -8.27861,4.62523 -11.96875,8.3125 l 0,-40.40625 -20.25,0 z m 304.46875,0 0,112.8125 20.28125,0 0,-8.59375 c 3.9857,3.79344 7.99095,6.51459 12.03125,8.1875 4.0373,1.67003 8.405,2.5 13.0937,2.5 10.5195,0 19.6339,-4.09209 27.3126,-12.25 7.6814,-8.14643 11.5,-18.28846 11.5,-30.40625 0,-12.56542 -3.6989,-22.84621 -11.125,-30.875 -7.4348,-8.02878 -16.4739,-12.0625 -27.0938,-12.0625 -4.8868,0 -9.4601,0.93905 -13.75,2.78125 -4.2899,1.84795 -8.28147,4.62523 -11.96875,8.3125 l 0,-40.40625 -20.28125,0 z m -214.65625,31.4375 0,33.875 c 0,13.01593 0.81082,21.99913 2.40625,26.9375 2.2468,7.13351 6.11275,12.67056 11.625,16.65625 5.50652,3.99144 12.72645,6 21.65625,6 8.22678,0 15.0094,-1.71033 20.34375,-5.125 5.33722,-3.41468 9.38178,-8.32843 12.125,-14.71875 2.24393,-5.22818 3.34375,-14.94375 3.34375,-29.15625 l 0,-34.46875 -20.40625,0 0,39.84375 c 0,7.68158 -0.43188,12.68689 -1.28125,15.03125 -1.15065,3.14207 -2.9082,5.535 -5.28125,7.15625 -2.37306,1.61838 -5.25879,2.4375 -8.65625,2.4375 -3.40032,0 -6.26948,-0.82742 -8.59375,-2.46875 -2.32714,-1.64421 -4.00653,-3.97047 -5.0625,-6.9375 -1.04449,-2.96417 -1.5625,-8.24507 -1.5625,-15.875 l 0,-39.1875 -20.65625,0 z m 77.34375,0 0,17.25 31.125,0 -36.75,64.125 65.8125,0 0,-17.28125 -34.46875,0 36.59375,-64.09375 -62.3125,0 z m 70.28125,0 0,17.25 31.125,0 -36.75,64.125 65.84375,0 0,-17.28125 -34.46875,0 36.5625,-64.09375 -62.3125,0 z m 156.87505,0 0,81.375 20.4374,0 0,-81.375 -20.4374,0 z m 30.875,0 0,17.25 31.0937,0 -36.7187,64.125 65.8124,0 0,-17.28125 -34.4687,0 36.5625,-64.09375 -62.2812,0 z m 70.2812,0 0,17.25 31.125,0 -36.75,64.125 65.8438,0 0,-17.28125 -34.4688,0 36.5625,-64.09375 -62.3125,0 z m -454.9375,16.75 c 0.3935,-0.0171 0.78542,0 1.1875,0 6.38458,0 11.6827,2.2226 15.875,6.6875 4.18656,4.46203 6.28125,10.17769 6.28125,17.15625 0,7.03021 -2.14221,12.83262 -6.40625,17.375 -4.26116,4.53376 -9.52037,6.78125 -15.75,6.78125 -6.43335,0 -11.76179,-2.2226 -16,-6.6875 -4.24395,-4.46203 -6.34375,-10.30018 -6.34375,-17.53125 0,-7.08186 2.0998,-12.82845 6.34375,-17.21875 3.97332,-4.1159 8.91001,-6.30557 14.8125,-6.5625 z m 304.5,0 c 0.3937,-0.0171 0.7852,0 1.1875,0 6.3846,0 11.6543,2.2226 15.8438,6.6875 4.1864,4.46203 6.2812,10.17769 6.2812,17.15625 0,7.03021 -2.1167,12.83262 -6.375,17.375 -4.2641,4.53376 -9.5146,6.78125 -15.75,6.78125 -6.4362,0 -11.7646,-2.2226 -16,-6.6875 -4.23821,-4.46203 -6.375,-10.30018 -6.375,-17.53125 0,-7.08186 2.13679,-12.82845 6.375,-17.21875 3.9707,-4.1159 8.9074,-6.30557 14.8125,-6.5625 z m -328.21875,82.875 c -2.49932,0 -4.80835,0.58786 -6.9375,1.75 -2.12915,1.15926 -3.76389,2.73563 -4.9375,4.75 -1.17361,2.01437 -1.78125,4.27109 -1.78125,6.71875 0,3.08756 1.01146,5.94236 3,8.59375 1.14492,1.58108 4.05554,4.14083 8.75,7.6875 4.66576,3.51798 7.86888,6.53193 9.625,9.03125 1.27691,1.81063 1.9375,3.67725 1.9375,5.5625 0,1.65855 -0.44305,3.20973 -1.3125,4.6875 -0.86659,1.47778 -2.12269,2.65033 -3.78125,3.53125 -1.65569,0.88093 -3.42726,1.34375 -5.3125,1.34375 -4.41325,0 -8.31874,-3.11444 -11.6875,-9.3125 l -4.78125,2.875 c 2.34436,4.287 4.90985,7.33126 7.6875,9.15625 2.78339,1.82212 5.89496,2.75 9.3125,2.75 4.43907,0 8.21347,-1.52118 11.3125,-4.53125 3.09903,-3.00721 4.625,-6.54461 4.625,-10.625 0,-2.83217 -0.90811,-5.66527 -2.71875,-8.46875 -1.81064,-2.80634 -5.13051,-5.99543 -10,-9.59375 -4.10335,-3.03303 -6.54092,-4.90764 -7.28125,-5.625 -1.35152,-1.34866 -2.27048,-2.60221 -2.78125,-3.75 C 678.27336,719.97721 678,718.78776 678,717.5625 c 0,-2.01437 0.74702,-3.7164 2.1875,-5.09375 1.44047,-1.37735 3.29561,-2.0625 5.5625,-2.0625 1.76185,0 3.38288,0.45422 4.875,1.34375 1.49213,0.89528 3.28858,2.75615 5.40625,5.5625 l 4.59375,-3.5 c -2.57392,-3.52084 -5.03382,-5.93865 -7.34375,-7.25 -2.30706,-1.31708 -4.78324,-1.96875 -7.4375,-1.96875 z m 430.56245,0 c -5.2596,0 -10.1397,1.32341 -14.6562,3.9375 -4.5194,2.61696 -8.1017,6.22676 -10.7188,10.84375 -2.6168,4.61698 -3.9062,9.62516 -3.9062,15.03125 0,8.112 2.8518,15.00563 8.5938,20.71875 5.7418,5.71312 12.8089,8.59375 21.1562,8.59375 8.2411,0 15.21,-2.88606 20.9375,-8.625 5.7303,-5.73895 8.5937,-12.7305 8.5937,-20.96875 0,-8.31287 -2.8831,-15.3127 -8.625,-21 -5.7418,-5.6873 -12.8525,-8.53125 -21.375,-8.53125 z m 95.7813,0 c -2.5021,0 -4.8084,0.58786 -6.9375,1.75 -2.1263,1.15926 -3.7949,2.73563 -4.9688,4.75 -1.1735,2.01437 -1.75,4.27109 -1.75,6.71875 2e-4,3.08756 0.9803,5.94236 2.9688,8.59375 1.1478,1.58108 4.0897,4.14083 8.7812,7.6875 4.6689,3.51798 7.8661,6.53193 9.625,9.03125 1.2741,1.81063 1.9063,3.67725 1.9063,5.5625 0,1.65855 -0.4147,3.20973 -1.2813,4.6875 -0.8665,1.47778 -2.1255,2.65033 -3.7812,3.53125 -1.6585,0.88093 -3.4556,1.34375 -5.3438,1.34375 -4.413,0 -8.2874,-3.11444 -11.6562,-9.3125 l -4.7812,2.875 c 2.3471,4.287 4.907,7.33126 7.6874,9.15625 2.7778,1.82212 5.8949,2.75 9.3126,2.75 4.4389,0 8.1822,-1.52118 11.2812,-4.53125 3.0991,-3.00721 4.6562,-6.54461 4.6562,-10.625 0,-2.83217 -0.9081,-5.66527 -2.7187,-8.46875 -1.8106,-2.80634 -5.1588,-5.99543 -10.0313,-9.59375 -4.1061,-3.03303 -6.5097,-4.90764 -7.25,-5.625 -1.3514,-1.34866 -2.2705,-2.60221 -2.7812,-3.75 -0.5108,-1.14779 -0.7812,-2.33724 -0.7812,-3.5625 0,-2.01437 0.7128,-3.7164 2.1562,-5.09375 1.4405,-1.37735 3.2927,-2.0625 5.5625,-2.0625 1.759,0 3.3829,0.45422 4.875,1.34375 1.4921,0.89528 3.3198,2.75615 5.4375,5.5625 l 4.5625,-3.5 c -2.5739,-3.52084 -5.0026,-5.93865 -7.3125,-7.25 -2.307,-1.31708 -4.7889,-1.96875 -7.4375,-1.96875 z m -461.21875,1.4375 0,5.5 12.5625,0 0,50.75 5.71875,0 0,-50.75 12.5625,0 0,-5.5 -30.84375,0 z m 82.25,0 0,33.96875 c 0,5.71312 0.34258,9.65148 1.03125,11.84375 1.09614,3.56963 3.26036,6.45854 6.5,8.625 3.23676,2.16932 7.11675,3.25 11.65625,3.25 4.18083,0 7.74342,-1.1703 10.6875,-3.46875 2.94695,-2.29271 4.92489,-4.96347 5.90625,-8.0625 0.98136,-3.09904 1.46875,-7.16305 1.46875,-12.1875 l 0,-33.96875 -5.625,0 0,33.96875 c 0,4.43621 -0.18086,7.35225 -0.5625,8.78125 -0.53659,1.98854 -1.38346,3.69345 -2.53125,5.09375 -1.14779,1.40318 -2.57392,2.48927 -4.28125,3.28125 -1.71021,0.79197 -3.51271,1.1875 -5.375,1.1875 -2.14063,0 -4.2602,-0.49282 -6.375,-1.5 -2.11767,-1.00719 -3.69722,-2.25788 -4.71875,-3.75 -1.01867,-1.49213 -1.65629,-3.3444 -1.9375,-5.5625 -0.15205,-0.99571 -0.25,-3.50251 -0.25,-7.53125 l 0,-33.96875 -5.59375,0 z m 94.1875,0 0,56.25 17.90625,0 c 7.01586,0 12.45274,-1.0223 16.34375,-3.0625 3.88814,-2.0402 7.06382,-5.18463 9.5,-9.46875 2.43618,-4.28412 3.65625,-9.23935 3.65625,-14.875 0,-6.52805 -1.54892,-12.15759 -4.625,-16.875 -3.0732,-4.71741 -7.32351,-8.02643 -12.78125,-9.9375 -3.80205,-1.35439 -9.92759,-2.03125 -18.34375,-2.03125 l -11.65625,0 z m 100.59375,0 0,56.25 5.625,0 0,-56.25 -5.625,0 z m 88.6562,4.03125 c 4.2411,0 8.2522,1.10905 12.0313,3.28125 3.782,2.16932 6.698,5.04359 8.7813,8.65625 2.0833,3.6098 3.125,7.6601 3.125,12.125 0,4.49359 -1.0418,8.57421 -3.125,12.25 -2.0834,3.6758 -4.9716,6.56982 -8.6876,8.6875 -3.7188,2.11767 -7.7575,3.1875 -12.125,3.1875 -6.5395,0 -12.147,-2.33199 -16.7812,-6.9375 -4.6371,-4.6055 -6.9375,-10.24876 -6.9375,-16.9375 0,-4.51655 1.0303,-8.60546 3.125,-12.28125 2.0947,-3.6758 5.0197,-6.58068 8.75,-8.75 3.7303,-2.1722 7.6773,-3.28125 11.8437,-3.28125 z m -183.8437,1.46875 3.96875,0 c 8.0833,0 13.88828,0.52631 17.40625,1.59375 4.69446,1.429 8.34031,4.05829 10.96875,7.90625 2.62557,3.84796 3.9375,8.51132 3.9375,13.9375 0,5.17366 -1.20316,9.54676 -3.625,13.125 -2.42183,3.5811 -5.73627,6.06302 -9.96875,7.4375 -3.01007,0.96701 -8.41122,1.4375 -16.1875,1.4375 l -6.5,0 0,-45.4375 z m -264.9375,65 0,47.03125 4.3125,0 0,-6.25 c 1.70734,2.37018 3.68241,4.15866 5.90625,5.34375 2.22384,1.19083 4.70003,1.78125 7.4375,1.78125 4.77481,0 8.85255,-1.74382 12.25,-5.21875 3.39746,-3.47493 5.09375,-7.64997 5.09375,-12.5625 0,-4.96706 -1.66249,-9.20396 -5.03125,-12.6875 -3.3659,-3.48354 -7.43278,-5.21875 -12.1875,-5.21875 -2.67435,0 -5.13108,0.54003 -7.375,1.65625 -2.24393,1.11049 -4.28311,2.81857 -6.09375,5.0625 l 0,-18.9375 -4.3125,0 z m 276.65625,0 0,47.03125 4.3125,0 0,-6.25 c 1.70734,2.37018 3.68241,4.15866 5.90625,5.34375 2.22097,1.19083 4.70002,1.78125 7.4375,1.78125 4.77768,0 8.8838,-1.74382 12.28125,-5.21875 3.39746,-3.47493 5.09375,-7.64997 5.09375,-12.5625 0,-4.96706 -1.69947,-9.20396 -5.0625,-12.6875 -3.36589,-3.48354 -7.43565,-5.21875 -12.1875,-5.21875 -2.67722,0 -5.13107,0.54003 -7.375,1.65625 -2.24679,1.11049 -4.28311,2.81857 -6.09375,5.0625 l 0,-18.9375 -4.3125,0 z m 99.65625,0 0,47.03125 4.3437,0 0,-12.4375 c 0,-4.4936 0.2119,-7.58283 0.625,-9.25 0.6602,-2.57966 2.025,-4.72124 4.0938,-6.46875 2.0718,-1.74751 4.4171,-2.625 7.0312,-2.625 2.2928,0 4.1195,0.55693 5.5313,1.6875 1.4118,1.13918 2.4037,2.8157 2.9375,5.0625 0.3127,1.31135 0.4688,3.93553 0.4688,7.84375 l 0,16.1875 4.3124,0 0,-17.46875 c 0,-4.63707 -0.4794,-8.04656 -1.4062,-10.21875 -0.9269,-2.17506 -2.3641,-3.89624 -4.3125,-5.1875 -1.9483,-1.29127 -4.1709,-1.9375 -6.6875,-1.9375 -2.4534,0 -4.7121,0.56236 -6.8125,1.71875 -2.1005,1.15353 -4.0309,2.91999 -5.7813,5.25 l 0,-19.1875 -4.3437,0 z m 168.4375,0 0,19.34375 c -1.6901,-2.37306 -3.6368,-4.16152 -5.875,-5.34375 -2.2353,-1.18796 -4.7396,-1.78125 -7.5,-1.78125 -4.7834,0 -8.881,1.74668 -12.2812,5.21875 -3.3976,3.47493 -5.0938,7.64741 -5.0938,12.53125 0,4.99002 1.6966,9.23521 5.0625,12.71875 3.3688,3.48354 7.427,5.21875 12.1875,5.21875 2.6772,0 5.1453,-0.56267 7.4062,-1.6875 2.2556,-1.12196 4.2774,-2.80454 6.0938,-5.03125 l 0,5.84375 4.2812,0 0,-47.03125 -4.2812,0 z M 725.75,788.75 c -5.56391,0 -9.98965,2.15338 -13.3125,6.4375 -2.61983,3.36876 -3.9375,7.19579 -3.9375,11.5 0,4.57681 1.5317,8.68262 4.625,12.3125 3.09616,3.62701 7.38857,5.4375 12.875,5.4375 2.47349,0 4.69353,-0.39584 6.65625,-1.15625 1.95698,-0.75754 3.71452,-1.85481 5.28125,-3.3125 1.5696,-1.45482 2.95968,-3.34856 4.15625,-5.71875 l -3.65625,-1.9375 c -1.32283,2.22097 -2.51994,3.8168 -3.65625,4.8125 -1.13344,0.99284 -2.53787,1.77528 -4.15625,2.375 -1.62126,0.59972 -3.28692,0.90625 -5,0.90625 -3.54954,0 -6.52427,-1.26185 -8.9375,-3.78125 -2.41322,-2.52226 -3.66965,-5.74484 -3.75,-9.6875 l 30.28125,0 c -0.043,-4.63707 -1.28257,-8.49759 -3.71875,-11.59375 -3.42328,-4.39029 -8.01105,-6.59375 -13.75,-6.59375 z m 49.34375,0 c -2.66574,0 -4.84911,0.85516 -6.59375,2.5625 -1.74464,1.7016 -2.625,3.85785 -2.625,6.4375 0,1.9742 0.53173,3.71483 1.625,5.25 1.09327,1.54377 3.18285,3.10642 6.21875,4.6875 2.8293,1.45769 4.63118,2.66947 5.4375,3.625 0.80632,0.97275 1.21875,2.06428 1.21875,3.3125 0,1.51795 -0.62422,2.84679 -1.84375,3.96875 -1.21952,1.12771 -2.70147,1.6875 -4.4375,1.6875 -2.47636,0 -4.82176,-1.26473 -7.03125,-3.78125 l -2.71875,3.125 c 1.15352,1.495 2.61315,2.67614 4.375,3.53125 1.7676,0.85223 3.61987,1.28125 5.5625,1.28125 2.90678,0 5.34148,-0.97222 7.28125,-2.90625 1.93976,-1.93115 2.90625,-4.30462 2.90625,-7.09375 0,-1.97419 -0.55406,-3.73142 -1.6875,-5.3125 -1.15927,-1.56099 -3.34295,-3.18775 -6.5625,-4.875 -2.64278,-1.36874 -4.39522,-2.57221 -5.21875,-3.59375 -0.82928,-0.9957 -1.25,-2.05437 -1.25,-3.15625 0,-1.24535 0.52693,-2.31455 1.53125,-3.25 0.99857,-0.93544 2.1877,-1.40625 3.59375,-1.40625 2.20949,0 4.46558,1.14223 6.78125,3.40625 l 2.78125,-2.90625 c -3.13921,-3.05886 -6.25045,-4.59375 -9.34375,-4.59375 z m 32,0 c -5.56965,0 -9.99252,2.15338 -13.3125,6.4375 -2.61983,3.36876 -3.9375,7.19579 -3.9375,11.5 0,4.57681 1.5317,8.68262 4.625,12.3125 3.09329,3.62701 7.3857,5.4375 12.875,5.4375 2.47062,0 4.6964,-0.39584 6.65625,-1.15625 1.95985,-0.75754 3.71165,-1.85481 5.28125,-3.3125 1.56673,-1.45482 2.95681,-3.34856 4.15625,-5.71875 l -3.65625,-1.9375 c -1.32283,2.22097 -2.55119,3.8168 -3.6875,4.8125 -1.13631,0.99284 -2.50662,1.77528 -4.125,2.375 -1.62126,0.59972 -3.28979,0.90625 -5,0.90625 -3.54954,0 -6.52714,-1.26185 -8.9375,-3.78125 -2.41322,-2.52226 -3.66678,-5.74484 -3.75,-9.6875 l 30.28125,0 c -0.043,-4.63707 -1.28544,-8.49759 -3.71875,-11.59375 -3.42615,-4.39029 -8.01679,-6.59375 -13.75,-6.59375 z m 40.53125,0 c -5.57251,0 -10.02377,2.15338 -13.34375,6.4375 -2.61983,3.36876 -3.9375,7.19579 -3.9375,11.5 0,4.57681 1.56296,8.68262 4.65625,12.3125 3.09329,3.62701 7.35732,5.4375 12.84375,5.4375 2.47349,0 4.69353,-0.39584 6.65625,-1.15625 1.95985,-0.75754 3.74577,-1.85481 5.3125,-3.3125 1.56673,-1.45482 2.9313,-3.34856 4.125,-5.71875 l -3.625,-1.9375 c -1.31996,2.22097 -2.55406,3.8168 -3.6875,4.8125 -1.13631,0.99284 -2.535,1.77528 -4.15625,2.375 -1.61838,0.59972 -3.25855,0.90625 -4.96875,0.90625 -3.54954,0 -6.55839,-1.26185 -8.96875,-3.78125 -2.4161,-2.52226 -3.63554,-5.74484 -3.71875,-9.6875 l 30.25,0 c -0.043,-4.63707 -1.28543,-8.49759 -3.71875,-11.59375 C 857.9176,790.95346 853.35821,788.75 847.625,788.75 z m 41.8125,0 c -2.47062,0 -4.77168,0.55949 -6.875,1.71875 -2.10046,1.15353 -4.0197,2.91999 -5.75,5.25 l 0,-6.09375 -4.3125,0 0,33.9375 4.3125,0 0,-12.4375 c 0,-4.47351 0.21467,-7.56275 0.625,-9.25 0.65998,-2.57966 2.02486,-4.72124 4.09375,-6.46875 2.07463,-1.74751 4.41429,-2.625 7.03125,-2.625 2.28984,0 4.13924,0.55406 5.5625,1.6875 1.42038,1.13631 2.37571,2.8157 2.875,5.0625 0.32138,1.31135 0.5,3.93553 0.5,7.84375 l 0,16.1875 4.3125,0 0,-17.46875 c 0,-4.61698 -0.44816,-8.00383 -1.375,-10.1875 -0.92971,-2.1808 -2.36126,-3.92749 -4.3125,-5.21875 -1.9455,-1.29127 -4.17097,-1.9375 -6.6875,-1.9375 z m 113,0 c -5.56961,0 -10.02377,2.15338 -13.34375,6.4375 -2.61983,3.36876 -3.9375,7.19579 -3.9375,11.5 0,4.57681 1.56295,8.68262 4.65625,12.3125 3.09616,3.62701 7.35738,5.4375 12.8437,5.4375 2.4765,0 4.6965,-0.39584 6.6563,-1.15625 1.957,-0.75754 3.7457,-1.85481 5.3125,-3.3125 1.5667,-1.45482 2.9285,-3.34856 4.125,-5.71875 l -3.6562,-1.9375 c -1.3202,2.22097 -2.5228,3.8168 -3.6563,4.8125 -1.1334,0.99284 -2.532,1.77528 -4.1563,2.375 -1.6212,0.59972 -3.2557,0.90625 -4.9687,0.90625 -3.54959,0 -6.55265,-1.26185 -8.96875,-3.78125 -2.41322,-2.52226 -3.6384,-5.74484 -3.71875,-9.6875 l 30.25,0 c -0.043,-4.63707 -1.2854,-8.49759 -3.7188,-11.59375 -3.4233,-4.39029 -7.9855,-6.59375 -13.7187,-6.59375 z m 95.3437,0 c -5.5695,0 -9.9954,2.15338 -13.3124,6.4375 -2.6199,3.36876 -3.9374,7.19579 -3.9376,11.5 0,4.57681 1.563,8.68262 4.6563,12.3125 3.0962,3.62701 7.3573,5.4375 12.8437,5.4375 2.4708,0 4.6936,-0.39584 6.6563,-1.15625 1.9599,-0.75754 3.7429,-1.85481 5.3125,-3.3125 1.5667,-1.45482 2.9284,-3.34856 4.125,-5.71875 l -3.6562,-1.9375 c -1.32,2.22097 -2.5257,3.8168 -3.6563,4.8125 -1.1334,0.99284 -2.5349,1.77528 -4.1563,2.375 -1.6183,0.59972 -3.2898,0.90625 -5,0.90625 -3.5523,0 -6.5243,-1.26185 -8.9374,-3.78125 -2.4133,-2.52226 -3.667,-5.74484 -3.75,-9.6875 l 30.2812,0 c -0.043,-4.63707 -1.2825,-8.49759 -3.7188,-11.59375 -3.4231,-4.39029 -8.0166,-6.59375 -13.75,-6.59375 z m 40.75,0 c -4.7833,0 -8.8494,1.74668 -12.25,5.21875 -3.403,3.47493 -5.125,7.64741 -5.125,12.53125 0,4.99002 1.6908,9.23521 5.0626,12.71875 3.3714,3.48354 7.4271,5.21875 12.1874,5.21875 2.6774,0 5.1509,-0.56267 7.4063,-1.6875 2.2554,-1.12196 4.2803,-2.80454 6.0937,-5.03125 l 0,5.84375 4.2813,0 0,-33.9375 -4.2813,0 0,6.25 c -1.69,-2.37306 -3.6397,-4.16152 -5.875,-5.34375 -2.2353,-1.18796 -4.7395,-1.78125 -7.5,-1.78125 z m 38.2813,0 c -1.584,0 -3.099,0.47048 -4.5625,1.4375 -1.4634,0.96701 -2.8704,2.45214 -4.1875,4.40625 l 0,-4.96875 -4.4063,0 0,33.9375 4.4063,0 0,-11.46875 c 0,-5.88816 0.2731,-9.81597 0.8125,-11.75 0.7002,-2.5194 1.7225,-4.36306 3.0625,-5.5625 1.3401,-1.1937 2.7129,-1.78125 4.1563,-1.78125 0.6168,0 1.4057,0.19777 2.3124,0.59375 l 2.25,-3.6875 c -1.3571,-0.76902 -2.6472,-1.15625 -3.8437,-1.15625 z M 685.25,792.71875 c 2.32427,0 4.48244,0.59584 6.53125,1.8125 2.04306,1.21953 3.69246,2.91008 4.90625,5.09375 1.21092,2.18367 1.8125,4.49302 1.8125,6.90625 0,2.41036 -0.60733,4.71429 -1.8125,6.875 -1.19944,2.16358 -2.8093,3.83755 -4.84375,5.03125 -2.03446,1.19657 -4.25163,1.78125 -6.65625,1.78125 -3.74466,0 -6.90918,-1.32596 -9.46875,-3.96875 -2.56244,-2.63991 -3.84375,-5.91257 -3.84375,-9.84375 0,-2.57679 0.5767,-4.90847 1.71875,-6.96875 1.13632,-2.05741 2.77998,-3.68672 4.90625,-4.90625 2.12628,-1.21666 4.38555,-1.8125 6.75,-1.8125 z m 276.65625,0 c 2.32427,0 4.51657,0.59584 6.5625,1.8125 2.04594,1.21953 3.66408,2.91008 4.875,5.09375 1.21378,2.18367 1.8125,4.49302 1.8125,6.90625 0,2.41036 -0.61019,4.71429 -1.8125,6.875 -1.20231,2.16358 -2.80643,3.83755 -4.84375,5.03125 -2.03446,1.19657 -4.25163,1.78125 -6.65625,1.78125 -3.7418,0 -6.90631,-1.32596 -9.46875,-3.96875 -2.55957,-2.63991 -3.8125,-5.91257 -3.8125,-9.84375 0,-2.57679 0.54832,-4.90847 1.6875,-6.96875 1.13918,-2.05741 2.7771,-3.68672 4.90625,-4.90625 2.12341,-1.21666 4.38555,-1.8125 6.75,-1.8125 z M 725.8125,792.9375 c 2.00002,0 3.93649,0.42902 5.75,1.28125 1.81924,0.8551 3.27026,1.98044 4.375,3.375 1.10475,1.3917 1.92324,3.23248 2.5,5.5625 l -25.0625,0 c 0.88667,-3.11625 2.20434,-5.44187 3.9375,-7 2.37306,-2.14062 5.19723,-3.21875 8.5,-3.21875 z m 81.34375,0 c 2.00002,0 3.90524,0.42902 5.71875,1.28125 1.81924,0.8551 3.30151,1.98044 4.40625,3.375 1.10475,1.3917 1.92037,3.23248 2.5,5.5625 l -25.0625,0 c 0.88667,-3.11625 2.20147,-5.44187 3.9375,-7 2.37019,-2.14062 5.19723,-3.21875 8.5,-3.21875 z m 40.5,0 c 2.0029,0 3.93363,0.42902 5.75,1.28125 1.81638,0.8551 3.27025,1.98044 4.375,3.375 1.10475,1.3917 1.95448,3.23248 2.53125,5.5625 l -25.09375,0 c 0.88953,-3.11625 2.20433,-5.44187 3.9375,-7 2.37305,-2.14062 5.19724,-3.21875 8.5,-3.21875 z m 154.84375,0 c 2,0 3.9023,0.42902 5.7188,1.28125 1.8161,0.8551 3.273,1.98044 4.375,3.375 1.1046,1.3917 1.9259,3.23248 2.5,5.5625 l -25.06255,0 c 0.88667,-3.11625 2.20434,-5.44187 3.9375,-7 2.37018,-2.14062 5.22845,-3.21875 8.53125,-3.21875 z m 95.3438,0 c 1.997,0 3.9335,0.42902 5.75,1.28125 1.8161,0.8551 3.2729,1.98044 4.375,3.375 1.1046,1.3917 1.9203,3.23248 2.5,5.5625 l -25.0626,0 c 0.884,-3.11625 2.2042,-5.44187 3.9376,-7 2.3701,-2.14062 5.197,-3.21875 8.5,-3.21875 z m 41.0312,0.0312 c 3.7476,0 6.909,1.30046 9.4688,3.9375 2.5652,2.63705 3.8437,5.91831 3.8437,9.84375 0,2.57678 -0.5739,4.91134 -1.7187,6.96875 -1.1422,2.05741 -2.7546,3.67269 -4.875,4.875 -2.1178,1.20805 -4.3544,1.8125 -6.7188,1.8125 -2.3473,0 -4.5449,-0.59584 -6.5938,-1.8125 -2.043,-1.21378 -3.6953,-2.91008 -4.9062,-5.09375 -1.2166,-2.17793 -1.8125,-4.48473 -1.8125,-6.875 0,-2.41036 0.6044,-4.68304 1.8125,-6.84375 1.1994,-2.16072 2.8063,-3.83468 4.8438,-5.03125 2.0371,-1.1937 4.2516,-1.78125 6.6562,-1.78125 z m 60.7188,0 c 3.7445,0 6.9034,1.30046 9.4687,3.9375 2.5625,2.63705 3.8437,5.91831 3.8437,9.84375 0,2.57678 -0.5767,4.91134 -1.7187,6.96875 -1.1421,2.05741 -2.7856,3.67269 -4.9063,4.875 -2.1203,1.20805 -4.3514,1.8125 -6.7187,1.8125 -2.3472,0 -4.5451,-0.59584 -6.5937,-1.8125 -2.0491,-1.21378 -3.6584,-2.91008 -4.875,-5.09375 -1.2138,-2.17793 -1.8438,-4.48473 -1.8438,-6.875 0,-2.41036 0.6073,-4.68304 1.8125,-6.84375 1.2023,-2.16072 2.8405,-3.83468 4.875,-5.03125 2.0402,-1.1937 4.2486,-1.78125 6.6563,-1.78125 z m 42.9062,12.3438 c -5.3745,0 -9.625,4.26801 -9.625,9.59375 0,5.32575 4.2505,9.5625 9.625,9.5625 5.3745,0 9.625,-4.23675 9.625,-9.5625 0,-5.32574 -4.2505,-9.59375 -9.625,-9.59375 z m 0,1.46875 c 4.3932,0 8.1562,3.60845 8.1562,8.125 0,4.51368 -3.763,8.09375 -8.1562,8.09375 -4.3932,0 -8.125,-3.58007 -8.125,-8.09375 0,-4.51655 3.7318,-8.125 8.125,-8.125 z m -3.5625,2.8125 0,10.46875 1.4687,0 0,-4.84375 1.75,0 3.1563,4.84375 1.75,0 -3.1563,-4.84375 c 1.8653,-0.0488 3.3126,-0.78347 3.3126,-2.84375 0,-2.25828 -1.8279,-2.78125 -3.7188,-2.78125 l -4.5625,0 z m 1.4687,1.46875 2.7813,0 c 1.1277,0 2.5625,0.20233 2.5625,1.28125 0,1.67004 -2.2937,1.40625 -3.5938,1.40625 l -1.75,0 0,-2.6875 z m -329.2812,5.625 c -1.05023,0 -1.95004,0.37606 -2.6875,1.125 -0.74606,0.74893 -1.125,1.67395 -1.125,2.75 0,1.06171 0.37894,1.96408 1.125,2.71875 0.73746,0.76041 1.63727,1.15625 2.6875,1.15625 1.05022,0 1.94431,-0.39584 2.6875,-1.15625 0.74033,-0.75467 1.125,-1.65704 1.125,-2.71875 0,-1.07605 -0.38467,-2.00107 -1.125,-2.75 -0.74319,-0.74894 -1.63728,-1.125 -2.6875,-1.125 z m 313.5312,0 c -1.05,0 -1.9473,0.37606 -2.6874,1.125 -0.7404,0.74893 -1.125,1.67395 -1.125,2.75 0,1.06171 0.3847,1.96408 1.125,2.71875 0.7402,0.76041 1.6374,1.15625 2.6874,1.15625 1.0533,0 1.9473,-0.39584 2.6876,-1.15625 0.7431,-0.75467 1.125,-1.65704 1.125,-2.71875 -2e-4,-1.07605 -0.3819,-2.00107 -1.125,-2.75 -0.7404,-0.74894 -1.6344,-1.125 -2.6876,-1.125 z"
     id="path22"
     inkscape:connector-curvature="0" />
</svg>
