<?xml version="1.0" encoding="UTF-8" standalone="no"?>
<!-- Created with Inkscape (http://www.inkscape.org/) -->

<svg
   xmlns:dc="http://purl.org/dc/elements/1.1/"
   xmlns:cc="http://creativecommons.org/ns#"
   xmlns:rdf="http://www.w3.org/1999/02/22-rdf-syntax-ns#"
   xmlns:svg="http://www.w3.org/2000/svg"
   xmlns="http://www.w3.org/2000/svg"
   version="1.1"
   width="243.625"
   height="218.89999"
   id="svg2"
   xml:space="preserve"><metadata
     id="metadata8"><rdf:RDF><cc:Work
         rdf:about=""><dc:format>image/svg+xml</dc:format><dc:type
           rdf:resource="http://purl.org/dc/dcmitype/StillImage" /><dc:title></dc:title></cc:Work></rdf:RDF></metadata><defs
     id="defs6" /><g
     transform="matrix(1.25,0,0,-1.25,0,218.9)"
     id="g10"><path
       d="m 14.6785,49.4852 c -2.2422,0 -4.1012,-0.7633 -5.57811,-2.293 -1.47851,-1.5301 -2.21601,-3.5281 -2.21601,-5.9961 0,-2.5199 0.7375,-4.5582 2.21601,-6.1133 1.47691,-1.5566 3.33591,-2.334 5.57811,-2.334 2.1715,0 4.0024,0.7922 5.4871,2.3711 1.4864,1.584 2.2293,3.6 2.2293,6.0512 0,2.432 -0.7301,4.4258 -2.1894,5.9809 -1.4606,1.5558 -3.3016,2.3332 -5.527,2.3332 m -7.48162,16.7886 0,-14.0769 c 1.28593,1.2859 2.67656,2.25 4.17112,2.8941 1.4949,0.6418 3.0929,0.9629 4.7968,0.9629 3.7012,0 6.8469,-1.3988 9.436,-4.1961 2.5902,-2.7976 3.8851,-6.3879 3.8851,-10.7668 0,-4.223 -1.3382,-7.7558 -4.0152,-10.5961 -2.6758,-2.8418 -5.8484,-4.2629 -9.5148,-4.2629 -1.6336,0 -3.1543,0.291 -4.5621,0.8731 -1.40708,0.584 -2.8063,1.534 -4.19692,2.8558 l 0,-2.9988 -7.064458,0 0,39.3117 7.064458,0"
       id="path14"
       style="fill:#231f20;fill-opacity:1;fill-rule:nonzero;stroke:none" /><path
       d="m 31.4359,55.325 7.1946,0 0,-13.6621 c 0,-2.657 0.1832,-4.5039 0.5476,-5.5367 0.3676,-1.034 0.9551,-1.8391 1.7653,-2.4121 0.8097,-0.5719 1.807,-0.8602 2.9921,-0.8602 1.1848,0 2.1911,0.282 3.018,0.8461 0.8277,0.5641 1.4414,1.3941 1.8422,2.491 0.2961,0.816 0.4449,2.5629 0.4449,5.2391 l 0,13.8949 7.116,0 0,-12.0191 c 0,-4.952 -0.3906,-8.3399 -1.173,-10.1637 -0.9555,-2.2262 -2.3625,-3.9352 -4.2227,-5.125 -1.8589,-1.1891 -4.223,-1.7852 -7.0898,-1.7852 -3.1121,0 -5.6277,0.695 -7.5469,2.086 -1.9211,1.389 -3.2715,3.3281 -4.0543,5.8129 -0.5562,1.7222 -0.834,4.8492 -0.834,9.3839 l 0,11.8102"
       id="path16"
       style="fill:#231f20;fill-opacity:1;fill-rule:nonzero;stroke:none" /><path
       d="m 58.3863,55.325 21.7153,0 -12.7426,-22.341 12.0121,0 0,-6.0219 -22.9402,0 12.8015,22.3399 -10.8461,0 0,6.023"
       id="path18"
       style="fill:#231f20;fill-opacity:1;fill-rule:nonzero;stroke:none" /><path
       d="m 82.882,55.325 21.714,0 -12.7421,-22.341 12.0121,0 0,-6.0219 -22.9398,0 12.8011,22.3399 -10.8453,0 0,6.023"
       id="path20"
       style="fill:#231f20;fill-opacity:1;fill-rule:nonzero;stroke:none" /><path
       d="m 120.792,49.4852 c -2.243,0 -4.103,-0.7633 -5.579,-2.293 -1.477,-1.5301 -2.216,-3.5281 -2.216,-5.9961 0,-2.5199 0.739,-4.5582 2.216,-6.1133 1.476,-1.5566 3.336,-2.334 5.579,-2.334 2.173,0 4.002,0.7922 5.488,2.3711 1.483,1.584 2.228,3.6 2.228,6.0512 0,2.432 -0.731,4.4258 -2.189,5.9809 -1.461,1.5558 -3.303,2.3332 -5.527,2.3332 m -7.481,16.7886 0,-14.0769 c 1.285,1.2859 2.675,2.25 4.17,2.8941 1.495,0.6418 3.094,0.9629 4.796,0.9629 3.702,0 6.847,-1.3988 9.438,-4.1961 2.588,-2.7976 3.884,-6.3879 3.884,-10.7668 0,-4.223 -1.338,-7.7558 -4.016,-10.5961 -2.675,-2.8418 -5.848,-4.2629 -9.513,-4.2629 -1.634,0 -3.155,0.291 -4.562,0.8731 -1.408,0.584 -2.808,1.534 -4.197,2.8558 l 0,-2.9988 -7.066,0 0,39.3117 7.066,0"
       id="path22"
       style="fill:#231f20;fill-opacity:1;fill-rule:nonzero;stroke:none" /><path
       d="m 137.555,26.9621 7.1168,0 0,28.3629 -7.1168,0 0,-28.3629 z"
       id="path24"
       style="fill:#231f20;fill-opacity:1;fill-rule:nonzero;stroke:none" /><path
       d="m 148.309,55.325 21.713,0 -12.741,-22.341 12.011,0 0,-6.0219 -22.94,0 12.802,22.3399 -10.845,0 0,6.023"
       id="path26"
       style="fill:#231f20;fill-opacity:1;fill-rule:nonzero;stroke:none" /><path
       d="m 172.803,55.325 21.715,0 -12.742,-22.341 12.012,0 0,-6.0219 -22.94,0 12.802,22.3399 -10.847,0 0,6.023"
       id="path28"
       style="fill:#231f20;fill-opacity:1;fill-rule:nonzero;stroke:none" /><path
       d="m 0,4.14492 1.66602,1 c 1.17382,-2.15898 2.52851,-3.23984 4.0664,-3.23984 0.65742,0 1.27578,0.15312 1.85352,0.46094 0.57773,0.30703 1.01679,0.71796 1.31914,1.23203 0.30273,0.51601 0.4539,1.06211 0.4539,1.63984 0,0.6582 -0.22187,1.30195 -0.66718,1.9332 -0.6125,0.8711 -1.73282,1.91993 -3.3586,3.14691 -1.63632,1.2359 -2.6539,2.1289 -3.05312,2.68 -0.69336,0.9231 -1.04063,1.9231 -1.04063,2.9989 0,0.8531 0.20469,1.6312 0.61328,2.3332 0.4086,0.7019 0.98477,1.2551 1.72657,1.6597 0.74258,0.4043 1.54843,0.6063 2.41992,0.6063 0.92422,0 1.78828,-0.2281 2.59297,-0.6871 0.80469,-0.4559 1.65551,-1.2988 2.55311,-2.525 L 9.5457,16.1711 c -0.73828,0.9769 -1.3664,1.6219 -1.88632,1.9328 -0.51993,0.3109 -1.08711,0.4672 -1.7004,0.4672 -0.79062,0 -1.4375,-0.241 -1.93945,-0.7199 -0.50234,-0.4813 -0.75312,-1.0711 -0.75312,-1.7742 0,-0.427 0.08906,-0.8391 0.26679,-1.2391 0.17735,-0.4008 0.50196,-0.8359 0.97227,-1.307 0.25859,-0.2489 1.10312,-0.902 2.53359,-1.959 C 8.73633,10.318 9.90078,9.20195 10.532,8.225 11.1629,7.24688 11.4789,6.26484 11.4789,5.27891 11.4789,3.85703 10.9383,2.62109 9.85898,1.57188 8.77891,0.523047 7.46641,0 5.91914,0 4.72812,0 3.64883,0.317188 2.6793,0.951953 1.71094,1.58711 0.817188,2.65117 0,4.14492"
       id="path30"
       style="fill:#231f20;fill-opacity:1;fill-rule:nonzero;stroke:none" /><path
       d="m 28.6953,18.184 0,1.9191 10.7457,0 0,-1.9191 -4.373,0 0,-17.691812 -1.9996,0 0,17.691812 -4.3731,0"
       id="path32"
       style="fill:#231f20;fill-opacity:1;fill-rule:nonzero;stroke:none" /><path
       d="m 57.3512,20.1031 1.9597,0 0,-11.83826 c 0,-1.4039 0.0266,-2.27968 0.0797,-2.62695 0.0981,-0.77305 0.3246,-1.41875 0.6797,-1.93906 0.3563,-0.52071 0.9024,-0.95469 1.6402,-1.30586 0.7375,-0.35195 1.4801,-0.52695 2.2266,-0.52695 0.6484,0 1.2711,0.13593 1.8664,0.4121 0.5957,0.27579 1.0934,0.65782 1.4934,1.14688 0.3996,0.48906 0.6926,1.08086 0.8797,1.77305 0.1332,0.49804 0.2,1.51992 0.2,3.06679 l 0,11.83826 1.9597,0 0,-11.83826 C 70.3363,6.51406 70.1652,5.09883 69.823,4.01797 69.4805,2.93906 68.7965,1.99805 67.7699,1.19883 66.7434,0.398828 65.5012,0 64.0434,0 c -1.5817,0 -2.9372,0.376953 -4.0657,1.13203 -1.1289,0.75508 -1.8847,1.75508 -2.2672,3 -0.2394,0.76406 -0.3593,2.14102 -0.3593,4.13281 l 0,11.83826"
       id="path34"
       style="fill:#231f20;fill-opacity:1;fill-rule:nonzero;stroke:none" /><path
       d="m 92.0594,2.34492 2.2664,0 c 2.7105,0 4.5906,0.16797 5.6394,0.50703 1.4748,0.47891 2.6358,1.34297 3.4798,2.59102 0.844,1.24687 1.266,2.77109 1.266,4.57613 0,1.8911 -0.458,3.5071 -1.373,4.8489 -0.916,1.339 -2.191,2.259 -3.8259,2.7558 -1.2266,0.3731 -3.2488,0.5602 -6.066,0.5602 l -1.3867,0 0,-15.83908 z m -1.8797,-1.852732 0,19.610912 4.0664,0 c 2.9328,0 5.0617,-0.2359 6.3869,-0.7062 1.902,-0.6668 3.387,-1.8219 4.458,-3.4668 1.071,-1.6442 1.607,-3.6031 1.607,-5.8789 0,-1.96409 -0.424,-3.69339 -1.273,-5.18636 C 104.576,3.37109 103.474,2.26992 102.119,1.5582 100.763,0.846875 98.8637,0.492188 96.4191,0.492188 l -6.2394,0"
       id="path36"
       style="fill:#231f20;fill-opacity:1;fill-rule:nonzero;stroke:none" /><path
       d="m 125.234,0.492188 1.96016,0 0,19.6109 -1.96016,0 0,-19.6109 z"
       id="path38"
       style="fill:#231f20;fill-opacity:1;fill-rule:nonzero;stroke:none" /><path
       d="m 156.13,18.691 c -1.452,0 -2.827,-0.3789 -4.126,-1.1351 -1.3,-0.7559 -2.315,-1.775 -3.045,-3.0547 -0.73,-1.2821 -1.095,-2.709 -1.095,-4.2832 0,-2.33011 0.808,-4.29886 2.424,-5.90511 1.615,-1.60391 3.563,-2.40781 5.842,-2.40781 1.522,0 2.93,0.36875 4.226,1.10781 1.295,0.73828 2.305,1.74727 3.031,3.0293 0.725,1.27969 1.089,2.7039 1.089,4.26871 0,1.5582 -0.364,2.9641 -1.089,4.2231 -0.726,1.2582 -1.747,2.266 -3.065,3.0219 -1.317,0.7562 -2.715,1.1351 -4.192,1.1351 m -0.087,1.9051 c 2.97,0 5.456,-0.9902 7.457,-2.9723 2.001,-1.9816 3.002,-4.4218 3.002,-7.3199 0,-2.8707 -0.998,-5.30507 -2.996,-7.30585 C 161.51,0.998047 159.076,0 156.203,0 c -2.908,0 -5.363,0.994141 -7.364,2.98594 -2.001,1.99101 -3.001,4.39804 -3.001,7.22426 0,1.8847 0.455,3.632 1.367,5.241 0.911,1.609 2.154,2.8679 3.728,3.7789 1.574,0.9109 3.277,1.366 5.11,1.366"
       id="path40"
       style="fill:#231f20;fill-opacity:1;fill-rule:nonzero;stroke:none" /><path
       d="m 183.426,4.14492 1.666,1 c 1.174,-2.15898 2.528,-3.23984 4.066,-3.23984 0.658,0 1.276,0.15312 1.854,0.46094 0.577,0.30703 1.017,0.71796 1.319,1.23203 0.302,0.51601 0.454,1.06211 0.454,1.63984 0,0.6582 -0.223,1.30195 -0.667,1.9332 -0.613,0.8711 -1.733,1.91993 -3.36,3.14691 -1.635,1.2359 -2.653,2.1289 -3.052,2.68 -0.693,0.9231 -1.04,1.9231 -1.04,2.9989 0,0.8531 0.204,1.6312 0.613,2.3332 0.408,0.7019 0.984,1.2551 1.726,1.6597 0.742,0.4043 1.548,0.6063 2.42,0.6063 0.924,0 1.789,-0.2281 2.593,-0.6871 0.805,-0.4559 1.656,-1.2988 2.553,-2.525 l -1.599,-1.2129 c -0.739,0.9769 -1.367,1.6219 -1.887,1.9328 -0.52,0.3109 -1.087,0.4672 -1.7,0.4672 -0.791,0 -1.438,-0.241 -1.94,-0.7199 -0.502,-0.4813 -0.753,-1.0711 -0.753,-1.7742 0,-0.427 0.089,-0.8391 0.266,-1.2391 0.179,-0.4008 0.503,-0.8359 0.974,-1.307 0.258,-0.2489 1.102,-0.902 2.532,-1.959 1.698,-1.2539 2.863,-2.36995 3.494,-3.3469 0.631,-0.97812 0.947,-1.96016 0.947,-2.94609 0,-1.42188 -0.541,-2.65782 -1.62,-3.70703 C 192.205,0.523047 190.892,0 189.344,0 c -1.19,0 -2.27,0.317188 -3.239,0.951953 -0.968,0.635157 -1.861,1.699217 -2.679,3.192967"
       id="path42"
       style="fill:#231f20;fill-opacity:1;fill-rule:nonzero;stroke:none" /><path
       d="m 126.517,93.9656 c -2.628,0 -4.758,2.1262 -4.758,4.7485 0,2.6239 2.13,4.7499 4.758,4.7499 2.631,0 4.759,-2.126 4.759,-4.7499 0,-2.6223 -2.128,-4.7485 -4.759,-4.7485 m 16.141,2.2246 c -5.016,10.1218 -20.223,17.4778 -38.206,17.4778 -0.304,0 -0.603,-0.009 -0.899,-0.013 -4.8354,-4.294 -7.8846,-10.546 -7.8846,-17.5112 0,-12.9461 10.5196,-23.4399 23.4956,-23.4399 12.977,0 23.497,10.4938 23.497,23.4399 0,0.0156 -0.003,0.0308 -0.003,0.0464"
       id="path44"
       style="fill:#231f20;fill-opacity:1;fill-rule:nonzero;stroke:none" /><path
       d="m 97.3898,163.949 c 50.4692,0 91.9292,-23.369 96.5712,-53.238 0.284,1.841 0.44,3.702 0.44,5.587 0,32.489 -43.433,58.826 -97.0112,58.826 -53.5777,0 -97.012066,-26.337 -97.012066,-58.826 0,-1.885 0.152735,-3.746 0.438282,-5.587 C 5.45703,140.58 46.9203,163.949 97.3898,163.949"
       id="path46"
       style="fill:#231f20;fill-opacity:1;fill-rule:nonzero;stroke:none" /><path
       d="m 97.3898,138.122 c 39.6102,0 72.1482,-18.342 75.7912,-41.7822 0.225,1.4434 0.346,2.9047 0.346,4.3842 0,25.497 -34.09,46.167 -76.1372,46.167 -42.0492,0 -76.1359,-20.67 -76.1359,-46.167 0,-1.4795 0.1195,-2.9408 0.3434,-4.3842 3.6429,23.4402 36.1836,41.7822 75.7925,41.7822"
       id="path48"
       style="fill:#231f20;fill-opacity:1;fill-rule:nonzero;stroke:none" /><path
       d="m 97.3898,113.411 c 25.5552,0 46.5482,-11.833 48.8992,-26.9571 0.144,0.9305 0.221,1.8742 0.221,2.8281 0,16.449 -21.993,29.786 -49.1202,29.786 -27.1277,0 -49.1187,-13.337 -49.1187,-29.786 0,-0.9539 0.0762,-1.8976 0.2203,-2.8281 2.3512,15.1241 23.3445,26.9571 48.8984,26.9571"
       id="path50"
       style="fill:#231f20;fill-opacity:1;fill-rule:nonzero;stroke:none" /></g></svg>