<?xml version="1.0" encoding="UTF-8" standalone="no"?>
<!-- Created with Inkscape (http://www.inkscape.org/) -->

<svg
   xmlns:dc="http://purl.org/dc/elements/1.1/"
   xmlns:cc="http://creativecommons.org/ns#"
   xmlns:rdf="http://www.w3.org/1999/02/22-rdf-syntax-ns#"
   xmlns:svg="http://www.w3.org/2000/svg"
   xmlns="http://www.w3.org/2000/svg"
   version="1.1"
   width="300"
   height="272.57977"
   id="svg5576">
  <defs
     id="defs5578" />
  <metadata
     id="metadata5581">
    <rdf:RDF>
      <cc:Work
         rdf:about="">
        <dc:format>image/svg+xml</dc:format>
        <dc:type
           rdf:resource="http://purl.org/dc/dcmitype/StillImage" />
        <dc:title></dc:title>
      </cc:Work>
    </rdf:RDF>
  </metadata>
  <g
     transform="translate(852.06696,153.49368)"
     id="layer1">
    <path
       d="M 0,0 0,266.15625 2.59375,264.625 c 1.79773,3.32612 3.89089,5.03125 6.25,5.03125 1.01244,0 1.94488,-0.24173 2.84375,-0.71875 0.88264,-0.47053 1.57047,-1.07998 2.03125,-1.875 0.47391,-0.79179 0.71875,-1.60763 0.71875,-2.5 0,-1.01569 -0.38429,-2.061 -1.0625,-3.03125 -0.94753,-1.33694 -2.68236,-2.9584 -5.1875,-4.84375 C 5.67262,254.78269 4.11655,253.36846 3.5,252.53125 2.4324,251.10021 1.9375,249.64196 1.9375,248 c 0,-1.32071 0.27997,-2.57566 0.90625,-3.65625 0.63277,-1.07734 1.53877,-1.87372 2.6875,-2.5 1.139,-0.62304 2.38505,-0.96875 3.71875,-0.96875 1.42456,0 2.72916,0.32709 3.96875,1.03125 1.24284,0.70741 2.52388,2.02091 3.90625,3.90625 l -2.4375,1.875 c -1.12926,-1.50243 -2.1295,-2.52299 -2.9375,-3 -0.79179,-0.48026 -1.64946,-0.65625 -2.59375,-0.65625 -1.21688,0 -2.23419,0.31615 -3,1.0625 -0.78205,0.73337 -1.125,1.66942 -1.125,2.75 0,0.65549 0.14015,1.2337 0.40625,1.84375 0.27582,0.61655 0.74837,1.30112 1.46875,2.03125 0.39264,0.37642 1.76215,1.37751 3.96875,3 2.61546,1.93402 4.36701,3.71308 5.34375,5.21875 0.97675,1.50244 1.46875,3.01259 1.46875,4.53125 0,2.19686 -0.86331,4.06825 -2.53125,5.6875 -1.65495,1.60628 -3.68067,2.4375 -6.0625,2.4375 l 89.46875,0 c -2.44349,0 -4.51717,-0.64755 -6.25,-1.8125 C 90.56669,269.61953 89.4311,268.1678 88.84375,266.25 88.47708,265.07531 88.25,262.91028 88.25,259.84375 l 0,-18.1875 3.03125,0 0,18.1875 c 0,2.15794 0.06875,3.53356 0.15625,4.0625 0.14603,1.19091 0.48285,2.19523 1.03125,3 0.55165,0.79827 1.39549,1.48609 2.53125,2.03125 1.13575,0.53866 2.26077,0.8125 3.40625,0.8125 1.0027,0 1.98792,-0.2344 2.90625,-0.65625 0.91834,-0.4251 1.66469,-1.02516 2.28125,-1.78125 0.61655,-0.75283 1.07969,-1.68889 1.375,-2.75 0.20094,-0.76906 0.25,-2.34016 0.25,-4.71875 l 0,-18.1875 3.09375,0 0,18.1875 c 0,2.6966 -0.29005,4.89782 -0.8125,6.5625 -0.53543,1.65496 -1.60718,3.08264 -3.1875,4.3125 -1.57707,1.2331 -3.50446,1.875 -5.75,1.875 l 141.90625,0 c -4.48133,0 -8.30198,-1.55524 -11.375,-4.625 -3.08275,-3.06653 -4.625,-6.76697 -4.625,-11.125 0,-2.90102 0.71991,-5.56505 2.125,-8.03125 1.40509,-2.48242 3.32923,-4.44516 5.75,-5.84375 2.42077,-1.40508 5.04859,-2.09375 7.875,-2.09375 4.57544,0 8.358,1.53696 11.4375,4.59375 3.07626,3.05354 4.625,6.75688 4.625,11.21875 0,4.41969 -1.55198,8.20175 -4.625,11.28125 -3.06652,3.07301 -6.77105,4.625 -11.1875,4.625 l 51,0 c -1.83342,0 -3.53856,-0.49526 -5.03125,-1.46875 -1.48622,-0.97676 -2.87243,-2.67129 -4.125,-4.96875 l 2.59375,-1.53125 c 1.80746,3.32287 3.89089,5.03125 6.25,5.03125 1.01893,0 1.95137,-0.24173 2.84375,-0.71875 0.88589,-0.47053 1.56398,-1.07998 2.03125,-1.875 0.46403,-0.79503 0.71875,-1.61087 0.71875,-2.5 0,-1.01569 -0.38105,-2.061 -1.0625,-3.03125 -0.95078,-1.33694 -2.59186,-2.9584 -5.09375,-4.84375 -2.52136,-1.90481 -4.11519,-3.30931 -4.71875,-4.15625 -1.0741,-1.42455 -1.625,-2.97979 -1.625,-4.625 0,-1.31423 0.28321,-2.47867 0.90625,-3.5625 0.63602,-1.07409 1.53877,-1.87696 2.6875,-2.5 1.14225,-0.62304 2.38181,-0.96875 3.71875,-0.96875 1.43429,0 2.72916,0.32384 3.96875,1.03125 1.2396,0.70417 2.5799,2.02091 3.96875,3.90625 l -2.40625,1.875 c -1.14548,-1.51217 -2.1295,-2.52623 -2.9375,-3 -0.79178,-0.48026 -1.74646,-0.65625 -2.6875,-0.65625 -1.22337,0 -2.13718,0.31939 -2.90625,1.0625 -0.7788,0.73662 -1.21875,1.67266 -1.21875,2.75 0,0.65874 0.1207,1.2337 0.40625,1.84375 0.27582,0.62304 0.80761,1.30761 1.53125,2.03125 0.39912,0.37967 1.7029,1.37751 3.90625,3 2.61222,1.93078 4.36701,3.71308 5.34375,5.21875 0.96702,1.50244 1.46875,3.01259 1.46875,4.53125 L 300,0 149.84375,0 c 82.47485,0 149.34375,40.519347 149.34375,90.53125 0,2.90427 -0.21816,5.76411 -0.65625,8.59375 C 291.38252,53.146627 227.529,17.1875 149.84375,17.1875 72.14879,17.1875 8.36423,53.146627 1.21875,99.125 0.78391,96.29536 0.5625,93.43552 0.5625,90.53125 0.5625,40.519347 67.36566,0 149.84375,0 L 0,0 z m 300,264.46875 c 0,2.19037 -0.8418,4.06825 -2.5,5.6875 -1.66468,1.60628 -3.64942,2.4375 -6.03125,2.4375 l 8.53125,0 0,-8.125 z m -290.90625,8.125 c -1.83342,0 -3.47606,-0.49526 -4.96875,-1.46875 C 2.63229,270.145 1.25257,268.45046 0,266.15625 l 0,6.4375 9.09375,0 z m 140.75,-229.1875 c 64.72148,0 117.21875,31.81101 117.21875,71.0625 0,2.27474 -0.21204,4.59293 -0.5625,6.8125 C 260.88941,85.20338 210.81076,56.9375 149.84375,56.9375 c -60.97349,0 -111.0489,28.26588 -116.65625,64.34375 -0.34085,-2.21957 -0.5,-4.53776 -0.5,-6.8125 0,-39.25149 52.4218,-71.0625 117.15625,-71.0625 z m 0,42.84375 c 41.75664,0 75.59375,20.58553 75.59375,45.90625 0,1.46674 -0.0854,2.8567 -0.3125,4.28125 -0.73662,-4.74094 -2.65055,-9.22549 -5.59375,-13.4375 -0.7496,19.25581 -16.59781,34.625 -36.09375,34.625 -19.9762,0 -36.1875,-16.16947 -36.1875,-36.09375 0,-10.35803 4.33779,-19.6379 11.34375,-26.21875 C 155.72191,95.11455 152.79671,95 149.84375,95 110.50791,95 78.24642,113.16438 74.625,136.4375 c -0.22701,-1.42455 -0.40625,-2.81451 -0.40625,-4.28125 0,-25.32072 33.86514,-45.90625 75.625,-45.90625 z m 44.84375,24 c -4.053,0 -7.28125,3.28221 -7.28125,7.3125 0,4.03677 3.22825,7.375 7.28125,7.375 4.04976,0 7.3125,-3.33823 7.3125,-7.375 0,-4.03029 -3.26274,-7.3125 -7.3125,-7.3125 z m -194.53125,60.28125 10.96875,0 0,21.75 c 1.98595,-1.98269 4.10554,-3.47578 6.40625,-4.46875 2.29745,-0.98323 4.7498,-1.5625 7.375,-1.5625 5.69172,0 10.53667,2.18415 14.53125,6.5 3.98487,4.30936 6,9.82264 6,16.5625 0,6.50297 -2.12887,11.91673 -6.25,16.28125 -4.1244,4.3775 -8.9507,6.59375 -14.59375,6.59375 -2.51488,0 -4.89484,-0.42337 -7.0625,-1.3125 -2.16118,-0.89562 -4.27103,-2.34688 -6.40625,-4.375 l 0,4.53125 -10.96875,0 0,-60.5 z m 163.40625,0 10.84375,0 0,21.75 c 1.97944,-1.98269 4.09257,-3.47578 6.40625,-4.46875 2.29422,-0.98323 4.78429,-1.5625 7.40625,-1.5625 5.69172,0 10.50542,2.18415 14.5,6.5 3.97187,4.30936 6.03125,9.82264 6.03125,16.5625 0,6.50297 -2.06959,11.91673 -6.1875,16.28125 -4.10817,4.3775 -9.04446,6.59375 -14.6875,6.59375 -2.51489,0 -4.80759,-0.42337 -6.96875,-1.3125 -2.1709,-0.89562 -4.35831,-2.34688 -6.5,-4.375 l 0,4.53125 -10.84375,0 0,-60.5 z m -115.21875,16.875 11.125,0 0,21 c 0,4.09843 0.24462,7.00046 0.8125,8.59375 0.56464,1.59654 1.50717,2.77037 2.75,3.65625 1.25257,0.87615 2.79157,1.375 4.625,1.375 1.8172,0 3.34972,-0.41808 4.625,-1.28125 1.27529,-0.8729 2.22396,-2.21885 2.84375,-3.90625 0.44782,-1.25906 0.65625,-3.9101 0.65625,-8.03125 l 0,-21.40625 10.9375,0 0,18.5 c 0,7.61601 -0.57411,12.84933 -1.78125,15.65625 -1.457,3.42347 -3.64116,6.01682 -6.5,7.84375 -2.86209,1.83991 -6.52755,2.78125 -10.9375,2.78125 -4.79286,0 -8.64404,-1.0178 -11.59375,-3.15625 -2.96269,-2.13845 -5.0461,-5.2054 -6.25,-9.03125 -0.85993,-2.64467 -1.3125,-7.44778 -1.3125,-14.4375 l 0,-18.15625 z m 41.53125,0 33.4375,0 -19.625,34.375 18.5,0 0,9.25 -35.3125,0 19.71875,-34.375 -16.71875,0 0,-9.25 z m 37.75,0 33.40625,0 -19.625,34.375 18.5,0 0,9.25 -35.3125,0 19.65625,-34.375 -16.625,0 0,-9.25 z m 84.125,0 10.9375,0 0,43.625 -10.9375,0 0,-43.625 z m 16.53125,0 33.4375,0 -19.65625,34.375 18.5,0 0,9.25 -35.28125,0 19.71875,-34.375 -16.71875,0 0,-9.25 z m 37.71875,0 33.4375,0 -19.625,34.375 18.46875,0 0,9.25 -35.28125,0 19.71875,-34.375 -16.71875,0 0,-9.25 z m -243.4375,9 c -3.45592,0 -6.2565,1.20988 -8.53125,3.5625 -2.27798,2.35262 -3.40625,5.35311 -3.40625,9.15625 0,3.87453 1.12827,7.04594 3.40625,9.4375 2.27475,2.39156 5.07533,3.625 8.53125,3.625 3.34235,0 6.20903,-1.18801 8.5,-3.625 2.28448,-2.4305 3.40625,-5.57955 3.40625,-9.34375 0,-3.74797 -1.15423,-6.85519 -3.40625,-9.25 -2.2358,-2.39481 -5.07328,-3.5625 -8.5,-3.5625 z m 163.375,0 c -3.45593,0 -6.3255,1.20988 -8.59375,3.5625 -2.28448,2.35262 -3.40625,5.35311 -3.40625,9.15625 0,3.87453 1.12177,7.04594 3.40625,9.4375 2.26825,2.39156 5.13782,3.625 8.59375,3.625 3.34234,0 6.14005,-1.18801 8.4375,-3.625 2.28449,-2.4305 3.40625,-5.57955 3.40625,-9.34375 0,-3.74797 -1.0702,-6.85519 -3.3125,-9.25 -2.24878,-2.39481 -5.10453,-3.5625 -8.53125,-3.5625 z m -141.8125,45.25 16.5625,0 0,2.9375 -6.75,0 0,27.25 -3.0625,0 0,-27.25 -6.75,0 0,-2.9375 z m 94.6875,0 6.25,0 c 4.51054,0 7.77464,0.33887 9.8125,1.0625 2.92698,1.03515 5.2233,2.83741 6.875,5.375 1.64197,2.51812 2.4375,5.4954 2.4375,9 0,3.01785 -0.62328,5.73055 -1.9375,8.03125 -1.30448,2.29746 -2.94472,3.93769 -5.03125,5.03125 -2.08978,1.09357 -5.08604,1.6875 -8.84375,1.6875 l -9.5625,0 0,-30.1875 z m 53.9375,0 3.09375,0 0,30.1875 -3.09375,0 0,-30.1875 z m 47.53125,2.125 c -2.22282,0 -4.29736,0.61954 -6.3125,1.78125 -1.99244,1.16171 -3.59922,2.74903 -4.71875,4.71875 -1.12276,1.96971 -1.625,4.13849 -1.625,6.5625 0,3.58897 1.26109,6.62107 3.75,9.09375 2.48566,2.4727 5.40491,3.71875 8.90625,3.71875 2.34614,0 4.60133,-0.55824 6.59375,-1.6875 1.99568,-1.14549 3.50548,-2.74579 4.625,-4.71875 1.10978,-1.97295 1.6875,-4.15146 1.6875,-6.5625 0,-2.39805 -0.57772,-4.55949 -1.6875,-6.5 -1.11952,-1.93726 -2.68413,-3.46329 -4.71875,-4.625 -2.02488,-1.16171 -4.21876,-1.78125 -6.5,-1.78125 z m -98.5625,0.8125 0,24.34375 3.5,0 c 4.17631,0 7.06825,-0.22756 8.6875,-0.75 2.2715,-0.73338 4.03926,-2.04771 5.34375,-3.96875 1.29475,-1.91779 1.9375,-4.28153 1.9375,-7.0625 0,-2.90427 -0.68218,-5.39844 -2.09375,-7.46875 -1.41157,-2.06382 -3.42262,-3.45293 -5.9375,-4.21875 -1.88534,-0.57436 -4.9707,-0.875 -9.3125,-0.875 l -2.125,0 z"
       transform="translate(-852.06696,-153.49368)"
       id="rect5591"
       style="opacity:0.8;fill:#08162c;fill-opacity:1" />
  </g>
</svg>
