<?xml version="1.0" encoding="UTF-8" standalone="no"?>
<!-- Created with Inkscape (http://www.inkscape.org/) -->

<svg
   xmlns:dc="http://purl.org/dc/elements/1.1/"
   xmlns:cc="http://creativecommons.org/ns#"
   xmlns:rdf="http://www.w3.org/1999/02/22-rdf-syntax-ns#"
   xmlns:svg="http://www.w3.org/2000/svg"
   xmlns="http://www.w3.org/2000/svg"
   version="1.1"
   width="1920"
   height="1080"
   id="svg5576">
  <defs
     id="defs5578">
    <clipPath
       id="clipPath16">
      <path
         d="M 0,288 288,288 288,0 0,0 0,288 z"
         id="path18" />
    </clipPath>
    <clipPath
       id="clipPath16-4">
      <path
         d="M 0,288 288,288 288,0 0,0 0,288 z"
         id="path18-6" />
    </clipPath>
  </defs>
  <metadata
     id="metadata5581">
    <rdf:RDF>
      <cc:Work
         rdf:about="">
        <dc:format>image/svg+xml</dc:format>
        <dc:type
           rdf:resource="http://purl.org/dc/dcmitype/StillImage" />
        <dc:title></dc:title>
      </cc:Work>
    </rdf:RDF>
  </metadata>
  <rect
     width="713.78943"
     height="334.94971"
     x="-295.67975"
     y="-1174.9497"
     id="rect3010"
     style="fill:#ffffff" />
  <path
     d="m 0,0 0,1080 1920,0 L 1920,0 0,0 z m 948.03125,255.53125 c 153.74065,0 278.37495,75.58331 278.37495,168.8125 0,5.40609 -0.4634,10.74855 -1.2812,16.03125 -13.3201,-85.71117 -132.2743,-152.78125 -277.09375,-152.78125 -144.82231,0 -263.80778,67.07008 -277.125,152.78125 -0.8178,-5.2827 -1.25,-10.62516 -1.25,-16.03125 0,-93.22919 124.63723,-168.8125 278.375,-168.8125 z m 0,81.03125 c 120.65275,0 218.46875,59.30579 218.46875,132.46875 0,4.24682 -0.3544,8.41898 -1,12.5625 -10.4564,-67.26332 -103.8089,-119.875 -217.46875,-119.875 -113.65696,0 -207.04937,52.61168 -217.5,119.875 -0.64276,-4.14352 -0.96875,-8.31568 -0.96875,-12.5625 0,-73.16296 97.81027,-132.46875 218.46875,-132.46875 z m 0,79.8125 c 77.84025,0 140.93755,38.26879 140.93755,85.46875 0,2.73748 -0.212,5.45352 -0.625,8.125 -1.3746,-8.84371 -4.9967,-17.27413 -10.4688,-25.125 -1.4089,35.90571 -31.0388,64.59375 -67.375,64.59375 -37.23711,0 -67.40625,-30.13305 -67.40625,-67.28125 0,-19.30869 8.15404,-36.6705 21.21875,-48.9375 -5.35444,-0.37303 -10.76325,-0.59375 -16.28125,-0.59375 -73.32652,0 -133.56637,33.94584 -140.3125,77.34375 -0.41608,-2.67148 -0.65625,-5.38752 -0.65625,-8.125 0,-47.19996 63.12568,-85.46875 140.96875,-85.46875 z m 83.56255,44.78125 c -7.5441,0 -13.6563,6.09837 -13.6563,13.625 0,7.52663 6.1122,13.625 13.6563,13.625 7.5466,0 13.6562,-6.09837 13.6562,-13.625 0,-7.52663 -6.1097,-13.625 -13.6562,-13.625 z m -362.56255,112.375 20.25,0 0,40.40625 c 3.69014,-3.68727 7.68176,-6.46455 11.96875,-8.3125 4.28986,-1.8422 8.89167,-2.78125 13.78125,-2.78125 10.61992,0 19.63344,4.03372 27.0625,12.0625 7.43194,8.02879 11.15625,18.30958 11.15625,30.875 0,12.11779 -3.84967,22.25982 -11.53125,30.40625 -7.67871,8.15791 -16.75889,12.25 -27.28125,12.25 -4.68872,0 -9.05353,-0.82997 -13.09375,-2.5 -4.03734,-1.67291 -8.07107,-4.39406 -12.0625,-8.1875 l 0,8.59375 -20.25,0 0,-112.8125 z m 304.46875,0 20.28125,0 0,40.40625 c 3.68728,-3.68727 7.67885,-6.46455 11.96875,-8.3125 4.2899,-1.8422 8.8632,-2.78125 13.75,-2.78125 10.6199,0 19.659,4.03372 27.0938,12.0625 7.4261,8.02879 11.125,18.30958 11.125,30.875 0,12.11779 -3.8187,22.25982 -11.5,30.40625 -7.6788,8.15791 -16.793,12.25 -27.3126,12.25 -4.6886,0 -9.0564,-0.82997 -13.0937,-2.5 -4.0403,-1.67291 -8.04555,-4.39406 -12.03125,-8.1875 l 0,8.59375 -20.28125,0 0,-112.8125 z m -214.65625,31.4375 20.65625,0 0,39.1875 c 0,7.62993 0.51801,12.91083 1.5625,15.875 1.05597,2.96703 2.73536,5.29329 5.0625,6.9375 2.32427,1.64133 5.19343,2.46875 8.59375,2.46875 3.39746,0 6.28319,-0.81912 8.65625,-2.4375 2.37305,-1.62125 4.1306,-4.01418 5.28125,-7.15625 0.84937,-2.34436 1.28125,-7.34967 1.28125,-15.03125 l 0,-39.84375 20.40625,0 0,34.46875 c 0,14.2125 -1.09982,23.92807 -3.34375,29.15625 -2.74322,6.39032 -6.78778,11.30407 -12.125,14.71875 -5.33435,3.41467 -12.11697,5.125 -20.34375,5.125 -8.9298,0 -16.14973,-2.00856 -21.65625,-6 -5.51225,-3.98569 -9.3782,-9.52274 -11.625,-16.65625 -1.59543,-4.93837 -2.40625,-13.92157 -2.40625,-26.9375 l 0,-33.875 z m 77.34375,0 62.3125,0 -36.59375,64.09375 34.46875,0 0,17.28125 -65.8125,0 36.75,-64.125 -31.125,0 0,-17.25 z m 70.28125,0 62.3125,0 -36.5625,64.09375 34.46875,0 0,17.28125 -65.84375,0 36.75,-64.125 -31.125,0 0,-17.25 z m 156.87505,0 20.4374,0 0,81.375 -20.4374,0 0,-81.375 z m 30.875,0 62.2812,0 -36.5625,64.09375 34.4687,0 0,17.28125 -65.8124,0 36.7187,-64.125 -31.0937,0 0,-17.25 z m 70.2812,0 62.3125,0 -36.5625,64.09375 34.4688,0 0,17.28125 -65.8438,0 36.75,-64.125 -31.125,0 0,-17.25 z m -454.9375,16.75 c -5.90249,0.25693 -10.83918,2.4466 -14.8125,6.5625 -4.24395,4.3903 -6.34375,10.13689 -6.34375,17.21875 0,7.23107 2.0998,13.06922 6.34375,17.53125 4.23821,4.4649 9.56665,6.6875 16,6.6875 6.22963,0 11.48884,-2.24749 15.75,-6.78125 4.26404,-4.54238 6.40625,-10.34479 6.40625,-17.375 0,-6.97856 -2.09469,-12.69422 -6.28125,-17.15625 -4.1923,-4.4649 -9.49042,-6.6875 -15.875,-6.6875 -0.40208,0 -0.794,-0.0171 -1.1875,0 z m 304.5,0 c -5.9051,0.25693 -10.8418,2.4466 -14.8125,6.5625 -4.23821,4.3903 -6.375,10.13689 -6.375,17.21875 0,7.23107 2.13679,13.06922 6.375,17.53125 4.2354,4.4649 9.5638,6.6875 16,6.6875 6.2354,0 11.4859,-2.24749 15.75,-6.78125 4.2583,-4.54238 6.375,-10.34479 6.375,-17.375 0,-6.97856 -2.0948,-12.69422 -6.2812,-17.15625 -4.1895,-4.4649 -9.4592,-6.6875 -15.8438,-6.6875 -0.4023,0 -0.7938,-0.0171 -1.1875,0 z m -328.21875,82.875 c 2.65426,0 5.13044,0.65167 7.4375,1.96875 2.30993,1.31135 4.76983,3.72916 7.34375,7.25 l -4.59375,3.5 c -2.11767,-2.80635 -3.91412,-4.66722 -5.40625,-5.5625 -1.49212,-0.88953 -3.11315,-1.34375 -4.875,-1.34375 -2.26689,0 -4.12203,0.68515 -5.5625,2.0625 -1.44048,1.37735 -2.1875,3.07938 -2.1875,5.09375 0,1.22526 0.27336,2.41471 0.78125,3.5625 0.51077,1.14779 1.42973,2.40134 2.78125,3.75 0.74033,0.71736 3.1779,2.59197 7.28125,5.625 4.86949,3.59832 8.18936,6.78741 10,9.59375 1.81064,2.80348 2.71875,5.63658 2.71875,8.46875 0,4.08039 -1.52597,7.61779 -4.625,10.625 -3.09903,3.01007 -6.87343,4.53125 -11.3125,4.53125 -3.41754,0 -6.52911,-0.92788 -9.3125,-2.75 -2.77765,-1.82499 -5.34314,-4.86925 -7.6875,-9.15625 l 4.78125,-2.875 c 3.36876,6.19806 7.27425,9.3125 11.6875,9.3125 1.88524,0 3.65681,-0.46282 5.3125,-1.34375 1.65856,-0.88092 2.91466,-2.05347 3.78125,-3.53125 0.86945,-1.47777 1.3125,-3.02895 1.3125,-4.6875 0,-1.88525 -0.66059,-3.75187 -1.9375,-5.5625 -1.75612,-2.49932 -4.95924,-5.51327 -9.625,-9.03125 -4.69446,-3.54667 -7.60508,-6.10642 -8.75,-7.6875 -1.98854,-2.65139 -3,-5.50619 -3,-8.59375 0,-2.44766 0.60764,-4.70438 1.78125,-6.71875 1.17361,-2.01437 2.80835,-3.59074 4.9375,-4.75 2.12915,-1.16214 4.43818,-1.75 6.9375,-1.75 z m 430.56245,0 c 8.5226,0 15.6332,2.84395 21.375,8.53125 5.7419,5.6873 8.625,12.68713 8.625,21 0,8.23825 -2.8634,15.2298 -8.5937,20.96875 -5.7275,5.73894 -12.6964,8.625 -20.9375,8.625 -8.3473,0 -15.4144,-2.88063 -21.1562,-8.59375 -5.7421,-5.71312 -8.5938,-12.60675 -8.5938,-20.71875 0,-5.40609 1.2894,-10.41427 3.9062,-15.03125 2.6171,-4.61699 6.1994,-8.22679 10.7188,-10.84375 4.5165,-2.61409 9.3966,-3.9375 14.6562,-3.9375 z m 95.7813,0 c 2.6486,0 5.1305,0.65167 7.4375,1.96875 2.3099,1.31135 4.7386,3.72916 7.3125,7.25 l -4.5625,3.5 c -2.1177,-2.80635 -3.9454,-4.66722 -5.4375,-5.5625 -1.4921,-0.88953 -3.116,-1.34375 -4.875,-1.34375 -2.2698,0 -4.122,0.68515 -5.5625,2.0625 -1.4434,1.37735 -2.1562,3.07938 -2.1562,5.09375 0,1.22526 0.2704,2.41471 0.7812,3.5625 0.5107,1.14779 1.4298,2.40134 2.7812,3.75 0.7403,0.71736 3.144,2.59197 7.25,5.625 4.8725,3.59832 8.2207,6.78741 10.0313,9.59375 1.8106,2.80348 2.7187,5.63658 2.7187,8.46875 0,4.08039 -1.5571,7.61779 -4.6562,10.625 -3.099,3.01007 -6.8423,4.53125 -11.2812,4.53125 -3.4178,0 -6.5347,-0.92788 -9.3126,-2.75 -2.7803,-1.82499 -5.3404,-4.86925 -7.6874,-9.15625 l 4.7812,-2.875 c 3.3688,6.19806 7.2432,9.3125 11.6562,9.3125 1.8882,0 3.6853,-0.46282 5.3438,-1.34375 1.6557,-0.88092 2.9147,-2.05347 3.7812,-3.53125 0.8666,-1.47777 1.2813,-3.02895 1.2813,-4.6875 0,-1.88525 -0.6321,-3.75187 -1.9063,-5.5625 -1.7589,-2.49932 -4.9561,-5.51327 -9.625,-9.03125 -4.6914,-3.54667 -7.6334,-6.10642 -8.7812,-7.6875 -1.9885,-2.65139 -2.9686,-5.50619 -2.9688,-8.59375 0,-2.44766 0.5765,-4.70438 1.75,-6.71875 1.174,-2.01437 2.8425,-3.59074 4.9688,-4.75 2.1291,-1.16214 4.4354,-1.75 6.9375,-1.75 z m -461.21875,1.4375 30.84375,0 0,5.5 -12.5625,0 0,50.75 -5.71875,0 0,-50.75 -12.5625,0 0,-5.5 z m 82.25,0 5.59375,0 0,33.96875 c 0,4.02874 0.0979,6.53554 0.25,7.53125 0.28121,2.2181 0.91883,4.07037 1.9375,5.5625 1.02153,1.49212 2.60108,2.74281 4.71875,3.75 2.1148,1.00718 4.23437,1.5 6.375,1.5 1.86229,0 3.66479,-0.39553 5.375,-1.1875 1.70733,-0.79198 3.13346,-1.87807 4.28125,-3.28125 1.14779,-1.4003 1.99466,-3.10521 2.53125,-5.09375 0.38164,-1.429 0.5625,-4.34504 0.5625,-8.78125 l 0,-33.96875 5.625,0 0,33.96875 c 0,5.02445 -0.48739,9.08846 -1.46875,12.1875 -0.98136,3.09903 -2.9593,5.76979 -5.90625,8.0625 -2.94408,2.29845 -6.50667,3.46875 -10.6875,3.46875 -4.5395,0 -8.41949,-1.08068 -11.65625,-3.25 -3.23964,-2.16646 -5.40386,-5.05537 -6.5,-8.625 -0.68867,-2.19227 -1.03125,-6.13063 -1.03125,-11.84375 l 0,-33.96875 z m 94.1875,0 11.65625,0 c 8.41616,0 14.5417,0.67686 18.34375,2.03125 5.45774,1.91107 9.70805,5.22009 12.78125,9.9375 3.07608,4.71741 4.625,10.34695 4.625,16.875 0,5.63565 -1.22007,10.59088 -3.65625,14.875 -2.43618,4.28412 -5.61186,7.42855 -9.5,9.46875 -3.89101,2.0402 -9.32789,3.0625 -16.34375,3.0625 l -17.90625,0 0,-56.25 z m 100.59375,0 5.625,0 0,56.25 -5.625,0 0,-56.25 z m 88.6562,4.03125 c -4.1663,0 -8.1134,1.10905 -11.8437,3.28125 -3.7303,2.16932 -6.6553,5.0742 -8.75,8.75 -2.0947,3.67579 -3.125,7.7647 -3.125,12.28125 0,6.68874 2.3004,12.332 6.9375,16.9375 4.6342,4.60551 10.2417,6.9375 16.7812,6.9375 4.3676,0 8.4062,-1.06983 12.125,-3.1875 3.7161,-2.11768 6.6042,-5.0117 8.6876,-8.6875 2.0832,-3.67579 3.125,-7.75641 3.125,-12.25 0,-4.4649 -1.0417,-8.5152 -3.125,-12.125 -2.0833,-3.61266 -4.9993,-6.48693 -8.7813,-8.65625 -3.7791,-2.1722 -7.7902,-3.28125 -12.0313,-3.28125 z m -183.8437,1.46875 0,45.4375 6.5,0 c 7.77628,0 13.17743,-0.47049 16.1875,-1.4375 4.23248,-1.37448 7.54692,-3.8564 9.96875,-7.4375 2.42184,-3.57824 3.625,-7.95134 3.625,-13.125 0,-5.42618 -1.31193,-10.08954 -3.9375,-13.9375 -2.62844,-3.84796 -6.27429,-6.47725 -10.96875,-7.90625 -3.51797,-1.06744 -9.32295,-1.59375 -17.40625,-1.59375 l -3.96875,0 z m -264.9375,65 4.3125,0 0,18.9375 c 1.81064,-2.24393 3.84982,-3.95201 6.09375,-5.0625 2.24392,-1.11622 4.70065,-1.65625 7.375,-1.65625 4.75472,0 8.8216,1.73521 12.1875,5.21875 3.36876,3.48354 5.03125,7.72044 5.03125,12.6875 0,4.91253 -1.69629,9.08757 -5.09375,12.5625 -3.39745,3.47493 -7.47519,5.21875 -12.25,5.21875 -2.73747,0 -5.21366,-0.59042 -7.4375,-1.78125 -2.22384,-1.18509 -4.19891,-2.97357 -5.90625,-5.34375 l 0,6.25 -4.3125,0 0,-47.03125 z m 276.65625,0 4.3125,0 0,18.9375 c 1.81064,-2.24393 3.84696,-3.95201 6.09375,-5.0625 2.24393,-1.11622 4.69778,-1.65625 7.375,-1.65625 4.75185,0 8.82161,1.73521 12.1875,5.21875 3.36303,3.48354 5.0625,7.72044 5.0625,12.6875 0,4.91253 -1.69629,9.08757 -5.09375,12.5625 -3.39745,3.47493 -7.50357,5.21875 -12.28125,5.21875 -2.73748,0 -5.21653,-0.59042 -7.4375,-1.78125 -2.22384,-1.18509 -4.19891,-2.97357 -5.90625,-5.34375 l 0,6.25 -4.3125,0 0,-47.03125 z m 99.65625,0 4.3437,0 0,19.1875 c 1.7505,-2.33001 3.6808,-4.09647 5.7813,-5.25 2.1004,-1.15639 4.3591,-1.71875 6.8125,-1.71875 2.5166,0 4.7392,0.64623 6.6875,1.9375 1.9484,1.29126 3.3856,3.01244 4.3125,5.1875 0.9268,2.17219 1.4062,5.58168 1.4062,10.21875 l 0,17.46875 -4.3124,0 0,-16.1875 c 0,-3.90822 -0.1561,-6.5324 -0.4688,-7.84375 -0.5338,-2.2468 -1.5257,-3.92332 -2.9375,-5.0625 -1.4118,-1.13057 -3.2385,-1.6875 -5.5313,-1.6875 -2.6141,0 -4.9594,0.87749 -7.0312,2.625 -2.0688,1.74751 -3.4335,3.88909 -4.0938,6.46875 -0.4131,1.66717 -0.625,4.7564 -0.625,9.25 l 0,12.4375 -4.3437,0 0,-47.03125 z m 168.4375,0 4.2812,0 0,47.03125 -4.2812,0 0,-5.84375 c -1.8164,2.22671 -3.8382,3.90929 -6.0938,5.03125 -2.2608,1.12483 -4.729,1.6875 -7.4062,1.6875 -4.7605,0 -8.8187,-1.73521 -12.1875,-5.21875 -3.3659,-3.48354 -5.0625,-7.72873 -5.0625,-12.71875 0,-4.88384 1.6961,-9.05632 5.0938,-12.53125 3.4001,-3.47207 7.4978,-5.21875 12.2812,-5.21875 2.7604,0 5.2647,0.59329 7.5,1.78125 2.2382,1.18223 4.1849,2.97069 5.875,5.34375 l 0,-19.34375 z M 725.75,788.75 c 5.73895,0 10.32672,2.20346 13.75,6.59375 2.43618,3.09616 3.67575,6.95668 3.71875,11.59375 l -30.28125,0 c 0.0803,3.94266 1.33678,7.16524 3.75,9.6875 2.41323,2.5194 5.38796,3.78125 8.9375,3.78125 1.71308,0 3.37874,-0.30653 5,-0.90625 1.61838,-0.59972 3.02281,-1.38216 4.15625,-2.375 1.13631,-0.9957 2.33342,-2.59153 3.65625,-4.8125 l 3.65625,1.9375 c -1.19657,2.37019 -2.58665,4.26393 -4.15625,5.71875 -1.56673,1.45769 -3.32427,2.55496 -5.28125,3.3125 -1.96272,0.76041 -4.18276,1.15625 -6.65625,1.15625 -5.48643,0 -9.77884,-1.81049 -12.875,-5.4375 -3.0933,-3.62988 -4.625,-7.73569 -4.625,-12.3125 0,-4.30421 1.31767,-8.13124 3.9375,-11.5 3.32285,-4.28412 7.74859,-6.4375 13.3125,-6.4375 z m 49.34375,0 c 3.0933,0 6.20454,1.53489 9.34375,4.59375 l -2.78125,2.90625 c -2.31567,-2.26402 -4.57176,-3.40625 -6.78125,-3.40625 -1.40605,0 -2.59518,0.47081 -3.59375,1.40625 -1.00432,0.93545 -1.53125,2.00465 -1.53125,3.25 0,1.10188 0.42072,2.16055 1.25,3.15625 0.82353,1.02154 2.57597,2.22501 5.21875,3.59375 3.21955,1.68725 5.40323,3.31401 6.5625,4.875 1.13344,1.58108 1.6875,3.33831 1.6875,5.3125 0,2.78913 -0.96649,5.1626 -2.90625,7.09375 -1.93977,1.93403 -4.37447,2.90625 -7.28125,2.90625 -1.94263,0 -3.7949,-0.42902 -5.5625,-1.28125 -1.76185,-0.85511 -3.22148,-2.03625 -4.375,-3.53125 l 2.71875,-3.125 c 2.20949,2.51652 4.55489,3.78125 7.03125,3.78125 1.73603,0 3.21798,-0.55979 4.4375,-1.6875 1.21953,-1.12196 1.84375,-2.4508 1.84375,-3.96875 0,-1.24822 -0.41243,-2.33975 -1.21875,-3.3125 -0.80632,-0.95553 -2.6082,-2.16731 -5.4375,-3.625 -3.0359,-1.58108 -5.12548,-3.14373 -6.21875,-4.6875 -1.09327,-1.53517 -1.625,-3.2758 -1.625,-5.25 0,-2.57965 0.88036,-4.7359 2.625,-6.4375 1.74464,-1.70734 3.92801,-2.5625 6.59375,-2.5625 z m 32,0 c 5.73321,0 10.32385,2.20346 13.75,6.59375 2.43331,3.09616 3.67575,6.95668 3.71875,11.59375 l -30.28125,0 c 0.0832,3.94266 1.33678,7.16524 3.75,9.6875 2.41036,2.5194 5.38796,3.78125 8.9375,3.78125 1.71021,0 3.37874,-0.30653 5,-0.90625 1.61838,-0.59972 2.98869,-1.38216 4.125,-2.375 1.13631,-0.9957 2.36467,-2.59153 3.6875,-4.8125 l 3.65625,1.9375 c -1.19944,2.37019 -2.58952,4.26393 -4.15625,5.71875 -1.5696,1.45769 -3.3214,2.55496 -5.28125,3.3125 -1.95985,0.76041 -4.18563,1.15625 -6.65625,1.15625 -5.4893,0 -9.78171,-1.81049 -12.875,-5.4375 -3.0933,-3.62988 -4.625,-7.73569 -4.625,-12.3125 0,-4.30421 1.31767,-8.13124 3.9375,-11.5 3.31998,-4.28412 7.74285,-6.4375 13.3125,-6.4375 z m 40.53125,0 c 5.73321,0 10.2926,2.20346 13.71875,6.59375 2.43332,3.09616 3.67575,6.95668 3.71875,11.59375 l -30.25,0 c 0.0832,3.94266 1.30265,7.16524 3.71875,9.6875 2.41036,2.5194 5.41921,3.78125 8.96875,3.78125 1.7102,0 3.35037,-0.30653 4.96875,-0.90625 1.62125,-0.59972 3.01994,-1.38216 4.15625,-2.375 1.13344,-0.9957 2.36754,-2.59153 3.6875,-4.8125 l 3.625,1.9375 c -1.1937,2.37019 -2.55827,4.26393 -4.125,5.71875 -1.56673,1.45769 -3.35265,2.55496 -5.3125,3.3125 -1.96272,0.76041 -4.18276,1.15625 -6.65625,1.15625 -5.48643,0 -9.75046,-1.81049 -12.84375,-5.4375 -3.09329,-3.62988 -4.65625,-7.73569 -4.65625,-12.3125 0,-4.30421 1.31767,-8.13124 3.9375,-11.5 3.31998,-4.28412 7.77124,-6.4375 13.34375,-6.4375 z m 41.8125,0 c 2.51653,0 4.742,0.64623 6.6875,1.9375 1.95124,1.29126 3.38279,3.03795 4.3125,5.21875 0.92684,2.18367 1.375,5.57052 1.375,10.1875 l 0,17.46875 -4.3125,0 0,-16.1875 c 0,-3.90822 -0.17862,-6.5324 -0.5,-7.84375 -0.49929,-2.2468 -1.45462,-3.92619 -2.875,-5.0625 -1.42326,-1.13344 -3.27266,-1.6875 -5.5625,-1.6875 -2.61696,0 -4.95662,0.87749 -7.03125,2.625 -2.06889,1.74751 -3.43377,3.88909 -4.09375,6.46875 -0.41033,1.68725 -0.625,4.77649 -0.625,9.25 l 0,12.4375 -4.3125,0 0,-33.9375 4.3125,0 0,6.09375 c 1.7303,-2.33001 3.64954,-4.09647 5.75,-5.25 2.10332,-1.15926 4.40438,-1.71875 6.875,-1.71875 z m 113,0 c 5.7332,0 10.2954,2.20346 13.7187,6.59375 2.4334,3.09616 3.6758,6.95668 3.7188,11.59375 l -30.25,0 c 0.0803,3.94266 1.30553,7.16524 3.71875,9.6875 2.4161,2.5194 5.41916,3.78125 8.96875,3.78125 1.713,0 3.3475,-0.30653 4.9687,-0.90625 1.6243,-0.59972 3.0229,-1.38216 4.1563,-2.375 1.1335,-0.9957 2.3361,-2.59153 3.6563,-4.8125 l 3.6562,1.9375 c -1.1965,2.37019 -2.5583,4.26393 -4.125,5.71875 -1.5668,1.45769 -3.3555,2.55496 -5.3125,3.3125 -1.9598,0.76041 -4.1798,1.15625 -6.6563,1.15625 -5.48627,0 -9.74754,-1.81049 -12.8437,-5.4375 -3.0933,-3.62988 -4.65625,-7.73569 -4.65625,-12.3125 0,-4.30421 1.31767,-8.13124 3.9375,-11.5 3.31998,-4.28412 7.77414,-6.4375 13.34375,-6.4375 z m 95.3437,0 c 5.7335,0 10.327,2.20346 13.75,6.59375 2.4364,3.09616 3.6758,6.95668 3.7188,11.59375 l -30.2812,0 c 0.083,3.94266 1.3367,7.16524 3.75,9.6875 2.413,2.5194 5.3851,3.78125 8.9374,3.78125 1.7102,0 3.3817,-0.30653 5,-0.90625 1.6214,-0.59972 3.0229,-1.38216 4.1563,-2.375 1.1306,-0.9957 2.3363,-2.59153 3.6563,-4.8125 l 3.6562,1.9375 c -1.1966,2.37019 -2.5583,4.26393 -4.125,5.71875 -1.5696,1.45769 -3.3526,2.55496 -5.3125,3.3125 -1.9627,0.76041 -4.1854,1.15625 -6.6563,1.15625 -5.4864,0 -9.7475,-1.81049 -12.8437,-5.4375 -3.0933,-3.62988 -4.6563,-7.73569 -4.6563,-12.3125 3e-4,-4.30421 1.3177,-8.13124 3.9376,-11.5 3.3169,-4.28412 7.7429,-6.4375 13.3124,-6.4375 z m 40.75,0 c 2.7605,0 5.2647,0.59329 7.5,1.78125 2.2353,1.18223 4.185,2.97069 5.875,5.34375 l 0,-6.25 4.2813,0 0,33.9375 -4.2813,0 0,-5.84375 c -1.8134,2.22671 -3.8383,3.90929 -6.0937,5.03125 -2.2554,1.12483 -4.7288,1.6875 -7.4063,1.6875 -4.7602,0 -8.8161,-1.73521 -12.1874,-5.21875 -3.3719,-3.48354 -5.0626,-7.72873 -5.0626,-12.71875 0,-4.88384 1.722,-9.05632 5.125,-12.53125 3.4006,-3.47207 7.4667,-5.21875 12.25,-5.21875 z m 38.2813,0 c 1.1965,0 2.4867,0.38723 3.8437,1.15625 l -2.25,3.6875 C 1177.4996,793.19777 1176.7106,793 1176.0938,793 c -1.4435,0 -2.8162,0.58755 -4.1563,1.78125 -1.34,1.19944 -2.3623,3.0431 -3.0625,5.5625 -0.5394,1.93403 -0.8125,5.86184 -0.8125,11.75 l 0,11.46875 -4.4063,0 0,-33.9375 4.4063,0 0,4.96875 c 1.3171,-1.95411 2.7241,-3.43924 4.1875,-4.40625 1.4635,-0.96702 2.9785,-1.4375 4.5625,-1.4375 z M 685.25,792.71875 c -2.36445,0 -4.62372,0.59584 -6.75,1.8125 -2.12627,1.21953 -3.76993,2.84884 -4.90625,4.90625 -1.14205,2.06028 -1.71875,4.39196 -1.71875,6.96875 0,3.93118 1.28131,7.20384 3.84375,9.84375 2.55957,2.64279 5.72409,3.96875 9.46875,3.96875 2.40462,0 4.62179,-0.58468 6.65625,-1.78125 2.03445,-1.1937 3.64431,-2.86767 4.84375,-5.03125 1.20517,-2.16071 1.8125,-4.46464 1.8125,-6.875 0,-2.41323 -0.60158,-4.72258 -1.8125,-6.90625 -1.21379,-2.18367 -2.86319,-3.87422 -4.90625,-5.09375 -2.04881,-1.21666 -4.20698,-1.8125 -6.53125,-1.8125 z m 276.65625,0 c -2.36445,0 -4.62659,0.59584 -6.75,1.8125 -2.12915,1.21953 -3.76707,2.84884 -4.90625,4.90625 -1.13918,2.06028 -1.6875,4.39196 -1.6875,6.96875 0,3.93118 1.25293,7.20384 3.8125,9.84375 2.56244,2.64279 5.72695,3.96875 9.46875,3.96875 2.40462,0 4.62179,-0.58468 6.65625,-1.78125 2.03732,-1.1937 3.64144,-2.86767 4.84375,-5.03125 1.20231,-2.16071 1.8125,-4.46464 1.8125,-6.875 0,-2.41323 -0.59872,-4.72258 -1.8125,-6.90625 -1.21092,-2.18367 -2.82906,-3.87422 -4.875,-5.09375 -2.04593,-1.21666 -4.23823,-1.8125 -6.5625,-1.8125 z M 725.8125,792.9375 c -3.30277,0 -6.12694,1.07813 -8.5,3.21875 -1.73316,1.55813 -3.05083,3.88375 -3.9375,7 l 25.0625,0 c -0.57676,-2.33002 -1.39525,-4.1708 -2.5,-5.5625 -1.10474,-1.39456 -2.55576,-2.5199 -4.375,-3.375 -1.81351,-0.85223 -3.74998,-1.28125 -5.75,-1.28125 z m 81.34375,0 c -3.30277,0 -6.12981,1.07813 -8.5,3.21875 -1.73603,1.55813 -3.05083,3.88375 -3.9375,7 l 25.0625,0 c -0.57963,-2.33002 -1.39525,-4.1708 -2.5,-5.5625 -1.10474,-1.39456 -2.58701,-2.5199 -4.40625,-3.375 -1.81351,-0.85223 -3.71873,-1.28125 -5.71875,-1.28125 z m 40.5,0 c -3.30276,0 -6.12695,1.07813 -8.5,3.21875 -1.73317,1.55813 -3.04797,3.88375 -3.9375,7 l 25.09375,0 c -0.57677,-2.33002 -1.4265,-4.1708 -2.53125,-5.5625 -1.10475,-1.39456 -2.55862,-2.5199 -4.375,-3.375 -1.81637,-0.85223 -3.7471,-1.28125 -5.75,-1.28125 z m 154.84375,0 c -3.3028,0 -6.16107,1.07813 -8.53125,3.21875 -1.73316,1.55813 -3.05083,3.88375 -3.9375,7 l 25.06255,0 c -0.5742,-2.33002 -1.3954,-4.1708 -2.5,-5.5625 -1.102,-1.39456 -2.5589,-2.5199 -4.375,-3.375 -1.8165,-0.85223 -3.7188,-1.28125 -5.7188,-1.28125 z m 95.3438,0 c -3.3031,0 -6.1299,1.07813 -8.5,3.21875 -1.7335,1.55813 -3.0535,3.88375 -3.9376,7 l 25.0626,0 c -0.5797,-2.33002 -1.3955,-4.1708 -2.5,-5.5625 -1.1022,-1.39456 -2.5589,-2.5199 -4.375,-3.375 -1.8165,-0.85223 -3.753,-1.28125 -5.75,-1.28125 z m 41.0312,0.0312 c -2.4046,0 -4.6191,0.58755 -6.6562,1.78125 -2.0375,1.19657 -3.6444,2.87053 -4.8438,5.03125 -1.2081,2.16071 -1.8125,4.43339 -1.8125,6.84375 0,2.39027 0.5959,4.69707 1.8125,6.875 1.2109,2.18367 2.8633,3.87997 4.9062,5.09375 2.049,1.21666 4.2465,1.8125 6.5938,1.8125 2.3644,0 4.601,-0.60445 6.7188,-1.8125 2.1204,-1.20231 3.7327,-2.81759 4.875,-4.875 1.1447,-2.05741 1.7187,-4.39197 1.7187,-6.96875 0,-3.92544 -1.2785,-7.2067 -3.8437,-9.84375 -2.5598,-2.63704 -5.7212,-3.9375 -9.4688,-3.9375 z m 60.7188,0 c -2.4078,0 -4.6161,0.58755 -6.6563,1.78125 -2.0345,1.19657 -3.6727,2.87053 -4.875,5.03125 -1.2052,2.16071 -1.8125,4.43339 -1.8125,6.84375 0,2.39027 0.63,4.69707 1.8438,6.875 1.2166,2.18367 2.8259,3.87997 4.875,5.09375 2.0485,1.21666 4.2465,1.8125 6.5937,1.8125 2.3673,0 4.5984,-0.60445 6.7187,-1.8125 2.1207,-1.20231 3.7642,-2.81759 4.9063,-4.875 1.142,-2.05741 1.7187,-4.39197 1.7187,-6.96875 0,-3.92544 -1.2812,-7.2067 -3.8437,-9.84375 -2.5653,-2.63704 -5.7242,-3.9375 -9.4687,-3.9375 z M 1242.5,805.3125 c 5.3745,0 9.625,4.26801 9.625,9.59375 0,5.32575 -4.2505,9.5625 -9.625,9.5625 -5.3745,0 -9.625,-4.23675 -9.625,-9.5625 0,-5.32574 4.2505,-9.59375 9.625,-9.59375 z m 0,1.46875 c -4.3932,0 -8.125,3.60845 -8.125,8.125 0,4.51368 3.7318,8.09375 8.125,8.09375 4.3932,0 8.1562,-3.58007 8.1562,-8.09375 0,-4.51655 -3.763,-8.125 -8.1562,-8.125 z m -3.5625,2.8125 4.5625,0 c 1.8909,0 3.7188,0.52297 3.7188,2.78125 -1e-4,2.06028 -1.4473,2.79495 -3.3126,2.84375 l 3.1563,4.84375 -1.75,0 -3.1563,-4.84375 -1.75,0 0,4.84375 -1.4687,0 0,-10.46875 z m 1.4687,1.46875 0,2.6875 1.75,0 c 1.3001,0 3.5938,0.26379 3.5938,-1.40625 0,-1.07892 -1.4348,-1.28125 -2.5625,-1.28125 l -2.7813,0 z m -329.2812,5.625 c 1.05022,0 1.94431,0.37606 2.6875,1.125 0.74033,0.74893 1.125,1.67395 1.125,2.75 0,1.06171 -0.38467,1.96408 -1.125,2.71875 -0.74319,0.76041 -1.63728,1.15625 -2.6875,1.15625 -1.05023,0 -1.95004,-0.39584 -2.6875,-1.15625 -0.74606,-0.75467 -1.125,-1.65704 -1.125,-2.71875 0,-1.07605 0.37894,-2.00107 1.125,-2.75 0.73746,-0.74894 1.63727,-1.125 2.6875,-1.125 z m 313.5312,0 c 1.0532,0 1.9472,0.37606 2.6876,1.125 0.743,0.74893 1.1248,1.67395 1.125,2.75 0,1.06171 -0.382,1.96408 -1.125,2.71875 -0.7404,0.76041 -1.6342,1.15625 -2.6876,1.15625 -1.0499,0 -1.9473,-0.39584 -2.6874,-1.15625 -0.7403,-0.75467 -1.125,-1.65704 -1.125,-2.71875 0,-1.07605 0.3846,-2.00107 1.125,-2.75 0.74,-0.74894 1.6375,-1.125 2.6874,-1.125 z"
     id="rect3062"
     style="opacity:0.7;fill:#ffffff" />
</svg>
