<?xml version="1.0" encoding="UTF-8" standalone="no"?>
<!-- Created with Inkscape (http://www.inkscape.org/) -->

<svg
   xmlns:dc="http://purl.org/dc/elements/1.1/"
   xmlns:cc="http://creativecommons.org/ns#"
   xmlns:rdf="http://www.w3.org/1999/02/22-rdf-syntax-ns#"
   xmlns:svg="http://www.w3.org/2000/svg"
   xmlns="http://www.w3.org/2000/svg"
   version="1.1"
   width="1867.5312"
   height="508.21875"
   id="svg3594">
  <defs
     id="defs3596" />
  <metadata
     id="metadata3599">
    <rdf:RDF>
      <cc:Work
         rdf:about="">
        <dc:format>image/svg+xml</dc:format>
        <dc:type
           rdf:resource="http://purl.org/dc/dcmitype/StillImage" />
        <dc:title></dc:title>
      </cc:Work>
    </rdf:RDF>
  </metadata>
  <g
     transform="translate(-457.66292,336.03291)"
     id="layer1">
    <path
       d="m 1302.9754,-336.03291 c -117.2123,0 -217.6077,73.49425 -293.3437,158.5 -21.63793,-10.32087 -39.65171,-23.07075 -52.87503,-38.25 -13.82478,-15.78662 -20.43812,-29.75312 -12.625,-47.96875 6.61214,-14.572 -3.59987,-21.27712 -10.8125,-11.5625 -13.22332,9.7145 -11.42387,49.19463 5.40625,68.625 15.02769,17.00113 36.05197,30.36875 60.09375,41.90625 -20.43595,23.68025 -37.84828,49.77163 -52.875,77.093753 -60.10786,109.90063 -60.11023,217.387377 -2.40625,242.281247 85.35258,37.03875 197.74478,-78.945617 247.03128,-137.843747 -27.0481,35.82413 -42.0628,155.437497 24.6562,155.437497 33.6593,0 67.9078,-24.2875 88.3438,-52.21875 12.8565,-17.20025 25.8984,-38.839377 36.7187,-58.749997 -6.7978,35.72062 -5.054,73.343747 40.2188,73.343747 35.3822,0 60.7587,-27.86575 78.7499,-57.468747 -2.7001,52.090997 31.3283,77.932367 74.5313,36.187497 17.4297,-16.999247 33.6647,-41.276877 43.2813,-57.062497 -18.0311,63.754497 10.227,79.557367 30.0625,78.343747 14.8772,-1.2525 29.8311,-14.4005 43.5625,-32 5.038,17.76363 20.3032,33.1875 51.4062,33.1875 7.8161,0 16.2114,-2.42063 24.625,-6.0625 28.9571,8.801 52.1324,-0.93062 70.9063,-18.90625 0.5812,-0.2075 1.2062,-0.56138 1.8437,-1.125 1.8491,-1.77463 4.019,-4.38038 6.4063,-7.59375 17.0823,-19.784997 30.1349,-45.899497 40.5312,-68.812497 5.4024,-10.06175 10.9844,-20.61238 16.7813,-31.6874997 -18.0311,41.8959997 -38.495,76.5102497 -49.3125,118.4062467 -2.4059,7.89275 -3.605,13.375 4.8125,13.375 l 37.875,0 c -10.217,-8.501 6.0233,-74.074877 16.8437,-94.718747 16.2306,-23.07213 33.6512,-41.2842497 49.2813,-55.25 69.1219,-59.5035 95.556,-17.03038 57.6875,13.9375003 -13.8238,11.5365 -34.2455,19.4323697 -47.4688,18.2187497 -13.2243,1.21362 -35.4626,30.376 -28.25,69.84375 6.0107,31.573117 24.6424,49.165617 46.2813,51.593747 27.4732,2.87213 56.4355,-2.55513 90.7187,-59.062497 -2.3034,51.543127 31.586,76.900997 74.5625,35.374997 17.4316,-16.999247 33.6628,-41.276877 43.2812,-57.062497 -18.033,63.754497 10.2271,79.557367 30.0626,78.343747 36.066,-3.03638 72.7198,-75.897877 90.75,-112.937497 6.0105,-12.1428797 -2.9961,-15.8042497 -8.4063,-4.875 -12.6228,26.1085 -52.2867,103.216497 -77.5313,101.999997 -7.814,0 -10.8087,-11.51138 -6,-36.406247 7.8141,-37.03963 43.2521,-100.81425 55.875,-113.5625 -8.4145,1.819 -17.4056,-1.82913 -25.2187,-2.4375 -19.235,-1.2135 -27.6507,13.37475 -40.875,38.8750003 -15.6292,29.7532497 -32.4626,59.4968697 -53.5,84.9999997 -28.2491,34.003247 -61.3232,38.876367 -55.3125,-3.625 3.6049,-23.075 19.8494,-52.84275 24.6562,-61.34375 21.6399,-35.82325 52.8895,-71.63138 79.9376,-86.8125 22.2393,-12.14388 44.4825,-7.3095 51.0937,15.15625 10.217,1.82 15.0083,-8.48438 6.5937,-17.59375 -34.2607,-37.646003 -103.3723,-15.17313 -139.4374,27.9375 -23.8831,28.9188703 -38.297,57.57837 -45.3438,82.90625 -11.3931,21.73412 -22.5004,40.06437 -32.7812,51.28125 -55.3001,59.503367 -93.7793,-16.40788 -70.9375,-72.875 26.4476,-2.42813 42.6876,-10.93638 60.7187,-23.6874997 45.6836,-32.7867503 52.8822,-100.7698803 -24.6562,-71.6250003 -34.8641,13.3565 -72.7231,53.42687 -97.9688,85 6.0117,-18.2156297 13.809,-35.8365 21.625,-51.625 40.2714,-80.754633 101.5942,-179.100883 132.25,-202.781373 -8.4146,1.82187 -17.4339,-1.83013 -25.25,-2.43738 l -3,0 c -13.2233,-0.60725 -25.856,8.49687 -40.2812,29.75 -34.338,51.624 -80.83,148.937373 -120.1875,224.562503 -0.9543,0.49275 -1.8275,1.29962 -2.4375,2.53125 -12.6229,24.89387 -31.2358,62.52912 -45.0625,79.53125 -15.0258,18.215617 -33.6881,30.973867 -54.125,27.937497 l -4.1875,-0.59375 c 23.4432,-15.78463 41.4552,-43.725877 42.6562,-67.406247 1.2019,-26.71675 -12.0085,-48.5813797 -21.625,-71.65625 -9.017,-21.8575 -15.0265,-63.7685 12.625,-77.125 6.0088,-3.03638 13.2081,-1.80613 19.2188,0.625 10.8175,5.46462 13.2266,-4.84788 2.4062,-10.312503 -6.0107,-3.0355 -13.2008,-4.277 -22.2187,-3.0625 -21.0365,3.0355 -39.0888,28.538373 -49.9063,52.218753 -15.6301,34.6095 -35.4598,74.09475 -51.6875,105.0625 -13.1583,0.5535 -23.1898,18.396 -23.3125,37.65625 -12.7489,17.833747 -26.0594,31.454117 -36.7812,30.937497 -7.8141,0 -10.84,-11.51138 -6.0313,-36.406247 7.8141,-37.03963 43.2834,-100.81425 55.9063,-113.5625 -8.4166,1.819 -17.4369,-1.82913 -25.25,-2.4375 -19.235,-1.2135 -27.6517,13.37475 -40.875,38.8750003 -15.6272,29.7532497 -32.4626,59.4968697 -53.5,84.9999997 -28.2491,34.003247 -61.292,38.876367 -55.2813,-3.625 3.6078,-23.075 19.8153,-52.84275 24.625,-61.34375 21.6399,-35.82325 52.9187,-71.63138 79.9688,-86.8125 22.2393,-12.14388 44.4825,-7.3095 51.0937,15.15625 10.217,1.82 15.0083,-8.48438 6.5938,-17.59375 -34.2637,-37.646003 -103.3724,-15.17313 -139.4375,27.9375 -22.2955,26.9966203 -36.3399,53.76662 -43.8438,77.8125 -8.5437,15.86562 -19.6497,35.08575 -31.9062,52.71875 -31.8569,44.932497 -79.9393,34.610867 -61.9063,-38.25 3.6068,-15.18225 9.6207,-29.73863 12.625,-40.0625 58.905,-54.03888 95.5702,-119.615383 123.2188,-182.156253 43.2787,-97.1495 -21.6353,-105.66087 -64.3125,-33.40625 -34.8612,58.89725 -72.7415,146.339253 -91.375,214.343753 -0.092,0.32775 -0.2177,0.78975 -0.3125,1.125 -0.975,1.20737 -1.895,2.654 -2.6875,4.34375 -13.2233,30.3615 -33.6478,61.93312 -52.2813,86.218747 -47.4869,59.50537 -107.0085,74.6775 -88.375,-27.937497 10.8204,-59.5045 45.0898,-124.46738 78.75,-162.71875 34.8632,-38.254253 2.9858,-87.433633 -34.2812,-17.000003 -31.8578,59.504503 -95.5565,138.424753 -157.4688,191.250003 C 985.00414,183.11746 889.41465,155.80109 950.72542,0.96709333 972.36429,-53.071787 1016.2438,-121.06616 1037.8817,-152.03291 c 56.502,18.21562 113.6083,20.04075 181.5312,13.96875 140.0522,-12.75013 186.9375,-76.51862 186.9375,-120.84375 0,-44.9305 -39.0598,-77.125 -103.375,-77.125 z m 1.8125,15.81238 c 43.8792,0 76.9375,18.20725 76.9375,54.03137 0,60.11075 -62.5347,105.03025 -162.3125,113.53125 -76.3375,6.67825 -125.0227,3.649 -171.9062,-11.53125 67.3195,-81.363 144.8806,-156.03137 257.2812,-156.03137 z m 199.3125,97.78137 c 8.7736,-0.97563 3.297,27.67475 -5.1562,47.3125 -23.4433,56.469 -66.729,128.127883 -109.4063,171.8437533 18.6335,-48.5751303 65.5149,-157.2602533 94.9688,-199.1562533 9.636,-13.87988 15.8893,-19.58813 19.5937,-20 z m 234.6563,161.468753 c -4.8097,27.32213 9.6178,77.12075 7.8125,115.375 -1.8025,32.18138 -13.2142,52.804127 -26.4375,63.124997 -13.8248,-6.67913 -26.452,-23.677867 -25.25,-46.749997 0.5254,-17.53112 -9.5397,-19.24825 -12.0625,-19.40625 5.831,-10.93475 10.9456,-21.29275 15.0625,-29.75 0.4458,-0.90075 0.8056,-1.75775 1.0937,-2.5625 13.3147,-26.3152497 28.7473,-57.73812 39.7813,-80.03125 z m -52.9063,138.4375 c 1.202,23.074997 11.4397,37.638497 24.0625,45.531247 -3.6078,1.82188 -7.8249,2.4375 -12.0312,2.4375 -23.4423,0 -31.2663,-28.538497 -12.0313,-47.968747 z"
       id="path246"
       style="fill:#f37920;fill-opacity:1;fill-rule:nonzero;stroke:none" />
    <path
       d="m 1350.4129,-157.18916 c -25.8656,0 -53.5312,14.1755 -53.5312,43.75 0,27.144253 21.4637,35.421123 42.7187,41.093753 21.054,5.67062 42.5,8.30912 42.5,23.90625 0,2.31057 -0.4202,4.34657 -1.1562,6.125 -0.1472,0.35569 -0.2963,0.69533 -0.4688,1.03125 -4.4848,8.73395 -17.2902,10.875 -26.25,10.875 -8.4218,0 -16.3412,-1.87719 -22.1562,-6.15625 -0.3635,-0.26744 -0.7159,-0.52614 -1.0625,-0.8125 -5.199,-4.29546 -8.4688,-10.72949 -8.4688,-19.75 l -30.4687,0 c -0.4003,35.65112 29.2887,51.4375003 60.9687,51.4375003 38.8985,0 59.5313,-19.8388703 59.5313,-46.3750003 0,-2.05099 -0.1063,-4.02278 -0.3438,-5.875 -0.1187,-0.92611 -0.2643,-1.80906 -0.4375,-2.6875 -5.0234,-25.47474 -32.2685,-31.20646 -41.7187,-33.59375 -35.8902,-9.317253 -42.7188,-10.734003 -42.7188,-21.875003 0,-12.1535 11.6297,-16.40625 21.6563,-16.40625 15.0383,0 27.2775,4.455 28.2812,21.875 l 30.4688,0 c 0,-33.42312 -27.4672,-46.5625 -57.3438,-46.5625 z m -892.74998,3.4375 0,144.6250033 29.46875,0 0,-101.5000033 0.40625,0 35.09375,101.5000033 24.25,0 35.09375,-102.5000033 0.40625,0 0,102.5000033 29.46875,0 0,-144.6250033 -44.3125,0 -31.6875,99.437503 -0.375,0 -33.5,-99.437503 -44.3125,0 z m 273.125,0 -54.34375,144.6250033 31.875,0 11.21875,-32.2187503 53.5625,0 10.8125,32.2187503 32.6875,0 -53.53125,-144.6250033 -32.28125,0 z m 150.40625,0 0,144.6250033 31.46875,0 0,-144.6250033 -31.46875,0 z m 111.28125,0 0,144.6250033 29.46878,0 0,-96.8437533 0.4062,0 59.5625,96.8437533 31.4688,0 0,-144.6250033 -29.4688,0 0,97.031253 -0.4062,0 -59.75,-97.031253 -31.28128,0 z m 479.65618,0 0,26.71875 42.9376,0 0,117.9062533 31.4687,0 0,-117.9062533 42.9063,0 0,-26.71875 -117.3126,0 z m 185.9063,0 0,144.6250033 31.4688,0 0,-56.5312503 31.5,0 c 15.839,0 21.639,6.68212 23.8437,21.875 1.5049,10.82461 1.2442,23.78651 4.3438,32.875 0.2066,0.6059 0.4495,1.2115503 0.6875,1.7812503 l 31.4687,0 c -0.1755,-0.25321 -0.3357,-0.51114 -0.5,-0.78125 -5.0937,-8.3732803 -4.9155,-24.6383503 -5.5,-33.4687503 -1.0018,-14.58363 -5.4353,-29.76075 -20.875,-33.8125 l 0,-0.40625 c 15.84,-6.482 22.6563,-19.23425 22.6563,-36.250003 0,-21.87587 -16.2399,-39.90625 -41.9063,-39.90625 l -77.1875,0 z m 196.9063,0 0,144.6250033 108.6875,0 0,-26.7500003 -77.1875,0 0,-35.4375 69.375,0 0,-24.71875 -69.375,0 0,-31.000003 75.5937,0 0,-26.71875 -107.0937,0 z m 182.0937,0 0,144.6250033 108.6875,0 0,-26.7500003 -77.2188,0 0,-35.4375 69.4063,0 0,-24.71875 -69.4063,0 0,-31.000003 75.5938,0 0,-26.71875 -107.0625,0 z m 170.8437,0 0,26.71875 42.9063,0 0,117.9062533 31.5,0 0,-117.9062533 42.9063,0 0,-26.71875 -117.3126,0 z m -518.3749,24.6875 34.5,0 c 14.0375,0 21.6562,6.08612 21.6562,20.0625 0,14.584623 -7.6187,20.656253 -21.6562,20.656253 l -34.5,0 0,-40.718753 z m -943.09378,10.96875 0.40625,0 18.0625,53.062503 -37.09375,0 18.625,-53.062503 z"
       id="path3502"
       style="fill:#ffffff;fill-opacity:1;fill-rule:nonzero;stroke:none" />
  </g>
</svg>
