<?xml version="1.0" encoding="UTF-8" standalone="no"?>
<!-- Created with Inkscape (http://www.inkscape.org/) -->

<svg
   xmlns:dc="http://purl.org/dc/elements/1.1/"
   xmlns:cc="http://creativecommons.org/ns#"
   xmlns:rdf="http://www.w3.org/1999/02/22-rdf-syntax-ns#"
   xmlns:svg="http://www.w3.org/2000/svg"
   xmlns="http://www.w3.org/2000/svg"
   version="1.1"
   width="110.6492"
   height="100.56825"
   id="svg429815">
  <defs
     id="defs429817" />
  <metadata
     id="metadata429820">
    <rdf:RDF>
      <cc:Work
         rdf:about="">
        <dc:format>image/svg+xml</dc:format>
        <dc:type
           rdf:resource="http://purl.org/dc/dcmitype/StillImage" />
        <dc:title></dc:title>
      </cc:Work>
    </rdf:RDF>
  </metadata>
  <g
     transform="translate(-2591.1108,-167.23518)"
     id="layer1">
    <path
       d="m 2605.302,189.39218 -14.1912,65.62625 35.2912,12.785 0,-67.7025 -21.1,-10.70875 z"
       id="path426634"
       style="fill:#f1f1f2;fill-opacity:1;fill-rule:nonzero;stroke:none" />
    <path
       d="m 2647.4999,189.39218 14.1888,65.62625 -35.2863,12.785 0,-67.7025 21.0975,-10.70875 z"
       id="path426638"
       style="fill:#e6e7e8;fill-opacity:1;fill-rule:nonzero;stroke:none" />
    <path
       d="m 2661.6888,255.0183 40.0712,4.67875 -29.23,-62.635 -25.03,-7.66999 14.1888,65.62624 z"
       id="path426642"
       style="fill:#dbdcdd;fill-opacity:1;fill-rule:nonzero;stroke:none" />
    <path
       d="m 2639.5909,167.23518 c -9.5812,0 -17.3962,7.79875 -17.3962,17.41625 0,4.06875 1.0125,7.1875 3.9737,10.61875 l 13.4225,16.2825 13.4225,-16.2825 c 2.9675,-3.43125 3.9763,-6.55 3.9763,-10.61875 0,-9.6175 -7.8163,-17.41625 -17.3988,-17.41625"
       id="path426646"
       style="fill:#a6a8ab;fill-opacity:1;fill-rule:nonzero;stroke:none" />
    <path
       d="m 2652.7862,184.40193 c 0,7.285 -5.91,13.1925 -13.1938,13.1925 -7.2862,0 -13.19,-5.9075 -13.19,-13.1925 0,-7.28375 5.9038,-13.19 13.19,-13.19 7.2838,0 13.1938,5.90625 13.1938,13.19"
       id="path426650"
       style="fill:#ffffff;fill-opacity:1;fill-rule:nonzero;stroke:none" />
    <path
       d="m 2605.302,189.39218 -14.1912,65.62625 35.2912,12.785 0,-67.7025 -21.1,-10.70875 z"
       id="path429979"
       style="fill:#f1f1f2;fill-opacity:1;fill-rule:nonzero;stroke:none" />
    <path
       d="m 2647.4999,189.39218 14.1888,65.62625 -35.2863,12.785 0,-67.7025 21.0975,-10.70875 z"
       id="path429981"
       style="fill:#e6e7e8;fill-opacity:1;fill-rule:nonzero;stroke:none" />
    <path
       d="m 2661.6888,255.0183 40.0712,4.67875 -29.23,-62.635 -25.03,-7.66999 14.1888,65.62624 z"
       id="path429983"
       style="fill:#dbdcdd;fill-opacity:1;fill-rule:nonzero;stroke:none" />
    <path
       d="m 2639.5909,167.23518 c -9.5812,0 -17.3962,7.79875 -17.3962,17.41625 0,4.06875 1.0125,7.1875 3.9737,10.61875 l 13.4225,16.2825 13.4225,-16.2825 c 2.9675,-3.43125 3.9763,-6.55 3.9763,-10.61875 0,-9.6175 -7.8163,-17.41625 -17.3988,-17.41625"
       id="path429985"
       style="fill:#a6a8ab;fill-opacity:1;fill-rule:nonzero;stroke:none" />
    <path
       d="m 2652.7862,184.40193 c 0,7.285 -5.91,13.1925 -13.1938,13.1925 -7.2862,0 -13.19,-5.9075 -13.19,-13.1925 0,-7.28375 5.9038,-13.19 13.19,-13.19 7.2838,0 13.1938,5.90625 13.1938,13.19"
       id="path429987"
       style="fill:#ffffff;fill-opacity:1;fill-rule:nonzero;stroke:none" />
  </g>
</svg>
