<svg id="Layer_1" data-name="Layer 1" xmlns="http://www.w3.org/2000/svg" viewBox="0 0 591.1 591.09"><defs><style>.cls-1{fill:#64d1da;}.cls-2{fill:#ffcd64;}.cls-3{fill:#e24956;}.cls-4{fill:#34b2e3;}.cls-5{fill:#ff912b;}.cls-6{fill:#065280;}.cls-7{fill:#8c103d;}.cls-8,.cls-9{fill:#fff;}.cls-9{fill-rule:evenodd;}</style></defs><title>marketStrat</title><path class="cls-1" d="M54.37,341.67a16.06,16.06,0,0,1,2.9-13.38c4.25-5.68,11.2-9.83,19.56-11.71,8.31-2.13,16.38-1.58,22.75,1.54a15.74,15.74,0,0,1,5.55,24.21l53.71-12.65a141.15,141.15,0,0,1,19.58-112.43l-52.13-40.95c-0.7-1.28-1.16-3-.2-4.29,1.84-2.55,3.64-4.78,7-4.59,1.91,0.11,3.79.61,5.69,0.81,5.78,0.62,10.08-4,8.82-9.73s-5.38-10.66-10.1-14.18c-4.58-3.71-10.46-6.5-16.22-6.32S112,143.48,114,148.94c0.66,1.8,1.61,3.5,2.18,5.32,1,3.25-.71,5.55-2.73,8-1.05,1.25-2.8,1.22-4.21.86L56.41,121.86A296.24,296.24,0,0,0,8.35,365.58l55-13.2A15.92,15.92,0,0,1,54.37,341.67Z"/><path class="cls-2" d="M109.12,135.74a16.07,16.07,0,0,1,12.27-6.07c7.09-.22,14.67,2.62,21.35,8,6.85,5.16,11.45,11.82,13,18.75a15.73,15.73,0,0,1-15.47,19.43L183.64,210a140.66,140.66,0,0,1,100.1-54.8l-0.49-66.29c0.57-1.34,1.59-2.75,3.23-2.83,3.14-.15,6-0.14,8,2.64,1.1,1.56,1.88,3.34,2.91,5,3.12,4.91,9.43,5.37,13.11.83s5-10.85,4.79-16.74c0-5.89-1.44-12.23-5.17-16.63S300,57.26,297,62.23c-1,1.64-1.73,3.44-2.8,5-1.91,2.82-4.78,2.9-7.92,2.82-1.64,0-2.7-1.43-3.29-2.75l-0.75-67A295,295,0,0,0,61.78,114.71l44.54,34.71A15.93,15.93,0,0,1,109.12,135.74Z"/><path class="cls-3" d="M492.84,149.37A16.06,16.06,0,0,1,496,162.68c-1.37,7-5.82,13.72-12.55,19-6.56,5.52-14.07,8.53-21.16,8.48a15.73,15.73,0,0,1-15.5-19.41L403.89,205.5A140.29,140.29,0,0,1,436.42,294a142.21,142.21,0,0,1-1.36,21.31l64.72,14.27c1.18,0.85,2.33,2.17,2,3.78-0.55,3.09-1.2,5.89-4.35,7.19-1.76.73-3.68,1.09-5.48,1.73-5.48,2-7.34,8-3.73,12.6s9.47,7.26,15.25,8.4c5.73,1.36,12.24,1.32,17.36-1.34s6-9,1.81-13c-1.38-1.33-3-2.45-4.27-3.85-2.33-2.49-1.77-5.3-1-8.35,0.41-1.58,2-2.31,3.42-2.6l65.54,14.19A295.87,295.87,0,0,0,523.87,107.9l-43.75,35.7A15.92,15.92,0,0,1,492.84,149.37Z"/><path class="cls-4" d="M181.23,512.86a16.07,16.07,0,0,1-8.65-10.61c-1.79-6.87-.71-14.88,3-22.59,3.51-7.82,9-13.79,15.39-16.82a15.74,15.74,0,0,1,22.39,10.76L237,423.71a141.26,141.26,0,0,1-75.72-85.4L96.79,353.54c-1.44-.25-3-0.94-3.48-2.52-0.85-3-1.47-5.83.8-8.37,1.27-1.42,2.84-2.58,4.18-3.94,4.09-4.14,3.14-10.39-2.11-13s-11.69-2.43-17.38-.95c-5.75,1.27-11.6,4.13-15.06,8.74s-1.51,10.68,4,12.51c1.82,0.6,3.74.92,5.52,1.61,3.18,1.23,3.89,4,4.51,7.09,0.32,1.6-.79,2.95-2,3.82L10.61,374.23A296.23,296.23,0,0,0,171.24,563.75l24-51.21A15.92,15.92,0,0,1,181.23,512.86Z"/><path class="cls-5" d="M304.26,50.15A16.06,16.06,0,0,1,316.65,56c4.59,5.41,7.1,13.1,7.06,21.68,0.23,8.57-2.1,16.32-6.57,21.83a15.73,15.73,0,0,1-24.84,0l0.38,55.22,1.28,0a140.49,140.49,0,0,1,104,44.12l51.54-41.72c1.4-.4,3.14-0.47,4.23.76,2.08,2.36,3.85,4.61,2.91,7.89-0.53,1.83-1.44,3.55-2.06,5.37-1.89,5.5,1.68,10.72,7.52,10.77s11.59-2.88,16.08-6.69c4.63-3.64,8.67-8.75,9.78-14.41s-3.27-10.28-9-9.53c-1.9.25-3.77,0.79-5.67,0.94-3.4.27-5.25-1.93-7.14-4.43-1-1.3-.57-3,0.1-4.29l51.93-42.37A294.87,294.87,0,0,0,292.22,0l-1,0,0.64,56.46A15.91,15.91,0,0,1,304.26,50.15Z"/><path class="cls-6" d="M394.17,520.42a16.06,16.06,0,0,1-13.69.15c-6.49-2.88-12.08-8.73-15.77-16.47-3.93-7.62-5.19-15.61-3.55-22.52a15.73,15.73,0,0,1,22.37-10.8l-24.29-49.55a141.23,141.23,0,0,1-114,6L217,487.1c-1.09,1-2.63,1.79-4.14,1.15-2.89-1.23-5.47-2.48-6-5.84-0.32-1.88-.25-3.83-0.47-5.73-0.69-5.78-6.16-8.93-11.45-6.44s-9.19,7.62-11.58,13c-2.6,5.29-4,11.64-2.56,17.22s7.41,7.84,12.28,4.66c1.61-1,3-2.35,4.7-3.31,2.95-1.72,5.56-.54,8.36.89,1.46,0.75,1.81,2.45,1.77,3.91l-28.42,60.76A296.15,296.15,0,0,0,427.72,560l-25.1-50.65A15.92,15.92,0,0,1,394.17,520.42Z"/><path class="cls-7" d="M532.85,358.64a16.06,16.06,0,0,1-8.42,10.79c-6.3,3.27-14.35,4-22.71,2.06-8.41-1.68-15.44-5.68-19.82-11.26A15.73,15.73,0,0,1,487.41,336L433.52,324.1a141.09,141.09,0,0,1-66.41,92.82l29.19,59.5c0.07,1.45-.24,3.17-1.68,3.95-2.76,1.5-5.35,2.73-8.34,1.08-1.67-.92-3.14-2.19-4.77-3.2-4.94-3.06-10.83-.75-12.17,4.94s0.23,11.93,2.94,17.16c2.51,5.33,6.6,10.39,11.87,12.74s10.75-.9,11.3-6.69c0.18-1.91.07-3.85,0.34-5.74,0.5-3.37,3-4.69,5.91-6,1.49-.67,3,0.12,4.16,1.05l29.78,60.09a296,296,0,0,0,149-198.76l-55.24-12A15.92,15.92,0,0,1,532.85,358.64Z"/><path class="cls-8" d="M453.94,220.64c0-4.84-3.77-8.79-11.34-10.63-0.85-.18-5.07-1.25-5.87-1.48-5.87-1.48-7.53-2.42-7.53-3.95,0-1.7,2.15-3.59,8.07-3.59,4.22,0,8.44,3.15,8.44,3.15,1.66,1.1,2.66,1,4-.28,0,0,1.78-1.51,1.78-2.93,0-2.14-5.08-5.23-10.47-6.31v-3.75a2,2,0,0,0-2.14-1.75h-2.46a2,2,0,0,0-2.14,1.75v3.51c-8.43.84-12.88,5.2-12.88,10.39,0,6.14,5.78,8.56,12.24,10.22,0.85,0.22,5.92,1.48,6.73,1.66,4.75,1.17,5.78,3,5.78,4.13,0,2-2.15,3.9-8.12,3.9-4.21,0-10-3.53-10-3.53-1.57-1-3.07-.75-4.4.8a5,5,0,0,0-1.06,2.77c0,2.26,6,5.24,11.66,6.36v3.76a2,2,0,0,0,2.14,1.74h2.46a2,2,0,0,0,2.14-1.74v-3.55C450,230.37,453.94,225.67,453.94,220.64Z"/><rect class="cls-8" x="318.03" y="130.07" width="5.43" height="13.13" rx="1.48" ry="1.48"/><rect class="cls-8" x="327.03" y="126.46" width="5.44" height="16.74" rx="1.48" ry="1.48"/><rect class="cls-8" x="336.04" y="123.37" width="5.43" height="19.83" rx="1.48" ry="1.48"/><rect class="cls-8" x="345.06" y="120.18" width="5.43" height="23.02" rx="1.48" ry="1.48"/><path class="cls-8" d="M318.72,126.12a80.2,80.2,0,0,0,26.73-10.05l0.74,1.41L349,113l-5.31-.22,0.8,1.53a78.24,78.24,0,0,1-26.13,9.85Z"/><polygon class="cls-8" points="357.01 146.07 352.44 143.42 352.44 145.06 315.65 145.06 315.65 115.63 317.32 115.63 314.64 111 311.97 115.63 313.64 115.63 313.64 145.06 313.64 146.07 313.64 147.07 352.44 147.07 352.44 148.71 357.01 146.07"/><path class="cls-8" d="M200.87,178L191,169.06l2.2-2.19a1.63,1.63,0,0,0,0-2.31l-0.81-.82a17,17,0,1,0-16.21,11.94h0a17,17,0,0,0,4.91-.72l0.81,0.82a1.63,1.63,0,0,0,2.31,0l2.2-2.19,8.84,9.9a1.63,1.63,0,0,0,2.31,0l3.27-3.25A1.63,1.63,0,0,0,200.87,178Zm-24.66-4.1a15.14,15.14,0,1,1,12.12-6.06l-3.12,3.1a15,15,0,0,1-9,3h0Z"/><path class="cls-8" d="M456.74,380.77H435a5.44,5.44,0,0,0-5.43,5.43,1.81,1.81,0,0,0,1.81,1.81h29a1.81,1.81,0,0,0,1.81-1.81A5.43,5.43,0,0,0,456.74,380.77Zm7.91-27.48-13.34-8v-5.61c-10,0-18.11,8.38-18.11,18.72v15l3.62,3.74h18.11l3.62-3.74-5.5-7.89s-3.3-6.62,0-6.2l7.8,1a3.12,3.12,0,0,0,3.4-1.55l1.24-2.22A2.42,2.42,0,0,0,464.64,353.29Z"/><path class="cls-8" d="M346.79,484.78a1.75,1.75,0,0,1-1.75,1.75H334.45a1.75,1.75,0,0,1-1.75-1.75h0a1.75,1.75,0,0,1,1.75-1.75H345a1.75,1.75,0,0,1,1.75,1.75h0Z"/><path class="cls-8" d="M346.79,480.21A1.75,1.75,0,0,1,345,482H334.45a1.75,1.75,0,0,1-1.75-1.75h0a1.75,1.75,0,0,1,1.75-1.75H345a1.75,1.75,0,0,1,1.75,1.75h0Z"/><path class="cls-8" d="M341.42,461h-3.34v16.39h3.34V461Z"/><path class="cls-8" d="M333.92,454.36a2.52,2.52,0,1,0,0,5h2.52v-2.52A2.52,2.52,0,0,0,333.92,454.36Z"/><path class="cls-8" d="M348.1,456.88a2.52,2.52,0,1,0-5,0v2.52h2.52A2.52,2.52,0,0,0,348.1,456.88Z"/><path class="cls-8" d="M353.65,452.32c-1.13-4.47-6.47-9.3-13.9-9.31s-12.77,4.84-13.9,9.31c-0.86,3.4-.07,6.62,1.55,9.76,1.47,2.84,3,5.17,4.27,8.07a31.92,31.92,0,0,1,1.34,5.48c0.3,1.33.8,1.78,2.42,1.79h1V461h-2.52a4.16,4.16,0,1,1,4.16-4.21h0v2.57h3.34v-2.57h0a4.16,4.16,0,1,1,4.16,4.21h-2.52v16.39h1c1.62,0,2.12-.46,2.42-1.79a31.83,31.83,0,0,1,1.33-5.48c1.27-2.91,2.8-5.23,4.27-8.07C353.73,458.94,354.52,455.72,353.65,452.32Z"/><path class="cls-8" d="M341.28,437.82a1.53,1.53,0,0,0-1.53-1.53h0a1.53,1.53,0,0,0-1.53,1.53v2.82a1.53,1.53,0,0,0,1.53,1.53h0a1.53,1.53,0,0,0,1.53-1.53v-2.82Z"/><path class="cls-8" d="M349.76,440.31a1.53,1.53,0,0,0-.61-2.07h0a1.53,1.53,0,0,0-2.07.62l-1.34,2.48a1.53,1.53,0,0,0,.62,2.07h0a1.53,1.53,0,0,0,2.07-.62Z"/><path class="cls-8" d="M356,445.25a1.52,1.52,0,0,0,.13-2.15h0A1.52,1.52,0,0,0,354,443l-2.11,1.87a1.53,1.53,0,0,0-.13,2.16h0a1.53,1.53,0,0,0,2.16.13Z"/><path class="cls-8" d="M359.31,452.75a1.53,1.53,0,0,0,1.23-1.78h0a1.53,1.53,0,0,0-1.78-1.23l-2.78.5a1.53,1.53,0,0,0-1.23,1.78h0a1.53,1.53,0,0,0,1.78,1.23Z"/><path class="cls-8" d="M358.63,460.94a1.53,1.53,0,0,0,1.8-1.19h0a1.53,1.53,0,0,0-1.19-1.8l-2.77-.56a1.53,1.53,0,0,0-1.8,1.19h0a1.53,1.53,0,0,0,1.19,1.8Z"/><path class="cls-8" d="M329.54,440.31a1.53,1.53,0,0,1,.62-2.07h0a1.53,1.53,0,0,1,2.07.62l1.35,2.48a1.53,1.53,0,0,1-.61,2.07h0a1.53,1.53,0,0,1-2.07-.62Z"/><path class="cls-8" d="M323.28,445.25a1.52,1.52,0,0,1-.13-2.15h0a1.52,1.52,0,0,1,2.16-.13l2.11,1.87a1.53,1.53,0,0,1,.13,2.16h0a1.53,1.53,0,0,1-2.16.13Z"/><path class="cls-8" d="M320,452.75a1.53,1.53,0,0,1-1.23-1.78h0a1.53,1.53,0,0,1,1.78-1.23l2.78,0.5a1.53,1.53,0,0,1,1.23,1.78h0a1.53,1.53,0,0,1-1.77,1.23Z"/><path class="cls-8" d="M320.67,460.94a1.53,1.53,0,0,1-1.8-1.19h0a1.53,1.53,0,0,1,1.19-1.8l2.77-.56a1.53,1.53,0,0,1,1.8,1.19h0a1.53,1.53,0,0,1-1.19,1.8Z"/><path class="cls-9" d="M121.87,294.39l-13.42,13.4a19.29,19.29,0,0,1,.65-26.69l0.19-.2,0.16-.15a19,19,0,0,1,12.42-5.35v19h0Zm21-14.81L126.68,295.8,142.91,312c0.12-.13.27-0.25,0.39-0.38a22.89,22.89,0,0,0,0-31.68c-0.12-.13-0.27-0.25-0.39-0.38h0Zm-34,33.27c0.13,0.13.24,0.27,0.38,0.4a22.9,22.9,0,0,0,15.84,6.36c0.26,0,.52,0,0.78,0a22.87,22.87,0,0,0,15.44-6.72l-16.23-16.22-16.22,16.22h0Zm17.64-41.35a23.17,23.17,0,0,1,15.56,6.72L126,294.44v-23s0.3,0,.56,0h0Zm-2.62,2h-1.13a21.18,21.18,0,0,0-14.72,5.86l-0.23.21-0.14.13a21.25,21.25,0,0,0,0,30.15l0.77,0.69,15.44-15.36V273.52Z"/><path class="cls-8" d="M180.8,420.19a4.29,4.29,0,1,1-4.29-4.32,4.3,4.3,0,0,1,4.29,4.32h0Zm27.74,9.39-17-4.85v-4.25l17-4.85v14Zm-20.61-4.85h2.42v-4.25h-2.42v4.25Zm25.94,4.73a9.71,9.71,0,0,0-.19-13.76l-0.7.71a8.76,8.76,0,0,1,.19,12.35Zm-0.5-6.8a6.3,6.3,0,0,1-1.84,4.46l0.72,0.72a7.4,7.4,0,0,0,2.11-5.18,7.31,7.31,0,0,0-2.32-5.33l-0.7.71a6.32,6.32,0,0,1,2,4.63h0Zm-2.34,0a4,4,0,0,1-1.15,2.8l0.72,0.72a5.06,5.06,0,0,0-.19-7.23l-0.72.72a4,4,0,0,1,1.34,3h0Zm-28.77,3.2a1.51,1.51,0,0,0-.48-0.07H180.3l-2.77,5.59v-2.74a0.94,0.94,0,0,0-.93-0.95H176.4a0.94,0.94,0,0,0-.93.95v2.74l-2.77-5.59h-1.53A4.15,4.15,0,0,0,167,430v14.55a0.94,0.94,0,0,0,.93.95h1.46a1,1,0,0,0,.93-0.95V432.76h1v31a0.93,0.93,0,0,0,.93.93h2.8a0.94,0.94,0,0,0,.93-0.93V445.46h1v18.31a0.94,0.94,0,0,0,.94.93h2.78a0.93,0.93,0,0,0,.93-0.93V444.51l0.09-12a1.28,1.28,0,0,1,1.17-.74,1.14,1.14,0,0,1,.43.07l4.17,3,0.09,0.05a1.59,1.59,0,0,0,.84.36,1.7,1.7,0,0,0,.65.14,1.66,1.66,0,0,0,1.67-1.65v-0.08l0-7.55a1,1,0,0,0-.94-0.95h-1.44a0.92,0.92,0,0,0-.93.93v4l-3.61-3.58,0,0,0,0a1.87,1.87,0,0,0-.55-0.38,2.45,2.45,0,0,0-1-.22h0Zm-6.94-.07v0.26a1.07,1.07,0,0,0,1.06,1.07h0.24a1.06,1.06,0,0,0,1.06-1.07v-0.26h-2.37Zm1.7,12.84a0.52,0.52,0,0,1-.52.52,0.51,0.51,0,0,1-.52-0.52,0.52,0.52,0,0,1,.52-0.52,0.53,0.53,0,0,1,.52.52h0Zm0-3.06a0.53,0.53,0,0,1-.52.52,0.52,0.52,0,0,1-.52-0.52,0.51,0.51,0,0,1,.52-0.52,0.52,0.52,0,0,1,.52.52h0Z"/><rect class="cls-5" x="227.85" y="307.08" width="24.78" height="10.15"/><rect class="cls-2" x="203.07" y="307.08" width="24.78" height="10.15"/><rect class="cls-3" x="252.6" y="307.08" width="24.78" height="10.15"/><rect class="cls-7" x="277.36" y="307.08" width="24.78" height="10.15"/><rect class="cls-6" x="302.11" y="307.08" width="24.78" height="10.15"/><rect class="cls-4" x="326.86" y="307.08" width="24.78" height="10.15"/><rect class="cls-1" x="351.61" y="307.08" width="24.78" height="10.15"/></svg>