<svg id="Layer_1" data-name="Layer 1" xmlns="http://www.w3.org/2000/svg" viewBox="0 0 591.1 591.09"><defs><style>.cls-1{fill:#6ccbd5;}.cls-2{fill:#ffcd66;}.cls-3{fill:#e14a56;}.cls-4{fill:#37b2e1;}.cls-5{fill:#f79132;}.cls-6{fill:#055380;}.cls-7{fill:#8c183f;}.cls-10,.cls-11,.cls-8,.cls-9{fill:#fff;}.cls-9{font-size:12px;}.cls-10,.cls-13,.cls-9{font-family:Myriad Pro;}.cls-10{font-size:18px;}.cls-10,.cls-12{font-weight:700;}.cls-11{fill-rule:evenodd;}.cls-12{font-size:67.63px;fill:#0b182d;font-family:Century Gothic;letter-spacing:20px;}.cls-13{font-size:15.5px;fill:#010101;}</style></defs><title>marketStrat2</title><path class="cls-1" d="M54.37,341.67a16.06,16.06,0,0,1,2.9-13.38c4.25-5.68,11.2-9.83,19.56-11.71,8.31-2.13,16.38-1.58,22.75,1.54a15.74,15.74,0,0,1,5.55,24.21l53.71-12.65a141.15,141.15,0,0,1,19.58-112.43l-52.13-40.95c-0.7-1.28-1.16-3-.2-4.29,1.84-2.55,3.64-4.78,7-4.59,1.91,0.11,3.79.61,5.69,0.81,5.78,0.62,10.08-4,8.82-9.73s-5.38-10.66-10.1-14.18c-4.58-3.71-10.46-6.5-16.22-6.32S112,143.48,114,148.94c0.66,1.8,1.61,3.5,2.18,5.32,1,3.25-.71,5.55-2.73,8-1.05,1.25-2.8,1.22-4.21.86L56.41,121.86A296.24,296.24,0,0,0,8.35,365.58l55-13.2A15.92,15.92,0,0,1,54.37,341.67Z"/><path class="cls-2" d="M109.12,135.74a16.07,16.07,0,0,1,12.27-6.07c7.09-.22,14.67,2.62,21.35,8,6.85,5.16,11.45,11.82,13,18.75a15.73,15.73,0,0,1-15.47,19.43L183.64,210a140.66,140.66,0,0,1,100.1-54.8l-0.49-66.29c0.57-1.34,1.59-2.75,3.23-2.83,3.14-.15,6-0.14,8,2.64,1.1,1.56,1.88,3.34,2.91,5,3.12,4.91,9.43,5.37,13.11.83s5-10.85,4.79-16.74c0-5.89-1.44-12.23-5.17-16.63S300,57.26,297,62.23c-1,1.64-1.73,3.44-2.8,5-1.91,2.82-4.78,2.9-7.92,2.82-1.64,0-2.7-1.43-3.29-2.75l-0.75-67A295,295,0,0,0,61.78,114.71l44.54,34.71A15.93,15.93,0,0,1,109.12,135.74Z"/><path class="cls-3" d="M492.84,149.37A16.06,16.06,0,0,1,496,162.68c-1.37,7-5.82,13.72-12.55,19-6.56,5.52-14.07,8.53-21.16,8.48a15.73,15.73,0,0,1-15.5-19.41L403.89,205.5A140.29,140.29,0,0,1,436.42,294a142.21,142.21,0,0,1-1.36,21.31l64.72,14.27c1.18,0.85,2.33,2.17,2,3.78-0.55,3.09-1.2,5.89-4.35,7.19-1.76.73-3.68,1.09-5.48,1.73-5.48,2-7.34,8-3.73,12.6s9.47,7.26,15.25,8.4c5.73,1.36,12.24,1.32,17.36-1.34s6-9,1.81-13c-1.38-1.33-3-2.45-4.27-3.85-2.33-2.49-1.77-5.3-1-8.35,0.41-1.58,2-2.31,3.42-2.6l65.54,14.19A295.87,295.87,0,0,0,523.87,107.9l-43.75,35.7A15.92,15.92,0,0,1,492.84,149.37Z"/><path class="cls-4" d="M181.23,512.86a16.07,16.07,0,0,1-8.65-10.61c-1.79-6.87-.71-14.88,3-22.59,3.51-7.82,9-13.79,15.39-16.82a15.74,15.74,0,0,1,22.39,10.76L237,423.71a141.26,141.26,0,0,1-75.72-85.4L96.79,353.54c-1.44-.25-3-0.94-3.48-2.52-0.85-3-1.47-5.83.8-8.37,1.27-1.42,2.84-2.58,4.18-3.94,4.09-4.14,3.14-10.39-2.11-13s-11.69-2.43-17.38-.95c-5.75,1.27-11.6,4.13-15.06,8.74s-1.51,10.68,4,12.51c1.82,0.6,3.74.92,5.52,1.61,3.18,1.23,3.89,4,4.51,7.09,0.32,1.6-.79,2.95-2,3.82L10.61,374.23A296.23,296.23,0,0,0,171.24,563.75l24-51.21A15.92,15.92,0,0,1,181.23,512.86Z"/><path class="cls-5" d="M304.26,50.15A16.06,16.06,0,0,1,316.65,56c4.59,5.41,7.1,13.1,7.06,21.68,0.23,8.57-2.1,16.32-6.57,21.83a15.73,15.73,0,0,1-24.84,0l0.38,55.22,1.28,0a140.49,140.49,0,0,1,104,44.12l51.54-41.72c1.4-.4,3.14-0.47,4.23.76,2.08,2.36,3.85,4.61,2.91,7.89-0.53,1.83-1.44,3.55-2.06,5.37-1.89,5.5,1.68,10.72,7.52,10.77s11.59-2.88,16.08-6.69c4.63-3.64,8.67-8.75,9.78-14.41s-3.27-10.28-9-9.53c-1.9.25-3.77,0.79-5.67,0.94-3.4.27-5.25-1.93-7.14-4.43-1-1.3-.57-3,0.1-4.29l51.93-42.37A294.87,294.87,0,0,0,292.22,0l-1,0,0.64,56.46A15.91,15.91,0,0,1,304.26,50.15Z"/><path class="cls-6" d="M394.17,520.42a16.06,16.06,0,0,1-13.69.15c-6.49-2.88-12.08-8.73-15.77-16.47-3.93-7.62-5.19-15.61-3.55-22.52a15.73,15.73,0,0,1,22.37-10.8l-24.29-49.55a141.23,141.23,0,0,1-114,6L217,487.1c-1.09,1-2.63,1.79-4.14,1.15-2.89-1.23-5.47-2.48-6-5.84-0.32-1.88-.25-3.83-0.47-5.73-0.69-5.78-6.16-8.93-11.45-6.44s-9.19,7.62-11.58,13c-2.6,5.29-4,11.64-2.56,17.22s7.41,7.84,12.28,4.66c1.61-1,3-2.35,4.7-3.31,2.95-1.72,5.56-.54,8.36.89,1.46,0.75,1.81,2.45,1.77,3.91l-28.42,60.76A296.15,296.15,0,0,0,427.72,560l-25.1-50.65A15.92,15.92,0,0,1,394.17,520.42Z"/><path class="cls-7" d="M532.85,358.64a16.06,16.06,0,0,1-8.42,10.79c-6.3,3.27-14.35,4-22.71,2.06-8.41-1.68-15.44-5.68-19.82-11.26A15.73,15.73,0,0,1,487.41,336L433.52,324.1a141.09,141.09,0,0,1-66.41,92.82l29.19,59.5c0.07,1.45-.24,3.17-1.68,3.95-2.76,1.5-5.35,2.73-8.34,1.08-1.67-.92-3.14-2.19-4.77-3.2-4.94-3.06-10.83-.75-12.17,4.94s0.23,11.93,2.94,17.16c2.51,5.33,6.6,10.39,11.87,12.74s10.75-.9,11.3-6.69c0.18-1.91.07-3.85,0.34-5.74,0.5-3.37,3-4.69,5.91-6,1.49-.67,3,0.12,4.16,1.05l29.78,60.09a296,296,0,0,0,149-198.76l-55.24-12A15.92,15.92,0,0,1,532.85,358.64Z"/><path class="cls-8" d="M99.26,101.3q0-8.07,2.62-12.16a8.53,8.53,0,0,1,7.65-4.08q5.43,0,7.87,4t2.44,12.22q0,8.07-2.62,12.16a8.57,8.57,0,0,1-7.69,4.08,8.36,8.36,0,0,1-7.81-4.26Q99.27,109,99.26,101.3Zm3.72,0a33.9,33.9,0,0,0,.38,5.32,15.51,15.51,0,0,0,1.19,4.13,7.2,7.2,0,0,0,2,2.69,4.62,4.62,0,0,0,2.94,1,5.26,5.26,0,0,0,5-3.16q1.59-3.16,1.59-9.94A38.64,38.64,0,0,0,115.8,96a15.38,15.38,0,0,0-1.12-4.17,6.72,6.72,0,0,0-2-2.69,5,5,0,0,0-3.1-.94,5.22,5.22,0,0,0-5,3.18Q103,94.57,103,101.3Z"/><path class="cls-8" d="M126.63,113.68h6.28V92l0.45-2.65-1.79,2.11L126.63,95l-1.71-2.29,9.87-7.63h1.61v28.62h6.15V117H126.63v-3.32Z"/><path class="cls-8" d="M314.2,29.17q0-8.07,2.62-12.16a8.53,8.53,0,0,1,7.65-4.08q5.43,0,7.87,4t2.45,12.22q0,8.08-2.62,12.16a8.58,8.58,0,0,1-7.69,4.08,8.36,8.36,0,0,1-7.81-4.26Q314.2,36.89,314.2,29.17Zm3.72,0a34,34,0,0,0,.38,5.32,15.48,15.48,0,0,0,1.19,4.13,7.2,7.2,0,0,0,2,2.69,4.62,4.62,0,0,0,2.94,1,5.26,5.26,0,0,0,5-3.16q1.59-3.17,1.59-9.94a38.72,38.72,0,0,0-.34-5.29,15.35,15.35,0,0,0-1.12-4.17,6.71,6.71,0,0,0-2-2.69,5,5,0,0,0-3.1-.94,5.22,5.22,0,0,0-5,3.18Q317.92,22.44,317.92,29.17Z"/><path class="cls-8" d="M356.73,20.6a14.64,14.64,0,0,1-.87,4.87,31.6,31.6,0,0,1-2.29,5,50.31,50.31,0,0,1-3.16,4.91q-1.75,2.4-3.5,4.55l-2.2,1.93V42l2.87-.49h9.78v3.32H339.5v-1.3q1-1,2.38-2.56t2.89-3.39q1.5-1.86,3-3.95a47.29,47.29,0,0,0,2.65-4.24,26.52,26.52,0,0,0,1.91-4.26,12.42,12.42,0,0,0,.72-4,5.41,5.41,0,0,0-1.26-3.66,4.76,4.76,0,0,0-3.81-1.46,8.33,8.33,0,0,0-3.32.69,12.79,12.79,0,0,0-2.78,1.59l-1.48-2.56a11.62,11.62,0,0,1,3.72-2.11,13.73,13.73,0,0,1,4.62-.76,9.63,9.63,0,0,1,3.41.56,7,7,0,0,1,2.51,1.59,6.86,6.86,0,0,1,1.57,2.45A8.56,8.56,0,0,1,356.73,20.6Z"/><path class="cls-8" d="M503.46,174.93q0-8.07,2.62-12.16a8.53,8.53,0,0,1,7.65-4.08q5.43,0,7.87,4T524,174.93q0,8.08-2.62,12.16a8.58,8.58,0,0,1-7.69,4.08,8.36,8.36,0,0,1-7.81-4.26Q503.46,182.65,503.46,174.93Zm3.72,0a33.94,33.94,0,0,0,.38,5.32,15.48,15.48,0,0,0,1.19,4.13,7.18,7.18,0,0,0,2,2.69,4.62,4.62,0,0,0,2.94,1,5.26,5.26,0,0,0,5-3.16q1.59-3.16,1.59-9.94a38.55,38.55,0,0,0-.34-5.29,15.39,15.39,0,0,0-1.12-4.17,6.73,6.73,0,0,0-2-2.69,5,5,0,0,0-3.1-.94,5.22,5.22,0,0,0-5,3.19Q507.18,168.2,507.18,174.93Z"/><path class="cls-8" d="M536.48,188a8.64,8.64,0,0,0,2.83-.45,6.18,6.18,0,0,0,3.72-3.41,6.45,6.45,0,0,0,.54-2.64,5.68,5.68,0,0,0-1.86-4.67,7.88,7.88,0,0,0-5.14-1.53h-3.32V174l6.46-10,2.06-2-2.92.45H530v-3.32h16v1.3l-7.13,10.72-1.57,1.3v0.09l1.53-.31a9.51,9.51,0,0,1,3.32.65,7.56,7.56,0,0,1,2.65,1.75,8.14,8.14,0,0,1,1.75,2.74,9.8,9.8,0,0,1,.63,3.61,10.34,10.34,0,0,1-.85,4.31,9.16,9.16,0,0,1-2.31,3.16,10,10,0,0,1-3.43,2,12.77,12.77,0,0,1-4.17.67,19.06,19.06,0,0,1-3.63-.31,15.28,15.28,0,0,1-2.83-.81l0.94-3.18a12.27,12.27,0,0,0,2.44.83A13.73,13.73,0,0,0,536.48,188Z"/><path class="cls-8" d="M504.68,398q0-8.07,2.62-12.16a8.54,8.54,0,0,1,7.65-4.08q5.43,0,7.87,4T525.27,398q0,8.08-2.62,12.16a8.58,8.58,0,0,1-7.69,4.08,8.36,8.36,0,0,1-7.81-4.26Q504.68,405.73,504.68,398Zm3.72,0a34,34,0,0,0,.38,5.32,15.54,15.54,0,0,0,1.19,4.13,7.19,7.19,0,0,0,2,2.69,4.62,4.62,0,0,0,2.94,1,5.26,5.26,0,0,0,5-3.16q1.59-3.16,1.59-9.94a38.55,38.55,0,0,0-.34-5.29,15.35,15.35,0,0,0-1.12-4.17,6.71,6.71,0,0,0-2-2.69,5,5,0,0,0-3.1-.94,5.22,5.22,0,0,0-5,3.18Q508.4,391.29,508.4,398Z"/><path class="cls-8" d="M550.71,404.07h-5.29v9.64h-3.5v-9.64H528.1v-1.48L543,381.82h2.42v19.11h5.29v3.14Zm-8.79-12.92,0.45-3.68h-0.13l-1.57,3.05-6.32,8.57-2.15,2.2,3.14-.36h6.59v-9.78Z"/><path class="cls-8" d="M341.86,548.55q0-8.07,2.62-12.16a8.53,8.53,0,0,1,7.65-4.08q5.43,0,7.87,4t2.45,12.22q0,8.08-2.62,12.16a8.58,8.58,0,0,1-7.69,4.08,8.36,8.36,0,0,1-7.81-4.26Q341.86,556.27,341.86,548.55Zm3.72,0a33.93,33.93,0,0,0,.38,5.32,15.55,15.55,0,0,0,1.19,4.13,7.23,7.23,0,0,0,2,2.69,4.62,4.62,0,0,0,2.94,1,5.26,5.26,0,0,0,5-3.16q1.59-3.16,1.59-9.94a38.8,38.8,0,0,0-.34-5.29,15.39,15.39,0,0,0-1.12-4.17,6.7,6.7,0,0,0-2-2.69,5,5,0,0,0-3.1-.94,5.23,5.23,0,0,0-5,3.18Q345.58,541.82,345.58,548.55Z"/><path class="cls-8" d="M373.93,561.65a7.41,7.41,0,0,0,5.11-1.79,6.6,6.6,0,0,0,2-5.2,5.92,5.92,0,0,0-2-4.89,8.51,8.51,0,0,0-5.5-1.62l-3.77.23V532.85h14v3.32H373.17v8.92l1.93-.09a9.91,9.91,0,0,1,7,2.47q2.56,2.42,2.56,7a11,11,0,0,1-.85,4.46,9.27,9.27,0,0,1-2.31,3.25,9.9,9.9,0,0,1-3.43,2,13,13,0,0,1-4.22.67,22.16,22.16,0,0,1-3.41-.22,13.91,13.91,0,0,1-2.6-.67l0.94-3a11.27,11.27,0,0,0,2.22.6A17.93,17.93,0,0,0,373.93,561.65Z"/><path class="cls-8" d="M118.43,505q0-8.07,2.62-12.16a8.53,8.53,0,0,1,7.65-4.08q5.43,0,7.87,4T139,505q0,8.07-2.62,12.16a8.58,8.58,0,0,1-7.69,4.08,8.36,8.36,0,0,1-7.81-4.26Q118.44,512.68,118.43,505Zm3.72,0a33.94,33.94,0,0,0,.38,5.32,15.49,15.49,0,0,0,1.19,4.13,7.2,7.2,0,0,0,2,2.69,4.63,4.63,0,0,0,2.94,1,5.26,5.26,0,0,0,5-3.16q1.59-3.16,1.59-9.94a38.61,38.61,0,0,0-.34-5.29,15.37,15.37,0,0,0-1.12-4.17,6.71,6.71,0,0,0-2-2.69,5,5,0,0,0-3.1-.94,5.22,5.22,0,0,0-5,3.18Q122.16,498.24,122.16,505Z"/><path class="cls-8" d="M163,511.2a11.81,11.81,0,0,1-.63,3.88,9.37,9.37,0,0,1-1.84,3.18,8.47,8.47,0,0,1-3,2.15,10.09,10.09,0,0,1-4.08.79,10.79,10.79,0,0,1-4-.72,8.36,8.36,0,0,1-3.09-2.13,9.55,9.55,0,0,1-2-3.48,14.88,14.88,0,0,1-.69-4.75,27.94,27.94,0,0,1,1.14-8.19,22,22,0,0,1,3.16-6.53,17.07,17.07,0,0,1,4.78-4.51,15.07,15.07,0,0,1,6-2.18l0.76,2.87a13.21,13.21,0,0,0-4.58,1.7,14.65,14.65,0,0,0-3.61,3.1,16.48,16.48,0,0,0-2.53,4.13,18.8,18.8,0,0,0-1.35,4.71,6.67,6.67,0,0,1,2.42-2.22,8.06,8.06,0,0,1,4.17-1,8.9,8.9,0,0,1,6.62,2.42A9.21,9.21,0,0,1,163,511.2Zm-3.72.36a6.89,6.89,0,0,0-1.48-4.8,5.92,5.92,0,0,0-4.58-1.61,6.61,6.61,0,0,0-3.79,1.08,6.14,6.14,0,0,0-2.22,2.42,7.5,7.5,0,0,0-.09,1v0.9a10,10,0,0,0,.38,2.74,7.08,7.08,0,0,0,1.19,2.4,6.29,6.29,0,0,0,2,1.7,5.74,5.74,0,0,0,2.8.65,5.49,5.49,0,0,0,2.36-.49,5.62,5.62,0,0,0,1.82-1.35,6.12,6.12,0,0,0,1.19-2.06A7.78,7.78,0,0,0,159.3,511.56Z"/><path class="cls-8" d="M8,318.3q0-8.07,2.62-12.16a8.53,8.53,0,0,1,7.65-4.08q5.43,0,7.87,4t2.44,12.22q0,8.07-2.62,12.16a8.58,8.58,0,0,1-7.69,4.08,8.36,8.36,0,0,1-7.81-4.26Q8,326,8,318.3Zm3.72,0a33.94,33.94,0,0,0,.38,5.32,15.5,15.5,0,0,0,1.19,4.13,7.21,7.21,0,0,0,2,2.69,4.63,4.63,0,0,0,2.94,1,5.26,5.26,0,0,0,5-3.16q1.59-3.16,1.59-9.94a38.65,38.65,0,0,0-.34-5.29,15.33,15.33,0,0,0-1.12-4.17,6.71,6.71,0,0,0-2-2.69,5,5,0,0,0-3.1-.94,5.22,5.22,0,0,0-5,3.18Q11.77,311.58,11.77,318.3Z"/><path class="cls-8" d="M35.5,334l11.26-26.29,2-2.2-2.65.4H33.3V302.6H52v1.21L39.09,334H35.5Z"/><path class="cls-8" d="M453.94,220.64c0-4.84-3.77-8.79-11.34-10.63-0.85-.18-5.07-1.25-5.87-1.48-5.87-1.48-7.53-2.42-7.53-3.95,0-1.7,2.15-3.59,8.07-3.59,4.22,0,8.44,3.15,8.44,3.15,1.66,1.1,2.66,1,4-.28,0,0,1.78-1.51,1.78-2.93,0-2.14-5.08-5.23-10.47-6.31v-3.75a2,2,0,0,0-2.14-1.75h-2.46a2,2,0,0,0-2.14,1.75v3.51c-8.43.84-12.88,5.2-12.88,10.39,0,6.14,5.78,8.56,12.24,10.22,0.85,0.22,5.92,1.48,6.73,1.66,4.75,1.17,5.78,3,5.78,4.13,0,2-2.15,3.9-8.12,3.9-4.21,0-10-3.53-10-3.53-1.57-1-3.07-.75-4.4.8a5,5,0,0,0-1.06,2.77c0,2.26,6,5.24,11.66,6.36v3.76a2,2,0,0,0,2.14,1.74h2.46a2,2,0,0,0,2.14-1.74v-3.55C450,230.37,453.94,225.67,453.94,220.64Z"/><rect class="cls-8" x="318.03" y="130.07" width="5.43" height="13.13" rx="1.48" ry="1.48"/><rect class="cls-8" x="327.03" y="126.46" width="5.44" height="16.74" rx="1.48" ry="1.48"/><rect class="cls-8" x="336.04" y="123.37" width="5.43" height="19.83" rx="1.48" ry="1.48"/><rect class="cls-8" x="345.06" y="120.18" width="5.43" height="23.02" rx="1.48" ry="1.48"/><path class="cls-8" d="M318.72,126.12a80.2,80.2,0,0,0,26.73-10.05l0.74,1.41L349,113l-5.31-.22,0.8,1.53a78.24,78.24,0,0,1-26.13,9.85Z"/><polygon class="cls-8" points="357.01 146.07 352.44 143.42 352.44 145.06 315.65 145.06 315.65 115.63 317.32 115.63 314.64 111 311.97 115.63 313.64 115.63 313.64 145.06 313.64 146.07 313.64 147.07 352.44 147.07 352.44 148.71 357.01 146.07"/><text class="cls-9" transform="translate(167.2 59.45)">F<tspan x="5.53" y="0">irst s</tspan><tspan x="28.28" y="0">t</tspan><tspan x="32.18" y="0">ep is </tspan><tspan x="57.67" y="0">t</tspan><tspan x="61.57" y="0">o find </tspan><tspan x="0" y="14.4">out e</tspan><tspan x="25.73" y="14.4">v</tspan><tspan x="31.38" y="14.4">e</tspan><tspan x="37.39" y="14.4">r</tspan><tspan x="41.62" y="14.4">ything </tspan><tspan x="76.62" y="14.4">w</tspan><tspan x="85.33" y="14.4">e </tspan><tspan x="0" y="28.8">can about </tspan><tspan x="52.69" y="28.8">y</tspan><tspan x="58.22" y="28.8">our </tspan><tspan x="0" y="43.2">p</tspan><tspan x="6.83" y="43.2">r</tspan><tspan x="10.63" y="43.2">odu</tspan><tspan x="30.6" y="43.2">c</tspan><tspan x="36.13" y="43.2">t and the </tspan><tspan x="0" y="57.6">people who </tspan><tspan x="62.27" y="57.6">y</tspan><tspan x="67.8" y="57.6">ou a</tspan><tspan x="89.33" y="57.6">r</tspan><tspan x="93.13" y="57.6">e </tspan><tspan x="0" y="72">t</tspan><tspan x="3.97" y="72">r</tspan><tspan x="8.2" y="72">ying </tspan><tspan x="32.57" y="72">t</tspan><tspan x="36.47" y="72">o deli</tspan><tspan x="64.02" y="72">v</tspan><tspan x="69.67" y="72">er it </tspan><tspan x="91.47" y="72">t</tspan><tspan x="95.37" y="72">o</tspan><tspan x="101.67" y="72">.</tspan></text><text class="cls-10" transform="translate(164.84 46.19)">D<tspan x="12.6" y="0">is</tspan><tspan x="25.34" y="0">c</tspan><tspan x="33.26" y="0">o</tspan><tspan x="43.49" y="0">v</tspan><tspan x="52.76" y="0">e</tspan><tspan x="62.26" y="0">r</tspan><tspan x="69.43" y="0">y</tspan></text><text class="cls-9" transform="translate(367.31 79.31)">W<tspan x="9.76" y="0">e help </tspan><tspan x="43.19" y="0">y</tspan><tspan x="48.72" y="0">ou define </tspan><tspan x="0" y="14.4">r</tspan><tspan x="3.8" y="14.4">ealistic ma</tspan><tspan x="56.48" y="14.4">r</tspan><tspan x="60.46" y="14.4">keting </tspan><tspan x="0" y="28.8">goals ta</tspan><tspan x="38.96" y="28.8">k</tspan><tspan x="44.8" y="28.8">ing i</tspan><tspan x="66.32" y="28.8">n</tspan><tspan x="72.94" y="28.8">t</tspan><tspan x="76.83" y="28.8">o </tspan><tspan x="0" y="43.2">a</tspan><tspan x="5.78" y="43.2">cc</tspan><tspan x="16.39" y="43.2">ou</tspan><tspan x="29.59" y="43.2">n</tspan><tspan x="36.2" y="43.2">t </tspan><tspan x="42.72" y="43.2">y</tspan><tspan x="48.25" y="43.2">our cu</tspan><tspan x="79.91" y="43.2">r</tspan><tspan x="83.88" y="43.2">r</tspan><tspan x="87.68" y="43.2">e</tspan><tspan x="93.69" y="43.2">n</tspan><tspan x="100.31" y="43.2">t </tspan><tspan x="0" y="57.6">situ</tspan><tspan x="18.14" y="57.6">a</tspan><tspan x="23.88" y="57.6">tion, vision, and </tspan><tspan x="0" y="72">r</tspan><tspan x="3.8" y="72">esou</tspan><tspan x="27.77" y="72">r</tspan><tspan x="31.57" y="72">c</tspan><tspan x="36.88" y="72">e</tspan><tspan x="42.89" y="72">s</tspan><tspan x="47.51" y="72">.</tspan></text><text class="cls-10" transform="translate(366.66 64.05)">S<tspan x="9.85" y="0">et </tspan><tspan x="29.59" y="0">G</tspan><tspan x="41.98" y="0">oals</tspan></text><text class="cls-9" transform="translate(477.72 238.13)">La<tspan x="11.45" y="0">r</tspan><tspan x="15.28" y="0">ge or smal</tspan><tspan x="66.97" y="0">l</tspan><tspan x="69.68" y="0">, </tspan><tspan x="0" y="14.4">e</tspan><tspan x="6.01" y="14.4">v</tspan><tspan x="11.66" y="14.4">e</tspan><tspan x="17.68" y="14.4">r</tspan><tspan x="21.9" y="14.4">y</tspan><tspan x="27.43" y="14.4">one is </tspan><tspan x="59.34" y="14.4">w</tspan><tspan x="68.05" y="14.4">o</tspan><tspan x="74.64" y="14.4">r</tspan><tspan x="78.61" y="14.4">k</tspan><tspan x="84.44" y="14.4">ing </tspan><tspan x="0" y="28.8">on a budge</tspan><tspan x="57.05" y="28.8">t</tspan><tspan x="60.98" y="28.8">. </tspan><tspan x="66.01" y="28.8">C</tspan><tspan x="72.94" y="28.8">r</tspan><tspan x="76.74" y="28.8">e</tspan><tspan x="82.75" y="28.8">a</tspan><tspan x="88.49" y="28.8">t</tspan><tspan x="92.46" y="28.8">-</tspan><tspan x="0" y="43.2">ing a budget ensu</tspan><tspan x="90.53" y="43.2">r</tspan><tspan x="94.33" y="43.2">e </tspan><tspan x="0" y="57.6">w</tspan><tspan x="8.71" y="57.6">e b</tspan><tspan x="24.1" y="57.6">r</tspan><tspan x="28.07" y="57.6">ing </tspan><tspan x="46.79" y="57.6">f</tspan><tspan x="50.14" y="57.6">o</tspan><tspan x="56.72" y="57.6">r</tspan><tspan x="60.95" y="57.6">w</tspan><tspan x="69.73" y="57.6">a</tspan><tspan x="75.52" y="57.6">r</tspan><tspan x="79.32" y="57.6">d a </tspan><tspan x="0" y="72">f</tspan><tspan x="3.35" y="72">easible st</tspan><tspan x="49.64" y="72">r</tspan><tspan x="53.51" y="72">a</tspan><tspan x="59.24" y="72">t</tspan><tspan x="63.14" y="72">eg</tspan><tspan x="75.86" y="72">y</tspan><tspan x="81.05" y="72">.</tspan></text><text class="cls-10" transform="translate(477.07 222.87)">Budgeting</text><text class="cls-9" transform="translate(414.34 433.49)">O<tspan x="8.3" y="0">ur </tspan><tspan x="21.38" y="0">r</tspan><tspan x="25.19" y="0">esea</tspan><tspan x="47.75" y="0">r</tspan><tspan x="51.55" y="0">ch </tspan><tspan x="66.13" y="0">c</tspan><tspan x="71.44" y="0">omes </tspan><tspan x="0" y="14.4">t</tspan><tspan x="3.9" y="14.4">ogether he</tspan><tspan x="58.99" y="14.4">r</tspan><tspan x="62.79" y="14.4">e with a </tspan><tspan x="0" y="28.8">ma</tspan><tspan x="15.79" y="28.8">r</tspan><tspan x="19.76" y="28.8">keting st</tspan><tspan x="62.82" y="28.8">r</tspan><tspan x="66.68" y="28.8">a</tspan><tspan x="72.42" y="28.8">t</tspan><tspan x="76.32" y="28.8">eg</tspan><tspan x="89.04" y="28.8">y</tspan><tspan x="94.22" y="28.8">, </tspan><tspan x="0" y="43.2">p</tspan><tspan x="6.83" y="43.2">r</tspan><tspan x="10.63" y="43.2">odu</tspan><tspan x="30.6" y="43.2">c</tspan><tspan x="36.13" y="43.2">tion timeline</tspan><tspan x="99.81" y="43.2">s</tspan><tspan x="104.43" y="43.2">, </tspan><tspan x="0" y="57.6">and media buying </tspan><tspan x="0" y="72">st</tspan><tspan x="8.72" y="72">r</tspan><tspan x="12.59" y="72">a</tspan><tspan x="18.32" y="72">t</tspan><tspan x="22.22" y="72">e</tspan><tspan x="28.24" y="72">g</tspan><tspan x="34.87" y="72">ie</tspan><tspan x="43.69" y="72">s</tspan><tspan x="48.31" y="72">.</tspan></text><text class="cls-10" transform="translate(414.69 418.23)">S<tspan x="9.63" y="0">t</tspan><tspan x="16.24" y="0">r</tspan><tspan x="22.88" y="0">a</tspan><tspan x="32.24" y="0">t</tspan><tspan x="38.75" y="0">egy</tspan></text><text class="cls-9" transform="translate(230.59 502.42)">N<tspan x="7.9" y="0">o</tspan><tspan x="14.4" y="0">w i</tspan><tspan x="28.58" y="0">t</tspan><tspan x="32.81" y="0">’</tspan><tspan x="34.43" y="0">s time </tspan><tspan x="67.07" y="0">t</tspan><tspan x="70.97" y="0">o make </tspan><tspan x="0" y="14.4">it all click with </tspan><tspan x="72.7" y="14.4">g</tspan><tspan x="79.33" y="14.4">r</tspan><tspan x="83.14" y="14.4">e</tspan><tspan x="89.15" y="14.4">a</tspan><tspan x="94.88" y="14.4">t </tspan><tspan x="0" y="28.8">messa</tspan><tspan x="31.31" y="28.8">g</tspan><tspan x="37.94" y="28.8">ing and </tspan><tspan x="0" y="43.2">image</tspan><tspan x="31.32" y="43.2">r</tspan><tspan x="35.54" y="43.2">y in each </tspan><tspan x="0" y="57.6">media </tspan><tspan x="33.92" y="57.6">f</tspan><tspan x="37.27" y="57.6">o</tspan><tspan x="43.86" y="57.6">r</tspan><tspan x="47.83" y="57.6">m</tspan><tspan x="57.84" y="57.6">a</tspan><tspan x="63.58" y="57.6">t the </tspan><tspan x="0" y="72">st</tspan><tspan x="8.72" y="72">r</tspan><tspan x="12.59" y="72">a</tspan><tspan x="18.32" y="72">t</tspan><tspan x="22.22" y="72">egy calls </tspan><tspan x="67.26" y="72">f</tspan><tspan x="70.61" y="72">o</tspan><tspan x="77.19" y="72">r</tspan><tspan x="80.48" y="72">.</tspan></text><text class="cls-10" transform="translate(229.94 488.16)">C<tspan x="10.64" y="0">r</tspan><tspan x="17.33" y="0">e</tspan><tspan x="26.84" y="0">a</tspan><tspan x="36.2" y="0">ting</tspan></text><text class="cls-9" transform="translate(58.26 399.19)">I<tspan x="3.06" y="0">t all </tspan><tspan x="23.57" y="0">c</tspan><tspan x="28.87" y="0">omes </tspan><tspan x="0" y="14.4">t</tspan><tspan x="3.9" y="14.4">ogether he</tspan><tspan x="58.99" y="14.4">r</tspan><tspan x="62.79" y="14.4">e </tspan><tspan x="71.35" y="14.4">b</tspan><tspan x="78.09" y="14.4">y </tspan><tspan x="0" y="28.8">putting e</tspan><tspan x="46.11" y="28.8">v</tspan><tspan x="51.77" y="28.8">e</tspan><tspan x="57.78" y="28.8">r</tspan><tspan x="62" y="28.8">ything </tspan><tspan x="0" y="43.2">out </tspan><tspan x="19.72" y="43.2">f</tspan><tspan x="23.06" y="43.2">or the </tspan><tspan x="55.31" y="43.2">w</tspan><tspan x="64.02" y="43.2">o</tspan><tspan x="70.61" y="43.2">r</tspan><tspan x="74.58" y="43.2">ld </tspan><tspan x="0" y="57.6">t</tspan><tspan x="3.9" y="57.6">o se</tspan><tspan x="23.8" y="57.6">e</tspan><tspan x="29.66" y="57.6">.</tspan></text><text class="cls-10" transform="translate(56.62 383.94)">I<tspan x="5.18" y="0">mplime</tspan><tspan x="66.29" y="0">n</tspan><tspan x="76.73" y="0">t</tspan></text><text class="cls-9" transform="translate(38.27 193.32)">W<tspan x="9.76" y="0">e g</tspan><tspan x="25.02" y="0">a</tspan><tspan x="30.76" y="0">ther as much </tspan><tspan x="0" y="14.4">in</tspan><tspan x="9.47" y="14.4">f</tspan><tspan x="12.82" y="14.4">o</tspan><tspan x="19.4" y="14.4">r</tspan><tspan x="23.38" y="14.4">m</tspan><tspan x="33.38" y="14.4">a</tspan><tspan x="39.12" y="14.4">tion as </tspan><tspan x="74.77" y="14.4">w</tspan><tspan x="83.48" y="14.4">e </tspan><tspan x="0" y="28.8">can on h</tspan><tspan x="42.82" y="28.8">o</tspan><tspan x="49.32" y="28.8">w </tspan><tspan x="60.7" y="28.8">y</tspan><tspan x="66.23" y="28.8">our </tspan><tspan x="0" y="43.2">campai</tspan><tspan x="36.59" y="43.2">g</tspan><tspan x="43.22" y="43.2">n is </tspan><tspan x="62.53" y="43.2">w</tspan><tspan x="71.24" y="43.2">o</tspan><tspan x="77.83" y="43.2">r</tspan><tspan x="81.8" y="43.2">k</tspan><tspan x="87.43" y="43.2">-</tspan><tspan x="0" y="57.6">ing and make </tspan><tspan x="0" y="72">adjustme</tspan><tspan x="46.82" y="72">n</tspan><tspan x="53.44" y="72">ts as </tspan><tspan x="0" y="86.4">neede</tspan><tspan x="31.46" y="86.4">d</tspan><tspan x="38.11" y="86.4">.</tspan></text><text class="cls-10" transform="translate(38.62 179.07)">A<tspan x="11.7" y="0">naly</tspan><tspan x="46.12" y="0">z</tspan><tspan x="54.43" y="0">e</tspan></text><path class="cls-8" d="M200.87,178L191,169.06l2.2-2.19a1.63,1.63,0,0,0,0-2.31l-0.81-.82a17,17,0,1,0-16.21,11.94h0a17,17,0,0,0,4.91-.72l0.81,0.82a1.63,1.63,0,0,0,2.31,0l2.2-2.19,8.84,9.9a1.63,1.63,0,0,0,2.31,0l3.27-3.25A1.63,1.63,0,0,0,200.87,178Zm-24.66-4.1a15.14,15.14,0,1,1,12.12-6.06l-3.12,3.1a15,15,0,0,1-9,3h0Z"/><path class="cls-8" d="M456.74,380.77H435a5.44,5.44,0,0,0-5.43,5.43,1.81,1.81,0,0,0,1.81,1.81h29a1.81,1.81,0,0,0,1.81-1.81A5.43,5.43,0,0,0,456.74,380.77Zm7.91-27.48-13.34-8v-5.61c-10,0-18.11,8.38-18.11,18.72v15l3.62,3.74h18.11l3.62-3.74-5.5-7.89s-3.3-6.62,0-6.2l7.8,1a3.12,3.12,0,0,0,3.4-1.55l1.24-2.22A2.42,2.42,0,0,0,464.64,353.29Z"/><path class="cls-8" d="M346.79,484.78a1.75,1.75,0,0,1-1.75,1.75H334.45a1.75,1.75,0,0,1-1.75-1.75h0a1.75,1.75,0,0,1,1.75-1.75H345a1.75,1.75,0,0,1,1.75,1.75h0Z"/><path class="cls-8" d="M346.79,480.21A1.75,1.75,0,0,1,345,482H334.45a1.75,1.75,0,0,1-1.75-1.75h0a1.75,1.75,0,0,1,1.75-1.75H345a1.75,1.75,0,0,1,1.75,1.75h0Z"/><path class="cls-8" d="M341.42,461h-3.34v16.39h3.34V461Z"/><path class="cls-8" d="M333.92,454.36a2.52,2.52,0,1,0,0,5h2.52v-2.52A2.52,2.52,0,0,0,333.92,454.36Z"/><path class="cls-8" d="M348.1,456.88a2.52,2.52,0,1,0-5,0v2.52h2.52A2.52,2.52,0,0,0,348.1,456.88Z"/><path class="cls-8" d="M353.65,452.32c-1.13-4.47-6.47-9.3-13.9-9.31s-12.77,4.84-13.9,9.31c-0.86,3.4-.07,6.62,1.55,9.76,1.47,2.84,3,5.17,4.27,8.07a31.92,31.92,0,0,1,1.34,5.48c0.3,1.33.8,1.78,2.42,1.79h1V461h-2.52a4.16,4.16,0,1,1,4.16-4.21h0v2.57h3.34v-2.57h0a4.16,4.16,0,1,1,4.16,4.21h-2.52v16.39h1c1.62,0,2.12-.46,2.42-1.79a31.83,31.83,0,0,1,1.33-5.48c1.27-2.91,2.8-5.23,4.27-8.07C353.73,458.94,354.52,455.72,353.65,452.32Z"/><path class="cls-8" d="M341.28,437.82a1.53,1.53,0,0,0-1.53-1.53h0a1.53,1.53,0,0,0-1.53,1.53v2.82a1.53,1.53,0,0,0,1.53,1.53h0a1.53,1.53,0,0,0,1.53-1.53v-2.82Z"/><path class="cls-8" d="M349.76,440.31a1.53,1.53,0,0,0-.61-2.07h0a1.53,1.53,0,0,0-2.07.62l-1.34,2.48a1.53,1.53,0,0,0,.62,2.07h0a1.53,1.53,0,0,0,2.07-.62Z"/><path class="cls-8" d="M356,445.25a1.52,1.52,0,0,0,.13-2.15h0A1.52,1.52,0,0,0,354,443l-2.11,1.87a1.53,1.53,0,0,0-.13,2.16h0a1.53,1.53,0,0,0,2.16.13Z"/><path class="cls-8" d="M359.31,452.75a1.53,1.53,0,0,0,1.23-1.78h0a1.53,1.53,0,0,0-1.78-1.23l-2.78.5a1.53,1.53,0,0,0-1.23,1.78h0a1.53,1.53,0,0,0,1.78,1.23Z"/><path class="cls-8" d="M358.63,460.94a1.53,1.53,0,0,0,1.8-1.19h0a1.53,1.53,0,0,0-1.19-1.8l-2.77-.56a1.53,1.53,0,0,0-1.8,1.19h0a1.53,1.53,0,0,0,1.19,1.8Z"/><path class="cls-8" d="M329.54,440.31a1.53,1.53,0,0,1,.62-2.07h0a1.53,1.53,0,0,1,2.07.62l1.35,2.48a1.53,1.53,0,0,1-.61,2.07h0a1.53,1.53,0,0,1-2.07-.62Z"/><path class="cls-8" d="M323.28,445.25a1.52,1.52,0,0,1-.13-2.15h0a1.52,1.52,0,0,1,2.16-.13l2.11,1.87a1.53,1.53,0,0,1,.13,2.16h0a1.53,1.53,0,0,1-2.16.13Z"/><path class="cls-8" d="M320,452.75a1.53,1.53,0,0,1-1.23-1.78h0a1.53,1.53,0,0,1,1.78-1.23l2.78,0.5a1.53,1.53,0,0,1,1.23,1.78h0a1.53,1.53,0,0,1-1.77,1.23Z"/><path class="cls-8" d="M320.67,460.94a1.53,1.53,0,0,1-1.8-1.19h0a1.53,1.53,0,0,1,1.19-1.8l2.77-.56a1.53,1.53,0,0,1,1.8,1.19h0a1.53,1.53,0,0,1-1.19,1.8Z"/><path class="cls-11" d="M121.87,294.39l-13.42,13.4a19.29,19.29,0,0,1,.65-26.69l0.19-.2,0.16-.15a19,19,0,0,1,12.42-5.35v19h0Zm21-14.81L126.68,295.8,142.91,312c0.12-.13.27-0.25,0.39-0.38a22.89,22.89,0,0,0,0-31.68c-0.12-.13-0.27-0.25-0.39-0.38h0Zm-34,33.27c0.13,0.13.24,0.27,0.38,0.4a22.9,22.9,0,0,0,15.84,6.36c0.26,0,.52,0,0.78,0a22.87,22.87,0,0,0,15.44-6.72l-16.23-16.22-16.22,16.22h0Zm17.64-41.35a23.17,23.17,0,0,1,15.56,6.72L126,294.44v-23s0.3,0,.56,0h0Zm-2.62,2h-1.13a21.18,21.18,0,0,0-14.72,5.86l-0.23.21-0.14.13a21.25,21.25,0,0,0,0,30.15l0.77,0.69,15.44-15.36V273.52Z"/><path class="cls-8" d="M180.8,420.19a4.29,4.29,0,1,1-4.29-4.32,4.3,4.3,0,0,1,4.29,4.32h0Zm27.74,9.39-17-4.85v-4.25l17-4.85v14Zm-20.61-4.85h2.42v-4.25h-2.42v4.25Zm25.94,4.73a9.71,9.71,0,0,0-.19-13.76l-0.7.71a8.76,8.76,0,0,1,.19,12.35Zm-0.5-6.8a6.3,6.3,0,0,1-1.84,4.46l0.72,0.72a7.4,7.4,0,0,0,2.11-5.18,7.31,7.31,0,0,0-2.32-5.33l-0.7.71a6.32,6.32,0,0,1,2,4.63h0Zm-2.34,0a4,4,0,0,1-1.15,2.8l0.72,0.72a5.06,5.06,0,0,0-.19-7.23l-0.72.72a4,4,0,0,1,1.34,3h0Zm-28.77,3.2a1.51,1.51,0,0,0-.48-0.07H180.3l-2.77,5.59v-2.74a0.94,0.94,0,0,0-.93-0.95H176.4a0.94,0.94,0,0,0-.93.95v2.74l-2.77-5.59h-1.53A4.15,4.15,0,0,0,167,430v14.55a0.94,0.94,0,0,0,.93.95h1.46a1,1,0,0,0,.93-0.95V432.76h1v31a0.93,0.93,0,0,0,.93.93h2.8a0.94,0.94,0,0,0,.93-0.93V445.46h1v18.31a0.94,0.94,0,0,0,.94.93h2.78a0.93,0.93,0,0,0,.93-0.93V444.51l0.09-12a1.28,1.28,0,0,1,1.17-.74,1.14,1.14,0,0,1,.43.07l4.17,3,0.09,0.05a1.59,1.59,0,0,0,.84.36,1.7,1.7,0,0,0,.65.14,1.66,1.66,0,0,0,1.67-1.65v-0.08l0-7.55a1,1,0,0,0-.94-0.95h-1.44a0.92,0.92,0,0,0-.93.93v4l-3.61-3.58,0,0,0,0a1.87,1.87,0,0,0-.55-0.38,2.45,2.45,0,0,0-1-.22h0Zm-6.94-.07v0.26a1.07,1.07,0,0,0,1.06,1.07h0.24a1.06,1.06,0,0,0,1.06-1.07v-0.26h-2.37Zm1.7,12.84a0.52,0.52,0,0,1-.52.52,0.51,0.51,0,0,1-.52-0.52,0.52,0.52,0,0,1,.52-0.52,0.53,0.53,0,0,1,.52.52h0Zm0-3.06a0.53,0.53,0,0,1-.52.52,0.52,0.52,0,0,1-.52-0.52,0.51,0.51,0,0,1,.52-0.52,0.52,0.52,0,0,1,.52.52h0Z"/><text class="cls-12" transform="translate(204.28 301.64)">MSP</text><rect class="cls-5" x="227.85" y="307.08" width="24.78" height="10.15"/><rect class="cls-2" x="203.07" y="307.08" width="24.78" height="10.15"/><rect class="cls-3" x="252.6" y="307.08" width="24.78" height="10.15"/><rect class="cls-7" x="277.36" y="307.08" width="24.78" height="10.15"/><rect class="cls-6" x="302.11" y="307.08" width="24.78" height="10.15"/><rect class="cls-4" x="326.86" y="307.08" width="24.78" height="10.15"/><rect class="cls-1" x="351.61" y="307.08" width="24.78" height="10.15"/><text class="cls-13" transform="translate(201.75 333.65)">M<tspan x="12.55" y="0">a</tspan><tspan x="20.02" y="0">r</tspan><tspan x="25.15" y="0">keting </tspan><tspan x="69.49" y="0">S</tspan><tspan x="77.08" y="0">t</tspan><tspan x="82.21" y="0">r</tspan><tspan x="87.21" y="0">a</tspan><tspan x="94.61" y="0">t</tspan><tspan x="99.65" y="0">egy </tspan><tspan x="126.66" y="0">P</tspan><tspan x="134.66" y="0">r</tspan><tspan x="139.57" y="0">o</tspan><tspan x="148.08" y="0">c</tspan><tspan x="154.93" y="0">ess</tspan></text></svg>