<svg id="Layer_2" data-name="Layer 2" xmlns="http://www.w3.org/2000/svg" xmlns:xlink="http://www.w3.org/1999/xlink" viewBox="0 0 312.31 724.16"><defs><style>.cls-1{fill:url(#New_Gradient_Swatch_1);}.cls-2{font-size:16px;}.cls-2,.cls-3,.cls-4{font-family:Arial;}.cls-3{font-size:20px;}.cls-4{font-size:33px;}.cls-5{fill:url(#New_Gradient_Swatch_10);}.cls-6{letter-spacing:-1px;}.cls-7{fill:url(#New_Gradient_Swatch_12);}.cls-8{fill:url(#New_Gradient_Swatch_4);}</style><linearGradient id="New_Gradient_Swatch_1" y1="82.33" x2="312.31" y2="82.33" gradientUnits="userSpaceOnUse"><stop offset="0" stop-color="#de4832"/><stop offset="0.94" stop-color="#f8981d"/></linearGradient><linearGradient id="New_Gradient_Swatch_10" y1="261.33" x2="312.31" y2="261.33" gradientUnits="userSpaceOnUse"><stop offset="0" stop-color="#0981b0"/><stop offset="0.29" stop-color="#098ebc"/><stop offset="0.83" stop-color="#08afda"/><stop offset="0.93" stop-color="#08b6e1"/></linearGradient><linearGradient id="New_Gradient_Swatch_12" y1="440.33" x2="312.31" y2="440.33" gradientUnits="userSpaceOnUse"><stop offset="0" stop-color="#8a2577"/><stop offset="0.05" stop-color="#932878"/><stop offset="0.37" stop-color="#c13680"/><stop offset="0.61" stop-color="#dd4085"/><stop offset="0.75" stop-color="#e84387"/></linearGradient><linearGradient id="New_Gradient_Swatch_4" y1="619.2" x2="312.31" y2="619.2" gradientUnits="userSpaceOnUse"><stop offset="0" stop-color="#046937"/><stop offset="0.2" stop-color="#3c8833"/><stop offset="0.47" stop-color="#7fae2e"/><stop offset="0.69" stop-color="#b0c92b"/><stop offset="0.85" stop-color="#ceda29"/><stop offset="0.95" stop-color="#d9e028"/></linearGradient></defs><title>mediaBuy_small</title><polygon class="cls-1" points="278.53 0 0 0 33.79 82.33 0 164.66 278.53 164.66 312.31 82.33 278.53 0"/><text class="cls-2" transform="translate(76.67 55.31)">W<tspan x="14.81" y="0">e take in your product </tspan><tspan x="0" y="17">and your target </tspan><tspan x="0" y="34">demographic and lay out a </tspan><tspan x="0" y="51">plan that matches your </tspan><tspan x="0" y="68">budget and ability to </tspan><tspan x="0" y="85">handle the new incoming </tspan><tspan x="0" y="102">sales.</tspan></text><text class="cls-3" transform="translate(76.67 35.32)">PLAN</text><text class="cls-4" transform="translate(240.52 29.86)">01</text><polygon class="cls-5" points="278.53 179 0 179 33.79 261.33 0 343.66 278.53 343.66 312.31 261.33 278.53 179"/><text class="cls-2" transform="translate(75.83 233.31)">W<tspan x="14.81" y="0">e go to bat for you </tspan><tspan x="0" y="17">garnering the best buy for </tspan><tspan x="0" y="34">the buck we can get.</tspan><tspan x="146.76" y="34"> </tspan><tspan class="cls-6" x="150.91" y="34">Y</tspan><tspan x="160.12" y="34">ou get </tspan><tspan x="0" y="51">the benefits of our strong </tspan><tspan x="0" y="68">buying power and </tspan><tspan x="0" y="85">relationships with media </tspan><tspan x="0" y="102">outlets.</tspan></text><text class="cls-3" transform="translate(75.83 214.32)">BU<tspan x="27.78" y="0">Y</tspan></text><path d="M16.81,324.63L27.68,335.5l22.63-22.63L39.45,302Zm30.83-12.71a1.65,1.65,0,0,0,0,2.32L29.06,332.83a1.64,1.64,0,0,0-2.32,0l-7.26-7.26a1.64,1.64,0,0,0,0-2.32l18.59-18.59a1.64,1.64,0,0,0,2.32,0Z"/><path d="M29,314.21a6.41,6.41,0,1,0,9.07,0A6.41,6.41,0,0,0,29,314.21Zm8.7,8.7a5.89,5.89,0,1,1,0-8.33A5.89,5.89,0,0,1,37.73,322.91Z"/><path d="M28.13,324.18a6.2,6.2,0,0,1-1.77-6.23l-5.63,5.63a1.37,1.37,0,0,1,0,1.94l6.06,6.06a1.37,1.37,0,0,1,1.94,0L34.36,326A6.2,6.2,0,0,1,28.13,324.18Z"/><path d="M38.39,305.91l-5.63,5.63A6.2,6.2,0,0,1,39,313.32a6.2,6.2,0,0,1,1.77,6.23l5.63-5.63a1.37,1.37,0,0,1,0-1.94l-6.06-6.06A1.37,1.37,0,0,1,38.39,305.91Z"/><path d="M35.81,316.93a4.12,4.12,0,0,0-.87.16,8.6,8.6,0,0,0-1,.4l-2.07-2.07,0.28-.17a2.21,2.21,0,0,1,.36-0.17,0.84,0.84,0,0,1,.44,0,0.63,0.63,0,0,1,.26.07,1,1,0,0,0,0,.3,0.87,0.87,0,0,0,.15.47,0.86,0.86,0,0,0,.65.28,1,1,0,0,0,.66-0.32,0.79,0.79,0,0,0-.15-1.15,2.17,2.17,0,0,0-.25-0.2,1.86,1.86,0,0,0-1.68-.21,4.3,4.3,0,0,0-1.18.62l-0.76-.76-0.5.5,0.69,0.69-0.7.7-0.69-.69-0.5.5,0.74,0.74h0a2.7,2.7,0,0,0-.26.42,2.6,2.6,0,0,0-.31,1.07A1.66,1.66,0,0,0,30.35,320a2.29,2.29,0,0,0,1,0,4.48,4.48,0,0,0,.76-0.23l0.42-.2,2.54,2.54a2.16,2.16,0,0,1-.29.2,1.93,1.93,0,0,1-.56.22,1.12,1.12,0,0,1-.58,0,1.46,1.46,0,0,1-.34-0.14l0.17-.23a0.7,0.7,0,0,0,.12-0.27,0.65,0.65,0,0,0-.21-0.57A1.89,1.89,0,0,0,33,321a0.63,0.63,0,0,0-.8.17,1.17,1.17,0,0,0-.22.31,0.91,0.91,0,0,0,.28,1.14,2.07,2.07,0,0,0,.81.49,2,2,0,0,0,1,.09,6.22,6.22,0,0,0,1.57-.61l0.8,0.8,0.5-.5-0.8-.8,0.69-.7,0.8,0.8,0.5-.5-0.82-.82a2.67,2.67,0,0,1,.2-0.32,5.19,5.19,0,0,0,.38-0.7,1.93,1.93,0,0,0,.19-0.74A2.08,2.08,0,0,0,35.81,316.93Zm-4.73,1.86a1.07,1.07,0,0,1-.81-0.37,1,1,0,0,1-.24-0.73,1.88,1.88,0,0,1,.11-0.57l1.5,1.5A0.87,0.87,0,0,1,31.09,318.79Zm-0.5-2.25a0.83,0.83,0,0,1,.32-0.42,1.47,1.47,0,0,1,.23-0.19l0.14-.08,2,2-0.91.49Zm5.11,5.11-2.51-2.51,1-.44L36.39,321Zm1.37-1.94a1.7,1.7,0,0,1-.22.7l-2-2a2.42,2.42,0,0,1,.8-0.16,1.28,1.28,0,0,1,1,.44A1.27,1.27,0,0,1,37.07,319.71Z"/><path d="M46.6,332.76l0.46-.21,0.37,0.13a3.66,3.66,0,0,0,1.8.13,3.78,3.78,0,0,0,.75-0.23,1.78,1.78,0,0,0,.42-0.25,0.59,0.59,0,0,0,.28-0.6,0.88,0.88,0,0,0-.45-0.51l1.35-.59a0.53,0.53,0,0,1-.13.72l0.91,0.2a0.66,0.66,0,0,0-.18-1.17l0.31-.16L52.09,330l-0.37.14a3.27,3.27,0,0,0-1.72-.13,4.31,4.31,0,0,0-1,.42c-0.27.16-.22,0.41,0.16,0.76l-1.69.68c-0.38-.32-0.16-0.56.63-0.74l-0.63-.32a3.1,3.1,0,0,0-1.18.62,0.45,0.45,0,0,0,0,.58,0.66,0.66,0,0,0,.29.22l-0.41.19ZM50,330.53a1.63,1.63,0,0,1,1.12-.13l-1.24.53C49.67,330.83,49.71,330.7,50,330.53Zm-0.45,1a0.35,0.35,0,0,1-.06.59,1.06,1.06,0,0,1-.87.24,4.65,4.65,0,0,1-.69-0.14Z"/><path d="M60.66,332.91c0-.1,0-0.19,0-0.28a0.81,0.81,0,0,1-.31.49s0,0,0-.07h0v-1.09a0.72,0.72,0,0,0,.27-0.51c0-1.29-5-2.33-11.06-2.33s-11.07,1-11.07,2.33a0.54,0.54,0,0,0,0,.2,1.17,1.17,0,0,0,0,.13h0v1h0s0,0.05,0,.08v0c0,0.91,2.47,1.7,6.06,2.08h0c0.81,0.09,1.66.15,2.57,0.19h0l0.91,0h0l1.51,0a42.29,42.29,0,0,0,7.07-.54h0C59.1,334.27,60.66,333.63,60.66,332.91Zm-0.54.38a4,4,0,0,1-.62.32h0v-1h0s0-.09,0-0.13a3.87,3.87,0,0,0,.6-0.32C60.1,332.49,60.11,333.22,60.12,333.29Zm-10,.48h0.72s0,0,0,.05h0v1h0s0,0,0,.07H50.12s0,0,0-.07h0v-1h0S50.12,333.79,50.12,333.77Zm1,0,0.7,0s0,0,0,.07h0v1h0s0,0,0,.07l-0.71,0s0,0,0-.06h0v-1h0S51.09,333.77,51.08,333.75Zm0.95,0,0.69,0s0,0,0,.05h0v1h0s0,0.06,0,.09l-0.69,0s0,0,0-.06h0v-1h0S52,333.74,52,333.71Zm0.94-.05,0.7-.05v0h0v1h0s0,0.06,0,.08l-0.71.05s0-.05,0-0.08h0v-1h0S53,333.68,53,333.65Zm1-.08,0.74-.07v0h0v1h0s0,0.06,0,.09l-0.74.07s0,0,0-.06h0v-1h0v0Zm1-.1,0.73-.09s0,0,0,.06h0v1h0s0,0.06,0,.09l-0.74.09s0,0,0-.06h0v-1h0S54.91,333.49,54.91,333.48Zm1-.13,0.66-.11s0,0,0,.07h0v1h0s0,0,0,.05l-0.66.1s0,0,0-.05h0v-1h0A0.92,0.92,0,0,0,55.88,333.35Zm0.9-.15,0.64-.13v0h0v1h0s0,0.07,0,.1l-0.64.12h0v-1h0A1.07,1.07,0,0,0,56.78,333.2Zm0.89-.18,0.67-.17s0,0,0,.05h0v1h0s0,0.06,0,.08l-0.68.17s0,0,0,0h0v-1h0S57.67,333,57.67,333Zm0.91-.24,0.67-.22v0h0v1h0s0,0.06,0,.09l-0.67.22h0v-1h0A1,1,0,0,0,58.58,332.78Zm-9-3.3c5.8,0,10.49.87,10.49,2s-4.7,2-10.49,2-10.49-.87-10.49-2S43.78,329.48,49.58,329.48Zm-0.68,5.34s0,0.05,0,.08H48.2s0,0,0,0h0v-1h0s0,0,0-.06h0.7s0,0,0,0h0v1h0Zm-9.58-2.5a5.6,5.6,0,0,0,.55.24,1,1,0,0,0,0,.14h0v0.93h0s0,0,0,0a5.36,5.36,0,0,1-.55-0.25,0.83,0.83,0,0,0,0-.12h0v-0.92h0S39.32,332.34,39.32,332.32Zm0.79,0.33,0.5,0.16a1.11,1.11,0,0,0,0,.13h0v1h0v0l-0.5-.16a1.06,1.06,0,0,0,0-.13h0V332.7h0S40.11,332.67,40.1,332.65Zm0.74,0.22L41.37,333a0.94,0.94,0,0,0,0,.11h0v0.94h0s0,0,0,.06L40.84,334s0-.06,0-0.09h0v-1h0S40.84,332.89,40.84,332.87Zm0.77,0.19,0.52,0.11a0.91,0.91,0,0,0,0,.11h0v0.9h0a0.78,0.78,0,0,0,0,.1l-0.53-.11a1,1,0,0,0,0-.12h0v-0.94h0S41.62,333.08,41.61,333.06Zm0.76,0.15,0.54,0.09a1,1,0,0,0,0,.13h0v1h0v0l-0.55-.09a0.82,0.82,0,0,0,0-.14h0v-0.9h0S42.38,333.23,42.37,333.21Zm0.78,0.13,0.52,0.07a1,1,0,0,0,0,.12h0v1h0v0l-0.52-.07v-0.06h0v-1h0S43.16,333.37,43.15,333.34Zm0.76,0.11,0.56,0.06s0,0.05,0,.08h0v1h0v0l-0.56-.07s0-.05,0-0.08h0v-1h0S43.92,333.47,43.92,333.44Zm0.8,0.09,0.59,0.06a0.94,0.94,0,0,0,0,.12h0v1h0s0,0,0,0l-0.58-.06v0h0v-1h0S44.72,333.55,44.72,333.53Zm0.82,0.07,0.61,0s0,0,0,.07h0v1h0s0,0,0,.07l-0.61,0v-0.06h0v-1h0A0.92,0.92,0,0,0,45.54,333.61Zm0.86,0.06,0.64,0s0,0.06,0,.1h0v1h0v0l-0.64,0s0-.06,0-0.09h0v-1h0S46.4,333.69,46.4,333.67Zm0.89,0,0.66,0s0,0,0,.07h0v1h0v0l-0.66,0v0h0v-1h0S47.29,333.75,47.29,333.72ZM38.75,333a1,1,0,0,0,0-.22h0V332a2.08,2.08,0,0,0,.31.23,0.86,0.86,0,0,0,0,.19h0v0.91A1.77,1.77,0,0,1,38.75,333Zm10.4,1.87s0-.05,0-0.08h0v-1h0v0h0.73s0,0,0,.07h0v1h0s0,0,0,.07H49.14Z"/><path d="M46.6,326.18l0.4-.32,0.39,0a3.66,3.66,0,0,0,1.78-.3,3.83,3.83,0,0,0,.68-0.41,1.74,1.74,0,0,0,.34-0.34,0.59,0.59,0,0,0,.13-0.65,0.88,0.88,0,0,0-.56-0.38l1.17-.9a0.53,0.53,0,0,1,0,.73l0.94,0a0.66,0.66,0,0,0-.45-1.09l0.27-.23-0.46-.07-0.33.23a3.28,3.28,0,0,0-1.7.29,4.35,4.35,0,0,0-.91.66c-0.22.22-.12,0.45,0.34,0.7l-1.47,1.06c-0.44-.22-0.29-0.51.43-0.86l-0.69-.16a3.11,3.11,0,0,0-1,.88,0.45,0.45,0,0,0,.14.56,0.66,0.66,0,0,0,.34.15l-0.35.28Zm2.75-3a1.62,1.62,0,0,1,1.06-.39l-1.08.81C49.12,323.57,49.12,323.43,49.34,323.21Zm-0.2,1.07a0.36,0.36,0,0,1,.09.59,1.06,1.06,0,0,1-.79.44,4.57,4.57,0,0,1-.7,0Z"/><path d="M60.28,323l-0.07-.27a0.8,0.8,0,0,1-.18.55v-0.07h0l-0.26-1.06a0.72,0.72,0,0,0,.14-0.56c-0.31-1.25-5.37-1.08-11.3.38s-10.49,3.66-10.18,4.92a0.53,0.53,0,0,0,.09.18s0,0.08,0,.13h0l0.25,1h0l0,0.07v0c0.22,0.88,2.8,1.06,6.39.57h0c0.8-.11,1.65-0.25,2.54-0.43h0l0.89-.18h0l1.48-.34a42.25,42.25,0,0,0,6.74-2.22h0C59.1,324.66,60.45,323.66,60.28,323Zm-0.43.5a3.94,3.94,0,0,1-.52.46h0l-0.24-1h0s0-.08,0-0.12a4,4,0,0,0,.51-0.45C59.63,322.69,59.82,323.4,59.85,323.46Zm-9.6,2.86,0.7-.19v0.05h0l0.24,1h0l0,0.07-0.7.18v-0.07h0l-0.24-1h0Zm0.93-.25,0.68-.19v0.07h0l0.23,1h0l0,0.07-0.68.19v-0.06h0l-0.24-1h0Zm0.91-.26,0.66-.2v0h0l0.24,1h0l0,0.09-0.66.2v-0.06h0l-0.23-1h0Zm0.9-.28,0.67-.22v0h0l0.24,1h0l0,0.08-0.68.22v-0.07h0l-0.24-1h0Zm0.91-.3,0.7-.25v0h0l0.24,1h0l0,0.09-0.71.25v-0.06h0l-0.25-1h0v0Zm0.93-.34,0.69-.27v0.06h0l0.23,1h0l0,0.08L55.1,326v-0.06h0l-0.24-1h0v0Zm0.92-.36,0.62-.26v0.07h0l0.24,1h0l0,0-0.62.26v-0.05h0l-0.24-1h0Zm0.84-.36,0.59-.27v0h0l0.24,1h0l0,0.09-0.59.27h0l-0.24-1h0Zm0.82-.39,0.61-.33v0.05h0l0.24,1h0l0,0.08-0.62.33v0h0l-0.24-1h0Zm0.83-.45c0.22-.13.42-0.25,0.6-0.38v0h0l0.24,1h0l0,0.09c-0.18.12-.38,0.25-0.6,0.38h0l-0.24-1h0Zm-9.53-1.05c5.63-1.39,10.4-1.66,10.66-.61s-4.09,3-9.72,4.41-10.4,1.66-10.66.61S43.07,323.67,48.7,322.28Zm0.62,5.35,0,0.07-0.68.15v0h0l-0.24-1h0l0-.06,0.68-.15v0h0l0.24,1h0Zm-9.9-.14a5.43,5.43,0,0,0,.59.1,1,1,0,0,0,0,.14h0l0.22,0.9h0v0a5.2,5.2,0,0,1-.59-0.11,1.06,1.06,0,0,0,0-.12h0l-0.22-.89h0Zm0.84,0.13,0.52,0a1.08,1.08,0,0,0,0,.12h0L41,328.73h0v0l-0.53,0a1,1,0,0,0,0-.13h0l-0.22-.9h0v-0.05Zm0.77,0h0.54s0,0.07,0,.11h0l0.23,0.91h0l0,0.06H41.3l0-.09h0L41,327.73h0Zm0.79,0,0.53,0a0.83,0.83,0,0,0,0,.11h0l0.22,0.88h0l0,0.1-0.54,0a1.07,1.07,0,0,0,0-.12h0l-0.23-.91h0Zm0.77,0,0.55,0a1.12,1.12,0,0,0,0,.13h0l0.23,0.94h0v0l-0.55,0a0.79,0.79,0,0,0,0-.14h0l-0.22-.88h0Zm0.79-.06,0.52-.05a1,1,0,0,0,0,.12h0l0.23,0.93h0v0l-0.52.05V328.6h0l-0.23-.94h0Zm0.76-.08,0.56-.07,0,0.08h0l0.24,1h0v0l-0.56.07,0-.08h0l-0.23-.93h0Zm0.8-.1,0.58-.09s0,0.08,0,.12h0l0.23,0.93h0v0l-0.58.08v0h0l-0.24-1h0v0Zm0.82-.12,0.61-.1v0.06h0l0.24,1h0l0,0.07-0.61.1V328.3h0l-0.23-.93h0Zm0.85-.14,0.63-.12,0,0.09h0l0.24,1h0v0l-0.63.12,0-.09h0l-0.24-1h0v0Zm0.87-.17,0.65-.14v0.07h0l0.25,1h0v0l-0.65.13v0h0l-0.24-1h0ZM39,328.33a1.07,1.07,0,0,0,0-.22h0l-0.2-.82a2,2,0,0,0,.36.15,0.83,0.83,0,0,0,0,.19h0l0.22,0.88A1.78,1.78,0,0,1,39,328.33Zm10.54-.67v-0.08h0l-0.24-1h0v0l0.4-.09,0.31-.08v0.07h0l0.24,1h0l0,0.07-0.27.07Z"/><path d="M39.37,134.69h0l1.05-2.16a5.91,5.91,0,1,0,4.71,4.66l-2.15,1s0,0.06,0,.1A3.66,3.66,0,1,1,39.37,134.69Zm0,13.08A9.43,9.43,0,1,1,42,129.3l1-2.05a11.69,11.69,0,1,0,7.42,7.38l-2.05,1A9.42,9.42,0,0,1,39.37,147.77Zm16.27-15.65-1.7.82a15.55,15.55,0,1,1-9.21-9.16l0.83-1.7A17.41,17.41,0,1,0,55.64,132.11Z"/><path d="M39.06,138.08l9.16-18.78a0.4,0.4,0,0,1,.75.07l1.88,7.19a0.4,0.4,0,0,0,.29.29l7.2,1.88a0.4,0.4,0,0,1,.07.75l-18.82,9.14A0.4,0.4,0,0,1,39.06,138.08Z"/><text class="cls-4" transform="translate(236.85 210.86)">02</text><polygon class="cls-7" points="278.53 358 0 358 33.79 440.33 0 522.66 278.53 522.66 312.31 440.33 278.53 358"/><path d="M24,488.78a14.77,14.77,0,0,0,0,20.54L34.26,499Z"/><path d="M47,503.93c-0.47,0-.67.54-0.67,1.21s0.24,1.21.68,1.21,0.66-.46.66-1.21S47.51,503.93,47,503.93Z"/><path d="M42.16,501.13c-0.47,0-.67.54-0.67,1.22s0.24,1.21.7,1.21,0.66-.46.66-1.22S42.66,501.13,42.16,501.13Z"/><path d="M39.48,484.26a14.74,14.74,0,0,0-10.65,4.53L39.09,499,28.84,509.3A14.78,14.78,0,1,0,39.48,484.26Zm6.81,5.84h2.43v7.14H46.29V490.1Zm-2.92,4.08h2.43v3.06H43.37v-3.06ZM40.48,496h2.43v1.28H40.48V496Zm-0.17,6.43a1.93,1.93,0,0,1,1.9-2.12,1.79,1.79,0,0,1,1.8,2,1.93,1.93,0,0,1-1.87,2.16A1.85,1.85,0,0,1,40.31,502.39Zm1.91,4.86,3.88-7h0.84l-3.87,7H42.22Zm4.78,0a1.85,1.85,0,0,1-1.83-2,1.92,1.92,0,0,1,1.89-2.12,1.79,1.79,0,0,1,1.8,2A1.93,1.93,0,0,1,47,507.22Z"/><text class="cls-2" transform="translate(75.83 412.31)">W<tspan x="14.81" y="0">e analyze the results of </tspan><tspan x="0" y="17">your media buy and probe </tspan><tspan x="0" y="34">into what worked and what </tspan><tspan x="0" y="51">needs work moving forward. </tspan><tspan x="0" y="68">This is a team e</tspan><tspan x="112.93" y="68">f</tspan><tspan x="117.09" y="68">fort between </tspan><tspan x="0" y="85">you and BBS.</tspan></text><text class="cls-3" transform="translate(75.83 393.32)">PROBE</text><text class="cls-4" transform="translate(236.85 389.86)">03</text><polygon class="cls-8" points="278.53 536.88 0 536.88 33.79 619.2 0 701.53 278.53 701.53 312.31 619.2 278.53 536.88"/><rect x="18.53" y="688.87" width="3.97" height="5.96" transform="translate(-671.35 711.6) rotate(-89.94)"/><rect x="25.22" y="685.9" width="5.96" height="7.94"/><rect x="29.79" y="684.95" width="11.92" height="5.96" transform="translate(-652.22 722.81) rotate(-89.93)"/><rect x="35.49" y="682.94" width="15.89" height="5.96" transform="translate(-642.53 728.59) rotate(-89.94)"/><rect x="41.05" y="680.96" width="19.86" height="5.96" transform="translate(-633.03 733.94) rotate(-89.92)"/><polygon points="46.93 669.09 40.43 669.38 41.41 671.12 29.7 678 29.23 671.04 16.87 678.83 17.93 680.51 27.47 674.49 27.93 681.34 42.38 672.85 43.3 674.48 46.93 669.09"/><text class="cls-2" transform="translate(75.83 591.18)"><tspan class="cls-6">T</tspan><tspan x="8" y="0">aking what was learned </tspan><tspan x="0" y="17">from probing, we start </tspan><tspan x="0" y="34">tweaking our buying strateg</tspan><tspan class="cls-6" x="195.67" y="34">y</tspan><tspan x="202.48" y="34">. </tspan><tspan x="0" y="51">This a</tspan><tspan x="43.57" y="51">f</tspan><tspan x="47.73" y="51">fects the overall plan, </tspan><tspan x="0" y="68">so we start the process over </tspan><tspan x="0" y="85">ensuring ongoing </tspan><tspan x="0" y="102">e</tspan><tspan x="8.9" y="102">f</tspan><tspan x="13.05" y="102">fectiveness.</tspan></text><text class="cls-3" transform="translate(75.83 572.2)">TWEAK</text><text class="cls-4" transform="translate(236.85 568.74)">04</text></svg>