<?xml version="1.0" encoding="UTF-8" standalone="no"?>
<!-- Created with Inkscape (http://www.inkscape.org/) -->

<svg
   xmlns:dc="http://purl.org/dc/elements/1.1/"
   xmlns:cc="http://creativecommons.org/ns#"
   xmlns:rdf="http://www.w3.org/1999/02/22-rdf-syntax-ns#"
   xmlns:svg="http://www.w3.org/2000/svg"
   xmlns="http://www.w3.org/2000/svg"
   version="1.1"
   width="1276.7988"
   height="573.1684"
   id="svg5948">
  <defs
     id="defs5950" />
  <metadata
     id="metadata5953">
    <rdf:RDF>
      <cc:Work
         rdf:about="">
        <dc:format>image/svg+xml</dc:format>
        <dc:type
           rdf:resource="http://purl.org/dc/dcmitype/StillImage" />
        <dc:title></dc:title>
      </cc:Work>
    </rdf:RDF>
  </metadata>
  <g
     transform="translate(1584.1137,625.65057)"
     id="layer1">
    <path
       d="m -398.31719,-274.06582 -0.2675,0 c 4.9888,2.75875 8.37,8.06875 8.37,14.17 0,8.94 -7.2525,16.1925 -16.2,16.1925 -8.9462,0 -16.2,-7.2525 -16.2,-16.1925 0,-6.10125 3.3787,-11.41125 8.36,-14.17 l -0.2625,0 c 4.6588,-1.62 7.3563,-10.02625 7.1538,-19.88375 l 2.5575,0 c -0.053,9.58375 2.475,17.82875 6.4887,19.88375"
       id="path856"
       style="fill:#08162c;fill-opacity:1;fill-rule:nonzero;stroke:none" />
    <path
       d="m -436.79319,-510.33907 60.7463,0 c -20.9675,0 -28.6625,20.38625 -28.7588,36.80875 l -2.5588,0 c -0.3387,-16.38375 -8.6949,-36.80875 -29.4287,-36.80875"
       id="path860"
       style="fill:#08162c;fill-opacity:1;fill-rule:nonzero;stroke:none" />
    <path
       d="m -407.36409,-483.13995 2.5575,0 0,189.76875 -2.5575,0 0,-189.76875 z"
       id="path862"
       style="fill:#08162c;fill-opacity:1;fill-rule:nonzero;stroke:none" />
    <path
       d="m -1584.1137,-508.13932 1244.16501,0 32.6338,-58.22875 -32.6338,-59.2825 -1244.16501,0 37.74,59.2825 -37.74,58.22875 z"
       id="path866"
       style="fill:#08162c;fill-opacity:1;fill-rule:nonzero;stroke:none" />
    <path
       d="m -1387.8178,-238.07995 -89.1513,0 0,-23.22375 89.1513,0 0,23.22375 z"
       id="path916"
       style="fill:#2e393d;fill-opacity:1;fill-rule:nonzero;stroke:none" />
    <path
       d="m -1231.2391,-140.6912 -245.73,0 0,-87.6475 245.73,0 0,87.6475 z"
       id="path918"
       style="fill:#24c1e0;fill-opacity:1;fill-rule:nonzero;stroke:none" />
    <path
       d="m -1231.2391,-238.07995 -151.3337,0 0,-23.22375 151.3337,0 0,23.22375 z"
       id="path920"
       style="fill:#ff6633;fill-opacity:1;fill-rule:nonzero;stroke:none" />
    <path
       d="m -1357.5016,-80.607444 -119.4675,0 0,-53.713756 119.4675,0 0,53.713756 z"
       id="path922"
       style="fill:#70848f;fill-opacity:1;fill-rule:nonzero;stroke:none" />
    <path
       d="m -1231.7403,-80.607444 -120.5175,0 0,-53.713756 120.5175,0 0,53.713756 z"
       id="path924"
       style="fill:#70848f;fill-opacity:1;fill-rule:nonzero;stroke:none" />
    <path
       d="m -1061.0203,-326.12119 -65.765,0 0,-23.16751 65.765,0 0,23.16751 z"
       id="path926"
       style="fill:#2e393d;fill-opacity:1;fill-rule:nonzero;stroke:none" />
    <path
       d="m -945.50906,-228.9912 -181.27624,0 0,-87.42 181.27624,0 0,87.42 z"
       id="path928"
       style="fill:#24c1e0;fill-opacity:1;fill-rule:nonzero;stroke:none" />
    <path
       d="m -945.50906,-326.12119 -110.61754,0 0,-23.16751 110.61754,0 0,23.16751 z"
       id="path930"
       style="fill:#ff6633;fill-opacity:1;fill-rule:nonzero;stroke:none" />
    <path
       d="m -1038.6578,-181.54245 -88.1288,0 0,-41.09375 88.1288,0 0,41.09375 z"
       id="path932"
       style="fill:#70848f;fill-opacity:1;fill-rule:nonzero;stroke:none" />
    <path
       d="m -945.88031,-181.54245 -87.37499,0 0,-41.09375 87.37499,0 0,41.09375 z"
       id="path934"
       style="fill:#70848f;fill-opacity:1;fill-rule:nonzero;stroke:none" />
    <path
       d="m -1038.6578,-171.82495 -88.1288,0 0,-4.48374 88.1288,0 0,4.48374 z"
       id="path936"
       style="fill:#70848f;fill-opacity:1;fill-rule:nonzero;stroke:none" />
    <path
       d="m -945.88031,-171.82495 -87.37499,0 0,-4.48374 87.37499,0 0,4.48374 z"
       id="path938"
       style="fill:#70848f;fill-opacity:1;fill-rule:nonzero;stroke:none" />
    <path
       d="m -1038.6578,-164.8512 -88.1288,0 0,-4.48374 88.1288,0 0,4.48374 z"
       id="path940"
       style="fill:#70848f;fill-opacity:1;fill-rule:nonzero;stroke:none" />
    <path
       d="m -945.88031,-164.8512 -87.37499,0 0,-4.48374 87.37499,0 0,4.48374 z"
       id="path942"
       style="fill:#70848f;fill-opacity:1;fill-rule:nonzero;stroke:none" />
    <path
       d="m -1038.6578,-157.87745 -88.1288,0 0,-4.47625 88.1288,0 0,4.47625 z"
       id="path944"
       style="fill:#70848f;fill-opacity:1;fill-rule:nonzero;stroke:none" />
    <path
       d="m -945.88031,-157.87745 -87.37499,0 0,-4.47625 87.37499,0 0,4.47625 z"
       id="path946"
       style="fill:#70848f;fill-opacity:1;fill-rule:nonzero;stroke:none" />
    <path
       d="m -1063.3791,-150.89995 -63.4062,0 0,-4.48125 63.4062,0 0,4.48125 z"
       id="path948"
       style="fill:#70848f;fill-opacity:1;fill-rule:nonzero;stroke:none" />
    <path
       d="m -958.94656,-150.89995 -74.30874,0 0,-4.48125 74.30874,0 0,4.48125 z"
       id="path950"
       style="fill:#70848f;fill-opacity:1;fill-rule:nonzero;stroke:none" />
    <path
       d="m -1038.6578,-137.9437 -88.1288,0 0,-4.47999 88.1288,0 0,4.47999 z"
       id="path952"
       style="fill:#70848f;fill-opacity:1;fill-rule:nonzero;stroke:none" />
    <path
       d="m -945.88031,-137.9437 -87.37499,0 0,-4.47999 87.37499,0 0,4.47999 z"
       id="path954"
       style="fill:#70848f;fill-opacity:1;fill-rule:nonzero;stroke:none" />
    <path
       d="m -1038.6578,-130.96245 -88.1288,0 0,-4.48874 88.1288,0 0,4.48874 z"
       id="path956"
       style="fill:#70848f;fill-opacity:1;fill-rule:nonzero;stroke:none" />
    <path
       d="m -945.88031,-130.96245 -87.37499,0 0,-4.48874 87.37499,0 0,4.48874 z"
       id="path958"
       style="fill:#70848f;fill-opacity:1;fill-rule:nonzero;stroke:none" />
    <path
       d="m -1038.6578,-123.9937 -88.1288,0 0,-4.47875 88.1288,0 0,4.47875 z"
       id="path960"
       style="fill:#70848f;fill-opacity:1;fill-rule:nonzero;stroke:none" />
    <path
       d="m -945.88031,-123.9937 -87.37499,0 0,-4.47875 87.37499,0 0,4.47875 z"
       id="path962"
       style="fill:#70848f;fill-opacity:1;fill-rule:nonzero;stroke:none" />
    <path
       d="m -1093.8753,-117.0162 -32.91,0 0,-4.48 32.91,0 0,4.48 z"
       id="path964"
       style="fill:#70848f;fill-opacity:1;fill-rule:nonzero;stroke:none" />
    <path
       d="m -954.26782,-117.0162 -78.98748,0 0,-4.48 78.98748,0 0,4.48 z"
       id="path966"
       style="fill:#70848f;fill-opacity:1;fill-rule:nonzero;stroke:none" />
    <path
       d="m -1038.6578,-105.35995 -88.1288,0 0,-4.4775 88.1288,0 0,4.4775 z"
       id="path968"
       style="fill:#70848f;fill-opacity:1;fill-rule:nonzero;stroke:none" />
    <path
       d="m -945.88031,-105.35995 -87.37499,0 0,-4.4775 87.37499,0 0,4.4775 z"
       id="path970"
       style="fill:#70848f;fill-opacity:1;fill-rule:nonzero;stroke:none" />
    <path
       d="m -1079.6328,-98.381204 -47.1538,0 0,-4.479986 47.1538,0 0,4.479986 z"
       id="path972"
       style="fill:#70848f;fill-opacity:1;fill-rule:nonzero;stroke:none" />
    <path
       d="m -983.06532,-98.381204 -50.18998,0 0,-4.479986 50.18998,0 0,4.479986 z"
       id="path974"
       style="fill:#70848f;fill-opacity:1;fill-rule:nonzero;stroke:none" />
    <path
       d="m -804.70407,-204.56745 -72.49249,0 0,-23.16874 72.49249,0 0,23.16874 z"
       id="path976"
       style="fill:#2e393d;fill-opacity:1;fill-rule:nonzero;stroke:none" />
    <path
       d="m -804.70407,-88.629954 -72.49249,0 0,-81.444996 72.49249,0 0,81.444996 z"
       id="path978"
       style="fill:#24c1e0;fill-opacity:1;fill-rule:nonzero;stroke:none" />
    <path
       d="m -804.70407,-173.1812 -72.49249,0 0,-23.165 72.49249,0 0,23.165 z"
       id="path980"
       style="fill:#ff6633;fill-opacity:1;fill-rule:nonzero;stroke:none" />
    <path
       d="m -586.49907,-124.7362 -140.98875,0 0,-17.18625 140.98875,0 0,17.18625 z"
       id="path982"
       style="fill:#2e393d;fill-opacity:1;fill-rule:nonzero;stroke:none" />
    <path
       d="m -586.49907,-69.554954 -140.98875,0 0,-29.6525 140.98875,0 0,29.6525 z"
       id="path984"
       style="fill:#24c1e0;fill-opacity:1;fill-rule:nonzero;stroke:none" />
    <path
       d="m -586.49907,-102.3087 -140.98875,0 0,-17.19125 140.98875,0 0,17.19125 z"
       id="path986"
       style="fill:#ff6633;fill-opacity:1;fill-rule:nonzero;stroke:none" />
    <path
       d="m -1485.2673,-73.280954 c -0.3088,0 -0.5863,-0.265 -0.5863,-0.57875 l 0,-194.001246 c 0,-0.3325 0.2775,-0.58375 0.5863,-0.58375 l 261.7487,0 c 0.305,0 0.5738,0.25125 0.5738,0.58375 l 0,194.001246 c 0,0.31375 -0.2688,0.57875 -0.5738,0.57875 l -261.7487,0 z m -22.135,-85.651246 0,0 0,-24.86749 0,-0.0588 c 0,-2.07 1.6512,-3.7275 3.72,-3.7275 2.0575,0 3.715,1.6575 3.715,3.7275 l 0,0.0588 0,24.86749 c -0.037,2.04 -1.6725,3.66625 -3.715,3.66625 -2.0425,0 -3.6913,-1.62625 -3.72,-3.66625 m 304.3225,-11.40875 c 0,1.65251 -1.3563,2.96875 -3.0225,2.96875 -1.6625,0 -3.0188,-1.31624 -3.0188,-2.96875 0,-1.6325 1.3563,-2.955 3.0188,-2.955 1.6662,0 3.0225,1.3225 3.0225,2.955 m 20.46,94.564996 0,-190.176246 c 0,-12.85125 -10.4375,-23.30625 -23.2813,-23.30625 l -296.9875,0 c -12.8512,0 -23.2837,10.455 -23.2837,23.2825 l 0,190.199996 c 0,12.84125 10.4325,23.29375 23.2837,23.29375 l 296.9875,0 c 12.8438,0 23.2813,-10.4525 23.2813,-23.29375"
       id="path998"
       style="fill:#0f2925;fill-opacity:1;fill-rule:nonzero;stroke:none" />
    <path
       d="m -939.24619,-93.384704 c 0,0.3 -0.26,0.5875 -0.575,0.5875 l -193.99371,0 c -0.3363,0 -0.5888,-0.2875 -0.5888,-0.5875 l 0,-261.751246 c 0,-0.31375 0.2525,-0.57875 0.5888,-0.57875 l 193.99371,0 c 0.315,0 0.575,0.265 0.575,0.57875 l 0,261.751246 z m -85.63751,22.12875 0,0 -24.8775,0 -0.058,0 c -2.0712,0 -3.7237,-1.64125 -3.7237,-3.7175 0,-2.05125 1.6525,-3.7225 3.7237,-3.7225 l 0.058,0 24.8775,0 c 2.0325,0.0438 3.6638,1.6825 3.6638,3.7225 0,2.04625 -1.6313,3.68875 -3.6638,3.7175 m -11.4175,-304.322496 c 1.6513,0 2.9663,1.3575 2.9663,3.0225 0,1.665 -1.315,3.02375 -2.9663,3.02375 -1.6337,0 -2.96,-1.35875 -2.96,-3.02375 0,-1.665 1.3263,-3.0225 2.96,-3.0225 m 94.55751,-20.46625 -190.17001,0 c -12.8512,0 -23.3025,10.44625 -23.3025,23.28375 l 0,296.996246 c 0,12.84625 10.4513,23.2825 23.2838,23.2825 l 190.18871,0 c 12.85625,0 23.3,-10.43625 23.3,-23.2825 l 0,-296.996246 c 0,-12.8375 -10.44375,-23.28375 -23.3,-23.28375"
       id="path1002"
       style="fill:#0f2925;fill-opacity:1;fill-rule:nonzero;stroke:none" />
    <path
       d="m -801.80544,-85.475704 c 0,0.415 -0.305,0.73625 -0.6775,0.73625 l -77.2575,0 c -0.37875,0 -0.68625,-0.32125 -0.68625,-0.73625 l 0,-145.596236 c 0,-0.3925 0.3075,-0.7225 0.68625,-0.7225 l 77.2575,0 c 0.3725,0 0.6775,0.33 0.6775,0.7225 l 0,145.596236 z m -31.875,18.25626 0,0 -14.7575,0 0,0 c -0.002,0 -0.02,0 -0.0438,0 -2.06875,0 -3.72,-1.66251 -3.72,-3.70751 0,-2.05625 1.65125,-3.73249 3.72,-3.73249 l 0.0438,0 14.7575,0 c 2.0275,0.0525 3.6575,1.69624 3.6575,3.73249 0,2.02625 -1.63,3.67625 -3.6575,3.7025 m -7.4475,-178.256246 c 1.66,0 2.97125,1.3525 2.97125,3 0,1.66876 -1.31125,3.0325 -2.97125,3.0325 -1.63625,0 -2.95375,-1.36374 -2.95375,-3.0325 0,-1.6475 1.3175,-3 2.95375,-3 m 30.1675,-8.87375 -60.3125,0 c -12.80375,0 -23.24,10.41375 -23.24,23.22625 l 0,155.412496 c 0,12.79875 10.43625,23.22876 23.24,23.22876 l 60.3125,0 c 12.8275,0 23.2425,-10.43001 23.2425,-23.22876 l 0,-155.412496 c 0,-12.8125 -10.415,-23.22625 -23.2425,-23.22625"
       id="path1006"
       style="fill:#0f2925;fill-opacity:1;fill-rule:nonzero;stroke:none" />
    <path
       d="m -729.59231,-66.573204 c -0.41001,0 -0.72625,-0.3075 -0.72625,-0.68 l 0,-77.246246 c 0,-0.3875 0.31624,-0.69125 0.72625,-0.69125 l 145.59872,0 c 0.3938,0 0.7275,0.30375 0.7275,0.69125 l 0,77.246246 c 0,0.3725 -0.3337,0.68 -0.7275,0.68 l -145.59872,0 z m -18.25501,-31.87625 -0.002,0 0,-14.751246 0.002,0 c 0,-0.0125 -0.002,-0.0225 -0.002,-0.0412 0,-2.075 1.66375,-3.7275 3.70874,-3.7275 2.05001,0 3.72375,1.6525 3.72375,3.7275 l 0,0.0412 0,14.751246 c -0.0425,2.03125 -1.68249,3.6625 -3.72375,3.6625 -2.0275,0 -3.675,-1.63125 -3.70625,-3.6625 m 178.26004,-7.447496 c 0,1.66125 -1.345,2.9775 -2.9963,2.9775 -1.6725,0 -3.0337,-1.31625 -3.0337,-2.9775 0,-1.635 1.3612,-2.95125 3.0337,-2.95125 1.6513,0 2.9963,1.31625 2.9963,2.95125 m 8.875,30.172496 0,-60.313746 c 0,-12.81125 -10.4225,-23.2375 -23.23,-23.2375 l -155.41753,0 c -12.79876,0 -23.21625,10.42625 -23.21625,23.2375 l 0,60.313746 c 0,12.82375 10.41749,23.24125 23.21625,23.24125 l 155.41753,0 c 12.8075,0 23.23,-10.4175 23.23,-23.24125"
       id="path1010"
       style="fill:#0f2925;fill-opacity:1;fill-rule:nonzero;stroke:none" />
    <path
       d="m -1408.8086,-407.64619 c -4.1887,0 -5.9587,3.7675 -6.2875,6.60874 l 11.9738,0 c 0.049,-2.5625 -1.07,-6.60874 -5.6863,-6.60874"
       id="path1042"
       style="fill:#70848f;fill-opacity:1;fill-rule:nonzero;stroke:none" />
    <path
       d="m -1414.5349,-369.42107 c -6.7575,0 -10.11,6.245 -10.11,13.095 0,6.7575 3.635,12.76125 10.065,12.76125 6.425,0 10.0587,-5.91375 10.0587,-13.04125 0,-6.29 -3.2562,-12.815 -10.0137,-12.815"
       id="path1046"
       style="fill:#70848f;fill-opacity:1;fill-rule:nonzero;stroke:none" />
    <path
       d="m -1471.2311,-390.0912 c 2.9838,0 4.89,-1.8625 5.5425,-3.77374 0.1388,-0.46251 0.1838,-0.93 0.1838,-1.30001 l 0,-3.91124 c -4.4688,-0.0987 -9.5463,0.6875 -9.5463,5.07249 0,2.7025 1.7688,3.9125 3.82,3.9125"
       id="path1050"
       style="fill:#70848f;fill-opacity:1;fill-rule:nonzero;stroke:none" />
    <path
       d="m -1464.7564,-368.5812 -0.091,0 c -0.4688,1.82375 -0.935,3.77875 -1.5863,5.685 l -3.0737,9.08375 9.5025,0 -3.1213,-9.03875 c -0.6987,-2.0525 -1.165,-3.90625 -1.63,-5.73"
       id="path1054"
       style="fill:#70848f;fill-opacity:1;fill-rule:nonzero;stroke:none" />
    <path
       d="m -1444.5373,-390.31945 c 4.33,0 6.8475,-3.495 6.8475,-8.6675 0,-4.51375 -2.3288,-8.38625 -6.7538,-8.38625 -2.7487,0 -5.3575,1.95625 -6.1937,5.03376 -0.1425,0.51624 -0.2338,1.07374 -0.2338,1.72249 l 0,4.005 c 0,0.5125 0.048,1.025 0.185,1.4925 0.7425,2.83875 3.1688,4.8 6.1488,4.8"
       id="path1058"
       style="fill:#70848f;fill-opacity:1;fill-rule:nonzero;stroke:none" />
    <path
       d="m -1345.1672,-368.7192 -9.5937,0 0,27.95125 -4.1025,0 0,-27.95125 -9.5475,0 0,-3.45 23.2437,0 0,3.45 z m -26.6937,14.9075 c 0,9.64875 -5.0788,13.56 -11.88,13.56 -6.4275,0 -11.2763,-3.6325 -11.2763,-13.4175 l 0,-18.5 4.1,0 0,18.635 c 0,6.98625 3.1213,9.96875 7.3175,9.96875 4.6125,0 7.6388,-3.075 7.6388,-9.96875 l 0,-18.635 4.1,0 0,18.3575 z m -24.7825,-56.30875 3.4925,0 0,-4.18625 4.005,-1.2225 0,5.40875 5.8712,0 0,3.11626 -5.8712,0 0,12.165 c 0,2.79249 0.7925,4.37749 3.075,4.37749 1.12,0 1.7687,-0.0975 2.3762,-0.2775 l 0.1838,3.1175 c -0.7913,0.28626 -2.0463,0.56501 -3.63,0.56501 -1.9088,0 -3.4475,-0.655 -4.425,-1.7275 -1.12,-1.26251 -1.585,-3.26251 -1.585,-5.92 l 0,-12.3 -3.4925,0 0,-3.11626 z m -2.6588,12.02 -15.8362,0 c 0.089,5.54125 3.5825,7.82375 7.73,7.82375 2.935,0 4.7537,-0.51625 6.2425,-1.16499 l 0.7437,2.9375 c -1.44,0.6475 -3.9575,1.44749 -7.5425,1.44749 -6.9437,0 -11.0875,-4.6125 -11.0875,-11.41624 0,-6.8025 4.0025,-12.11001 10.575,-12.11001 7.405,0 9.3188,6.42501 9.3188,10.57126 0,0.8375 -0.047,1.4425 -0.1438,1.91125 m -15.5125,57.84875 c -8.3362,0 -14.1175,-6.47875 -14.1175,-15.98 0,-9.97 6.15,-16.495 14.535,-16.495 8.6213,0 14.1638,6.57 14.1638,15.9375 0,10.75375 -6.5688,16.5375 -14.5813,16.5375 m -24.69,-13.88625 0,13.37 -4.0987,0 0,-13.32375 -9.97,-18.0775 4.6562,0 4.4263,8.67 c 1.1637,2.37625 2.1412,4.28125 3.12,6.475 l 0.096,0 c 0.8375,-2.05 1.9575,-4.09875 3.1662,-6.475 l 4.5175,-8.67 4.5663,0 -10.48,18.03125 z m -16.3512,13.37 -3.3575,-9.87375 -11.1325,0 -3.26,9.87375 -4.195,0 10.7137,-31.40125 4.8475,0 10.7138,31.40125 -4.33,0 z m -9.7388,-61.15375 0,-0.46375 c 0,-1.8175 -0.5137,-5.22125 -5.1212,-5.17625 -2.145,0 -4.335,0.60375 -5.9225,1.68125 l -0.9275,-2.7475 c 1.8612,-1.16875 4.61,-1.955 7.4537,-1.955 6.8925,0 8.5725,4.7025 8.5725,9.17375 l 0,8.42625 c 0,1.96375 0.091,3.8725 0.325,5.41375 l -3.68,0 -0.3262,-2.845 -0.1425,0 c -1.2575,1.76625 -3.68,3.3575 -6.8913,3.3575 -4.5662,0 -6.8975,-3.22 -6.8975,-6.48375 0,-5.44625 4.8438,-8.4275 13.5575,-8.38125 m -14.35,61.15375 -17.5187,0 0,-31.40125 4.1037,0 0,28.00625 13.415,0 0,3.395 z m -21.0575,-78.205 23.2475,0 0,3.44375 -9.5987,0 0,27.96 -4.0975,0 0,-27.96 -9.5513,0 0,-3.44375 z m 46.0775,25.57625 0,-27.25 4.0538,0 0,14.16125 0.091,0 c 1.4462,-2.51376 4.0537,-4.09751 7.6887,-4.09751 5.6325,0 9.5463,4.6575 9.5463,11.45375 0,8.0625 -5.1238,12.0725 -10.1563,12.0725 -3.2587,0 -5.8687,-1.25875 -7.5925,-4.195 l -0.091,0 -0.2325,3.6825 -3.4937,0 c 0.091,-1.54125 0.1862,-3.8275 0.1862,-5.8275 m 26.5088,-27.25 4.1,0 0,33.0775 -4.1,0 0,-33.0775 z m 102.9212,-19.86375 -190.0975,0 c -5.6237,0 -10.225,4.60376 -10.225,10.22375 l 0,102.73376 c 0,5.62249 4.6013,10.2225 10.225,10.2225 l 190.0975,0 c 5.6225,0 10.2238,-4.60001 10.2238,-10.2225 l 0,-102.73376 c 0,-5.61999 -4.6013,-10.22375 -10.2238,-10.22375"
       id="path1062"
       style="fill:#70848f;fill-opacity:1;fill-rule:nonzero;stroke:none" />
    <path
       d="m -558.48759,-274.46745 c -4.7987,0 -6.8962,4.465 -6.8962,8.71 0,4.9375 2.7962,8.66625 6.7987,8.66625 3.915,0 6.8488,-3.6825 6.8488,-8.75625 0,-3.8225 -1.9038,-8.62 -6.7513,-8.62"
       id="path1066"
       style="fill:#70848f;fill-opacity:1;fill-rule:nonzero;stroke:none" />
    <path
       d="m -653.33856,-236.3742 c -6.7575,0 -10.11001,6.2375 -10.11001,13.08625 0,6.7575 3.62876,12.7725 10.05876,12.7725 6.43125,0 10.06125,-5.91875 10.06125,-13.04625 0,-6.29 -3.2525,-12.8125 -10.01,-12.8125"
       id="path1070"
       style="fill:#70848f;fill-opacity:1;fill-rule:nonzero;stroke:none" />
    <path
       d="m -703.55832,-235.53682 -0.0963,0 c -0.465,1.8175 -0.9325,3.775 -1.58624,5.685 l -3.07001,9.0825 9.5,0 -3.12,-9.0375 c -0.69999,-2.0525 -1.16249,-3.9125 -1.6275,-5.73"
       id="path1074"
       style="fill:#70848f;fill-opacity:1;fill-rule:nonzero;stroke:none" />
    <path
       d="m -609.77969,-274.28307 c -2.79625,0 -5.45,1.955 -6.1975,5.03 -0.14,0.51375 -0.28,1.11625 -0.28,1.62875 l 0,3.9125 c 0,0.61125 0.0488,1.17 0.18875,1.6825 0.74375,2.84 3.21,4.7975 6.14875,4.7975 4.32875,0 6.84625,-3.54125 6.84625,-8.715 0,-4.47 -2.375,-8.33625 -6.70625,-8.33625"
       id="path1078"
       style="fill:#70848f;fill-opacity:1;fill-rule:nonzero;stroke:none" />
    <path
       d="m -672.20456,-260.96407 c 0,2.71125 1.76875,3.9125 3.815,3.9125 2.985,0 4.8925,-1.8575 5.545,-3.76875 0.1425,-0.46625 0.18875,-0.93 0.18875,-1.305 l 0,-3.9125 c -4.4725,-0.0975 -9.54875,0.69375 -9.54875,5.07375"
       id="path1082"
       style="fill:#70848f;fill-opacity:1;fill-rule:nonzero;stroke:none" />
    <path
       d="m -498.38869,-265.05582 -15.8412,0 c 0.091,5.54125 3.5875,7.82375 7.7362,7.82375 2.9275,0 4.7488,-0.51375 6.2375,-1.17 l 0.7475,2.9425 c -1.4437,0.65 -3.9575,1.4425 -7.5475,1.4425 -6.94,0 -11.085,-4.6125 -11.085,-11.4175 0,-6.8025 4.0025,-12.10875 10.5713,-12.10875 7.405,0 9.3175,6.43 9.3175,10.57625 0,0.8325 -0.049,1.44875 -0.1363,1.91125 m -24.7875,10.52625 -4.1,0 0,-12.99625 c 0,-3.6325 -1.3512,-6.6675 -5.2175,-6.6675 -2.6512,0 -4.75,1.91625 -5.4975,4.19125 -0.1875,0.52125 -0.2762,1.215 -0.2762,1.91625 l 0,13.55625 -4.1,0 0,-16.445 c 0,-2.37875 -0.049,-4.23875 -0.1913,-6.1075 l 3.6388,0 0.2312,3.72875 0.091,0 c 1.1225,-2.09375 3.7312,-4.19 7.455,-4.19 3.1225,0 7.9662,1.8625 7.9662,9.59625 l 0,13.4175 z m -35.5912,0.5125 c -6.0551,0 -10.8088,-4.4775 -10.8088,-11.6 0,-7.5025 4.9837,-11.92625 11.18,-11.92625 6.475,0 10.8575,4.7025 10.8575,11.55125 0,8.3425 -5.825,11.975 -11.2287,11.975 m -15.84,-0.5125 -4.1026,0 0,-12.95 c 0,-3.63375 -1.3512,-6.66125 -5.2149,-6.66125 -2.65505,0 -4.70755,1.86375 -5.49755,4.04875 -0.23375,0.61125 -0.28,1.21375 -0.28,1.955 l 0,13.6075 -4.09875,0 0,-33.07875 4.09875,0 0,14.11125 0.095,0 c 0.65,-1.15625 1.67625,-2.235 2.93375,-2.925 1.215,-0.70125 2.6575,-1.12125 4.1887,-1.12125 3.0326,0 7.8775,1.8625 7.8775,9.59625 l 0,13.4175 z m -9.3663,18.855 -9.595,0 0,27.94625 -4.09875,0 0,-27.94625 -9.55125,0 0,-3.45 23.245,0 0,3.45 z m -32.1925,-21.885 -0.0912,0 0,12.25375 -4.05375,0 0,-24.41 c 0,-2.89625 -0.0913,-5.22375 -0.18625,-7.36625 l 3.63625,0 0.23,3.87 0.095,0 c 1.63125,-2.74875 4.33,-4.33125 8.015,-4.33125 5.49,0 9.59375,4.6125 9.59375,11.40875 0,8.1075 -4.98375,12.1175 -10.295,12.1175 -2.98375,0 -5.58875,-1.3075 -6.94375,-3.5425 m 5.4975,36.79125 c 0,9.645 -5.075,13.56125 -11.8775,13.56125 -6.43,0 -11.27125,-3.63875 -11.27125,-13.4175 l 0,-18.5 4.0975,0 0,18.635 c 0,6.98625 3.1225,9.97375 7.31625,9.97375 4.6075,0 7.6375,-3.0775 7.6375,-9.97375 l 0,-18.635 4.0975,0 0,18.35625 z m -27.62125,-53.19125 0,-3.1225 3.49,0 0,-4.185 4.0075,-1.215 0,5.4 5.87,0 0,3.1225 -5.87,0 0,12.165 c 0,2.78625 0.79,4.3725 3.0775,4.3725 1.1175,0 1.77,-0.085 2.37375,-0.2725 l 0.1825,3.12 c -0.78625,0.2775 -2.04375,0.5575 -3.62625,0.5575 -1.9125,0 -3.4525,-0.65625 -4.4275,-1.7275 -1.12125,-1.24875 -1.5875,-3.26375 -1.5875,-5.9125 l 0,-12.3025 -3.49,0 z m -15.33125,66.7525 c -8.33625,0 -14.1125,-6.47875 -14.1125,-15.985 0,-9.965 6.14875,-16.485 14.53125,-16.485 8.62,0 14.16375,6.565 14.16375,15.9275 0,10.75875 -6.57,16.5425 -14.5825,16.5425 m -24.6875,-13.88625 0,13.365 -4.1025,0 0,-13.31875 -9.97,-18.0775 4.6575,0 4.42875,8.67 c 1.1625,2.3775 2.14,4.28 3.12125,6.47 l 0.0887,0 c 0.84125,-2.045 1.96125,-4.0925 3.17125,-6.47 l 4.51875,-8.67 4.56625,0 -10.48,18.03125 z m -16.35625,13.365 -3.35375,-9.875 -11.13375,0 -3.26375,9.875 -4.18875,0 10.7175,-31.39625 4.84125,0 10.7175,31.39625 -4.33625,0 z m -24.085,0 -17.51625,0 0,-31.39625 4.1,0 0,28.00125 13.41625,0 0,3.395 z m -10.1088,-61.24625 c -5.12375,-1.865 -8.29125,-4.5625 -8.29125,-8.94125 0,-4.8925 4.05125,-8.53125 10.15875,-8.53125 3.16375,0 5.54125,0.74625 6.89,1.54125 l -1.12,3.30625 c -0.9775,-0.60375 -3.07625,-1.48875 -5.9125,-1.48875 -4.285,0 -5.92,2.5675 -5.92,4.71 0,2.93125 1.91375,4.37375 6.23875,6.05125 5.3175,2.05125 7.975,4.6125 7.975,9.22625 0,4.8475 -3.54375,9.08375 -10.94875,9.08375 -3.03125,0 -6.335,-0.93 -8.015,-2.05375 l 1.075,-3.39625 c 1.81375,1.16 4.425,2.045 7.21625,2.045 4.14875,0 6.56875,-2.185 6.56875,-5.35375 0,-2.89125 -1.67625,-4.61375 -5.915,-6.19875 m 18.86875,-8.1075 0.18125,3.68375 0.14375,0 c 1.25625,-2.145 3.35625,-4.145 7.1275,-4.145 3.0275,0 5.36,1.8625 6.335,4.51375 l 0.0963,0 c 0.69625,-1.29875 1.62875,-2.22875 2.55875,-2.93125 1.35125,-1.025 2.79625,-1.5825 4.94,-1.5825 3.03125,0 7.4525,1.96 7.4525,9.785 l 0,13.22875 -4.0075,0 0,-12.71625 c 0,-4.38 -1.62875,-6.9475 -4.89,-6.9475 -2.375,0 -4.1425,1.73 -4.89,3.68375 -0.18875,0.605 -0.33,1.3075 -0.33,2.04875 l 0,13.93125 -4.00375,0 0,-13.50875 c 0,-3.5875 -1.5825,-6.155 -4.70625,-6.155 -2.515,0 -4.42625,2.055 -5.075,4.10125 -0.24125,0.5575 -0.325,1.305 -0.325,2.00625 l 0,13.55625 -4.00875,0 0,-16.445 c 0,-2.37875 -0.095,-4.23875 -0.18625,-6.1075 l 3.5875,0 z m 42.11375,2.57125 c -2.1425,0 -4.32875,0.6 -5.92,1.67 l -0.925,-2.7425 c 1.86125,-1.16875 4.61,-1.96 7.44875,-1.96 6.8975,0 8.57625,4.7025 8.57625,9.17875 l 0,8.43 c 0,1.955 0.0912,3.86375 0.32625,5.405 l -3.6825,0 -0.32375,-2.84125 -0.14,0 c -1.26125,1.7675 -3.68125,3.35375 -6.8975,3.35375 -4.56125,0 -6.89125,-3.215 -6.89125,-6.48 0,-5.45 4.84375,-8.43125 13.5575,-8.38125 l 0,-0.4675 c 0,-1.8125 -0.515,-5.22125 -5.12875,-5.165 m 19.19625,-2.57125 0.185,4.47 0.1375,0 c 1.02625,-3.03 3.54375,-4.93125 6.29,-4.93125 0.42125,0 0.75,0.0437 1.12,0.09 l 0,3.86625 c -0.42,-0.0925 -0.84125,-0.0925 -1.3975,-0.0925 -2.885,0 -4.94375,2.14375 -5.4975,5.21875 -0.0937,0.55875 -0.13875,1.25875 -0.13875,1.91125 l 0,12.02 -4.0975,0 0,-15.5125 c 0,-2.655 -0.0512,-4.9425 -0.19,-7.04 l 3.58875,0 z m 165.15125,-30.38875 -270.87125,0 c -5.6225,0 -10.22125,4.6025 -10.22125,10.23125 l 0,102.725 c 0,5.62375 4.59875,10.2225 10.22125,10.2225 l 270.87125,0 c 5.6225,0 10.2275,-4.59875 10.2275,-10.2225 l 0,-102.725 c 0,-5.62875 -4.605,-10.23125 -10.2275,-10.23125"
       id="path1086"
       style="fill:#70848f;fill-opacity:1;fill-rule:nonzero;stroke:none" />
    <path
       d="m -507.89429,-274.60782 c -4.1938,0 -5.9638,3.76875 -6.29,6.615 l 11.9725,0 c 0.047,-2.5625 -1.0725,-6.615 -5.6825,-6.615"
       id="path1090"
       style="fill:#70848f;fill-opacity:1;fill-rule:nonzero;stroke:none" />
    <path
       d="m -1247.9644,-308.78145 -20.1438,-26.08875 39.6238,0 -19.48,26.08875 z"
       id="path1134"
       style="fill:#70848f;fill-opacity:1;fill-rule:nonzero;stroke:none" />
    <path
       d="m -1280.1477,-431.92832 c 0,5.6925 -4.615,10.2925 -10.2962,10.2925 -5.69,0 -10.2988,-4.6 -10.2988,-10.2925 0,-5.685 4.6088,-10.2975 10.2988,-10.2975 5.6812,0 10.2962,4.6125 10.2962,10.2975"
       id="path1138"
       style="fill:#70848f;fill-opacity:1;fill-rule:nonzero;stroke:none" />
    <path
       d="m -1249.9457,-422.59245 c 0,5.68375 -4.6075,10.29751 -10.2962,10.29751 -5.6838,0 -10.2975,-4.61376 -10.2975,-10.29751 0,-5.68499 4.6137,-10.2975 10.2975,-10.2975 5.6887,0 10.2962,4.6125 10.2962,10.2975"
       id="path1142"
       style="fill:#70848f;fill-opacity:1;fill-rule:nonzero;stroke:none" />
    <path
       d="m -1238.5479,-392.2567 c 0,5.69 -4.6088,10.2975 -10.2975,10.2975 -5.6825,0 -10.2963,-4.6075 -10.2963,-10.2975 0,-5.685 4.6138,-10.2925 10.2963,-10.2925 5.6887,0 10.2975,4.6075 10.2975,10.2925"
       id="path1146"
       style="fill:#70848f;fill-opacity:1;fill-rule:nonzero;stroke:none" />
    <path
       d="m -1237.7258,-359.30382 c 0,5.69125 -4.6075,10.2975 -10.2975,10.2975 -5.6813,0 -10.2963,-4.60625 -10.2963,-10.2975 0,-5.6925 4.615,-10.2925 10.2963,-10.2925 5.69,0 10.2975,4.6 10.2975,10.2925"
       id="path1150"
       style="fill:#70848f;fill-opacity:1;fill-rule:nonzero;stroke:none" />
    <path
       d="m -1170.1782,-393.4762 -26.0837,20.1375 0,-39.6225 26.0837,19.485 z"
       id="path1154"
       style="fill:#70848f;fill-opacity:1;fill-rule:nonzero;stroke:none" />
    <path
       d="m -1217.4084,-403.45057 c 5.6887,0 10.2962,4.6125 10.2962,10.2975 0,5.685 -4.6075,10.29875 -10.2962,10.29875 -5.6888,0 -10.2963,-4.61375 -10.2963,-10.29875 0,-5.685 4.6075,-10.2975 10.2963,-10.2975"
       id="path1158"
       style="fill:#70848f;fill-opacity:1;fill-rule:nonzero;stroke:none" />
    <path
       d="m -843.75919,-275.96519 20.14375,-26.09501 -39.6225,0 19.47875,26.09501 z"
       id="path1162"
       style="fill:#70848f;fill-opacity:1;fill-rule:nonzero;stroke:none" />
    <path
       d="m -763.24944,-420.81507 c 0,5.69375 4.6125,10.2975 10.295,10.2975 5.69125,0 10.29625,-4.60375 10.29625,-10.2975 0,-5.68375 -4.605,-10.2975 -10.29625,-10.2975 -5.6825,0 -10.295,4.61375 -10.295,10.2975"
       id="path1166"
       style="fill:#70848f;fill-opacity:1;fill-rule:nonzero;stroke:none" />
    <path
       d="m -741.28719,-395.5527 c 0,5.69 4.61625,10.29875 10.29875,10.29875 5.6875,0 10.295,-4.60875 10.295,-10.29875 0,-5.67874 -4.6075,-10.2975 -10.295,-10.2975 -5.6825,0 -10.29875,4.61875 -10.29875,10.2975"
       id="path1170"
       style="fill:#70848f;fill-opacity:1;fill-rule:nonzero;stroke:none" />
    <path
       d="m -736.34331,-364.24644 c 0,5.68999 4.61625,10.29749 10.29874,10.29749 5.69001,0 10.29501,-4.6075 10.29501,-10.29749 0,-5.68751 -4.605,-10.29251 -10.29501,-10.29251 -5.68249,0 -10.29874,4.60501 -10.29874,10.29251"
       id="path1174"
       style="fill:#70848f;fill-opacity:1;fill-rule:nonzero;stroke:none" />
    <path
       d="m -735.24294,-332.94407 c 0,5.69375 4.615,10.2925 10.2975,10.2925 5.68875,0 10.2975,-4.59875 10.2975,-10.2925 0,-5.68375 -4.60875,-10.2975 -10.2975,-10.2975 -5.6825,0 -10.2975,4.61375 -10.2975,10.2975"
       id="path1178"
       style="fill:#70848f;fill-opacity:1;fill-rule:nonzero;stroke:none" />
    <path
       d="m -795.51819,-429.59557 c 0,5.69 4.61,10.2975 10.29875,10.2975 5.685,0 10.295,-4.6075 10.295,-10.2975 0,-5.685 -4.61,-10.2975 -10.295,-10.2975 -5.68875,0 -10.29875,4.6125 -10.29875,10.2975"
       id="path1182"
       style="fill:#70848f;fill-opacity:1;fill-rule:nonzero;stroke:none" />
    <path
       d="m -827.68732,-419.0292 c 0,5.69125 4.61251,10.2975 10.29876,10.2975 5.68749,0 10.29499,-4.60625 10.29499,-10.2975 0,-5.685 -4.6075,-10.2975 -10.29499,-10.2975 -5.68625,0 -10.29876,4.6125 -10.29876,10.2975"
       id="path1186"
       style="fill:#70848f;fill-opacity:1;fill-rule:nonzero;stroke:none" />
    <path
       d="m -846.17432,-391.9772 c 0,5.68375 4.61,10.2975 10.29875,10.2975 5.6825,0 10.295,-4.61375 10.295,-10.2975 0,-5.69125 -4.6125,-10.29875 -10.295,-10.29875 -5.68875,0 -10.29875,4.6075 -10.29875,10.29875"
       id="path1190"
       style="fill:#70848f;fill-opacity:1;fill-rule:nonzero;stroke:none" />
    <path
       d="m -853.17381,-359.44182 c 0,5.6925 4.605,10.2925 10.295,10.2925 5.6825,0 10.3,-4.6 10.3,-10.2925 0,-5.69 -4.6175,-10.2975 -10.3,-10.2975 -5.69,0 -10.295,4.6075 -10.295,10.2975"
       id="path1194"
       style="fill:#70848f;fill-opacity:1;fill-rule:nonzero;stroke:none" />
    <path
       d="m -854.00081,-326.49382 c 0,5.69375 4.6075,10.2975 10.29875,10.2975 5.6825,0 10.295,-4.60375 10.295,-10.2975 0,-5.69 -4.61251,-10.2975 -10.295,-10.2975 -5.69125,0 -10.29875,4.6075 -10.29875,10.2975"
       id="path1198"
       style="fill:#70848f;fill-opacity:1;fill-rule:nonzero;stroke:none" />
    <path
       d="m -547.43639,-105.80532 26.0912,-20.13875 0,39.623746 -26.0912,-19.484996 z"
       id="path1202"
       style="fill:#70848f;fill-opacity:1;fill-rule:nonzero;stroke:none" />
    <path
       d="m -453.11029,-186.9992 c -5.69,0 -10.2975,-4.61375 -10.2975,-10.2975 0,-5.68499 4.6075,-10.29875 10.2975,-10.29875 5.68,0 10.2962,4.61375 10.2962,10.29875 0,5.68375 -4.6162,10.2975 -10.2962,10.2975"
       id="path1206"
       style="fill:#70848f;fill-opacity:1;fill-rule:nonzero;stroke:none" />
    <path
       d="m -437.73679,-157.34582 c -5.6913,0 -10.2988,-4.61 -10.2988,-10.2925 0,-5.6875 4.6075,-10.29875 10.2988,-10.29875 5.6787,0 10.295,4.61125 10.295,10.29875 0,5.6825 -4.6163,10.2925 -10.295,10.2925"
       id="path1210"
       style="fill:#70848f;fill-opacity:1;fill-rule:nonzero;stroke:none" />
    <path
       d="m -442.81429,-126.2692 c -5.6913,0 -10.2963,-4.6125 -10.2963,-10.3 0,-5.69 4.605,-10.29875 10.2963,-10.29875 5.6812,0 10.2975,4.60875 10.2975,10.29875 0,5.6875 -4.6163,10.3 -10.2975,10.3"
       id="path1214"
       style="fill:#70848f;fill-opacity:1;fill-rule:nonzero;stroke:none" />
    <path
       d="m -464.37259,-103.39195 c -5.6875,0 -10.2975,-4.61 -10.2975,-10.29875 0,-5.67875 4.61,-10.29375 10.2975,-10.29375 5.6913,0 10.295,4.615 10.295,10.29375 0,5.68875 -4.6037,10.29875 -10.295,10.29875"
       id="path1218"
       style="fill:#70848f;fill-opacity:1;fill-rule:nonzero;stroke:none" />
    <path
       d="m -496.90919,-96.390074 c -5.6875,0 -10.2975,-4.608746 -10.2975,-10.298746 0,-5.67875 4.61,-10.2925 10.2975,-10.2925 5.6913,0 10.2963,4.61375 10.2963,10.2925 0,5.69 -4.605,10.298746 -10.2963,10.298746"
       id="path1222"
       style="fill:#70848f;fill-opacity:1;fill-rule:nonzero;stroke:none" />
    <text
       x="-1484.2906"
       y="-544.67133"
       id="text1228"
       style="font-size:15px">
      <tspan
         x="-1484.2906 -1423.7054 -1367.1593 -1328.1156 -1309.2668 -1279.6473 -1244.6426 -1225.7939 -1186.7501 -1151.7454 -1116.7406 -1079.0431 -1022.4969 -972.6825 -937.67773 -918.82898 -871.70715 -836.70239 -817.85364 -757.26849 -722.26367 -683.21991 -664.37122 -617.24939 -582.24463 -547.23981 -528.39105 -471.84488"
         y="-544.67133"
         id="tspan1230"
         style="font-size:67.31687927px;font-variant:normal;font-weight:bold;font-stretch:normal;writing-mode:lr-tb;fill:#ffffff;fill-opacity:1;fill-rule:nonzero;stroke:none;font-family:Century Gothic;-inkscape-font-specification:CenturyGothic-Bold">MOBILE RESPONSIVE WEB DESIGN</tspan>
    </text>
  </g>
</svg>
