<?xml version="1.0" encoding="UTF-8" standalone="no"?>
<!-- Created with Inkscape (http://www.inkscape.org/) -->

<svg
   xmlns:dc="http://purl.org/dc/elements/1.1/"
   xmlns:cc="http://creativecommons.org/ns#"
   xmlns:rdf="http://www.w3.org/1999/02/22-rdf-syntax-ns#"
   xmlns:svg="http://www.w3.org/2000/svg"
   xmlns="http://www.w3.org/2000/svg"
   version="1.1"
   width="1156.7563"
   height="630.33765"
   id="svg5726">
  <defs
     id="defs5728" />
  <metadata
     id="metadata5731">
    <rdf:RDF>
      <cc:Work
         rdf:about="">
        <dc:format>image/svg+xml</dc:format>
        <dc:type
           rdf:resource="http://purl.org/dc/dcmitype/StillImage" />
        <dc:title></dc:title>
      </cc:Work>
    </rdf:RDF>
  </metadata>
  <g
     transform="translate(1692.6639,442.80663)"
     id="layer1">
    <path
       d="m -1601.658,-91.218632 0.2625,0 c -4.985,2.76 -8.365,8.06875 -8.365,14.16875 0,8.945 7.2513,16.195 16.1988,16.195 8.9437,0 16.1975,-7.25 16.1975,-16.195 0,-6.1 -3.3775,-11.40875 -8.36,-14.16875 l 0.265,0 c -4.66,-1.61875 -7.3575,-10.026248 -7.1575,-19.891248 l -2.555,0 c 0.051,9.59375 -2.4788,17.836248 -6.4863,19.891248"
       id="path842"
       style="fill:#08162c;fill-opacity:1;fill-rule:nonzero;stroke:none" />
    <path
       d="m -1563.1875,-327.48451 -60.745,0 c 20.9675,0 28.665,20.37875 28.7613,36.80126 l 2.555,0 c 0.34,-16.38626 8.7012,-36.80126 29.4287,-36.80126"
       id="path846"
       style="fill:#08162c;fill-opacity:1;fill-rule:nonzero;stroke:none" />
    <path
       d="m -1592.6157,-300.29175 -2.555,0 0,189.77125 2.555,0 0,-189.77125 z"
       id="path848"
       style="fill:#08162c;fill-opacity:1;fill-rule:nonzero;stroke:none" />
    <path
       d="m -1059.7701,-325.28788 -600.2563,0 -32.6375,-58.23875 32.6375,-59.28 600.2563,0 -37.7363,59.28 37.7363,58.23875 z"
       id="path852"
       style="fill:#08162c;fill-opacity:1;fill-rule:nonzero;stroke:none" />
    <path
       d="m -1328.8395,-186.41675 -118.5675,0 0,-30.88625 118.5675,0 0,30.88625 z"
       id="path868"
       style="fill:#2e393d;fill-opacity:1;fill-rule:nonzero;stroke:none" />
    <path
       d="m -1120.5995,-56.891752 -326.8087,0 0,-116.574998 326.8087,0 0,116.574998 z"
       id="path870"
       style="fill:#24c1e0;fill-opacity:1;fill-rule:nonzero;stroke:none" />
    <path
       d="m -1120.5995,-186.41675 -201.2662,0 0,-30.88625 201.2662,0 0,30.88625 z"
       id="path872"
       style="fill:#ff6633;fill-opacity:1;fill-rule:nonzero;stroke:none" />
    <path
       d="m -1343.1882,6.3819976 -104.22,0 0,-54.8012496 104.22,0 0,54.8012496 z"
       id="path874"
       style="fill:#70848f;fill-opacity:1;fill-rule:nonzero;stroke:none" />
    <path
       d="m -1231.957,6.3819976 -104.2187,0 0,-54.8012496 104.2187,0 0,54.8012496 z"
       id="path876"
       style="fill:#70848f;fill-opacity:1;fill-rule:nonzero;stroke:none" />
    <path
       d="m -1120.7245,6.3819976 -104.2212,0 0,-54.8012496 104.2212,0 0,54.8012496 z"
       id="path878"
       style="fill:#70848f;fill-opacity:1;fill-rule:nonzero;stroke:none" />
    <path
       d="m -1343.1882,19.334498 -104.22,0 0,-5.97876 104.22,0 0,5.97876 z"
       id="path880"
       style="fill:#70848f;fill-opacity:1;fill-rule:nonzero;stroke:none" />
    <path
       d="m -1231.957,19.334498 -104.2187,0 0,-5.97876 104.2187,0 0,5.97876 z"
       id="path882"
       style="fill:#70848f;fill-opacity:1;fill-rule:nonzero;stroke:none" />
    <path
       d="m -1120.7245,19.334498 -104.2212,0 0,-5.97876 104.2212,0 0,5.97876 z"
       id="path884"
       style="fill:#70848f;fill-opacity:1;fill-rule:nonzero;stroke:none" />
    <path
       d="m -1343.1882,28.633248 -104.22,0 0,-5.9775 104.22,0 0,5.9775 z"
       id="path886"
       style="fill:#70848f;fill-opacity:1;fill-rule:nonzero;stroke:none" />
    <path
       d="m -1231.957,28.633248 -104.2187,0 0,-5.9775 104.2187,0 0,5.9775 z"
       id="path888"
       style="fill:#70848f;fill-opacity:1;fill-rule:nonzero;stroke:none" />
    <path
       d="m -1120.7245,28.633248 -104.2212,0 0,-5.9775 104.2212,0 0,5.9775 z"
       id="path890"
       style="fill:#70848f;fill-opacity:1;fill-rule:nonzero;stroke:none" />
    <path
       d="m -1343.1882,37.933248 -104.22,0 0,-5.9775 104.22,0 0,5.9775 z"
       id="path892"
       style="fill:#70848f;fill-opacity:1;fill-rule:nonzero;stroke:none" />
    <path
       d="m -1231.957,37.933248 -104.2187,0 0,-5.9775 104.2187,0 0,5.9775 z"
       id="path894"
       style="fill:#70848f;fill-opacity:1;fill-rule:nonzero;stroke:none" />
    <path
       d="m -1120.7245,37.933248 -104.2212,0 0,-5.9775 104.2212,0 0,5.9775 z"
       id="path896"
       style="fill:#70848f;fill-opacity:1;fill-rule:nonzero;stroke:none" />
    <path
       d="m -1373.0795,47.230748 -74.3287,0 0,-5.97376 74.3287,0 0,5.97376 z"
       id="path898"
       style="fill:#70848f;fill-opacity:1;fill-rule:nonzero;stroke:none" />
    <path
       d="m -1247.2757,47.230748 -88.9,0 0,-5.97376 88.9,0 0,5.97376 z"
       id="path900"
       style="fill:#70848f;fill-opacity:1;fill-rule:nonzero;stroke:none" />
    <path
       d="m -1177.142,47.230748 -47.8025,0 0,-5.97376 47.8025,0 0,5.97376 z"
       id="path902"
       style="fill:#70848f;fill-opacity:1;fill-rule:nonzero;stroke:none" />
    <path
       d="m -832.50448,-77.650502 -120.1525,0 0,-31.299998 120.1525,0 0,31.299998 z"
       id="path904"
       style="fill:#2e393d;fill-opacity:1;fill-rule:nonzero;stroke:none" />
    <path
       d="m -621.48196,53.605748 -331.17378,0 0,-118.1325 331.17378,0 0,118.1325 z"
       id="path906"
       style="fill:#24c1e0;fill-opacity:1;fill-rule:nonzero;stroke:none" />
    <path
       d="m -621.48196,-77.650502 -203.95253,0 0,-31.299998 203.95253,0 0,31.299998 z"
       id="path908"
       style="fill:#ff6633;fill-opacity:1;fill-rule:nonzero;stroke:none" />
    <path
       d="m -847.04198,117.722 -105.61375,0 0,-55.532502 105.61375,0 0,55.532502 z"
       id="path910"
       style="fill:#70848f;fill-opacity:1;fill-rule:nonzero;stroke:none" />
    <path
       d="m -734.32573,117.722 -105.61126,0 0,-55.532502 105.61126,0 0,55.532502 z"
       id="path912"
       style="fill:#70848f;fill-opacity:1;fill-rule:nonzero;stroke:none" />
    <path
       d="m -621.60696,117.722 -105.61128,0 0,-55.532502 105.61128,0 0,55.532502 z"
       id="path914"
       style="fill:#70848f;fill-opacity:1;fill-rule:nonzero;stroke:none" />
    <path
       d="m -1054.598,52.415998 c 0,0.44875 -0.365,0.81499 -0.815,0.81499 l -453.82,0 c -0.4487,0 -0.8137,-0.36624 -0.8137,-0.81499 l 0,-281.561248 c 0,-0.45125 0.365,-0.82126 0.8137,-0.82126 l 453.82,0 c 0.45,0 0.815,0.37001 0.815,0.82126 l 0,281.561248 z m -226.3225,37.27375 c -5.3212,0 -9.63,-4.31 -9.63,-9.625 0,-5.32001 4.3088,-9.63375 9.63,-9.63375 5.3163,0 9.6275,4.31374 9.6275,9.63375 0,5.315 -4.3112,9.625 -9.6275,9.625 m 222.14,-351.769998 -446.905,0 c -18.015,0 -33.5575,11.43875 -33.5575,29.44499 l 0,303.181258 c 0,18.01 15.5425,35.235002 33.5475,35.235002 l 124.1088,0 0,36.285 c 0,9.13 -6.63,19.37 -17.64,24.28625 l -35.9125,15.34 306.6937,0 -42.94,-15.67126 c -11.3175,-4.9325 -23.35,-15.0975 -23.35,-23.95499 l 0,-36.285 135.955,0 c 18.005,0 27.5388,-17.225002 27.5388,-35.235002 l 0,-303.181258 c 0,-18.00624 -9.5338,-29.44499 -27.5388,-29.44499 m -378.2775,449.61125 303.6325,0 0,-5.83875 -303.6325,0 0,5.83875 z"
       id="path990"
       style="fill:#0f2925;fill-opacity:1;fill-rule:nonzero;stroke:none" />
    <path
       d="m -975.21136,-118.49838 c 0,-0.37125 0.30875,-0.6775 0.67875,-0.6775 l 371.52755,0 c 0.3674,0 0.6637,0.30625 0.6637,0.6775 l 0,242.97125 c 0,0.37125 -0.2963,0.675 -0.6637,0.675 l -371.52755,0 c -0.37,0 -0.67875,-0.30375 -0.67875,-0.675 l 0,-242.97125 z m 185.78,-15.1675 c 1.53625,0 2.7875,1.265 2.7875,2.83375 0,1.5625 -1.25125,2.8325 -2.7875,2.8325 -1.535,0 -2.78,-1.27 -2.78,-2.8325 0,-1.56875 1.245,-2.83375 2.78,-2.83375 m -183.63875,290.2675 367.13375,0 c 14.7937,0 26.8313,-12.03 26.8313,-26.8225 l 0,-249.2975 c 0,-14.79 -12.0376,-26.82875 -26.8313,-26.82875 l -367.13125,0 c -14.8,0 -26.83375,12.03875 -26.83375,26.82875 l 0,249.2975 c 0,14.7925 12.03375,26.8225 26.83125,26.8225 m 365.92995,16.79375 c -1.5337,0 -2.7849,-1.27375 -2.7849,-2.83125 0,-1.5675 1.2512,-2.835 2.7849,-2.835 1.535,0 2.7801,1.2675 2.7801,2.835 0,1.5575 -1.245,2.83125 -2.7801,2.83125 m -11.7387,0 c -1.5412,0 -2.7762,-1.27375 -2.7762,-2.83125 0,-1.5675 1.235,-2.835 2.7762,-2.835 1.5263,0 2.7838,1.2675 2.7838,2.835 0,1.5575 -1.2575,2.83125 -2.7838,2.83125 m -11.74,0 c -1.54,0 -2.7887,-1.27375 -2.7887,-2.83125 0,-1.5675 1.2487,-2.835 2.7887,-2.835 1.5275,0 2.7712,1.2675 2.7712,2.835 0,1.5575 -1.2437,2.83125 -2.7712,2.83125 m 75.355,-11.01375 -466.05874,0 -20.1713,0 0,11.1375 c 0,0.80625 5.0813,11.0725 19.6163,11.0725 l 466.82254,0 c 14.5375,0 19.1475,-9.46125 19.1475,-10.255 l 0,-11.955 -19.3563,0 z"
       id="path994"
       style="fill:#0f2925;fill-opacity:1;fill-rule:nonzero;stroke:none" />
    <path
       d="m -643.93936,-259.33201 c -4.795,0 -6.8937,4.47001 -6.8937,8.70875 0,4.9425 2.7937,8.665 6.8024,8.665 3.9125,0 6.8451,-3.6825 6.8451,-8.7575 0,-3.82 -1.9101,-8.61625 -6.7538,-8.61625"
       id="path1014"
       style="fill:#70848f;fill-opacity:1;fill-rule:nonzero;stroke:none" />
    <path
       d="m -680.37136,-221.23875 c -6.7537,0 -10.11,6.2425 -10.11,13.09125 0,6.755 3.6363,12.76624 10.0612,12.76624 6.4288,0 10.0651,-5.91749 10.0651,-13.04499 0,-6.29125 -3.2626,-12.8125 -10.0163,-12.8125"
       id="path1018"
       style="fill:#70848f;fill-opacity:1;fill-rule:nonzero;stroke:none" />
    <path
       d="m -730.59649,-220.40326 -0.0888,0 c -0.46375,1.8225 -0.93125,3.78001 -1.585,5.68625 l -3.07374,9.08126 9.50249,0 -3.12125,-9.03626 c -0.6975,-2.04624 -1.15999,-3.90875 -1.63375,-5.73125"
       id="path1022"
       style="fill:#70848f;fill-opacity:1;fill-rule:nonzero;stroke:none" />
    <path
       d="m -741.72686,-255.7005 c 0.0488,-7.405 -4.14625,-12.11126 -12.71625,-12.11126 -2.09875,0 -3.68125,0.185 -4.7525,0.41876 l 0,24.83249 c 1.02625,0.13626 2.51375,0.18126 4.1025,0.18126 8.70375,0 13.36625,-4.84125 13.36625,-13.32125"
       id="path1026"
       style="fill:#70848f;fill-opacity:1;fill-rule:nonzero;stroke:none" />
    <path
       d="m -723.55974,-259.46751 c -4.19124,0 -5.96374,3.76751 -6.28624,6.60626 l 11.96875,0 c 0.0513,-2.55875 -1.06751,-6.60626 -5.68251,-6.60626"
       id="path1030"
       style="fill:#70848f;fill-opacity:1;fill-rule:nonzero;stroke:none" />
    <path
       d="m -616.73426,-238.87975 c -2.9762,0 -5.5875,-1.31 -6.9425,-3.545 l -0.089,0 0,12.25374 -4.0538,0 0,-24.41125 c 0,-2.88874 -0.091,-5.21749 -0.185,-7.3625 l 3.63,0 0.2363,3.87 0.094,0 c 1.6288,-2.74875 4.3338,-4.32875 8.0063,-4.32875 5.5,0 9.5987,4.605 9.5987,11.40875 0,8.1025 -4.9825,12.11501 -10.295,12.11501 m 5.7338,18.33999 -9.5988,0 0,27.9525 -4.0975,0 0,-27.9525 -9.555,0 0,-3.44375 23.2513,0 0,3.44375 z m -33.215,-18.33999 c -6.0563,0 -10.815,-4.47376 -10.815,-11.60251 0,-7.50499 4.99,-11.92125 11.1825,-11.92125 6.4775,0 10.8537,4.7025 10.8537,11.55 0,8.33875 -5.8237,11.97375 -11.2212,11.97375 m 6.5175,33.245 c 0,9.6425 -5.0775,13.56 -11.8775,13.56 -6.4325,0 -11.2738,-3.6325 -11.2738,-13.41625 l 0,-18.4925 4.1,0 0,18.63125 c 0,6.98625 3.1213,9.97125 7.3125,9.97125 4.6138,0 7.6413,-3.07375 7.6413,-9.97125 l 0,-18.63125 4.0975,0 0,18.34875 z m -28.3225,-34.9775 c -1.1213,-1.255 -1.58,-3.25375 -1.58,-5.91375 l 0,-12.29625 -3.4988,0 0,-3.1225 3.4988,0 0,-4.19 4,-1.215 0,5.405 5.8675,0 0,3.1225 -5.8675,0 0,12.16125 c 0,2.795 0.7925,4.38 3.0762,4.38 1.1175,0 1.7675,-0.0987 2.375,-0.27875 l 0.185,3.11875 c -0.7925,0.27625 -2.0437,0.56125 -3.6325,0.56125 -1.9075,0 -3.4437,-0.65375 -4.4237,-1.7325 m -14.63,48.5375 c -8.34,0 -14.11627,-6.4775 -14.11627,-15.98 0,-9.97125 6.14997,-16.49 14.53247,-16.49 8.6213,0 14.1613,6.5725 14.1613,15.9325 0,10.76125 -6.5663,16.5375 -14.5775,16.5375 m -24.69128,-13.88375 0,13.37125 -4.1,0 0,-13.325 -9.97,-18.07125 4.65875,0 4.425,8.66 c 1.16625,2.37875 2.1475,4.28375 3.1225,6.47875 l 0.0937,0 c 0.83625,-2.0525 1.95625,-4.1 3.1675,-6.47875 l 4.51625,-8.66 4.57,0 -10.48374,18.025 z m -16.35375,13.37125 -3.34875,-9.87875 -11.14125,0 -3.2575,9.87875 -4.1975,0 10.72,-31.39625 4.84126,0 10.71875,31.39625 -4.335,0 z m -24.08625,0 -17.515,0 0,-31.39625 4.10125,0 0,27.99125 13.41375,0 0,3.405 z m -17.465,-77.73875 c 2.46875,-0.4225 5.4025,-0.705 8.61501,-0.705 5.8225,0 9.96875,1.4 12.71624,3.915 2.845,2.5675 4.47375,6.195 4.47375,11.27375 0,5.12625 -1.62875,9.31625 -4.51625,12.20875 -2.9825,2.93625 -7.82625,4.51625 -13.93,4.51625 -2.93625,0 -5.31,-0.14375 -7.35875,-0.37125 l 0,-30.8375 z m 40.0125,7.9225 c 7.41,0 9.3225,6.42375 9.3225,10.57 0,0.83875 -0.0512,1.44625 -0.145,1.91 l -15.835,0 c 0.0875,5.5425 3.5825,7.82875 7.72875,7.82875 2.93625,0 4.755,-0.51625 6.24375,-1.16375 l 0.7475,2.93125 c -1.44625,0.65 -3.96,1.4475 -7.55,1.4475 -6.93875,0 -11.085,-4.615 -11.085,-11.41375 0,-6.80375 4.0025,-12.11 10.5725,-12.11 m 19.475,12.99 c -4.09875,-1.48375 -6.01,-3.67625 -6.01,-6.37625 0,-3.6375 2.9875,-6.61375 7.78125,-6.61375 2.28375,0 4.285,0.60125 5.5,1.39375 l -0.98125,2.9775 c -0.88,-0.56 -2.5125,-1.35 -4.61,-1.35 -2.42375,0 -3.72375,1.395 -3.72375,3.0775 0,1.86125 1.3,2.7025 4.23,3.86625 3.87,1.44375 5.92625,3.3975 5.92625,6.75875 0,4.00125 -3.125,6.8 -8.38875,6.8 -2.47125,0 -4.755,-0.65375 -6.33875,-1.58875 l 0.97625,-3.075 c 1.265,0.75 3.40375,1.585 5.45375,1.585 2.93125,0 4.33125,-1.44625 4.33125,-3.355 0,-1.95125 -1.16625,-2.97875 -4.14625,-4.1 m 13.37498,-23.0575 4.0488,0 0,20.8725 0.094,0 c 0.5613,-0.795 1.305,-1.77 1.9563,-2.565 l 6.6637,-7.78125 4.8925,0 -8.6662,9.2725 9.92,13.27375 -5.0325,0 -7.7263,-10.8075 -2.1012,2.32875 0,8.47875 -4.0488,0 0,-33.0725 z m 99.0538,-19.86125 -190.09753,0 c -5.6225,0 -10.2275,4.60375 -10.2275,10.225 l 0,102.7325 c 0,5.62375 4.605,10.22375 10.2275,10.22375 l 190.09753,0 c 5.6225,0 10.2237,-4.6 10.2237,-10.22375 l 0,-102.7325 c 0,-5.62125 -4.6012,-10.225 -10.2237,-10.225"
       id="path1034"
       style="fill:#70848f;fill-opacity:1;fill-rule:nonzero;stroke:none" />
    <path
       d="m -617.28966,-259.14713 c -2.7975,0 -5.4524,1.96 -6.1987,5.02875 -0.1375,0.51625 -0.2762,1.12125 -0.2762,1.635 l 0,3.91125 c 0,0.60625 0.043,1.17 0.1875,1.67625 0.7387,2.84625 3.2112,4.80125 6.145,4.80125 4.3362,0 6.8512,-3.54625 6.8512,-8.71375 0,-4.47375 -2.3812,-8.33875 -6.7087,-8.33875"
       id="path1038"
       style="fill:#70848f;fill-opacity:1;fill-rule:nonzero;stroke:none" />
    <path
       d="m -905.83211,-168.38175 20.14375,-26.0875 -39.6225,0 19.47875,26.0875 z"
       id="path1094"
       style="fill:#70848f;fill-opacity:1;fill-rule:nonzero;stroke:none" />
    <path
       d="m -817.08511,-306.085 c 0,5.68624 4.61,10.3 10.295,10.3 5.68875,0 10.29875,-4.61376 10.29875,-10.3 0,-5.685 -4.61,-10.29875 -10.29875,-10.29875 -5.685,0 -10.295,4.61375 -10.295,10.29875"
       id="path1098"
       style="fill:#70848f;fill-opacity:1;fill-rule:nonzero;stroke:none" />
    <path
       d="m -851.40949,-319.54138 c 0,5.6875 4.61,10.2975 10.30001,10.2975 5.67999,0 10.29624,-4.61 10.29624,-10.2975 0,-5.68375 -4.61625,-10.295 -10.29624,-10.295 -5.69001,0 -10.30001,4.61125 -10.30001,10.295"
       id="path1102"
       style="fill:#70848f;fill-opacity:1;fill-rule:nonzero;stroke:none" />
    <path
       d="m -887.56486,-313.63388 c 0,5.68375 4.61625,10.29625 10.29875,10.29625 5.69125,0 10.29875,-4.6125 10.29875,-10.29625 0,-5.68625 -4.6075,-10.295 -10.29875,-10.295 -5.6825,0 -10.29875,4.60875 -10.29875,10.295"
       id="path1106"
       style="fill:#70848f;fill-opacity:1;fill-rule:nonzero;stroke:none" />
    <path
       d="m -908.24611,-284.39438 c 0,5.68875 4.61,10.3 10.2975,10.3 5.685,0 10.29625,-4.61125 10.29625,-10.3 0,-5.68875 -4.61125,-10.29625 -10.29625,-10.29625 -5.6875,0 -10.2975,4.6075 -10.2975,10.29625"
       id="path1110"
       style="fill:#70848f;fill-opacity:1;fill-rule:nonzero;stroke:none" />
    <path
       d="m -915.24623,-251.8565 c 0,5.68999 4.60499,10.2975 10.29499,10.2975 5.68251,0 10.29876,-4.6075 10.29876,-10.2975 0,-5.68875 -4.61625,-10.29751 -10.29876,-10.29751 -5.69,0 -10.29499,4.60876 -10.29499,10.29751"
       id="path1114"
       style="fill:#70848f;fill-opacity:1;fill-rule:nonzero;stroke:none" />
    <path
       d="m -916.07011,-218.90301 c 0,5.68376 4.60375,10.295 10.295,10.295 5.6825,0 10.29875,-4.61124 10.29875,-10.295 0,-5.68999 -4.61625,-10.29874 -10.29875,-10.29874 -5.69125,0 -10.295,4.60875 -10.295,10.29874"
       id="path1118"
       style="fill:#70848f;fill-opacity:1;fill-rule:nonzero;stroke:none" />
    <path
       d="m -1011.8422,-253.08263 26.08246,20.145 0,-39.62375 -26.08246,19.47875 z"
       id="path1122"
       style="fill:#70848f;fill-opacity:1;fill-rule:nonzero;stroke:none" />
    <path
       d="m -934.95624,-263.04975 c -5.685,0 -10.29499,4.6125 -10.29499,10.2975 0,5.69 4.60999,10.29625 10.29499,10.29625 5.685,0 10.295,-4.60625 10.295,-10.29625 0,-5.685 -4.61,-10.2975 -10.295,-10.2975"
       id="path1126"
       style="fill:#70848f;fill-opacity:1;fill-rule:nonzero;stroke:none" />
    <path
       d="m -964.61324,-263.04975 c -5.68749,0 -10.29875,4.6125 -10.29875,10.2975 0,5.69 4.61125,10.29625 10.29875,10.29625 5.69001,0 10.29501,-4.60625 10.29501,-10.29625 0,-5.685 -4.605,-10.2975 -10.29501,-10.2975"
       id="path1130"
       style="fill:#70848f;fill-opacity:1;fill-rule:nonzero;stroke:none" />
    <text
       x="-1647.8358"
       y="-370.02789"
       id="text1224"
       style="font-size:15px">
      <tspan
         x="-1647.8358 -1621.8735 -1606.8953 -1573.943 -1543.9865 -1511.0342 -1478.0819 -1462.1051 -1429.1528 -1415.1731 -1370.2383 -1338.2845 -1305.3324 -1291.3527 -1256.4033 -1224.4496 -1202.4814 -1190.4988 -1157.5466"
         y="-370.02789"
         id="tspan1226"
         style="font-size:49.92762756px;font-variant:normal;font-weight:bold;font-stretch:normal;writing-mode:lr-tb;fill:#ffffff;fill-opacity:1;fill-rule:nonzero;stroke:none;font-family:Century Gothic;-inkscape-font-specification:CenturyGothic-Bold">Standard Web Design</tspan>
    </text>
  </g>
</svg>
