<svg id="Layer_1" data-name="Layer 1" xmlns="http://www.w3.org/2000/svg" viewBox="0 0 312.34 1319.32"><defs><style>.cls-1{fill:#0b182d;}.cls-2{fill:#f79132;}.cls-3{fill:#ffcd66;}.cls-4{fill:#e14a56;}.cls-5{fill:#8c183f;}.cls-6{fill:#055380;}.cls-7{fill:#37b2e1;}.cls-8{fill:#6ccbd5;}.cls-9{fill:#010101;}.cls-10{font-size:20px;}.cls-10,.cls-11,.cls-13,.cls-14,.cls-16{fill:#fff;}.cls-10,.cls-13,.cls-14{font-family:Arial;}.cls-10,.cls-14{font-weight:700;}.cls-12{fill:#231f20;}.cls-13{font-size:16px;}.cls-14{font-size:18px;}.cls-15{letter-spacing:-1px;}.cls-16{fill-rule:evenodd;}</style></defs><title>MSP_small</title><path class="cls-1" d="M40.2,63.77V0H52.9L68,45.16q2.09,6.31,3,9.44,1.09-3.48,3.39-10.22L89.69,0H101V63.77H92.91V10.41L74.38,63.77H66.77L48.33,9.5V63.77H40.2Z" transform="translate(0.93 1.07)"/><path class="cls-1" d="M138.51,43.29l8-.7a17.56,17.56,0,0,0,2.63,7.85,14.36,14.36,0,0,0,6.42,5,24.29,24.29,0,0,0,9.79,1.89,23.46,23.46,0,0,0,8.52-1.44,11.83,11.83,0,0,0,5.5-3.94,9.14,9.14,0,0,0,1.8-5.46,8.3,8.3,0,0,0-1.74-5.24,12.89,12.89,0,0,0-5.74-3.76,112.58,112.58,0,0,0-11.35-3.11q-8.79-2.11-12.31-4a17.25,17.25,0,0,1-6.81-5.94,14.54,14.54,0,0,1-2.24-7.94,16.21,16.21,0,0,1,2.74-9,17,17,0,0,1,8-6.37,30.37,30.37,0,0,1,11.7-2.17,32,32,0,0,1,12.5,2.28,18,18,0,0,1,8.33,6.72,19.31,19.31,0,0,1,3.13,10l-8.09.61q-0.65-6-4.42-9.13T163.73,6.36q-7.66,0-11.16,2.81a8.41,8.41,0,0,0-3.5,6.76,7.25,7.25,0,0,0,2.48,5.65q2.44,2.22,12.72,4.54t14.11,4.07a19.34,19.34,0,0,1,8.22,6.5,15.84,15.84,0,0,1,2.65,9.07,17.34,17.34,0,0,1-2.91,9.59,19.18,19.18,0,0,1-8.37,7,29.17,29.17,0,0,1-12.29,2.5,36.69,36.69,0,0,1-14.5-2.52A20.31,20.31,0,0,1,142,54.75,21.51,21.51,0,0,1,138.51,43.29Z" transform="translate(0.93 1.07)"/><path class="cls-1" d="M227.51,63.77V0h24.05a58.1,58.1,0,0,1,9.7.61,19.23,19.23,0,0,1,7.87,3,15.64,15.64,0,0,1,5.11,6.15,19.54,19.54,0,0,1,1.94,8.7A19.6,19.6,0,0,1,271,32.22q-5.18,5.63-18.7,5.63H235.95V63.77h-8.44Zm8.44-33.45h16.48q8.18,0,11.61-3t3.44-8.57a11.53,11.53,0,0,0-2-6.85,9.46,9.46,0,0,0-5.33-3.76,36.08,36.08,0,0,0-7.87-.57H235.95V30.33Z" transform="translate(0.93 1.07)"/><rect class="cls-2" x="73.08" y="73.79" width="32.64" height="13.37"/><rect class="cls-3" x="40.44" y="73.79" width="32.64" height="13.37"/><rect class="cls-4" x="105.68" y="73.79" width="32.64" height="13.37"/><rect class="cls-5" x="138.29" y="73.79" width="32.64" height="13.37"/><rect class="cls-6" x="170.89" y="73.79" width="32.64" height="13.37"/><rect class="cls-7" x="203.49" y="73.79" width="32.64" height="13.37"/><rect class="cls-8" x="236.09" y="73.79" width="32.64" height="13.37"/><path class="cls-9" d="M39.11,106.12V93.23h2.57l3,9.12q0.42,1.27.62,1.91,0.22-.7.69-2.07l3.08-9H51.4v12.88H49.76V95.33L46,106.12H44.48l-3.73-11v11H39.11Z" transform="translate(0.93 1.07)"/><path class="cls-9" d="M60.44,105A5.89,5.89,0,0,1,58.75,106a4.89,4.89,0,0,1-1.74.31,3.39,3.39,0,0,1-2.36-.75,2.48,2.48,0,0,1-.83-1.92,2.55,2.55,0,0,1,.31-1.25,2.58,2.58,0,0,1,.82-0.91,3.84,3.84,0,0,1,1.14-.52,11.3,11.3,0,0,1,1.41-.24,14.46,14.46,0,0,0,2.82-.54q0-.33,0-0.41a1.75,1.75,0,0,0-.45-1.36,2.65,2.65,0,0,0-1.8-.54,2.79,2.79,0,0,0-1.65.39,2.39,2.39,0,0,0-.79,1.38l-1.55-.21a3.83,3.83,0,0,1,.69-1.6,3,3,0,0,1,1.4-.94,6.23,6.23,0,0,1,2.12-.33,5.61,5.61,0,0,1,1.94.28,2.56,2.56,0,0,1,1.1.71,2.49,2.49,0,0,1,.49,1.08,8.91,8.91,0,0,1,.08,1.46v2.11A22.39,22.39,0,0,0,62,105a3.52,3.52,0,0,0,.4,1.12H60.76A3.35,3.35,0,0,1,60.44,105Zm-0.13-3.53a11.61,11.61,0,0,1-2.58.6,6,6,0,0,0-1.38.32,1.38,1.38,0,0,0-.62.51,1.4,1.4,0,0,0,.26,1.81,2.06,2.06,0,0,0,1.4.42,3.26,3.26,0,0,0,1.63-.4,2.46,2.46,0,0,0,1-1.09,3.82,3.82,0,0,0,.25-1.58v-0.58Z" transform="translate(0.93 1.07)"/><path class="cls-9" d="M64.74,106.12V96.78h1.42V98.2a3.86,3.86,0,0,1,1-1.31,1.76,1.76,0,0,1,1-.32,3.09,3.09,0,0,1,1.63.51l-0.54,1.47a2.26,2.26,0,0,0-1.16-.34,1.51,1.51,0,0,0-.93.31,1.69,1.69,0,0,0-.59.87,6.16,6.16,0,0,0-.26,1.85v4.89H64.74Z" transform="translate(0.93 1.07)"/><path class="cls-9" d="M71.16,106.12V93.23h1.58v7.35l3.74-3.8h2L75,100.25l3.93,5.87h-2l-3.08-4.77-1.12,1.07v3.7H71.16Z" transform="translate(0.93 1.07)"/><path class="cls-9" d="M86.93,103.11l1.63,0.2a4,4,0,0,1-1.43,2.22,4.85,4.85,0,0,1-5.92-.47,4.93,4.93,0,0,1-1.2-3.54,5.16,5.16,0,0,1,1.21-3.66,4.11,4.11,0,0,1,3.15-1.3,4,4,0,0,1,3.06,1.27,5.06,5.06,0,0,1,1.19,3.59q0,0.14,0,.42h-7a3.59,3.59,0,0,0,.87,2.36,2.59,2.59,0,0,0,2,.82,2.42,2.42,0,0,0,1.49-.46A3,3,0,0,0,86.93,103.11Zm-5.19-2.56h5.21a3.16,3.16,0,0,0-.6-1.77,2.42,2.42,0,0,0-2-.91,2.51,2.51,0,0,0-1.83.73A2.89,2.89,0,0,0,81.74,100.55Z" transform="translate(0.93 1.07)"/><path class="cls-9" d="M94.4,104.7l0.23,1.4a5.87,5.87,0,0,1-1.2.14A2.71,2.71,0,0,1,92.1,106a1.53,1.53,0,0,1-.67-0.72,5.66,5.66,0,0,1-.19-1.87V98H90.08V96.78h1.16V94.47l1.57-.95v3.26H94.4V98H92.81v5.46a2.76,2.76,0,0,0,.08.87,0.66,0.66,0,0,0,.27.31,1.05,1.05,0,0,0,.54.11A5.15,5.15,0,0,0,94.4,104.7Z" transform="translate(0.93 1.07)"/><path class="cls-9" d="M96.36,95.05V93.23h1.58v1.82H96.36Zm0,11.07V96.78h1.58v9.33H96.36Z" transform="translate(0.93 1.07)"/><path class="cls-9" d="M100.74,106.12V96.78h1.42v1.33a3.36,3.36,0,0,1,3-1.54,3.9,3.9,0,0,1,1.55.3,2.44,2.44,0,0,1,1.06.8,3.05,3.05,0,0,1,.49,1.17,9.06,9.06,0,0,1,.09,1.54v5.74h-1.58v-5.68a4.26,4.26,0,0,0-.18-1.45,1.52,1.52,0,0,0-.65-0.76,2.08,2.08,0,0,0-1.1-.29,2.56,2.56,0,0,0-1.74.64,3.17,3.17,0,0,0-.73,2.43v5.1h-1.58Z" transform="translate(0.93 1.07)"/><path class="cls-9" d="M110.86,106.89l1.54,0.23a1.47,1.47,0,0,0,.54,1,2.63,2.63,0,0,0,1.61.44,2.82,2.82,0,0,0,1.7-.44,2.16,2.16,0,0,0,.81-1.23,10.1,10.1,0,0,0,.11-2,3.25,3.25,0,0,1-2.58,1.22,3.52,3.52,0,0,1-3-1.39,5.35,5.35,0,0,1-1.05-3.33,6.2,6.2,0,0,1,.48-2.47,3.87,3.87,0,0,1,1.4-1.74,3.79,3.79,0,0,1,2.16-.62,3.35,3.35,0,0,1,2.72,1.34V96.78h1.46v8.07a7.67,7.67,0,0,1-.44,3.09,3.26,3.26,0,0,1-1.41,1.44,4.88,4.88,0,0,1-2.37.53,4.47,4.47,0,0,1-2.7-.75A2.54,2.54,0,0,1,110.86,106.89Zm1.31-5.61a4,4,0,0,0,.73,2.68,2.41,2.41,0,0,0,3.66,0,3.92,3.92,0,0,0,.74-2.63,3.83,3.83,0,0,0-.76-2.58,2.35,2.35,0,0,0-1.83-.87,2.28,2.28,0,0,0-1.79.86A3.81,3.81,0,0,0,112.17,101.28Z" transform="translate(0.93 1.07)"/><path class="cls-9" d="M126.57,102l1.61-.14a3.54,3.54,0,0,0,.53,1.59,2.9,2.9,0,0,0,1.3,1,4.91,4.91,0,0,0,2,.38,4.74,4.74,0,0,0,1.72-.29,2.39,2.39,0,0,0,1.11-.8,1.85,1.85,0,0,0,.37-1.1,1.68,1.68,0,0,0-.35-1.06,2.6,2.6,0,0,0-1.16-.76,22.68,22.68,0,0,0-2.29-.63,11.72,11.72,0,0,1-2.49-.8,3.48,3.48,0,0,1-1.37-1.2,2.93,2.93,0,0,1-.45-1.6,3.27,3.27,0,0,1,.55-1.82,3.43,3.43,0,0,1,1.62-1.29A6.14,6.14,0,0,1,131.6,93a6.46,6.46,0,0,1,2.53.46,3.65,3.65,0,0,1,1.68,1.36,3.9,3.9,0,0,1,.63,2l-1.63.12a2.64,2.64,0,0,0-.89-1.85,3.48,3.48,0,0,0-2.25-.62,3.6,3.6,0,0,0-2.25.57,1.7,1.7,0,0,0-.71,1.37,1.47,1.47,0,0,0,.5,1.14,6.78,6.78,0,0,0,2.57.92,17,17,0,0,1,2.85.82,3.91,3.91,0,0,1,1.66,1.31,3.2,3.2,0,0,1,.54,1.83,3.5,3.5,0,0,1-.59,1.94,3.88,3.88,0,0,1-1.69,1.42,5.9,5.9,0,0,1-2.48.51,7.41,7.41,0,0,1-2.93-.51,4.11,4.11,0,0,1-1.86-1.53A4.36,4.36,0,0,1,126.57,102Z" transform="translate(0.93 1.07)"/><path class="cls-9" d="M142.81,104.7l0.23,1.4a5.87,5.87,0,0,1-1.2.14,2.71,2.71,0,0,1-1.34-.27,1.53,1.53,0,0,1-.67-0.72,5.66,5.66,0,0,1-.19-1.87V98h-1.16V96.78h1.16V94.47l1.57-.95v3.26h1.59V98h-1.59v5.46a2.76,2.76,0,0,0,.08.87,0.66,0.66,0,0,0,.27.31,1,1,0,0,0,.54.11A5.15,5.15,0,0,0,142.81,104.7Z" transform="translate(0.93 1.07)"/><path class="cls-9" d="M144.73,106.12V96.78h1.42V98.2a3.85,3.85,0,0,1,1-1.31,1.75,1.75,0,0,1,1-.32,3.09,3.09,0,0,1,1.63.51l-0.54,1.47a2.26,2.26,0,0,0-1.16-.34,1.51,1.51,0,0,0-.93.31,1.69,1.69,0,0,0-.59.87,6.16,6.16,0,0,0-.26,1.85v4.89h-1.58Z" transform="translate(0.93 1.07)"/><path class="cls-9" d="M157.23,105a5.9,5.9,0,0,1-1.69,1.05,4.9,4.9,0,0,1-1.75.31,3.39,3.39,0,0,1-2.36-.75,2.48,2.48,0,0,1-.83-1.92,2.54,2.54,0,0,1,.31-1.25,2.57,2.57,0,0,1,.82-0.91,3.85,3.85,0,0,1,1.14-.52,11.3,11.3,0,0,1,1.41-.24,14.46,14.46,0,0,0,2.82-.54q0-.33,0-0.41a1.75,1.75,0,0,0-.45-1.36,2.65,2.65,0,0,0-1.8-.54,2.8,2.8,0,0,0-1.65.39,2.39,2.39,0,0,0-.79,1.38l-1.55-.21a3.83,3.83,0,0,1,.69-1.6,3,3,0,0,1,1.4-.94,6.23,6.23,0,0,1,2.12-.33,5.61,5.61,0,0,1,1.94.28,2.56,2.56,0,0,1,1.1.71,2.49,2.49,0,0,1,.49,1.08,8.91,8.91,0,0,1,.08,1.46v2.11a22.43,22.43,0,0,0,.1,2.79,3.52,3.52,0,0,0,.4,1.12h-1.65A3.35,3.35,0,0,1,157.23,105Zm-0.13-3.53a11.61,11.61,0,0,1-2.58.6,6,6,0,0,0-1.38.32,1.38,1.38,0,0,0-.62.51,1.4,1.4,0,0,0,.26,1.81,2.06,2.06,0,0,0,1.4.42,3.26,3.26,0,0,0,1.63-.4,2.46,2.46,0,0,0,1-1.09,3.82,3.82,0,0,0,.25-1.58v-0.58Z" transform="translate(0.93 1.07)"/><path class="cls-9" d="M165,104.7l0.23,1.4a5.87,5.87,0,0,1-1.2.14,2.71,2.71,0,0,1-1.34-.27,1.53,1.53,0,0,1-.67-0.72,5.66,5.66,0,0,1-.19-1.87V98h-1.16V96.78h1.16V94.47l1.57-.95v3.26H165V98h-1.59v5.46a2.76,2.76,0,0,0,.08.87,0.66,0.66,0,0,0,.27.31,1,1,0,0,0,.54.11A5.15,5.15,0,0,0,165,104.7Z" transform="translate(0.93 1.07)"/><path class="cls-9" d="M173.33,103.11l1.63,0.2a4,4,0,0,1-1.43,2.22,4.85,4.85,0,0,1-5.92-.47,4.92,4.92,0,0,1-1.2-3.54,5.16,5.16,0,0,1,1.21-3.66,4.11,4.11,0,0,1,3.15-1.3,4,4,0,0,1,3.06,1.27,5.06,5.06,0,0,1,1.19,3.59q0,0.14,0,.42h-7a3.59,3.59,0,0,0,.87,2.36,2.59,2.59,0,0,0,2,.82,2.42,2.42,0,0,0,1.49-.46A3,3,0,0,0,173.33,103.11Zm-5.19-2.56h5.21a3.16,3.16,0,0,0-.6-1.77,2.42,2.42,0,0,0-2-.91,2.51,2.51,0,0,0-1.83.73A2.89,2.89,0,0,0,168.14,100.55Z" transform="translate(0.93 1.07)"/><path class="cls-9" d="M177.06,106.89l1.54,0.23a1.47,1.47,0,0,0,.54,1,2.63,2.63,0,0,0,1.61.44,2.82,2.82,0,0,0,1.7-.44,2.16,2.16,0,0,0,.81-1.23,10.1,10.1,0,0,0,.11-2,3.25,3.25,0,0,1-2.58,1.22,3.52,3.52,0,0,1-3-1.39,5.35,5.35,0,0,1-1.05-3.33,6.2,6.2,0,0,1,.48-2.47,3.87,3.87,0,0,1,1.4-1.74,3.79,3.79,0,0,1,2.16-.62,3.35,3.35,0,0,1,2.72,1.34V96.78H185v8.07a7.67,7.67,0,0,1-.44,3.09,3.26,3.26,0,0,1-1.41,1.44,4.88,4.88,0,0,1-2.37.53,4.47,4.47,0,0,1-2.7-.75A2.54,2.54,0,0,1,177.06,106.89Zm1.31-5.61a4,4,0,0,0,.73,2.68,2.41,2.41,0,0,0,3.66,0,3.92,3.92,0,0,0,.74-2.63,3.83,3.83,0,0,0-.76-2.58,2.35,2.35,0,0,0-1.83-.87,2.28,2.28,0,0,0-1.79.86A3.81,3.81,0,0,0,178.37,101.28Z" transform="translate(0.93 1.07)"/><path class="cls-9" d="M187.69,109.71l-0.18-1.49a3.53,3.53,0,0,0,.91.14,1.74,1.74,0,0,0,.84-0.18,1.44,1.44,0,0,0,.52-0.49,7.76,7.76,0,0,0,.48-1.18l0.14-.39-3.54-9.35h1.71l1.94,5.41q0.38,1,.68,2.16a21.29,21.29,0,0,1,.65-2.13l2-5.44h1.58l-3.55,9.49a18.63,18.63,0,0,1-.89,2.12,3.12,3.12,0,0,1-1,1.15,2.28,2.28,0,0,1-1.3.36A3.17,3.17,0,0,1,187.69,109.71Z" transform="translate(0.93 1.07)"/><path class="cls-9" d="M202.75,106.12V93.23h4.86a11.74,11.74,0,0,1,2,.12,3.88,3.88,0,0,1,1.59.6,3.16,3.16,0,0,1,1,1.24,4.19,4.19,0,0,1-.65,4.54q-1,1.14-3.78,1.14h-3.3v5.24h-1.71Zm1.71-6.76h3.33a3.53,3.53,0,0,0,2.35-.62,2.19,2.19,0,0,0,.69-1.73,2.32,2.32,0,0,0-.41-1.38,1.91,1.91,0,0,0-1.08-.76,7.29,7.29,0,0,0-1.59-.11h-3.3v4.61Z" transform="translate(0.93 1.07)"/><path class="cls-9" d="M214.94,106.12V96.78h1.42V98.2a3.85,3.85,0,0,1,1-1.31,1.75,1.75,0,0,1,1-.32,3.09,3.09,0,0,1,1.63.51l-0.54,1.47a2.26,2.26,0,0,0-1.16-.34,1.51,1.51,0,0,0-.93.31,1.69,1.69,0,0,0-.59.87,6.16,6.16,0,0,0-.26,1.85v4.89h-1.58Z" transform="translate(0.93 1.07)"/><path class="cls-9" d="M220.75,101.45a4.81,4.81,0,0,1,1.44-3.84,4.34,4.34,0,0,1,2.94-1,4.19,4.19,0,0,1,3.15,1.26,4.8,4.8,0,0,1,1.22,3.48,6.19,6.19,0,0,1-.54,2.83,3.83,3.83,0,0,1-1.57,1.6,4.58,4.58,0,0,1-2.25.57,4.19,4.19,0,0,1-3.17-1.26A5,5,0,0,1,220.75,101.45Zm1.63,0a4,4,0,0,0,.78,2.69,2.6,2.6,0,0,0,3.93,0,4.07,4.07,0,0,0,.78-2.73,3.86,3.86,0,0,0-.79-2.62,2.61,2.61,0,0,0-3.92,0A4,4,0,0,0,222.38,101.45Z" transform="translate(0.93 1.07)"/><path class="cls-9" d="M237.84,102.7l1.56,0.2a4,4,0,0,1-1.31,2.52,3.8,3.8,0,0,1-2.58.91,4,4,0,0,1-3.08-1.25,5.08,5.08,0,0,1-1.16-3.59,6.5,6.5,0,0,1,.5-2.65,3.49,3.49,0,0,1,1.52-1.7,4.53,4.53,0,0,1,2.23-.57,3.87,3.87,0,0,1,2.49.77,3.53,3.53,0,0,1,1.24,2.18l-1.54.24a2.55,2.55,0,0,0-.78-1.42,2,2,0,0,0-1.35-.47,2.46,2.46,0,0,0-1.94.86,4.07,4.07,0,0,0-.75,2.71,4.21,4.21,0,0,0,.72,2.73,2.35,2.35,0,0,0,1.88.85,2.22,2.22,0,0,0,1.56-.57A2.84,2.84,0,0,0,237.84,102.7Z" transform="translate(0.93 1.07)"/><path class="cls-9" d="M247.54,103.11l1.63,0.2a4,4,0,0,1-1.43,2.22,4.85,4.85,0,0,1-5.92-.47,4.92,4.92,0,0,1-1.2-3.54,5.16,5.16,0,0,1,1.21-3.66,4.11,4.11,0,0,1,3.15-1.3A4,4,0,0,1,248,97.85a5.06,5.06,0,0,1,1.19,3.59q0,0.14,0,.42h-7a3.59,3.59,0,0,0,.87,2.36,2.59,2.59,0,0,0,2,.82,2.42,2.42,0,0,0,1.49-.46A3,3,0,0,0,247.54,103.11Zm-5.19-2.56h5.21a3.16,3.16,0,0,0-.6-1.77,2.42,2.42,0,0,0-2-.91,2.51,2.51,0,0,0-1.83.73A2.89,2.89,0,0,0,242.34,100.55Z" transform="translate(0.93 1.07)"/><path class="cls-9" d="M250.92,103.33l1.56-.25a2.19,2.19,0,0,0,.73,1.44,2.56,2.56,0,0,0,1.68.5,2.47,2.47,0,0,0,1.62-.44,1.33,1.33,0,0,0,.53-1,1,1,0,0,0-.47-0.84,6.86,6.86,0,0,0-1.62-.54,14.8,14.8,0,0,1-2.41-.76,2.3,2.3,0,0,1-1.37-2.14,2.39,2.39,0,0,1,.29-1.16,2.55,2.55,0,0,1,.78-0.88,3.26,3.26,0,0,1,1-.46,4.79,4.79,0,0,1,1.37-.19,5.41,5.41,0,0,1,1.93.32,2.63,2.63,0,0,1,1.23.86,3.35,3.35,0,0,1,.54,1.45l-1.55.21a1.7,1.7,0,0,0-.61-1.12,2.24,2.24,0,0,0-1.43-.4,2.59,2.59,0,0,0-1.56.36,1,1,0,0,0-.47.84,0.87,0.87,0,0,0,.19.55,1.4,1.4,0,0,0,.61.42q0.24,0.09,1.4.4a19.53,19.53,0,0,1,2.34.73,2.38,2.38,0,0,1,1,.83,2.32,2.32,0,0,1,.38,1.35,2.65,2.65,0,0,1-.46,1.49,3,3,0,0,1-1.33,1.08,4.85,4.85,0,0,1-2,.38,4.38,4.38,0,0,1-2.77-.76A3.51,3.51,0,0,1,250.92,103.33Z" transform="translate(0.93 1.07)"/><path class="cls-9" d="M260.32,103.33l1.56-.25a2.19,2.19,0,0,0,.73,1.44,2.56,2.56,0,0,0,1.68.5,2.47,2.47,0,0,0,1.62-.44,1.33,1.33,0,0,0,.53-1,1,1,0,0,0-.47-0.84,6.86,6.86,0,0,0-1.62-.54,14.8,14.8,0,0,1-2.41-.76,2.3,2.3,0,0,1-1.37-2.14,2.39,2.39,0,0,1,.29-1.16,2.55,2.55,0,0,1,.78-0.88,3.26,3.26,0,0,1,1-.46,4.79,4.79,0,0,1,1.37-.19,5.41,5.41,0,0,1,1.93.32,2.63,2.63,0,0,1,1.23.86,3.35,3.35,0,0,1,.54,1.45l-1.55.21a1.7,1.7,0,0,0-.61-1.12,2.24,2.24,0,0,0-1.43-.4,2.59,2.59,0,0,0-1.56.36,1,1,0,0,0-.47.84,0.87,0.87,0,0,0,.19.55,1.4,1.4,0,0,0,.61.42q0.24,0.09,1.4.4a19.53,19.53,0,0,1,2.34.73,2.38,2.38,0,0,1,1,.83,2.32,2.32,0,0,1,.38,1.35,2.65,2.65,0,0,1-.46,1.49,3,3,0,0,1-1.33,1.08,4.85,4.85,0,0,1-2,.38,4.38,4.38,0,0,1-2.77-.76A3.51,3.51,0,0,1,260.32,103.33Z" transform="translate(0.93 1.07)"/><path class="cls-6" d="M12.42,309.44l0.15-55.18a15.73,15.73,0,0,0,24.84.22c4.52-5.47,6.93-13.19,6.78-21.77,0.12-8.57-2.31-16.29-6.85-21.75a15.73,15.73,0,0,0-24.84.3l-0.09-56.53,266.72-.14,0.11,67.08c0.58,1.34,1.63,2.73,3.26,2.79,3.14,0.11,6,.06,7.95-2.75,1.09-1.57,1.84-3.37,2.85-5,3.06-4.95,9.36-5.49,13.1-1s5.11,10.78,5,16.67c0.12,5.89-1.28,12.25-5,16.69s-10,4-13.1-1c-1-1.63-1.77-3.42-2.86-5-1.95-2.8-4.82-2.84-8-2.72-1.64.06-2.68,1.46-3.26,2.8l-0.15,66.26Z" transform="translate(0.93 1.07)"/><path class="cls-2" d="M12.42,477.44l0.15-55.18a15.73,15.73,0,0,0,24.84.22c4.52-5.47,6.93-13.19,6.78-21.77,0.12-8.57-2.31-16.29-6.85-21.75a15.73,15.73,0,0,0-24.84.3l-0.09-56.53,266.72-.14,0.11,67.08c0.58,1.34,1.63,2.73,3.26,2.79,3.14,0.11,6,.06,7.95-2.75,1.09-1.57,1.84-3.37,2.85-5,3.06-4.95,9.36-5.49,13.1-1s5.11,10.78,5,16.67c0.12,5.89-1.28,12.25-5,16.69s-10,4-13.1-1c-1-1.63-1.77-3.42-2.86-5-1.95-2.8-4.82-2.84-8-2.72-1.64.06-2.68,1.46-3.26,2.8l-0.15,66.26Z" transform="translate(0.93 1.07)"/><path class="cls-4" d="M12.42,645.48l0.15-55.18a15.73,15.73,0,0,0,24.84.22c4.52-5.47,6.93-13.19,6.78-21.77,0.12-8.57-2.31-16.29-6.85-21.75a15.73,15.73,0,0,0-24.84.3l-0.09-56.53,266.72-.14,0.11,67.08c0.58,1.34,1.63,2.73,3.26,2.79,3.14,0.11,6,.06,7.95-2.75,1.09-1.57,1.84-3.37,2.85-5,3.06-4.95,9.36-5.49,13.1-1s5.11,10.78,5,16.67c0.12,5.89-1.28,12.25-5,16.69s-10,4-13.1-1c-1-1.63-1.77-3.42-2.86-5-1.95-2.8-4.82-2.84-8-2.72-1.64.06-2.68,1.46-3.26,2.8l-0.15,66.26Z" transform="translate(0.93 1.07)"/><path class="cls-5" d="M12.42,813.66l0.15-55.18a15.73,15.73,0,0,0,24.84.22c4.52-5.47,6.93-13.19,6.78-21.77,0.12-8.57-2.31-16.29-6.85-21.75a15.73,15.73,0,0,0-24.84.3L12.42,659l266.72-.14,0.11,67.08c0.58,1.34,1.63,2.73,3.26,2.79,3.14,0.11,6,.06,7.95-2.75,1.09-1.57,1.84-3.37,2.85-5,3.06-4.95,9.36-5.49,13.1-1s5.11,10.78,5,16.67c0.12,5.89-1.28,12.25-5,16.69s-10,4-13.1-1c-1-1.63-1.77-3.42-2.86-5-1.95-2.8-4.82-2.84-8-2.72-1.64.06-2.68,1.46-3.26,2.8l-0.15,66.26Z" transform="translate(0.93 1.07)"/><path class="cls-6" d="M12.42,981.85l0.15-55.18a15.73,15.73,0,0,0,24.84.22c4.52-5.47,6.93-13.19,6.78-21.77,0.12-8.57-2.31-16.29-6.85-21.75a15.73,15.73,0,0,0-24.84.3l-0.09-56.53L279.13,827l0.11,67.08c0.58,1.34,1.63,2.73,3.26,2.79,3.14,0.11,6,.06,7.95-2.75,1.09-1.57,1.84-3.37,2.85-5,3.06-4.95,9.36-5.49,13.1-1s5.11,10.78,5,16.67c0.12,5.89-1.28,12.25-5,16.69s-10,4-13.1-1c-1-1.63-1.77-3.42-2.86-5-1.95-2.8-4.82-2.84-8-2.72-1.64.06-2.68,1.46-3.26,2.8l-0.15,66.26Z" transform="translate(0.93 1.07)"/><path class="cls-7" d="M12.29,1150l0.15-55.18a15.73,15.73,0,0,0,24.84.22c4.52-5.47,6.93-13.19,6.78-21.77,0.12-8.57-2.31-16.29-6.85-21.75a16.06,16.06,0,0,0-12.34-5.93,15.92,15.92,0,0,0-12.5,6.23l-0.09-56.53L279,995.18l0.11,67.08c0.58,1.34,1.63,2.73,3.26,2.79,3.14,0.11,6,.06,7.95-2.75,1.09-1.57,1.84-3.37,2.85-5,3.06-4.95,9.36-5.49,13.1-1s5.11,10.78,5,16.67c0.12,5.89-1.28,12.25-5,16.69s-10,4-13.1-1c-1-1.63-1.77-3.42-2.86-5-1.95-2.8-4.82-2.84-8-2.72-1.64.06-2.68,1.46-3.26,2.8L279,1150.07Z" transform="translate(0.93 1.07)"/><path class="cls-8" d="M12.29,1318.21L12.44,1263a15.73,15.73,0,0,0,24.84.22c4.52-5.47,6.93-13.19,6.78-21.77,0.12-8.57-2.31-16.29-6.85-21.75a16.06,16.06,0,0,0-12.34-5.93,15.92,15.92,0,0,0-12.5,6.23l-0.09-56.53,266.72-.14,0.11,67.08c0.58,1.34,1.63,2.73,3.26,2.79,3.14,0.11,6,.06,7.95-2.75,1.09-1.57,1.84-3.37,2.85-5,3.06-4.95,9.36-5.49,13.1-1s5.11,10.78,5,16.67c0.12,5.89-1.28,12.25-5,16.69s-10,4-13.1-1c-1-1.63-1.77-3.42-2.86-5-1.95-2.8-4.82-2.84-8-2.72-1.64.06-2.68,1.46-3.26,2.8L279,1318.25Z" transform="translate(0.93 1.07)"/><text class="cls-10" transform="translate(62.18 186.03)">Discovery</text><rect class="cls-11" x="237.33" y="453.25" width="4.49" height="10.86" rx="1.22" ry="1.22"/><rect class="cls-11" x="244.78" y="450.27" width="4.49" height="13.84" rx="1.22" ry="1.22"/><rect class="cls-11" x="252.23" y="447.71" width="4.49" height="16.4" rx="1.22" ry="1.22"/><rect class="cls-11" x="259.69" y="445.08" width="4.49" height="19.04" rx="1.22" ry="1.22"/><path class="cls-11" d="M237,448.92a66.32,66.32,0,0,0,22.1-8.31l0.61,1.17,2.36-3.71-4.39-.18,0.66,1.26a64.7,64.7,0,0,1-21.61,8.15Z" transform="translate(0.93 1.07)"/><polygon class="cls-11" points="269.57 466.48 265.79 464.3 265.79 465.65 235.36 465.65 235.36 441.31 236.75 441.31 234.53 437.48 232.33 441.31 233.71 441.31 233.71 465.65 233.71 466.48 233.71 467.31 265.79 467.31 265.79 468.67 269.57 466.48"/><path class="cls-11" d="M259.11,625.75c0-3-2.31-5.38-6.95-6.51-0.52-.11-3.1-0.77-3.6-0.91-3.6-.91-4.61-1.48-4.61-2.42s1.32-2.2,4.94-2.2a10.22,10.22,0,0,1,5.17,1.93,1.66,1.66,0,0,0,2.48-.17,3.13,3.13,0,0,0,1.09-1.8c0-1.31-3.11-3.2-6.41-3.87v-2.3a1.21,1.21,0,0,0-1.31-1.07h-1.51a1.21,1.21,0,0,0-1.31,1.07v2.15c-5.16.51-7.89,3.18-7.89,6.36,0,3.76,3.54,5.24,7.49,6.26,0.52,0.14,3.62.91,4.12,1,2.91,0.71,3.54,1.81,3.54,2.53,0,1.24-1.32,2.39-5,2.39-2.58,0-6.1-2.16-6.1-2.16a1.89,1.89,0,0,0-2.69.49,3,3,0,0,0-.65,1.7c0,1.38,3.67,3.21,7.14,3.89v2.3a1.21,1.21,0,0,0,1.31,1.07h1.51a1.21,1.21,0,0,0,1.31-1.07v-2.17C256.68,631.7,259.11,628.83,259.11,625.75Z" transform="translate(0.93 1.07)"/><path class="cls-12" d="M-0.32,905.86q0-6.58,2.14-9.91a7,7,0,0,1,6.24-3.33q4.43,0,6.42,3.27t2,10q0,6.58-2.14,9.91a7,7,0,0,1-6.27,3.33,6.82,6.82,0,0,1-6.36-3.48Q-0.32,912.15-.32,905.86Zm3,0A27.66,27.66,0,0,0,3,910.19a12.68,12.68,0,0,0,1,3.36,5.89,5.89,0,0,0,1.66,2.19,3.77,3.77,0,0,0,2.4.79A4.29,4.29,0,0,0,12.13,914q1.3-2.58,1.3-8.1a31.63,31.63,0,0,0-.27-4.32,12.55,12.55,0,0,0-.91-3.4,5.46,5.46,0,0,0-1.66-2.19,4.09,4.09,0,0,0-2.52-.77,4.26,4.26,0,0,0-4,2.6Q2.71,900.37,2.71,905.86Z" transform="translate(0.93 1.07)"/><path class="cls-12" d="M25.83,916.54A6,6,0,0,0,30,915.08a5.38,5.38,0,0,0,1.65-4.24,4.83,4.83,0,0,0-1.63-4,6.93,6.93,0,0,0-4.48-1.32l-3.07.18V893.06H33.87v2.71H25.2V903l1.57-.07a8.08,8.08,0,0,1,5.71,2,7.44,7.44,0,0,1,2.08,5.67,9,9,0,0,1-.7,3.64A7.56,7.56,0,0,1,32,916.94a8.07,8.07,0,0,1-2.8,1.61,10.56,10.56,0,0,1-3.44.55,18.07,18.07,0,0,1-2.78-.18,11.34,11.34,0,0,1-2.12-.55l0.77-2.49a9.18,9.18,0,0,0,1.81.49A14.61,14.61,0,0,0,25.83,916.54Z" transform="translate(0.93 1.07)"/><path class="cls-11" d="M253.13,969.88a1,1,0,0,1-1,1H246a1,1,0,0,1-1-1h0a1,1,0,0,1,1-1h6.13a1,1,0,0,1,1,1h0Z" transform="translate(0.93 1.07)"/><path class="cls-11" d="M253.13,967.23a1,1,0,0,1-1,1H246a1,1,0,0,1-1-1h0a1,1,0,0,1,1-1h6.13a1,1,0,0,1,1,1h0Z" transform="translate(0.93 1.07)"/><path class="cls-11" d="M250,956.13h-1.94v9.49H250v-9.49Z" transform="translate(0.93 1.07)"/><path class="cls-11" d="M245.67,952.26a1.46,1.46,0,1,0,0,2.92h1.46v-1.46A1.46,1.46,0,0,0,245.67,952.26Z" transform="translate(0.93 1.07)"/><path class="cls-11" d="M253.89,953.72a1.46,1.46,0,1,0-2.92,0v1.46h1.46A1.46,1.46,0,0,0,253.89,953.72Z" transform="translate(0.93 1.07)"/><path class="cls-11" d="M257.1,951.08c-0.66-2.59-3.75-5.39-8.06-5.39s-7.4,2.81-8.06,5.39a7.81,7.81,0,0,0,.9,5.65c0.85,1.65,1.74,3,2.47,4.68a18.49,18.49,0,0,1,.77,3.17,1.15,1.15,0,0,0,1.4,1h0.59v-9.49h-1.46a2.41,2.41,0,1,1,2.41-2.44h0v1.49H250v-1.49h0a2.41,2.41,0,1,1,2.41,2.44H251v9.49h0.59a1.15,1.15,0,0,0,1.4-1,18.44,18.44,0,0,1,.77-3.17c0.74-1.68,1.62-3,2.47-4.68A7.8,7.8,0,0,0,257.1,951.08Z" transform="translate(0.93 1.07)"/><path class="cls-11" d="M249.93,942.67a0.89,0.89,0,0,0-.89-0.89h0a0.89,0.89,0,0,0-.88.89v1.64a0.88,0.88,0,0,0,.88.88h0a0.88,0.88,0,0,0,.89-0.88v-1.64Z" transform="translate(0.93 1.07)"/><path class="cls-11" d="M254.85,944.12a0.88,0.88,0,0,0-.36-1.2h0a0.89,0.89,0,0,0-1.2.36l-0.78,1.44a0.88,0.88,0,0,0,.36,1.2h0a0.88,0.88,0,0,0,1.2-.36Z" transform="translate(0.93 1.07)"/><path class="cls-11" d="M258.47,947a0.88,0.88,0,0,0,.07-1.25h0a0.88,0.88,0,0,0-1.25-.07l-1.22,1.09A0.88,0.88,0,0,0,256,948h0a0.89,0.89,0,0,0,1.25.07Z" transform="translate(0.93 1.07)"/><path class="cls-11" d="M260.38,951.33a0.89,0.89,0,0,0,.71-1h0a0.89,0.89,0,0,0-1-.72l-1.61.29a0.89,0.89,0,0,0-.71,1h0a0.89,0.89,0,0,0,1,.71Z" transform="translate(0.93 1.07)"/><path class="cls-11" d="M260,956.07a0.88,0.88,0,0,0,1-.69h0a0.89,0.89,0,0,0-.69-1l-1.6-.33a0.88,0.88,0,0,0-1,.69h0a0.89,0.89,0,0,0,.69,1Z" transform="translate(0.93 1.07)"/><path class="cls-11" d="M243.13,944.12a0.88,0.88,0,0,1,.36-1.2h0a0.89,0.89,0,0,1,1.2.36l0.78,1.44a0.88,0.88,0,0,1-.36,1.2h0a0.89,0.89,0,0,1-1.2-.36Z" transform="translate(0.93 1.07)"/><path class="cls-11" d="M239.51,947a0.88,0.88,0,0,1-.07-1.25h0a0.88,0.88,0,0,1,1.25-.07l1.22,1.09A0.89,0.89,0,0,1,242,948h0a0.89,0.89,0,0,1-1.25.07Z" transform="translate(0.93 1.07)"/><path class="cls-11" d="M237.6,951.33a0.89,0.89,0,0,1-.71-1h0a0.89,0.89,0,0,1,1-.72l1.61,0.29a0.88,0.88,0,0,1,.71,1h0a0.88,0.88,0,0,1-1,.71Z" transform="translate(0.93 1.07)"/><path class="cls-11" d="M238,956.07a0.89,0.89,0,0,1-1-.69h0a0.89,0.89,0,0,1,.69-1l1.6-.33a0.89,0.89,0,0,1,1,.69h0a0.89,0.89,0,0,1-.69,1Z" transform="translate(0.93 1.07)"/><path class="cls-11" d="M243,1114.1a2.41,2.41,0,1,1-2.41-2.42,2.41,2.41,0,0,1,2.41,2.42h0Zm15.57,5.27-9.52-2.72v-2.38l9.52-2.72v7.83ZM247,1116.65h1.36v-2.38H247v2.38Zm14.55,2.65a5.45,5.45,0,0,0-.11-7.72l-0.4.4a4.91,4.91,0,0,1,.11,6.93Zm-0.28-3.81a3.53,3.53,0,0,1-1,2.5l0.41,0.4a4.15,4.15,0,0,0,1.19-2.91,4.1,4.1,0,0,0-1.3-3l-0.4.4a3.55,3.55,0,0,1,1.14,2.6h0Zm-1.31,0a2.24,2.24,0,0,1-.65,1.57l0.4,0.41a2.84,2.84,0,0,0-.11-4.06l-0.4.41a2.23,2.23,0,0,1,.75,1.67h0Zm-16.14,1.8a0.84,0.84,0,0,0-.27,0h-0.83l-1.55,3.14v-1.53a0.53,0.53,0,0,0-.52-0.53h-0.12a0.53,0.53,0,0,0-.52.53v1.53l-1.55-3.14h-0.86a2.33,2.33,0,0,0-2.33,2.34v8.17a0.53,0.53,0,0,0,.52.53h0.82a0.53,0.53,0,0,0,.52-0.53v-6.59h0.57v17.4a0.52,0.52,0,0,0,.52.52h1.57a0.53,0.53,0,0,0,.52-0.52v-10.27h0.56v10.27a0.53,0.53,0,0,0,.53.52H243a0.52,0.52,0,0,0,.52-0.52v-10.8l0-6.74a0.72,0.72,0,0,1,.66-0.41,0.64,0.64,0,0,1,.24,0l2.34,1.7,0,0a0.89,0.89,0,0,0,.47.2,1,1,0,0,0,.37.08,0.93,0.93,0,0,0,.94-0.93v-4.29a0.54,0.54,0,0,0-.53-0.53h-0.81a0.52,0.52,0,0,0-.52.52v2.25l-2-2,0,0,0,0a1,1,0,0,0-.31-0.21,1.38,1.38,0,0,0-.55-0.13h0Zm-3.89,0v0.14a0.6,0.6,0,0,0,.6.6h0.14a0.59,0.59,0,0,0,.6-0.6v-0.14H240Zm1,7.2a0.29,0.29,0,0,1-.29.29,0.28,0.28,0,0,1-.29-0.29,0.29,0.29,0,0,1,.29-0.29,0.3,0.3,0,0,1,.29.29h0Zm0-1.72a0.3,0.3,0,0,1-.29.29,0.29,0.29,0,0,1-.29-0.29,0.28,0.28,0,0,1,.29-0.29,0.29,0.29,0,0,1,.29.29h0Z" transform="translate(0.93 1.07)"/><path class="cls-12" d="M-0.45,1074q0-6.58,2.14-9.91a7,7,0,0,1,6.24-3.33q4.43,0,6.42,3.27t2,10q0,6.59-2.14,9.91a7,7,0,0,1-6.27,3.33,6.82,6.82,0,0,1-6.37-3.48Q-0.45,1080.34-.45,1074Zm3,0a27.68,27.68,0,0,0,.31,4.34,12.63,12.63,0,0,0,1,3.37,5.87,5.87,0,0,0,1.66,2.2,3.77,3.77,0,0,0,2.4.79,4.29,4.29,0,0,0,4.08-2.58q1.3-2.58,1.3-8.1a31.49,31.49,0,0,0-.27-4.32,12.54,12.54,0,0,0-.91-3.4,5.47,5.47,0,0,0-1.66-2.19,4.09,4.09,0,0,0-2.53-.77,4.26,4.26,0,0,0-4,2.6Q2.59,1068.56,2.59,1074Z" transform="translate(0.93 1.07)"/><path class="cls-12" d="M35.92,1079.13a9.63,9.63,0,0,1-.51,3.17,7.64,7.64,0,0,1-1.5,2.6,6.91,6.91,0,0,1-2.45,1.76,8.23,8.23,0,0,1-3.33.64,8.8,8.8,0,0,1-3.29-.59,6.81,6.81,0,0,1-2.52-1.74,7.78,7.78,0,0,1-1.63-2.84,12.13,12.13,0,0,1-.57-3.88,22.79,22.79,0,0,1,.93-6.68,17.92,17.92,0,0,1,2.58-5.32,13.92,13.92,0,0,1,3.9-3.68,12.29,12.29,0,0,1,4.88-1.78l0.62,2.34a10.77,10.77,0,0,0-3.73,1.39,12,12,0,0,0-2.94,2.52,13.44,13.44,0,0,0-2.07,3.37,15.34,15.34,0,0,0-1.1,3.84,5.44,5.44,0,0,1,2-1.81,6.57,6.57,0,0,1,3.4-.82,7.26,7.26,0,0,1,5.4,2A7.51,7.51,0,0,1,35.92,1079.13Zm-3,.29a5.62,5.62,0,0,0-1.21-3.92,4.83,4.83,0,0,0-3.73-1.32,5.39,5.39,0,0,0-3.09.88,5,5,0,0,0-1.81,2,6.12,6.12,0,0,0-.07.84v0.73a8.18,8.18,0,0,0,.31,2.23,5.77,5.77,0,0,0,1,2,5.13,5.13,0,0,0,1.63,1.39,4.68,4.68,0,0,0,2.29.53,4.48,4.48,0,0,0,1.92-.4,4.58,4.58,0,0,0,1.48-1.1,5,5,0,0,0,1-1.68A6.34,6.34,0,0,0,32.88,1079.42Z" transform="translate(0.93 1.07)"/><path class="cls-12" d="M-0.45,1242.22q0-6.47,2.1-9.75a6.84,6.84,0,0,1,6.13-3.27q4.35,0,6.31,3.22t2,9.8q0,6.47-2.1,9.75a6.88,6.88,0,0,1-6.17,3.27,6.7,6.7,0,0,1-6.26-3.42Q-0.45,1248.41-.45,1242.22Zm3,0a27.21,27.21,0,0,0,.31,4.26,12.42,12.42,0,0,0,1,3.31,5.78,5.78,0,0,0,1.64,2.16,3.71,3.71,0,0,0,2.36.77,4.22,4.22,0,0,0,4-2.53q1.27-2.54,1.28-8a31,31,0,0,0-.27-4.24,12.29,12.29,0,0,0-.9-3.34,5.38,5.38,0,0,0-1.64-2.16,4,4,0,0,0-2.48-.75,4.19,4.19,0,0,0-4,2.55Q2.54,1236.83,2.54,1242.22Z" transform="translate(0.93 1.07)"/><path class="cls-12" d="M21.56,1254.81l9-21.07,1.58-1.76-2.12.32H19.8v-2.66h15v1l-10.39,24.2H21.56Z" transform="translate(0.93 1.07)"/><rect class="cls-12" x="16.3" y="128.84" width="280.67" height="1.05"/><text class="cls-13" transform="translate(62.68 207.19)">First step is to find out <tspan x="0" y="18">everything we can about </tspan><tspan x="0" y="36">your product and the people </tspan><tspan x="0" y="54">who you are trying to </tspan><tspan x="0" y="72">deliver it to.</tspan></text><path class="cls-11" d="M264.16,295.46L257,289l1.61-1.59a1.19,1.19,0,0,0,0-1.68l-0.59-.6a12.38,12.38,0,1,0-11.82,8.71h0a12.39,12.39,0,0,0,3.58-.52l0.59,0.6a1.19,1.19,0,0,0,1.68,0l1.6-1.59,6.44,7.22a1.19,1.19,0,0,0,1.68,0l2.39-2.37A1.19,1.19,0,0,0,264.16,295.46Zm-18-3a11,11,0,1,1,8.84-4.42l-2.28,2.26a11,11,0,0,1-6.56,2.16h0Z" transform="translate(0.93 1.07)"/><path class="cls-12" d="M-0.93,233.47q0-6.75,2.19-10.16a7.13,7.13,0,0,1,6.39-3.41q4.54,0,6.58,3.36t2,10.22q0,6.75-2.19,10.16A7.17,7.17,0,0,1,7.66,247a7,7,0,0,1-6.53-3.56Q-0.93,239.92-.93,233.47Zm3.11,0a28.34,28.34,0,0,0,.32,4.44,13,13,0,0,0,1,3.45,6,6,0,0,0,1.71,2.25,3.86,3.86,0,0,0,2.46.81,4.4,4.4,0,0,0,4.18-2.64q1.33-2.64,1.33-8.31a32.31,32.31,0,0,0-.28-4.43,12.86,12.86,0,0,0-.94-3.49,5.62,5.62,0,0,0-1.71-2.25,4.19,4.19,0,0,0-2.59-.79,4.37,4.37,0,0,0-4.14,2.66Q2.19,227.84,2.19,233.47Z" transform="translate(0.93 1.07)"/><path class="cls-12" d="M21.95,243.82H27.2V225.66l0.37-2.21-1.5,1.76-4.13,3-1.43-1.91,8.25-6.38h1.35v23.93h5.14v2.78H21.95v-2.78Z" transform="translate(0.93 1.07)"/><path class="cls-12" d="M-0.9,400.47q0-6.68,2.17-10.07A7.07,7.07,0,0,1,7.61,387q4.5,0,6.52,3.32t2,10.12q0,6.69-2.17,10.07a7.1,7.1,0,0,1-6.37,3.38,6.92,6.92,0,0,1-6.46-3.53Q-0.9,406.86-.9,400.47Zm3.08,0a28.11,28.11,0,0,0,.32,4.4,12.82,12.82,0,0,0,1,3.42,6,6,0,0,0,1.69,2.23,3.83,3.83,0,0,0,2.43.8,4.36,4.36,0,0,0,4.14-2.62q1.32-2.62,1.32-8.23a32.07,32.07,0,0,0-.28-4.38,12.71,12.71,0,0,0-.93-3.45,5.55,5.55,0,0,0-1.69-2.23,4.16,4.16,0,0,0-2.56-.78,4.33,4.33,0,0,0-4.11,2.64Q2.18,394.9,2.19,400.47Z" transform="translate(0.93 1.07)"/><path class="cls-12" d="M34.32,393.37a12.12,12.12,0,0,1-.72,4,26.17,26.17,0,0,1-1.89,4.14,41.67,41.67,0,0,1-2.62,4.07q-1.45,2-2.9,3.77L24.36,411v0.15l2.38-.41h8.1v2.75H20.05v-1.08q0.82-.86,2-2.12t2.4-2.8q1.24-1.54,2.45-3.27a39.16,39.16,0,0,0,2.19-3.51,22,22,0,0,0,1.58-3.53,10.28,10.28,0,0,0,.59-3.31,4.48,4.48,0,0,0-1-3A3.94,3.94,0,0,0,27,389.62a6.9,6.9,0,0,0-2.75.58,10.59,10.59,0,0,0-2.3,1.32l-1.23-2.12a9.63,9.63,0,0,1,3.08-1.75,11.37,11.37,0,0,1,3.83-.63,8,8,0,0,1,2.82.46,5.83,5.83,0,0,1,2.08,1.32,5.68,5.68,0,0,1,1.3,2A7.09,7.09,0,0,1,34.32,393.37Z" transform="translate(0.93 1.07)"/><path class="cls-12" d="M0,569.49q0-6.61,2.15-10a7,7,0,0,1,6.26-3.34q4.45,0,6.45,3.29t2,10q0,6.61-2.15,10a7,7,0,0,1-6.3,3.34A6.85,6.85,0,0,1,2,579.3Q0,575.81,0,569.49Zm3,0a27.79,27.79,0,0,0,.31,4.35,12.68,12.68,0,0,0,1,3.38A5.88,5.88,0,0,0,6,579.43a3.79,3.79,0,0,0,2.41.79,4.31,4.31,0,0,0,4.1-2.59q1.3-2.59,1.3-8.14a31.57,31.57,0,0,0-.28-4.33,12.6,12.6,0,0,0-.92-3.42,5.51,5.51,0,0,0-1.67-2.21,4.12,4.12,0,0,0-2.54-.77,4.28,4.28,0,0,0-4.06,2.61Q3,564,3,569.49Z" transform="translate(0.93 1.07)"/><path class="cls-12" d="M27,580.22a7.08,7.08,0,0,0,2.31-.37,5.06,5.06,0,0,0,3-2.79,5.28,5.28,0,0,0,.44-2.17,4.65,4.65,0,0,0-1.52-3.82,6.45,6.45,0,0,0-4.21-1.25H24.4v-1.07l5.29-8.16L31.38,559l-2.39.37H21.71v-2.72H34.83v1.07L29,566.48l-1.29,1.07v0.07l1.25-.26a7.79,7.79,0,0,1,2.72.53,6.19,6.19,0,0,1,2.17,1.43,6.67,6.67,0,0,1,1.43,2.24,8,8,0,0,1,.51,3,8.47,8.47,0,0,1-.7,3.53,7.5,7.5,0,0,1-1.89,2.59,8.21,8.21,0,0,1-2.81,1.6,10.46,10.46,0,0,1-3.42.55,15.61,15.61,0,0,1-3-.26,12.52,12.52,0,0,1-2.32-.66l0.77-2.61a10.05,10.05,0,0,0,2,.68A11.25,11.25,0,0,0,27,580.22Z" transform="translate(0.93 1.07)"/><text class="cls-14" transform="translate(62.18 353.03)">Set Goals</text><text class="cls-13" transform="translate(62.68 374.19)">W<tspan x="14.81" y="0">e help you define realistic </tspan><tspan x="0" y="18">marketing goals taking into </tspan><tspan x="0" y="36">account your current </tspan><tspan x="0" y="54">situation, vision, and </tspan><tspan x="0" y="72">resources.</tspan></text><text class="cls-14" transform="translate(62.18 522.06)">Budgeting</text><text class="cls-13" transform="translate(62.68 543.23)">Large or small, everyone <tspan x="0" y="18">is working on a budget. </tspan><tspan x="0" y="36">Creating a budget ensure </tspan><tspan x="0" y="54">we bring forward a </tspan><tspan x="0" y="72">feasible strateg</tspan><tspan class="cls-15" x="108.51" y="72">y</tspan><tspan x="115.32" y="72">.</tspan></text><text class="cls-14" transform="translate(62.18 689.25)">Budgeting</text><text class="cls-13" transform="translate(62.68 710.41)">Large or small, everyone <tspan x="0" y="18">is working on a budget. </tspan><tspan x="0" y="36">Creating a budget ensure </tspan><tspan x="0" y="54">we bring forward a </tspan><tspan x="0" y="72">feasible strateg</tspan><tspan class="cls-15" x="108.51" y="72">y</tspan><tspan x="115.32" y="72">.</tspan></text><path class="cls-11" d="M255.41,798.35H242.34a3.27,3.27,0,0,0-3.27,3.27,1.09,1.09,0,0,0,1.09,1.09h17.43a1.09,1.09,0,0,0,1.09-1.09A3.27,3.27,0,0,0,255.41,798.35Zm4.75-16.52-8-4.79v-3.38a11.08,11.08,0,0,0-10.89,11.26v9l2.18,2.25h10.89l2.18-2.25-3.31-4.74s-2-4,0-3.73l4.69,0.6a1.88,1.88,0,0,0,2-.93l0.75-1.33A1.46,1.46,0,0,0,260.16,781.83Z" transform="translate(0.93 1.07)"/><path class="cls-12" d="M-0.34,737.68q0-6.61,2.15-10a7,7,0,0,1,6.26-3.34q4.44,0,6.45,3.29t2,10q0,6.61-2.15,10A7,7,0,0,1,8.07,751a6.85,6.85,0,0,1-6.39-3.49Q-0.34,744-.34,737.68Zm3,0A27.85,27.85,0,0,0,3,742a12.72,12.72,0,0,0,1,3.38,5.89,5.89,0,0,0,1.67,2.2,3.78,3.78,0,0,0,2.41.79,4.31,4.31,0,0,0,4.1-2.59q1.3-2.59,1.3-8.14a31.56,31.56,0,0,0-.28-4.33,12.56,12.56,0,0,0-.92-3.41,5.49,5.49,0,0,0-1.67-2.2A4.11,4.11,0,0,0,8.07,727,4.28,4.28,0,0,0,4,729.56Q2.71,732.17,2.71,737.68Z" transform="translate(0.93 1.07)"/><path class="cls-12" d="M37.35,742.64H33v7.9H30.15v-7.9H18.84v-1.21l12.19-17h2v15.64h4.33v2.57Zm-7.2-10.58,0.37-3H30.4l-1.29,2.5-5.18,7-1.76,1.8,2.57-.29h5.4v-8Z" transform="translate(0.93 1.07)"/><text class="cls-14" transform="translate(62.18 857.43)">Creating</text><text class="cls-13" transform="translate(62.68 878.6)">Now it<tspan x="44.45" y="0">’</tspan><tspan x="47.72" y="0">s time to make it </tspan><tspan x="0" y="18">all click with great </tspan><tspan x="0" y="36">messaging and imagery </tspan><tspan x="0" y="54">in each media format </tspan><tspan x="0" y="72">the strategy calls fo</tspan><tspan x="137.84" y="72">r</tspan><tspan x="142.29" y="72">.</tspan></text><text class="cls-14" transform="translate(62.06 1025.61)">Impliment</text><text class="cls-13" transform="translate(62.55 1046.78)">It all comes together here <tspan x="0" y="18">by putting everything out </tspan><tspan x="0" y="36">for the world to see.</tspan></text><text class="cls-14" transform="translate(62.06 1193.79)">Analyze</text><text class="cls-13" transform="translate(62.55 1214.96)">W<tspan x="14.81" y="0">e gather as much </tspan><tspan x="0" y="18">information as we can </tspan><tspan x="0" y="36">on how your campaign </tspan><tspan x="0" y="54">is working and make </tspan><tspan x="0" y="72">adjustments as </tspan><tspan x="0" y="90">needed.</tspan></text><path class="cls-16" d="M247,1292.3l-8,8a11.47,11.47,0,0,1,.39-15.87l0.12-.12,0.09-.09A11.27,11.27,0,0,1,247,1281v11.29h0Zm12.51-8.81-9.65,9.65,9.65,9.65,0.23-.23a13.61,13.61,0,0,0,0-18.84l-0.23-.23h0Zm-20.21,19.79,0.23,0.24a13.62,13.62,0,0,0,9.42,3.78l0.47,0a13.6,13.6,0,0,0,9.19-4l-9.65-9.65-9.65,9.65h0Zm10.49-24.59a13.78,13.78,0,0,1,9.26,4l-9.59,9.65v-13.67l0.33,0h0Zm-1.56,1.2h-0.67a12.6,12.6,0,0,0-8.75,3.49l-0.14.13-0.08.07a12.64,12.64,0,0,0,0,17.93l0.46,0.41,9.19-9.14v-12.89Z" transform="translate(0.93 1.07)"/></svg>