<?xml version="1.0" encoding="UTF-8" standalone="no"?>
<!-- Created with Inkscape (http://www.inkscape.org/) -->

<svg
   xmlns:dc="http://purl.org/dc/elements/1.1/"
   xmlns:cc="http://creativecommons.org/ns#"
   xmlns:rdf="http://www.w3.org/1999/02/22-rdf-syntax-ns#"
   xmlns:svg="http://www.w3.org/2000/svg"
   xmlns="http://www.w3.org/2000/svg"
   xmlns:sodipodi="http://sodipodi.sourceforge.net/DTD/sodipodi-0.dtd"
   xmlns:inkscape="http://www.inkscape.org/namespaces/inkscape"
   version="1.1"
   width="880.49481"
   height="128.46875"
   id="svg1067701"
   inkscape:version="0.48.5 r10040"
   sodipodi:docname="our-methodology.svg">
  <sodipodi:namedview
     pagecolor="#ffffff"
     bordercolor="#666666"
     borderopacity="1"
     objecttolerance="10"
     gridtolerance="10"
     guidetolerance="10"
     inkscape:pageopacity="0"
     inkscape:pageshadow="2"
     inkscape:window-width="1918"
     inkscape:window-height="938"
     id="namedview10"
     showgrid="false"
     fit-margin-top="0"
     fit-margin-left="0"
     fit-margin-right="0"
     fit-margin-bottom="0"
     inkscape:zoom="2.1848093"
     inkscape:cx="389.55254"
     inkscape:cy="83.229172"
     inkscape:window-x="1360"
     inkscape:window-y="0"
     inkscape:window-maximized="0"
     inkscape:current-layer="text426678" />
  <defs
     id="defs1067703">
    <clipPath
       id="clipPath427012">
      <path
         d="m 224.083,2031.121 64.325,0 0,34.199 -64.325,0 0,-34.199 z"
         id="path427014"
         inkscape:connector-curvature="0" />
    </clipPath>
  </defs>
  <metadata
     id="metadata1067706">
    <rdf:RDF>
      <cc:Work
         rdf:about="">
        <dc:format>image/svg+xml</dc:format>
        <dc:type
           rdf:resource="http://purl.org/dc/dcmitype/StillImage" />
        <dc:title />
      </cc:Work>
    </rdf:RDF>
  </metadata>
  <g
     transform="matrix(0.9971767,0.07509081,-0.07509081,0.9971767,-2.4114493,-2.3749952)"
     style="font-size:15px"
     id="text426678">
    <path
       style="font-size:89.99934387px;font-variant:normal;font-weight:bold;font-stretch:normal;writing-mode:lr-tb;fill:#000000;fill-opacity:1;fill-rule:nonzero;stroke:none;font-family:Myriad Pro;-inkscape-font-specification:MyriadPro-Bold"
       d="M 34.9375,2.375 C 26.203154,2.3792767 19.011764,4.816349 13.375,9.6875 6.9621614,15.256843 3.3610595,23.36413 2.5625,33.96875 1.7661264,44.544221 4.1185272,53.064408 9.625,59.53125 15.160658,66.000305 23.168415,69.616479 33.65625,70.40625 44.173222,71.198213 52.649616,68.819289 59.0625,63.25 65.475257,57.680716 69.078559,49.606716 69.875,39.03125 70.673492,28.426625 68.318891,19.904401 62.8125,13.4375 57.305974,6.9707043 49.298217,3.3232805 38.78125,2.53125 37.47027,2.4325371 36.185264,2.374389 34.9375,2.375 z m 40,4.0625 -2.96875,39.21875 c -0.697381,9.260838 1.102207,16.340811 5.40625,21.21875 4.304012,4.877947 11.224192,7.660026 20.71875,8.375 9.52371,0.717167 16.76395,-1.009127 21.75,-5.1875 4.98594,-4.178371 7.83381,-10.895416 8.53125,-20.15625 l 2.96875,-39.21875 -16.875,-1.25 L 111.5,48.65625 c -0.40702,5.404598 -1.57325,9.203342 -3.53125,11.40625 -1.92667,2.175917 -4.90602,3.116096 -8.9375,2.8125 -4.002342,-0.301379 -6.829272,-1.682893 -8.4375,-4.125 -1.576871,-2.469095 -2.15701,-6.407901 -1.75,-11.8125 L 91.8125,7.71875 74.9375,6.4375 z m 63,4.75 L 133,76.625 l 16.875,1.25 1.875,-24.75 4.78125,0.375 c 2.74608,0.206815 4.89168,0.960304 6.4375,2.28125 1.57496,1.323186 3.04584,3.66956 4.40625,7.0625 l 6.75,16.875 17.96875,1.34375 -7.78125,-19.28125 c -1.58596,-3.909375 -3.23568,-6.833406 -4.9375,-8.8125 -1.67052,-2.006061 -3.638,-3.36283 -5.90625,-4.0625 4.30574,-0.997813 7.62301,-2.818339 9.90625,-5.4375 2.31233,-2.616896 3.61185,-6.082547 3.9375,-10.40625 0.47072,-6.251736 -1.18633,-10.960428 -5,-14.15625 -3.78457,-3.193508 -10.00693,-5.132214 -18.625,-5.78125 l -25.75,-1.9375 z M 35.96875,14.71875 c 0.611118,-0.01366 1.232289,-0.01714 1.875,0.03125 5.170822,0.389436 9.045934,2.613845 11.59375,6.625 2.547708,4.011245 3.550372,9.449294 3.03125,16.34375 C 51.951715,44.58405 50.119687,49.821844 47,53.40625 43.88021,56.99068 39.733325,58.576892 34.5625,58.1875 29.420812,57.800324 25.578985,55.604964 23.03125,51.59375 20.483461,47.582564 19.482997,42.146553 20,35.28125 c 0.519154,-6.894453 2.348983,-12.134285 5.46875,-15.71875 2.729745,-3.136325 6.222175,-4.748108 10.5,-4.84375 z m 176.90625,2.125 -4.9375,65.40625 16,1.21875 3.59375,-47.84375 12.4375,36.40625 10.6875,0.78125 17.71875,-34.125 -3.59375,47.84375 15.9375,1.21875 4.9375,-65.4375 -21.4375,-1.625 -17.625,33.90625 -12.25,-36.15625 -21.46875,-1.59375 z m 77.71875,5.84375 -4.9375,65.4375 46.5,3.5 0.96875,-12.75 -29.625,-2.25 1.125,-14.96875 26.9375,2.03125 0.96875,-12.78125 -26.9375,-2 0.90625,-12.1875 25.5,1.90625 21.71875,1.65625 -3.9375,52.65625 16.84375,1.28125 3.96875,-52.6875 20.15625,1.5 -3.9375,52.6875 16.875,1.28125 2.09375,-27.75 24.875,1.875 -2.09375,27.75 16.875,1.28125 4.9375,-65.4375 L 433.5,33.4375 431.625,58.375 406.71875,56.5 l 1.875,-24.9375 -15.34375,-1.125 0,-0.03125 -57.125,-4.28125 -45.53125,-3.4375 z m -136.71875,2 7.09375,0.53125 c 3.53485,0.266239 6.01513,1.10024 7.4375,2.5 1.4515,1.402055 2.06809,3.582721 1.84375,6.5625 -0.22664,3.009075 -1.16521,5.114504 -2.8125,6.3125 -1.61816,1.200267 -4.1839,1.672473 -7.71875,1.40625 L 152.625,41.46875 153.875,24.6875 z M 481.5,36 c -8.73435,0.0043 -15.92573,2.472599 -21.5625,7.34375 -6.41283,5.569343 -10.01395,13.64538 -10.8125,24.25 -0.79638,10.575471 1.55603,19.095658 7.0625,25.5625 5.53566,6.469055 13.54341,10.08523 24.03125,10.875 10.51697,0.79196 18.99336,-1.58696 25.40625,-7.15625 6.41276,-5.569284 10.01606,-13.643284 10.8125,-24.21875 C 517.23599,62.051626 514.88139,53.529401 509.375,47.0625 503.86847,40.595704 495.86072,36.948281 485.34375,36.15625 484.03277,36.057537 482.74776,35.999389 481.5,36 z m 40,4.0625 -4.90625,65.4375 17.78125,1.34375 c 9.81585,0.73917 17.23641,0.59518 22.25,-0.4375 5.01568,-1.0619 9.39534,-3.15642 13.15625,-6.28125 3.2896,-2.71961 5.81339,-5.943443 7.59375,-9.6875 0.87385,-1.849859 1.59018,-3.839137 2.125,-5.96875 0.51459,7.38011 2.869,13.53842 7.09375,18.5 5.53565,6.46905 13.54341,10.11648 24.03125,10.90625 10.51697,0.79196 18.99336,-1.61821 25.40625,-7.1875 6.41276,-5.56928 10.01605,-13.643284 10.8125,-24.21875 0.79848,-10.604625 -1.55611,-19.126849 -7.0625,-25.59375 -5.50653,-6.466796 -13.51428,-10.114219 -24.03125,-10.90625 -10.48784,-0.789703 -18.96424,1.62047 -25.40625,7.1875 -4.88653,4.243792 -8.1233,9.957572 -9.75,17.125 -0.21056,-2.17728 -0.62752,-4.231373 -1.21875,-6.1875 -1.19959,-3.968392 -3.21729,-7.537102 -6.0625,-10.71875 -3.22133,-3.650553 -7.22692,-6.386538 -12,-8.15625 -4.74177,-1.796607 -12.0673,-3.064468 -22,-3.8125 L 521.5,40.0625 z m -38.96875,8.28125 c 0.61112,-0.01366 1.23229,-0.01714 1.875,0.03125 5.17083,0.389436 9.04593,2.613844 11.59375,6.625 2.54771,4.011245 3.55038,9.449294 3.03125,16.34375 -0.51703,6.865301 -2.31782,12.103094 -5.4375,15.6875 -3.1198,3.58443 -7.26667,5.170642 -12.4375,4.78125 -5.14169,-0.387176 -8.98352,-2.582536 -11.53125,-6.59375 -2.54779,-4.011186 -3.5795,-9.447197 -3.0625,-16.3125 0.51916,-6.894453 2.34898,-12.134285 5.46875,-15.71875 2.72974,-3.136325 6.22217,-4.748108 10.5,-4.84375 z m 169.375,1.5625 -4.9375,65.40625 46.5,3.5 0.84375,-11.21875 c 0.78761,1.29878 1.66396,2.52215 2.65625,3.6875 5.53566,6.46906 13.54341,10.11648 24.03125,10.90625 10.51697,0.79196 18.99337,-1.61821 25.40625,-7.1875 4.80957,-4.17696 8.03711,-9.75706 9.6875,-16.75 0.67975,7.06043 3.21291,13.05159 7.625,17.96875 5.91104,6.55608 14.32192,10.24193 25.21875,11.0625 4.82026,0.36298 9.55104,0.21275 14.15625,-0.46875 4.6051,-0.68151 9.07664,-1.89681 13.4375,-3.625 l 2.375,-31.46875 -26.3125,-1.96875 -0.84375,11.3125 10.3125,0.78125 -0.96875,12.6875 c -1.23302,0.37723 -2.61958,0.63069 -4.15625,0.75 -1.50536,0.0923 -3.1222,0.0695 -4.875,-0.0625 -6.45632,-0.48617 -11.30939,-2.74865 -14.53125,-6.78125 C 774.30934,104.40493 772.9786,98.92373 773.5,92 c 0.52576,-6.982095 2.72085,-12.18961 6.625,-15.65625 3.9355,-3.49356 9.28075,-4.974677 16,-4.46875 3.62248,0.27284 7.17114,1.050724 10.6875,2.34375 3.54547,1.295325 7.06688,3.119617 10.5625,5.46875 L 818.40625,66.28125 838.25,102 l -2.0625,27.5625 16.875,1.28125 2.0625,-27.5625 27.78125,-36 -18.5,-1.375 L 847.75,88.09375 834.625,63.65625 816.15625,62.25 l 2.125,3.8125 c -3.37951,-1.841738 -7.01252,-3.300139 -10.90625,-4.40625 -3.91156,-1.117116 -8.05343,-1.859651 -12.40625,-2.1875 -11.27662,-0.849101 -20.37165,1.503655 -27.3125,7.0625 -5.19832,4.163339 -8.68696,9.726752 -10.4375,16.6875 -0.5833,-7.177642 -2.93271,-13.181074 -7.0625,-18.03125 -5.50652,-6.466795 -13.51428,-10.114219 -24.03125,-10.90625 -10.48784,-0.789703 -18.96423,1.620471 -25.40625,7.1875 -6.41283,5.569343 -10.01394,13.645381 -10.8125,24.25 -0.59511,7.902866 0.57541,14.67278 3.5,20.28125 l -28.59375,-2.15625 3.96875,-52.6875 -16.875,-1.25 z m -114.5,4.1875 6.0625,0.46875 c 6.92366,0.521429 12.07011,2.61969 15.4375,6.28125 3.36728,3.661647 4.80082,8.733289 4.3125,15.21875 -0.49064,6.514732 -2.68467,11.325724 -6.59375,14.46875 -3.87996,3.145254 -9.26179,4.456689 -16.15625,3.9375 l -6.0625,-0.4375 3,-39.9375 z m 75.53125,4.0625 c 0.61112,-0.01366 1.23229,0.01411 1.875,0.0625 5.17083,0.389436 9.04594,2.582595 11.59375,6.59375 2.54771,4.011245 3.55038,9.449294 3.03125,16.34375 -0.51703,6.865301 -2.34907,12.103094 -5.46875,15.6875 -3.11979,3.58443 -7.23542,5.17064 -12.40625,4.78125 -5.14168,-0.38718 -9.01476,-2.582535 -11.5625,-6.59375 -2.54779,-4.011186 -3.54826,-9.447198 -3.03125,-16.3125 0.51915,-6.894454 2.34898,-12.134285 5.46875,-15.71875 2.72975,-3.136325 6.22218,-4.748107 10.5,-4.84375 z m 110.375,8.3125 c 0.61112,-0.01366 1.23229,0.01411 1.875,0.0625 5.17082,0.389435 9.04593,2.582594 11.59375,6.59375 2.54771,4.011245 3.55038,9.449294 3.03125,16.34375 -0.51703,6.865301 -2.31782,12.10309 -5.4375,15.6875 -3.1198,3.58443 -7.26668,5.17064 -12.4375,4.78125 -5.14169,-0.38718 -8.98351,-2.58254 -11.53125,-6.59375 -2.54778,-4.011186 -3.5795,-9.447197 -3.0625,-16.3125 0.51916,-6.894453 2.34899,-12.134284 5.46875,-15.71875 2.72975,-3.136325 6.22217,-4.748108 10.5,-4.84375 z"
       transform="matrix(0.9971767,-0.07509081,0.07509081,0.9971767,0,0)"
       id="path2992"
       inkscape:connector-curvature="0" />
  </g>
</svg>
