<?xml version="1.0" encoding="UTF-8" standalone="no"?>
<!-- Created with Inkscape (http://www.inkscape.org/) -->

<svg
   xmlns:dc="http://purl.org/dc/elements/1.1/"
   xmlns:cc="http://creativecommons.org/ns#"
   xmlns:rdf="http://www.w3.org/1999/02/22-rdf-syntax-ns#"
   xmlns:svg="http://www.w3.org/2000/svg"
   xmlns="http://www.w3.org/2000/svg"
   xmlns:xlink="http://www.w3.org/1999/xlink"
   version="1.1"
   width="196.08804"
   height="377.66196"
   id="svg6180">
  <defs
     id="defs6182">
    <linearGradient
       x1="0"
       y1="0"
       x2="1"
       y2="0"
       id="linearGradient1488"
       gradientUnits="userSpaceOnUse"
       gradientTransform="matrix(-1.33e-5,-303.18408,-303.18408,1.33e-5,184.05029,1708.9814)"
       spreadMethod="pad">
      <stop
         id="stop1490"
         style="stop-color:#646464;stop-opacity:1"
         offset="0" />
      <stop
         id="stop1492"
         style="stop-color:#0a0a0a;stop-opacity:1"
         offset="1" />
    </linearGradient>
    <clipPath
       id="clipPath1744">
      <path
         d="m 0,4744.391 1358.188,0 L 1358.188,0 0,0 0,4744.391 z"
         id="path1746" />
    </clipPath>
    <clipPath
       id="clipPath1752">
      <path
         d="m 145.606,1696.44 76.889,0 0,-251.24 -76.889,0 0,251.24 z"
         id="path1754" />
    </clipPath>
    <linearGradient
       x1="0"
       y1="0"
       x2="1"
       y2="0"
       id="linearGradient1760"
       gradientUnits="userSpaceOnUse"
       gradientTransform="matrix(-1.12e-5,-256.43588,-256.43588,1.12e-5,184.05029,1696.4424)"
       spreadMethod="pad">
      <stop
         id="stop1762"
         style="stop-color:#f5f5f5;stop-opacity:1"
         offset="0" />
      <stop
         id="stop1764"
         style="stop-color:#eaeaea;stop-opacity:1"
         offset="1" />
    </linearGradient>
    <linearGradient
       x1="0"
       y1="0"
       x2="1"
       y2="0"
       id="linearGradient5572"
       xlink:href="#linearGradient1408"
       gradientUnits="userSpaceOnUse"
       gradientTransform="matrix(-1.32e-5,-302.12793,-302.12793,1.32e-5,218.08643,1708.6104)"
       spreadMethod="pad" />
    <linearGradient
       x1="0"
       y1="0"
       x2="1"
       y2="0"
       id="linearGradient1408"
       gradientUnits="userSpaceOnUse"
       gradientTransform="matrix(-1.32e-5,-302.12793,-302.12793,1.32e-5,218.08643,1708.6104)"
       spreadMethod="pad">
      <stop
         id="stop1410"
         style="stop-color:#000000;stop-opacity:1"
         offset="0" />
      <stop
         id="stop1412"
         style="stop-color:#0a0a0a;stop-opacity:1"
         offset="1" />
    </linearGradient>
    <linearGradient
       x1="0"
       y1="0"
       x2="1"
       y2="0"
       id="linearGradient5570"
       xlink:href="#linearGradient1428"
       gradientUnits="userSpaceOnUse"
       gradientTransform="matrix(-1.13e-5,-258.75021,-258.75021,1.13e-5,218.08643,1697.8936)"
       spreadMethod="pad" />
    <linearGradient
       x1="0"
       y1="0"
       x2="1"
       y2="0"
       id="linearGradient1428"
       gradientUnits="userSpaceOnUse"
       gradientTransform="matrix(-1.13e-5,-258.75021,-258.75021,1.13e-5,218.08643,1697.8936)"
       spreadMethod="pad">
      <stop
         id="stop1430"
         style="stop-color:#000000;stop-opacity:1"
         offset="0" />
      <stop
         id="stop1432"
         style="stop-color:#0a0a0a;stop-opacity:1"
         offset="1" />
    </linearGradient>
    <linearGradient
       x1="0"
       y1="0"
       x2="1"
       y2="0"
       id="linearGradient5566"
       xlink:href="#linearGradient1468"
       gradientUnits="userSpaceOnUse"
       gradientTransform="matrix(-1.13e-5,-258.7699,-258.7699,1.13e-5,218.08643,1697.8945)"
       spreadMethod="pad" />
    <linearGradient
       x1="0"
       y1="0"
       x2="1"
       y2="0"
       id="linearGradient1468"
       gradientUnits="userSpaceOnUse"
       gradientTransform="matrix(-1.13e-5,-258.7699,-258.7699,1.13e-5,218.08643,1697.8945)"
       spreadMethod="pad">
      <stop
         id="stop1470"
         style="stop-color:#000000;stop-opacity:1"
         offset="0" />
      <stop
         id="stop1472"
         style="stop-color:#0a0a0a;stop-opacity:1"
         offset="1" />
    </linearGradient>
    <linearGradient
       x1="0"
       y1="0"
       x2="1"
       y2="0"
       id="linearGradient3206"
       xlink:href="#linearGradient1520"
       gradientUnits="userSpaceOnUse"
       gradientTransform="matrix(4e-7,-8.5846386,8.5846386,4e-7,266.03418,1417.8496)"
       spreadMethod="pad" />
    <linearGradient
       x1="0"
       y1="0"
       x2="1"
       y2="0"
       id="linearGradient1520"
       gradientUnits="userSpaceOnUse"
       gradientTransform="matrix(4e-7,-8.5846386,8.5846386,4e-7,266.03418,1417.8496)"
       spreadMethod="pad">
      <stop
         id="stop1522"
         style="stop-color:#323232;stop-opacity:1"
         offset="0" />
      <stop
         id="stop1524"
         style="stop-color:#1e1e1e;stop-opacity:1"
         offset="1" />
    </linearGradient>
    <clipPath
       id="clipPath1532">
      <path
         d="m 0,4744.391 1358.188,0 L 1358.188,0 0,0 0,4744.391 z"
         id="path1534" />
    </clipPath>
    <linearGradient
       x1="0"
       y1="0"
       x2="1"
       y2="0"
       id="linearGradient5560"
       xlink:href="#linearGradient1552"
       gradientUnits="userSpaceOnUse"
       gradientTransform="matrix(-4e-7,-8.5846386,-8.5846386,4e-7,174.93018,1428.5879)"
       spreadMethod="pad" />
    <linearGradient
       x1="0"
       y1="0"
       x2="1"
       y2="0"
       id="linearGradient1552"
       gradientUnits="userSpaceOnUse"
       gradientTransform="matrix(-4e-7,-8.5846386,-8.5846386,4e-7,174.93018,1428.5879)"
       spreadMethod="pad">
      <stop
         id="stop1554"
         style="stop-color:#323232;stop-opacity:1"
         offset="0" />
      <stop
         id="stop1556"
         style="stop-color:#1e1e1e;stop-opacity:1"
         offset="1" />
    </linearGradient>
    <clipPath
       id="clipPath1564">
      <path
         d="m 0,4744.391 1358.188,0 L 1358.188,0 0,0 0,4744.391 z"
         id="path1566" />
    </clipPath>
    <linearGradient
       x1="0"
       y1="0"
       x2="1"
       y2="0"
       id="linearGradient5558"
       xlink:href="#linearGradient1584"
       gradientUnits="userSpaceOnUse"
       gradientTransform="matrix(-4e-7,-10.05708,-10.05708,4e-7,222.78467,1429.3975)"
       spreadMethod="pad" />
    <linearGradient
       x1="0"
       y1="0"
       x2="1"
       y2="0"
       id="linearGradient1584"
       gradientUnits="userSpaceOnUse"
       gradientTransform="matrix(-4e-7,-10.05708,-10.05708,4e-7,222.78467,1429.3975)"
       spreadMethod="pad">
      <stop
         id="stop1586"
         style="stop-color:#323232;stop-opacity:1"
         offset="0" />
      <stop
         id="stop1588"
         style="stop-color:#1e1e1e;stop-opacity:1"
         offset="1" />
    </linearGradient>
    <linearGradient
       x1="0"
       y1="0"
       x2="1"
       y2="0"
       id="linearGradient5556"
       xlink:href="#linearGradient1604"
       gradientUnits="userSpaceOnUse"
       gradientTransform="matrix(-4e-7,-10.056443,-10.056443,4e-7,240.88623,1428.8662)"
       spreadMethod="pad" />
    <linearGradient
       x1="0"
       y1="0"
       x2="1"
       y2="0"
       id="linearGradient1604"
       gradientUnits="userSpaceOnUse"
       gradientTransform="matrix(-4e-7,-10.056443,-10.056443,4e-7,240.88623,1428.8662)"
       spreadMethod="pad">
      <stop
         id="stop1606"
         style="stop-color:#323232;stop-opacity:1"
         offset="0" />
      <stop
         id="stop1608"
         style="stop-color:#1e1e1e;stop-opacity:1"
         offset="1" />
    </linearGradient>
    <linearGradient
       x1="0"
       y1="0"
       x2="1"
       y2="0"
       id="linearGradient5554"
       xlink:href="#linearGradient1624"
       gradientUnits="userSpaceOnUse"
       gradientTransform="matrix(-4e-7,-8.5398016,-8.5398016,4e-7,202.01025,1428.3086)"
       spreadMethod="pad" />
    <linearGradient
       x1="0"
       y1="0"
       x2="1"
       y2="0"
       id="linearGradient1624"
       gradientUnits="userSpaceOnUse"
       gradientTransform="matrix(-4e-7,-8.5398016,-8.5398016,4e-7,202.01025,1428.3086)"
       spreadMethod="pad">
      <stop
         id="stop1626"
         style="stop-color:#323232;stop-opacity:1"
         offset="0" />
      <stop
         id="stop1628"
         style="stop-color:#1e1e1e;stop-opacity:1"
         offset="1" />
    </linearGradient>
    <linearGradient
       x1="0"
       y1="0"
       x2="1"
       y2="0"
       id="linearGradient5552"
       xlink:href="#linearGradient1644"
       gradientUnits="userSpaceOnUse"
       gradientTransform="matrix(-4e-7,-8.5398016,-8.5398016,4e-7,199.896,1428.3096)"
       spreadMethod="pad" />
    <linearGradient
       x1="0"
       y1="0"
       x2="1"
       y2="0"
       id="linearGradient1644"
       gradientUnits="userSpaceOnUse"
       gradientTransform="matrix(-4e-7,-8.5398016,-8.5398016,4e-7,199.896,1428.3096)"
       spreadMethod="pad">
      <stop
         id="stop1646"
         style="stop-color:#323232;stop-opacity:1"
         offset="0" />
      <stop
         id="stop1648"
         style="stop-color:#1e1e1e;stop-opacity:1"
         offset="1" />
    </linearGradient>
    <linearGradient
       x1="0"
       y1="0"
       x2="1"
       y2="0"
       id="linearGradient5550"
       xlink:href="#linearGradient1698"
       gradientUnits="userSpaceOnUse"
       gradientTransform="matrix(-2.3e-6,-52.838867,-52.838867,2.3e-6,297.40576,1623.917)"
       spreadMethod="pad" />
    <linearGradient
       x1="0"
       y1="0"
       x2="1"
       y2="0"
       id="linearGradient1698"
       gradientUnits="userSpaceOnUse"
       gradientTransform="matrix(-2.3e-6,-52.838867,-52.838867,2.3e-6,297.40576,1623.917)"
       spreadMethod="pad">
      <stop
         id="stop1700"
         style="stop-color:#000000;stop-opacity:1"
         offset="0" />
      <stop
         id="stop1702"
         style="stop-color:#e6e7e8;stop-opacity:1"
         offset="0.30000001" />
      <stop
         id="stop1704"
         style="stop-color:#000000;stop-opacity:1"
         offset="1" />
    </linearGradient>
    <clipPath
       id="clipPath1712">
      <path
         d="m 0,4744.391 1358.188,0 L 1358.188,0 0,0 0,4744.391 z"
         id="path1714" />
    </clipPath>
    <linearGradient
       x1="0"
       y1="0"
       x2="1"
       y2="0"
       id="linearGradient7081"
       xlink:href="#linearGradient1488"
       gradientUnits="userSpaceOnUse"
       gradientTransform="matrix(-1.33e-5,-303.18408,-303.18408,1.33e-5,184.05029,1708.9814)"
       spreadMethod="pad" />
    <linearGradient
       x1="0"
       y1="0"
       x2="1"
       y2="0"
       id="linearGradient7083"
       xlink:href="#linearGradient1760"
       gradientUnits="userSpaceOnUse"
       gradientTransform="matrix(-1.12e-5,-256.43588,-256.43588,1.12e-5,184.05029,1696.4424)"
       spreadMethod="pad" />
  </defs>
  <metadata
     id="metadata6185">
    <rdf:RDF>
      <cc:Work
         rdf:about="">
        <dc:format>image/svg+xml</dc:format>
        <dc:type
           rdf:resource="http://purl.org/dc/dcmitype/StillImage" />
        <dc:title></dc:title>
      </cc:Work>
    </rdf:RDF>
  </metadata>
  <g
     transform="translate(982.4514,786.555)"
     id="layer1">
    <g
       transform="matrix(1.2500024,0,0,-1.25,-1158.0542,1349.2107)"
       id="g1396">
      <g
         id="g1398">
        <g
           id="g1404">
          <g
             id="g1406">
            <path
               d="m 226.69,1708.61 -75.561,0 c -5.87,0 -10.647,-4.777 -10.647,-10.649 l 0,0 0,-280.83 c 0,-5.871 4.777,-10.648 10.647,-10.648 l 0,0 133.914,0 c 5.872,0 10.649,4.777 10.649,10.648 l 0,0 0,280.83 c 0,5.872 -4.777,10.649 -10.649,10.649 l 0,0 -58.353,0 z"
               id="path1414"
               style="fill:url(#linearGradient5572);stroke:none" />
          </g>
        </g>
      </g>
    </g>
    <g
       transform="matrix(1.2500024,0,0,-1.25,-1158.0542,1349.2107)"
       id="g1416">
      <g
         id="g1418">
        <g
           id="g1424">
          <g
             id="g1426">
            <path
               d="m 146.798,1697.168 c -1.062,0 -1.446,-0.864 -1.446,-1.445 l 0,0 0,-254.244 c 0,-1.1 0.857,-1.497 1.433,-1.497 l 0,0 142.603,0 c 1.05,0 1.432,0.895 1.432,1.497 l 0,0 0,254.244 c 0,1.06 -0.864,1.445 -1.445,1.445 l 0,0 -142.577,0 z m -0.72,-255.689 0,243.891 0,10.353 c 0,0.12 0.035,0.719 0.72,0.719 l 0,0 142.577,0 c 0.12,0 0.72,-0.034 0.72,-0.719 l 0,0 0,-10.353 0,-243.888 c -0.002,-0.13 -0.044,-0.775 -0.707,-0.775 l 0,0 -142.603,0 c -0.118,0 -0.707,0.037 -0.707,0.772"
               id="path1434"
               style="fill:url(#linearGradient5570);stroke:none" />
          </g>
        </g>
      </g>
    </g>
    <g
       transform="matrix(1.2500024,0,0,-1.25,-1158.0542,1349.2107)"
       id="g1436"
       style="fill:#1a1a1a">
      <g
         id="g1438"
         style="fill:#1a1a1a">
        <g
           id="g1444"
           style="fill:#1a1a1a">
          <g
             id="g1446"
             style="fill:#1a1a1a">
            <path
               d="m 146.078,1685.37 0,-243.891 c 0,-0.735 0.589,-0.772 0.707,-0.772 l 0,0 142.603,0 c 0.663,0 0.705,0.645 0.707,0.775 l 0,0 0,243.888 -144.017,0 z"
               id="path1454"
               style="fill:#1a1a1a;stroke:none" />
          </g>
        </g>
      </g>
    </g>
    <g
       transform="matrix(1.2500024,0,0,-1.25,-1158.0542,1349.2107)"
       id="g1456">
      <g
         id="g1458">
        <g
           id="g1464">
          <g
             id="g1466">
            <path
               d="m 146.798,1696.442 c -0.685,0 -0.72,-0.599 -0.72,-0.719 l 0,0 0,-10.353 144.017,0 0,10.353 c 0,0.685 -0.6,0.719 -0.72,0.719 l 0,0 -142.577,0 z"
               id="path1474"
               style="fill:url(#linearGradient5566);stroke:none" />
          </g>
        </g>
      </g>
    </g>
    <g
       transform="matrix(1.2500024,0,0,-1.25,-1158.1542,1336.7106)"
       id="g1508">
      <g
         id="g1510">
        <g
           id="g1516">
          <g
             id="g1518">
            <path
               d="m 262.402,1417.078 0,-7.202 c 0,-0.509 0.275,-0.569 0.482,-0.569 l 0,0 c 0.166,0 0.375,0.048 0.573,0.136 l 0,0 c 0.437,0.189 5.178,3.128 5.831,3.589 l 0,0 c 0.174,0.124 0.382,0.321 0.378,0.565 l 0,0 c -0.002,0.234 -0.19,0.484 -0.546,0.723 l 0,0 c -0.484,0.327 -5.214,3.092 -5.752,3.365 l 0,0 c -0.134,0.065 -0.273,0.101 -0.402,0.101 l 0,0 c -0.358,0 -0.564,-0.258 -0.564,-0.708"
               id="path1526"
               style="fill:url(#linearGradient3206);stroke:none" />
          </g>
        </g>
      </g>
    </g>
    <g
       transform="matrix(1.2500024,0,0,-1.25,-1158.0542,1349.2107)"
       id="g1528">
      <g
         clip-path="url(#clipPath1532)"
         id="g1530">
        <g
           transform="translate(264.2021,1421.7568)"
           id="g1536">
          <path
             d="m 0,0 c -0.087,0 -0.202,0.025 -0.202,0.24 l 0,3.039 c 0,0.191 0.086,0.299 0.238,0.299 0.053,0 0.112,-0.014 0.168,-0.043 C 0.431,3.421 2.428,2.254 2.632,2.116 2.782,2.015 2.863,1.909 2.863,1.811 2.864,1.708 2.776,1.624 2.703,1.572 2.428,1.378 0.427,0.138 0.242,0.058 0.159,0.021 0.07,0 0,0"
             id="path1538"
             style="fill:#0a0a0a;fill-opacity:1;fill-rule:nonzero;stroke:none" />
        </g>
      </g>
    </g>
    <g
       transform="matrix(1.2500024,0,0,-1.25,-1158.0542,1349.2107)"
       id="g1540">
      <g
         id="g1542">
        <g
           id="g1548">
          <g
             id="g1550">
            <path
               d="m 177.598,1428.424 c -0.538,-0.273 -5.27,-3.038 -5.754,-3.364 l 0,0 c -0.354,-0.239 -0.544,-0.489 -0.546,-0.724 l 0,0 c -0.004,-0.243 0.205,-0.442 0.38,-0.564 l 0,0 c 0.651,-0.461 5.394,-3.401 5.831,-3.59 l 0,0 c 0.197,-0.088 0.406,-0.136 0.572,-0.136 l 0,0 c 0.207,0 0.481,0.059 0.481,0.57 l 0,0 0,7.2 c 0,0.452 -0.206,0.709 -0.564,0.709 l 0,0 c -0.127,0 -0.268,-0.035 -0.4,-0.101"
               id="path1558"
               style="fill:url(#linearGradient5560);stroke:none" />
          </g>
        </g>
      </g>
    </g>
    <g
       transform="matrix(1.2500024,0,0,-1.25,-1158.0542,1349.2107)"
       id="g1560">
      <g
         clip-path="url(#clipPath1564)"
         id="g1562">
        <g
           transform="translate(176.7622,1422.4961)"
           id="g1568">
          <path
             d="m 0,0 c 0.087,0 0.203,0.025 0.203,0.24 l 0,3.039 c 0,0.191 -0.087,0.299 -0.238,0.299 -0.054,0 -0.112,-0.014 -0.169,-0.043 C -0.431,3.421 -2.428,2.254 -2.631,2.116 -2.782,2.015 -2.861,1.909 -2.863,1.811 -2.864,1.708 -2.776,1.624 -2.703,1.572 -2.427,1.378 -0.426,0.138 -0.242,0.058 -0.159,0.021 -0.07,0 0,0"
             id="path1570"
             style="fill:#0a0a0a;fill-opacity:1;fill-rule:nonzero;stroke:none" />
        </g>
      </g>
    </g>
    <g
       transform="matrix(1.2500024,0,0,-1.25,-1158.0542,1349.2107)"
       id="g1572">
      <g
         id="g1574">
        <g
           id="g1580">
          <g
             id="g1582">
            <path
               d="m 225.321,1428.971 0.002,-1.901 -2.537,1.901 -5.37,-4.027 1.34,0 0,-5.345 2.686,0 0,3.208 c 0,0 0,1.341 1.344,1.341 l 0,0 c 1.341,0 1.341,-1.341 1.341,-1.341 l 0,0 0,-3.208 2.685,0 0,5.345 1.342,0 -1.342,1.007 0,3.02 -1.491,0 z"
               id="path1590"
               style="fill:url(#linearGradient5558);stroke:none" />
          </g>
        </g>
      </g>
    </g>
    <g
       transform="matrix(1.2500024,0,0,-1.25,-1158.0542,1349.2107)"
       id="g1592">
      <g
         id="g1594">
        <g
           id="g1600">
          <g
             id="g1602">
            <path
               d="m 237.521,1427.003 c -1.288,-1.287 -1.288,-3.375 0,-4.661 l 0,0 c 1.189,-1.19 3.059,-1.278 4.352,-0.273 l 0,0 c 0.006,-0.01 0.012,-0.013 0.018,-0.019 l 0,0 2.622,-2.622 c 0.162,-0.161 0.423,-0.161 0.584,0 l 0,0 c 0.16,0.161 0.16,0.421 0,0.582 l 0,0 -2.622,2.623 c -0.006,0.01 -0.013,0.011 -0.02,0.018 l 0,0 c 1.007,1.293 0.918,3.164 -0.272,4.352 l 0,0 c -0.644,0.644 -1.487,0.966 -2.331,0.966 l 0,0 c -0.843,0 -1.687,-0.322 -2.331,-0.966 m 0.583,-4.078 c -0.966,0.965 -0.966,2.53 0,3.496 l 0,0 c 0.965,0.964 2.531,0.964 3.497,0 l 0,0 c 0.964,-0.966 0.964,-2.531 0,-3.496 l 0,0 c -0.483,-0.483 -1.116,-0.724 -1.749,-0.724 l 0,0 c -0.633,0 -1.265,0.241 -1.748,0.724"
               id="path1610"
               style="fill:url(#linearGradient5556);stroke:none" />
          </g>
        </g>
      </g>
    </g>
    <g
       transform="matrix(1.2500024,0,0,-1.25,-1158.0542,1349.2107)"
       id="g1612">
      <g
         id="g1614">
        <g
           id="g1620">
          <g
             id="g1622">
            <path
               d="m 197.782,1428.308 0,-1.057 7.398,0 0,-5.284 1.057,0 0,6.341 -8.455,0 z"
               id="path1630"
               style="fill:url(#linearGradient5554);stroke:none" />
          </g>
        </g>
      </g>
    </g>
    <g
       transform="matrix(1.2500024,0,0,-1.25,-1158.0542,1349.2107)"
       id="g1632">
      <g
         id="g1634">
        <g
           id="g1640">
          <g
             id="g1642">
            <path
               d="m 195.669,1419.853 8.455,0 0,6.342 -8.455,0 0,-6.342 z m 1.056,5.284 6.342,0 0,-4.227 -6.342,0 0,4.227 z"
               id="path1650"
               style="fill:url(#linearGradient5552);stroke:none" />
          </g>
        </g>
      </g>
    </g>
    <g
       transform="matrix(1.2500024,0,0,-1.25,-1159.1542,1349.2107)"
       id="g1686">
      <g
         id="g1688">
        <g
           id="g1694">
          <g
             id="g1696">
            <path
               d="m 296.955,1571.078 c 0.902,0 0.902,1.652 0.902,1.652 l 0,0 0,49.536 c 0,1.651 -0.902,1.651 -0.902,1.651 l 0,0 0,-52.839 z"
               id="path1706"
               style="fill:url(#linearGradient5550);stroke:none" />
          </g>
        </g>
      </g>
    </g>
    <path
       d="m -787.95961,-680.68555 c 0,0 1.1275,0 1.1275,2.0625 l 0,61.9225 c 0,0 0,2.06375 -1.1275,2.06375 l 0,-66.04875 z"
       id="path1718"
       style="fill:none;stroke:#2b2b2b;stroke-width:0.93750089;stroke-linecap:butt;stroke-linejoin:miter;stroke-miterlimit:4;stroke-opacity:1;stroke-dasharray:none" />
  </g>
</svg>
