<?xml version="1.0" encoding="UTF-8" standalone="no"?>
<!-- Created with Inkscape (http://www.inkscape.org/) -->

<svg
   xmlns:dc="http://purl.org/dc/elements/1.1/"
   xmlns:cc="http://creativecommons.org/ns#"
   xmlns:rdf="http://www.w3.org/1999/02/22-rdf-syntax-ns#"
   xmlns:svg="http://www.w3.org/2000/svg"
   xmlns="http://www.w3.org/2000/svg"
   version="1.1"
   width="93.75"
   height="93.75"
   id="svg429815">
  <defs
     id="defs429817" />
  <metadata
     id="metadata429820">
    <rdf:RDF>
      <cc:Work
         rdf:about="">
        <dc:format>image/svg+xml</dc:format>
        <dc:type
           rdf:resource="http://purl.org/dc/dcmitype/StillImage" />
        <dc:title></dc:title>
      </cc:Work>
    </rdf:RDF>
  </metadata>
  <g
     transform="translate(689.73214,-702.63004)"
     id="layer1">
    <path
       d="m -657.54464,738.48879 25.93875,0 0,-2.34375 -25.93875,0 0,2.34375 z m 42.48375,-15.065 -38.74125,0 c -5.9325,0 -10.76125,4.82625 -10.76125,10.76125 l 0,48.7 21.88875,0 0,0.91125 c 0,5.93375 4.8275,10.76 10.76125,10.76 5.9325,0 10.76,-4.82625 10.76,-10.76 l 0,-49.61125 c 0,-4.56125 2.44875,-8.55375 6.0925,-10.76125 m 19.07875,10.76125 0,0.91375 -23.3475,0 0,48.6975 c 0,6.94 -5.64625,12.58375 -12.58375,12.58375 l -45.235,0 c -6.93875,0 -12.58375,-5.64375 -12.58375,-12.58375 l 0,-0.91125 23.345,0 0,-48.7 c 0,-1.1275 0.16375,-2.21625 0.44375,-3.25625 l -10.76625,10.765 -5.21,-5.21125 26.0425,-26.0425 5.21,5.2125 -6.39,6.39 c 1.04,-0.27875 2.1275,-0.4425 3.255,-0.4425 l 45.235,0 c 6.93875,0 12.585,5.64625 12.585,12.585 m -61.5625,19.30375 25.93875,0 0,-2.34375 -25.93875,0 0,2.34375 z m 0,-7.5 25.93875,0 0,-2.34375 -25.93875,0 0,2.34375 z m 0,15 25.93875,0 0,-2.34375 -25.93875,0 0,2.34375 z m 14.6875,-53.155 -5.2125,-5.20375 -5.2025,5.20375 5.2025,5.215 5.2125,-5.215 z m -36.46,36.46 -10.415,5.215 5.21,-10.41875 5.205,5.20375 z"
       id="path426542"
       style="fill:#afafaf;fill-opacity:1;fill-rule:nonzero;stroke:none" />
  </g>
</svg>
