<?xml version="1.0" encoding="UTF-8" standalone="no"?>
<!-- Created with Inkscape (http://www.inkscape.org/) -->

<svg
   xmlns:dc="http://purl.org/dc/elements/1.1/"
   xmlns:cc="http://creativecommons.org/ns#"
   xmlns:rdf="http://www.w3.org/1999/02/22-rdf-syntax-ns#"
   xmlns:svg="http://www.w3.org/2000/svg"
   xmlns="http://www.w3.org/2000/svg"
   xmlns:xlink="http://www.w3.org/1999/xlink"
   version="1.1"
   width="553.73914"
   height="509.85178"
   id="svg25591">
  <defs
     id="defs25593">
    <clipPath
       id="clipPath13028">
      <path
         d="m 570.373,3622.02 150.493,0 0,-150.49 -150.493,0 0,150.49 z"
         id="path13030" />
    </clipPath>
    <linearGradient
       x1="0"
       y1="0"
       x2="1"
       y2="0"
       id="linearGradient25191"
       xlink:href="#linearGradient13036"
       gradientUnits="userSpaceOnUse"
       gradientTransform="matrix(-107.67687,104.29696,-104.29696,-107.67687,698.96289,3495.1064)"
       spreadMethod="pad" />
    <linearGradient
       x1="0"
       y1="0"
       x2="1"
       y2="0"
       id="linearGradient13036"
       gradientUnits="userSpaceOnUse"
       gradientTransform="matrix(-107.67687,104.29696,-104.29696,-107.67687,698.96289,3495.1064)"
       spreadMethod="pad">
      <stop
         id="stop13038"
         style="stop-color:#929497;stop-opacity:1"
         offset="0" />
      <stop
         id="stop13040"
         style="stop-color:#ffffff;stop-opacity:1"
         offset="1" />
    </linearGradient>
    <clipPath
       id="clipPath12338">
      <path
         d="m 330.966,3829.25 347.188,0 0,-347.18 -347.188,0 0,347.18 z"
         id="path12340" />
    </clipPath>
    <linearGradient
       x1="0"
       y1="0"
       x2="1"
       y2="0"
       id="linearGradient25189"
       xlink:href="#linearGradient12346"
       gradientUnits="userSpaceOnUse"
       gradientTransform="matrix(-248.4158,240.61818,-240.61818,-248.4158,627.62598,3536.459)"
       spreadMethod="pad" />
    <linearGradient
       x1="0"
       y1="0"
       x2="1"
       y2="0"
       id="linearGradient12346"
       gradientUnits="userSpaceOnUse"
       gradientTransform="matrix(-248.4158,240.61818,-240.61818,-248.4158,627.62598,3536.459)"
       spreadMethod="pad">
      <stop
         id="stop12348"
         style="stop-color:#929497;stop-opacity:1"
         offset="0" />
      <stop
         id="stop12350"
         style="stop-color:#ffffff;stop-opacity:1"
         offset="1" />
    </linearGradient>
  </defs>
  <metadata
     id="metadata25596">
    <rdf:RDF>
      <cc:Work
         rdf:about="">
        <dc:format>image/svg+xml</dc:format>
        <dc:type
           rdf:resource="http://purl.org/dc/dcmitype/StillImage" />
        <dc:title></dc:title>
      </cc:Work>
    </rdf:RDF>
  </metadata>
  <g
     transform="translate(-443.13042,819.70654)"
     id="layer1">
    <g
       transform="matrix(1.415923,0,0,-1.415923,688.92253,-392.71835)"
       id="g12314">
      <path
         d="m 0,0 c 70.676,0 127.971,57.295 127.971,127.971 0,70.677 -57.295,127.974 -127.971,127.974 -70.676,0 -127.971,-57.297 -127.971,-127.974 C -127.971,57.295 -70.676,0 0,0"
         id="path12316"
         style="fill:#53b848;fill-opacity:1;fill-rule:nonzero;stroke:none" />
    </g>
    <g
       transform="matrix(1.415923,0,0,-1.415923,607.42753,-400.06905)"
       id="g12318">
      <path
         d="m 0,0 c 12.14,4.373 22.625,8.143 28.447,18.245 4.448,7.716 2.98,16.698 -1.35,23.339 0.522,-14.363 -17.301,-15.924 -27.2,-19.792 8.656,12.201 1.702,19.12 9.427,26.522 1.642,1.579 3.682,2.419 5.781,2.649 -2.664,0.904 -5.394,1.344 -7.827,1.299 C -19.729,47.771 -20.339,23.478 -21.852,-9.465 -13.592,-3.724 -12.378,-4.452 0,0"
         id="path12320"
         style="fill:#4a4a49;fill-opacity:1;fill-rule:nonzero;stroke:none" />
    </g>
    <g
       transform="matrix(1.415923,0,0,-1.415923,711.70943,-556.78725)"
       id="g12322">
      <path
         d="M 0,0 C -13.018,10.209 -13.983,30.718 -2.153,45.807 9.676,60.897 29.82,64.858 42.839,54.653 55.857,44.448 56.82,23.939 44.994,8.85 33.163,-6.237 13.021,-10.2 0,0 m 25.929,-46.079 c 11.38,7.689 22.376,17.4 31.733,29.334 36.442,46.494 46.356,99.568 22.141,118.553 C 55.586,120.785 6.414,98.488 -30.032,51.997 -39.389,40.06 -46.191,27.062 -50.94,14.177 -67.081,23.492 -88.028,19.768 -99.857,4.675 l -14.529,-18.537 20.046,-15.709 34.27,-2.799 c -0.112,-4.514 0.034,-8.734 0.4,-12.584 l 30.266,-23.722 c 3.823,0.567 7.959,1.433 12.31,2.618 l 10.903,-32.611 20.044,-15.718 14.53,18.536 c 11.828,15.092 10.444,36.322 -2.454,49.772"
         id="path12324"
         style="fill:#4a4a49;fill-opacity:1;fill-rule:nonzero;stroke:none" />
    </g>
    <g
       transform="matrix(1.415923,0,0,-1.415923,746.62013,-601.32375)"
       id="g12326">
      <path
         d="m 0,0 c 7.508,-5.885 9.749,-16.264 6.487,-25.951 2.767,1.762 5.334,4.045 7.524,6.842 C 23.023,-7.61 22.289,8.01 12.371,15.787 2.452,23.559 -12.893,20.541 -21.905,9.043 -24.096,6.25 -25.704,3.213 -26.75,0.102 -18.124,5.584 -7.508,5.885 0,0"
         id="path12328"
         style="fill:#4a4a49;fill-opacity:1;fill-rule:nonzero;stroke:none" />
    </g>
    <g
       transform="matrix(1.415923,0,0,-1.415923,511.28163,-573.91505)"
       id="g12330">
      <path
         d="M 0,0 C 0,69.289 56.171,125.464 125.459,125.464 194.75,125.464 250.921,69.289 250.921,0 250.921,-69.291 194.75,-125.462 125.459,-125.462 56.171,-125.462 0,-69.291 0,0 m -48.132,0 c 0,-95.873 77.721,-173.595 173.594,-173.595 95.871,0 173.594,77.722 173.594,173.595 0,95.875 -77.723,173.591 -173.594,173.591 C 29.589,173.591 -48.132,95.875 -48.132,0"
         id="path12332"
         style="fill:#f4f5f5;fill-opacity:1;fill-rule:nonzero;stroke:none" />
    </g>
    <g
       transform="matrix(1.415923,0,0,-1.415923,-23.82117,4605.5644)"
       id="g12334">
      <g
         id="g12336" />
      <g
         id="g12352">
        <g
           clip-path="url(#clipPath12338)"
           id="g12354"
           style="opacity:0.27999902">
          <g
             id="g12356">
            <g
               id="g12358">
              <g
                 id="g12360">
                <g
                   id="g12362">
                  <path
                     d="m 379.098,3655.663 c 0,69.288 56.172,125.464 125.46,125.464 69.291,0 125.462,-56.176 125.462,-125.464 0,-69.292 -56.171,-125.462 -125.462,-125.462 -69.288,0 -125.46,56.17 -125.46,125.462 m -48.132,0 c 0,-95.874 77.721,-173.595 173.595,-173.595 95.871,0 173.593,77.721 173.593,173.595 0,95.874 -77.722,173.591 -173.593,173.591 -95.874,0 -173.595,-77.717 -173.595,-173.591"
                     id="path12364"
                     style="fill:url(#linearGradient25189);stroke:none" />
                </g>
              </g>
            </g>
          </g>
        </g>
      </g>
    </g>
    <g
       transform="matrix(1.415923,0,0,-1.415923,890.32653,-337.85425)"
       id="g12366">
      <path
         d="m 0,0 c 30.631,0 55.468,24.837 55.468,55.469 0,30.633 -24.837,55.465 -55.468,55.465 -30.634,0 -55.468,-24.832 -55.468,-55.465 C -55.468,24.837 -30.634,0 0,0"
         id="path12368"
         style="fill:#00a651;fill-opacity:1;fill-rule:nonzero;stroke:none" />
    </g>
    <g
       transform="matrix(1.415923,0,0,-1.415923,813.32943,-416.39365)"
       id="g13020">
      <path
         d="M 0,0 C 0,30.034 24.345,54.379 54.379,54.379 84.413,54.379 108.76,30.034 108.76,0 108.76,-30.03 84.413,-54.381 54.379,-54.381 24.345,-54.381 0,-30.03 0,0 m -20.867,0 c 0,-41.553 33.691,-75.243 75.246,-75.243 41.555,0 75.246,33.69 75.246,75.243 0,41.557 -33.691,75.247 -75.246,75.247 -41.555,0 -75.246,-33.69 -75.246,-75.247"
         id="path13022"
         style="fill:#f4f5f5;fill-opacity:1;fill-rule:nonzero;stroke:none" />
    </g>
    <g
       transform="matrix(1.415923,0,0,-1.415923,-23.82117,4605.5644)"
       id="g13024">
      <g
         id="g13026" />
      <g
         id="g13042">
        <g
           clip-path="url(#clipPath13028)"
           id="g13044"
           style="opacity:0.27999902">
          <g
             id="g13046">
            <g
               id="g13048">
              <g
                 id="g13050">
                <g
                   id="g13052">
                  <path
                     d="m 591.24,3546.773 c 0,30.035 24.345,54.379 54.38,54.379 30.033,0 54.38,-24.344 54.38,-54.379 0,-30.03 -24.347,-54.38 -54.38,-54.38 -30.035,0 -54.38,24.35 -54.38,54.38 m -20.867,0 c 0,-41.552 33.691,-75.243 75.247,-75.243 41.554,0 75.246,33.691 75.246,75.243 0,41.557 -33.692,75.248 -75.246,75.248 -41.556,0 -75.247,-33.691 -75.247,-75.248"
                     id="path13054"
                     style="fill:url(#linearGradient25191);stroke:none" />
                </g>
              </g>
            </g>
          </g>
        </g>
      </g>
    </g>
  </g>
</svg>
